{
    "asset": {
        "version": "2.0",
        "generator": "Open Asset Import Library (assimp v5.2.cf7d3637)"
    },
    "extensionsUsed": [
        "KHR_materials_volume",
        "FB_ngon_encoding"
    ],
    "accessors": [
        {
            "bufferView": 0,
            "byteOffset": 0,
            "componentType": 5126,
            "count": 1499988,
            "type": "VEC3",
            "max": [
                0.298665851354599,
                0.47275489568710329,
                0.3773163855075836
            ],
            "min": [
                -0.30252474546432497,
                -0.4755132794380188,
                -0.3838249742984772
            ]
        },
        {
            "bufferView": 1,
            "byteOffset": 0,
            "componentType": 5126,
            "count": 1499988,
            "type": "VEC3",
            "max": [
                0.9999777674674988,
                1.0,
                0.9999998807907105
            ],
            "min": [
                -0.9999973773956299,
                -0.999971866607666,
                -0.999996542930603
            ]
        },
        {
            "bufferView": 2,
            "byteOffset": 0,
            "componentType": 5126,
            "count": 1499988,
            "type": "VEC2",
            "max": [
                0.9918190240859985,
                0.9999616146087647
            ],
            "min": [
                0.00015604110376443714,
                0.0001246929168701172
            ]
        },
        {
            "bufferView": 3,
            "byteOffset": 0,
            "componentType": 5125,
            "count": 1499988,
            "type": "SCALAR",
            "max": [
                1499987
            ],
            "min": [
                0
            ]
        }
    ],
    "buffers": [
        {
            "byteLength": 53999568,
            "uri": "result.bin"
        }
    ],
    "bufferViews": [
        {
            "buffer": 0,
            "byteOffset": 0,
            "byteLength": 17999856,
            "target": 34962
        },
        {
            "buffer": 0,
            "byteOffset": 17999856,
            "byteLength": 17999856,
            "target": 34962
        },
        {
            "buffer": 0,
            "byteOffset": 35999712,
            "byteLength": 11999904,
            "target": 34962
        },
        {
            "buffer": 0,
            "byteOffset": 47999616,
            "byteLength": 5999952,
            "target": 34963
        }
    ],
    "images": [
        {
            "uri": "data:image/jpeg;base64,"
        },
        {
            "uri": "data:image/jpeg;base64,"
        },
        {
            "uri": "data:image/jpeg;base64,"
        }
    ],
    "materials": [
        {
            "name": "tripo_material_5f0239ce-24d4-40f7-a43a-b473359daecb",
            "pbrMetallicRoughness": {
                "baseColorTexture": {
                    "index": 0
                },
                "metallicRoughnessTexture": {
                    "index": 1
                }
            },
            "normalTexture": {
                "index": 2
            }
        },
        {
            "name": "material"
        }
    ],
    "meshes": [
        {
            "name": "meshes[0]",
            "primitives": [
                {
                    "mode": 4,
                    "material": 0,
                    "indices": 3,
                    "attributes": {
                        "POSITION": 0,
                        "NORMAL": 1,
                        "TEXCOORD_0": 2
                    }
                }
            ]
        }
    ],
    "nodes": [
        {
            "name": "tripo_node_5f0239ce-24d4-40f7-a43a-b473359daecb",
            "mesh": 0
        }
    ],
    "samplers": [
        {
            "magFilter": 9729,
            "minFilter": 9987
        },
        {
            "magFilter": 9729,
            "minFilter": 9987
        },
        {
            "magFilter": 9729,
            "minFilter": 9987
        }
    ],
    "scenes": [
        {
            "nodes": [
                0
            ]
        }
    ],
    "textures": [
        {
            "source": 0,
            "sampler": 0
        },
        {
            "source": 1,
            "sampler": 1
        },
        {
            "source": 2,
            "sampler": 2
        }
    ],
    "scene": 0
}