<svg width="100" height="100" viewBox="0 0 100 100" fill="none" xmlns="http://www.w3.org/2000/svg">
<path d="M45.119 3.26223C42.2577 7.28397 40.717 7.39266 40.717 3.80571C40.717 2.28397 40.1668 1.08831 39.5065 1.08831C38.6261 1.08831 38.406 2.71875 38.9562 6.08831C39.2864 8.9144 39.6165 12.0666 39.6165 13.1535C39.6165 14.3492 40.1668 15.2188 40.717 15.2188C41.3773 15.2188 41.8175 14.0231 41.8175 12.7187C41.8175 8.80571 42.918 8.47962 46.8798 11.4144C52.2722 15.4361 54.033 14.6753 49.3009 10.3274L45.229 6.63179L47.9803 3.26223C50.0712 0.870923 50.4014 0.00135815 49.1908 0.00135815C48.2004 0.00135815 46.4396 1.4144 45.119 3.26223Z" fill="#963B50"/>
<path d="M61.7362 4.01325C58.2146 6.94803 57.5543 12.2741 60.4156 15.1002C61.7362 16.4046 63.7171 17.3828 64.9276 17.3828C70.8703 17.3828 74.0617 7.27412 69.1095 3.90455C65.9181 1.73064 64.5975 1.73064 61.7362 4.01325ZM67.5688 4.99151C71.0904 6.29586 68.8894 15.2089 65.1477 15.2089C60.7458 15.2089 59.3151 10.9698 62.2864 6.73064C64.0472 4.23064 64.8176 3.90455 67.5688 4.99151Z" fill="#963B50"/>
<path d="M25.7525 7.06261C25.4224 7.93217 25.8626 10.867 26.7429 13.5843C27.7334 16.3017 28.1736 18.4756 27.8434 18.4756C27.5133 18.4756 25.4224 16.9539 23.1113 15.2148C20.6902 13.2583 18.2692 12.1713 17.1687 12.6061C15.8481 13.1496 16.1782 14.2365 19.4797 19.1278C21.5706 22.28 23.8817 24.6713 24.3219 24.3452C24.8721 24.0191 24.4319 22.4974 23.3314 20.867C19.2596 15.1061 19.3697 14.78 24.1018 18.1496C29.3841 21.9539 31.255 21.9539 29.8243 18.1496C29.3841 16.8452 28.6138 14.2365 28.1736 12.4974C27.4032 9.23652 27.4032 9.23652 30.3746 13.2583C33.1258 16.9539 35.2167 18.4757 35.2167 16.7365C35.2167 15.867 27.5133 5.43217 26.853 5.43217C26.5229 5.43217 26.0827 6.19304 25.7525 7.06261Z" fill="#963B50"/>
<path d="M78.3564 17.7182L73.7344 22.3922L76.8158 25.3269C80.4474 28.8052 84.2991 29.1313 85.2895 26.1965C85.6197 25.0009 86.6101 23.8052 87.4905 23.4791C90.0217 22.6095 89.4714 18.0443 86.6101 15.4356C85.1795 14.1313 83.8589 13.0443 83.5288 13.0443C83.1986 13.0443 80.8876 15.1095 78.3564 17.7182ZM87.3805 20.7617C86.5001 22.2835 84.079 21.9574 82.5383 20.1095C81.4378 18.8052 81.4378 18.153 82.6484 16.74C83.9689 15.1095 84.2991 15.2182 86.0599 17.3922C87.1604 18.6965 87.7106 20.2182 87.3805 20.7617ZM83.6388 24.5661C83.6388 26.9574 81.3278 27.5009 79.1268 25.4356C76.7057 23.2617 76.3756 21.0878 78.4665 20.3269C80.1172 19.7835 83.6388 22.6095 83.6388 24.5661Z" fill="#963B50"/>
<path d="M7.48483 25.2167C4.5135 27.608 4.18335 30.9776 6.71448 34.0211C9.68581 37.8254 15.6285 38.0428 18.0495 34.5646C20.4706 31.195 20.2505 29.6733 17.0591 26.6298C14.1978 23.695 10.2361 23.1515 7.48483 25.2167ZM15.1883 27.8254C20.1405 31.195 16.5089 37.1733 11.0064 34.4559C7.26473 32.4993 5.83409 29.8906 7.59488 27.8254C9.46571 25.6515 11.9968 25.6515 15.1883 27.8254Z" fill="#963B50"/>
<path d="M93.5502 33.5888C93.5502 34.241 94.2105 34.7844 95.0909 34.7844C96.8517 34.7844 98.5024 38.4801 97.4019 40.2192C96.1914 42.1757 94.9808 41.4149 92.5597 37.3931C89.5884 32.5018 85.5166 32.5018 84.9663 37.3931C84.7462 39.1323 85.0764 40.9801 85.7367 41.6323C86.397 42.2844 86.9472 44.0236 86.9472 45.5453C86.9472 47.3931 87.2774 47.9366 87.8276 46.9584C88.3779 46.1975 90.909 45.0018 93.5502 44.241C99.7129 42.5018 101.254 40.1105 99.0526 36.0888C97.2919 33.154 93.5502 31.4149 93.5502 33.5888ZM91.3492 38.6975C92.7798 42.3931 92.7798 42.3931 90.2487 42.3931C87.9377 42.3931 85.8467 39.4584 86.6171 37.1757C87.4975 34.8931 90.2487 35.7627 91.3492 38.6975Z" fill="#963B50"/>
<path d="M0 44.6726C0 45.5422 1.54069 47.7161 3.41152 49.5639L6.713 52.7161L3.63162 53.2596C0.880394 53.803 -0.440197 56.0857 2.20098 55.8683C2.86128 55.7596 5.83261 55.6509 8.80394 55.5422C14.3064 55.4335 16.8375 53.2596 11.5552 53.2596C8.03359 53.2596 8.03359 52.1726 11.5552 48.9117C13.0959 47.4987 14.3064 45.6509 14.3064 44.6726C14.3064 43.477 13.2059 44.1291 10.7848 46.5204L7.26325 49.9987L3.63162 46.5204C1.21054 44.2378 0 43.5857 0 44.6726Z" fill="#963B50"/>
<path d="M78.4665 72.5033C77.366 74.2424 75.9354 75.9815 75.165 76.4163C74.3947 76.8511 73.7344 77.8294 73.7344 78.3728C73.7344 79.025 74.1746 79.2424 74.7248 78.8076C75.3851 78.4815 77.476 79.6772 79.567 81.525C83.9689 85.3294 85.8398 85.5467 88.3709 82.8294C90.4619 80.5467 90.902 76.0902 89.0312 76.0902C88.3709 76.0902 88.1508 76.9598 88.591 78.1554C89.3614 80.5467 86.6101 83.1554 84.079 82.1772C82.4283 81.525 82.4283 81.3076 84.079 78.8076C86.1699 75.6554 86.39 72.7207 84.5192 70.8728C82.4283 68.8076 80.5574 69.3511 78.4665 72.5033ZM83.9689 73.0467C84.6292 75.0033 82.4283 79.3511 80.7775 79.3511C78.7966 79.3511 77.9162 76.1989 79.2368 73.8076C80.5574 71.525 83.1986 71.0902 83.9689 73.0467Z" fill="#963B50"/>
<path d="M24.6547 76.9586C24.9848 77.5021 23.9944 79.676 22.5637 81.8499C21.023 84.0239 19.8125 86.4152 19.8125 87.2847C19.8125 90.9804 27.4059 94.1326 29.2767 91.0891C29.827 90.3282 29.2767 90.1108 27.736 90.4369C24.6547 91.3065 21.4632 88.9152 22.3436 86.5239C23.0039 84.8934 23.3341 84.8934 26.4155 86.4152C30.5973 88.5891 34.1189 87.6108 34.1189 84.3499C34.1189 81.5239 32.2481 79.3499 29.6069 79.3499C28.6164 79.3499 27.5159 78.5891 27.0757 77.7195C26.7456 76.8499 25.9753 76.0891 25.315 76.0891C24.6547 76.0891 24.3245 76.5239 24.6547 76.9586ZM31.6978 83.3717C32.138 86.1978 31.2576 86.4152 26.9657 84.7847C24.4346 83.8065 24.2145 83.3717 25.425 81.9586C27.4059 79.5673 31.2576 80.4369 31.6978 83.3717Z" fill="#963B50"/>
<path d="M68.2358 84.3512C69.6665 87.9382 69.7765 87.7208 66.0349 88.9164C63.0635 90.0034 62.7334 89.8947 62.0731 87.3947C61.7429 85.9817 60.7525 84.786 59.9821 84.786C58.0013 84.786 62.7334 96.9599 64.8243 97.6121C65.8148 97.9382 66.1449 97.6121 65.8148 96.6338C65.3746 95.7643 64.8243 94.3512 64.4942 93.4817C63.9439 92.286 64.8243 91.4164 67.1353 90.5469C70.2167 89.4599 70.5469 89.5686 71.0971 91.9599C71.8675 94.786 73.7383 95.5469 73.7383 93.0469C73.7383 90.4382 69.4464 81.5251 68.3459 81.5251C67.5755 81.5251 67.5755 82.5034 68.2358 84.3512Z" fill="#963B50"/>
<path d="M40.7146 87.7174C40.7146 89.4565 40.3845 92.6087 40.0543 94.7826C39.6141 97.3913 39.7242 98.913 40.4945 98.913C41.1548 98.913 41.8151 97.8261 42.0352 96.413C42.2553 94.5652 43.2458 93.913 46.107 93.6957C49.7387 93.3696 49.8487 93.3696 49.1884 96.6304C48.7482 98.587 48.9683 100 49.6286 100C51.0593 100 51.4995 98.4783 52.0497 91.5217C52.4899 85.5435 51.0593 83.6957 49.9588 88.913C49.4085 91.6304 48.8583 91.9565 46.107 91.5217C43.4659 91.087 42.9156 90.5435 42.9156 87.9348C42.9156 86.1957 42.4754 84.7826 41.8151 84.7826C41.2649 84.7826 40.7146 86.087 40.7146 87.7174Z" fill="#963B50"/>
</svg>
