<svg width="246" height="410" viewBox="0 0 246 410" fill="none" xmlns="http://www.w3.org/2000/svg">
<rect width="246" height="410" fill="#F1E4E7"/>
<path d="M191.702 354.257V352.288C202.961 351.242 208.56 345.336 208.56 334.569C208.56 328.725 207.268 324.726 204.684 322.449C202.1 320.234 198.9 319.127 195.147 319.127C187.826 319.127 183.027 322.511 180.874 329.217H178.659V319.558C184.381 316.604 190.164 315.128 196.132 315.128C205.053 315.128 211.451 317.097 215.389 320.973C219.326 324.91 221.295 329.586 221.295 334.938C221.295 342.937 216.496 348.966 206.898 353.088C218.711 357.087 224.617 364.224 224.617 374.437C224.617 381.266 221.849 386.987 216.373 391.663C210.897 396.339 203.515 398.677 194.286 398.677C187.58 398.677 181.12 396.893 174.845 393.324V382.558H176.875C178.536 390.494 184.073 394.432 193.548 394.432C198.47 394.432 202.653 392.524 206.037 388.771C209.421 385.019 211.144 380.097 211.144 373.883C211.144 362.132 204.684 355.61 191.702 354.257Z" fill="#963B50"/>
<rect x="57" y="88" width="131" height="16" fill="#E9CFD5"/>
<rect x="57" y="119" width="131" height="16" fill="#E9CFD5"/>
<rect x="57" y="150" width="131" height="16" fill="#E9CFD5"/>
<g clip-path="url(#clip0_3004_1417)">
<path d="M37.0918 315.899C35.8158 315.904 34.5576 316.163 33.3905 316.66C32.2233 317.157 31.1706 317.883 30.2936 318.795C29.412 319.703 28.7228 320.781 28.2661 321.964C27.8094 323.148 27.5944 324.414 27.6336 325.689L27.6674 326.477L26.8933 326.484C24.3272 326.508 21.8919 327.55 20.1233 329.38C18.3546 331.211 17.3974 333.681 17.4621 336.246C17.5524 338.803 18.6419 341.239 20.4967 343.031C22.3515 344.823 24.8237 345.828 27.3826 345.83L46.1268 345.686C46.5153 345.682 46.884 345.524 47.1518 345.247C47.4195 344.97 47.5646 344.596 47.555 344.208L47.0534 325.47C46.9592 322.908 45.8624 320.469 43.9991 318.679C42.1358 316.889 39.6552 315.891 37.0918 315.899Z" fill="#D9A6B3"/>
</g>
<g clip-path="url(#clip1_3004_1417)">
<path d="M215.414 211.865C214.88 210.614 214.104 209.482 213.129 208.534C212.154 207.587 211 206.842 209.735 206.345C208.472 205.841 207.121 205.594 205.762 205.617C204.402 205.64 203.061 205.934 201.816 206.481L201.051 206.828L200.723 206.071C199.637 203.561 197.599 201.585 195.056 200.578C192.513 199.571 189.674 199.616 187.164 200.702C184.673 201.809 182.715 203.85 181.711 206.385C180.708 208.92 180.738 211.747 181.795 214.261L189.701 232.605C189.866 232.985 190.174 233.284 190.559 233.437C190.944 233.589 191.374 233.583 191.754 233.418L210.076 225.459C212.57 224.345 214.527 222.297 215.526 219.754C216.524 217.211 216.484 214.378 215.414 211.865Z" fill="#D9A6B3"/>
</g>
<path d="M64.8252 207.982C63.9631 207.452 63.0043 207.099 62.0045 206.944C61.0048 206.788 59.984 206.833 59.0018 207.076C58.0184 207.314 57.0922 207.745 56.2771 208.344C55.462 208.944 54.7743 209.699 54.254 210.567L53.9392 211.107L53.4144 210.789C51.6747 209.733 49.5868 209.411 47.61 209.895C45.6332 210.378 43.9294 211.627 42.8734 213.367C41.8381 215.112 41.5282 217.193 42.0103 219.164C42.4923 221.135 43.7279 222.838 45.4517 223.908L58.1474 231.639C58.4108 231.799 58.727 231.847 59.0262 231.774C59.3255 231.701 59.5835 231.512 59.7436 231.249L67.4373 218.53C68.472 216.781 68.778 214.695 68.2894 212.722C67.8008 210.748 66.5567 209.046 64.8252 207.982Z" fill="#D9A6B3"/>
<g clip-path="url(#clip2_3004_1417)">
<path d="M126.257 359.249C125.861 358.319 125.283 357.476 124.557 356.771C123.832 356.066 122.973 355.512 122.032 355.142C121.092 354.767 120.087 354.583 119.075 354.6C118.064 354.618 117.066 354.836 116.139 355.243L115.57 355.501L115.326 354.938C114.518 353.07 113.001 351.6 111.109 350.851C109.217 350.101 107.105 350.134 105.237 350.942C103.383 351.767 101.926 353.285 101.179 355.171C100.432 357.058 100.454 359.162 101.242 361.032L107.124 374.683C107.247 374.965 107.476 375.188 107.763 375.301C108.049 375.415 108.369 375.41 108.652 375.288L122.285 369.365C124.142 368.536 125.598 367.012 126.341 365.12C127.084 363.228 127.054 361.12 126.257 359.249Z" fill="#D9A6B3"/>
</g>
<g clip-path="url(#clip3_3004_1417)">
<path d="M138.257 259.249C137.861 258.319 137.283 257.476 136.557 256.771C135.832 256.066 134.973 255.512 134.032 255.142C133.092 254.767 132.087 254.583 131.075 254.6C130.064 254.618 129.066 254.836 128.139 255.243L127.57 255.501L127.326 254.938C126.518 253.07 125.001 251.6 123.109 250.851C121.217 250.101 119.105 250.134 117.237 250.942C115.383 251.767 113.926 253.285 113.179 255.171C112.432 257.058 112.454 259.162 113.242 261.032L119.124 274.683C119.247 274.965 119.476 275.188 119.763 275.301C120.049 275.415 120.369 275.41 120.652 275.288L134.285 269.365C136.142 268.536 137.598 267.012 138.341 265.12C139.084 263.228 139.054 261.12 138.257 259.249Z" fill="#D9A6B3"/>
</g>
<path d="M205.183 31.2116C204.487 30.0434 203.566 29.0254 202.473 28.2167C201.379 27.4081 200.136 26.825 198.816 26.5014C197.497 26.1713 196.125 26.107 194.781 26.3121C193.437 26.5172 192.147 26.9877 190.987 27.6962L190.275 28.1425L189.849 27.436C188.437 25.0941 186.152 23.4092 183.497 22.7518C180.842 22.0944 178.035 22.5185 175.693 23.9307C173.373 25.362 171.706 27.6462 171.05 30.2928C170.395 32.9395 170.803 35.7376 172.188 38.0864L182.478 55.2077C182.692 55.5622 183.038 55.8172 183.44 55.9167C183.842 56.0162 184.267 55.9521 184.622 55.7385L201.713 45.3976C204.036 43.9603 205.701 41.668 206.35 39.0145C206.999 36.3611 206.58 33.5589 205.183 31.2116Z" fill="#D9A6B3"/>
<path d="M49.2121 29.8933C48.2558 28.9266 47.1169 28.1598 45.8614 27.6376C44.606 27.1154 43.2592 26.8482 41.8996 26.8516C40.5399 26.8482 39.1931 27.1154 37.9377 27.6376C36.6822 28.1598 35.5433 28.9266 34.5871 29.8933L34.0037 30.4974L33.4204 29.9141C31.4864 27.9804 28.8636 26.894 26.1287 26.894C23.3939 26.894 20.771 27.9804 18.8371 29.9141C16.9284 31.8613 15.8594 34.4792 15.8594 37.2058C15.8594 39.9324 16.9284 42.5503 18.8371 44.4974L32.9412 58.6433C33.2342 58.9359 33.6313 59.1002 34.0454 59.1002C34.4595 59.1002 34.8566 58.9359 35.1496 58.6433L49.2537 44.4974C51.1631 42.5439 52.2286 39.9185 52.2208 37.1868C52.213 34.4552 51.1325 31.8359 49.2121 29.8933Z" fill="#D9A6B3"/>
<defs>
<clipPath id="clip0_3004_1417">
<rect width="46.5382" height="47.2938" fill="white" transform="translate(3 335) rotate(-45.9875)"/>
</clipPath>
<clipPath id="clip1_3004_1417">
<rect width="50" height="50" fill="white" transform="translate(182.406 186) rotate(21.6024)"/>
</clipPath>
<clipPath id="clip2_3004_1417">
<rect width="37.206" height="37.206" fill="white" transform="translate(101.695 340) rotate(21.6024)"/>
</clipPath>
<clipPath id="clip3_3004_1417">
<rect width="37.206" height="37.206" fill="white" transform="translate(113.695 240) rotate(21.6024)"/>
</clipPath>
</defs>
</svg>
