<svg width="173" height="308" viewBox="0 0 173 308" fill="none" xmlns="http://www.w3.org/2000/svg">
<rect width="173" height="308" fill="#F1E4E7"/>
<path d="M132.765 294.618C126.644 294.618 120.748 292.989 115.02 289.732V279.344H117.435C118.951 286.925 123.836 290.743 132.091 290.743C136.864 290.743 140.738 288.722 143.714 284.735C146.69 280.748 148.15 275.357 148.15 268.675C148.15 261.544 146.297 256.49 142.591 253.626C138.885 250.763 134 249.303 127.879 249.303C126.139 249.303 123.275 249.471 119.4 249.808L125.465 218.868H150.565C153.653 218.868 155.394 217.801 155.899 215.611H158.707L156.461 225.157H130.069L125.97 245.99C128.048 245.934 130.069 245.877 132.035 245.877C140.514 245.877 147.42 248.067 152.642 252.391C157.865 256.771 160.448 262.386 160.448 269.237C160.448 276.48 158.033 282.545 153.26 287.374C148.487 292.203 141.637 294.618 132.765 294.618Z" fill="#963B50"/>
<rect x="41" y="68" width="92.126" height="12.0195" fill="#E9CFD5"/>
<rect x="41" y="91.2812" width="92.126" height="12.0195" fill="#E9CFD5"/>
<rect x="41" y="114.633" width="92.126" height="12.0195" fill="#E9CFD5"/>
<path d="M11.2619 210.925C11.8827 211.241 12.5243 211.567 13.1298 211.915C22.1703 217.113 31.7678 221.852 41.0488 226.434C44.143 227.962 47.3425 229.541 50.4738 231.114C51.475 231.617 52.2549 231.744 52.931 231.511C52.9919 231.49 53.0519 231.466 53.1107 231.44C53.6933 231.177 54.1875 230.632 54.6521 229.744C55.4415 228.172 56.0852 226.561 56.5764 224.929C60.648 212.111 64.5752 199.616 67.8796 189.083C68.2477 187.91 68.587 186.715 68.916 185.558C69.215 184.505 69.5247 183.416 69.854 182.349C70.2318 181.125 69.874 180.236 68.7902 179.705C68.1601 179.4 67.5082 179.125 66.8371 178.882C65.2978 178.32 63.7568 177.761 62.2136 177.206C60.6488 176.641 59.0853 176.074 57.5232 175.505C56.8808 175.271 56.2334 175.02 55.6068 174.777C54.8649 174.49 54.0973 174.192 53.3294 173.918C50.9324 173.062 48.9429 172.381 47.068 171.772C46.594 171.634 46.0662 171.623 45.5462 171.742C44.9153 171.901 44.2979 172.124 43.7069 172.406C41.4473 173.416 39.1924 174.437 37.3031 175.291L35.634 176.045L35.6216 176.051L30.8083 178.456C26.443 180.637 22.3197 182.698 18.2361 184.724C17.2793 185.198 16.2702 185.811 16.411 187.083C16.4008 187.174 16.3717 187.266 16.325 187.352C16.3081 187.39 16.2917 187.428 16.2769 187.464C16.0224 188.091 15.7691 188.719 15.5171 189.347C14.891 190.902 14.2435 192.51 13.5808 194.086C11.8009 198.341 10.3042 202.654 9.09912 206.999C8.93479 207.686 8.87569 208.377 8.92356 209.052C8.93808 209.244 8.99644 209.426 9.0951 209.588C9.19376 209.75 9.33073 209.889 9.49824 209.995C10.0761 210.321 10.679 210.628 11.2619 210.925ZM64.3806 186.199C64.3759 186.218 64.3709 186.236 64.3662 186.255C64.3653 186.258 64.3645 186.261 64.3637 186.264C64.275 186.604 64.1982 186.899 64.0989 187.194C63.6952 188.395 63.2858 189.595 62.8708 190.794C62.0739 193.112 61.25 195.51 60.5038 197.877C58.7514 203.439 57.007 209.099 55.3199 214.572C54.616 216.856 53.9112 219.14 53.2053 221.423C53.1763 221.518 53.1473 221.611 53.1172 221.703C53.097 221.175 53.0792 220.633 53.0709 220.099C53.0373 217.888 53.0039 215.677 52.9705 213.466C52.9636 213.011 52.9567 212.555 52.9498 212.1C52.8584 206.035 52.763 199.971 52.6634 193.907C52.6403 193.362 52.5792 192.823 52.4806 192.293C52.4456 192.078 52.4101 191.855 52.3767 191.621L64.3806 186.199ZM48.1846 193.508L49.0092 222.935C46.8907 220.458 44.6719 218.026 42.5185 215.67C38.4658 211.233 34.2776 206.647 30.7012 201.675L48.1846 193.508ZM35.2913 179.914C37.0516 179.052 38.8534 178.242 40.6024 177.455C40.6247 177.445 40.6469 177.435 40.6692 177.425C42.444 176.627 44.2789 175.802 46.0685 174.926L63.3861 182.577L50.0613 188.872L49.894 188.951L35.2913 179.914ZM29.6981 198.367C30.2504 193.101 31.751 188.177 33.5222 182.797L44.9019 191.156L29.6981 198.367ZM26.2674 203.789C30.2359 208.874 34.7148 213.663 39.0474 218.295C39.048 218.296 39.0487 218.297 39.0493 218.297C40.3081 219.643 41.6017 221.026 42.8764 222.41C36.8669 219.753 31.0675 216.682 25.4472 213.706C22.2503 212.013 18.9481 210.264 15.6384 208.608C17.3941 207.603 23.7209 204.724 26.2674 203.789ZM26.7085 184.02C27.5292 183.641 28.35 183.263 29.1708 182.885C29.248 182.848 29.3241 182.819 29.4241 182.781C27.7654 188.03 26.036 194.083 25.8637 200.178L12.6329 206.154C12.6616 206.006 12.7025 205.858 12.7554 205.712C14.511 201.146 15.9916 197.306 17.5106 193.405C17.8999 192.403 18.3114 191.385 18.7077 190.401C19.0792 189.479 19.4475 188.557 19.8122 187.634C19.8611 187.466 19.9552 187.305 20.086 187.166C20.2168 187.027 20.3804 186.914 20.562 186.837C22.5337 185.947 24.5289 185.026 26.465 184.132C26.5462 184.095 26.6274 184.057 26.7085 184.02Z" fill="#D9A6B3"/>
<path d="M48.1846 193.508L49.0092 222.935C46.8907 220.458 44.6719 218.026 42.5185 215.67C38.4658 211.233 34.2776 206.647 30.7012 201.675L48.1846 193.508Z" fill="#FBF2B4"/>
<path d="M64.3806 186.199C64.3759 186.218 64.3709 186.236 64.3662 186.255L64.3637 186.264C64.275 186.604 64.1982 186.899 64.0989 187.194C63.6952 188.395 63.2858 189.595 62.8708 190.794C62.0739 193.112 61.25 195.51 60.5038 197.877C58.7514 203.439 57.007 209.099 55.3199 214.572C54.616 216.856 53.9112 219.14 53.2053 221.423C53.1763 221.518 53.1473 221.611 53.1172 221.703C53.097 221.175 53.0792 220.633 53.0709 220.099C53.0373 217.888 53.0039 215.677 52.9705 213.466L52.9498 212.1C52.8584 206.035 52.763 199.971 52.6634 193.907C52.6403 193.362 52.5792 192.823 52.4806 192.293C52.4456 192.078 52.4101 191.855 52.3767 191.621L64.3806 186.199Z" fill="#FBF2B4"/>
<path d="M35.2913 179.914C37.0516 179.052 38.8534 178.242 40.6024 177.455L40.6692 177.425C42.444 176.627 44.2789 175.802 46.0685 174.926L63.3861 182.577L50.0613 188.872L49.894 188.951L35.2913 179.914Z" fill="#FBF2B4"/>
<path d="M29.6981 198.367C30.2504 193.101 31.751 188.177 33.5222 182.797L44.9019 191.156L29.6981 198.367Z" fill="#FBF2B4"/>
<path d="M26.7085 184.02C27.5292 183.641 28.35 183.263 29.1708 182.885C29.248 182.848 29.3241 182.819 29.4241 182.781C27.7654 188.03 26.036 194.083 25.8637 200.178L12.6329 206.154C12.6616 206.006 12.7025 205.858 12.7554 205.712C14.511 201.146 15.9916 197.306 17.5106 193.405C17.8999 192.403 18.3114 191.385 18.7077 190.401C19.0792 189.479 19.4475 188.557 19.8122 187.634C19.8611 187.466 19.9552 187.305 20.086 187.166C20.2168 187.027 20.3804 186.914 20.562 186.837C22.5337 185.947 24.5289 185.026 26.465 184.132L26.7085 184.02Z" fill="#FBF2B4"/>
<path d="M26.2674 203.789C30.2359 208.874 34.7148 213.663 39.0474 218.295L39.0493 218.297C40.3081 219.643 41.6017 221.026 42.8764 222.41C36.8669 219.753 31.0675 216.682 25.4472 213.706C22.2503 212.013 18.9481 210.264 15.6384 208.608C17.3941 207.603 23.7209 204.724 26.2674 203.789Z" fill="#FBF2B4"/>
<path d="M76.4929 208.245C76.654 208.49 76.8206 208.742 76.9696 208.995C79.1923 212.772 81.7141 216.497 84.1528 220.099C84.9658 221.299 85.8066 222.541 86.6237 223.766C86.8849 224.158 87.1435 224.366 87.4388 224.422C87.4655 224.427 87.4923 224.43 87.5193 224.433C87.7869 224.458 88.0806 224.361 88.4347 224.134C89.0496 223.723 89.6194 223.269 90.138 222.774C94.288 218.937 98.3182 215.189 101.713 212.027C102.091 211.675 102.464 211.309 102.824 210.955C103.152 210.632 103.492 210.299 103.833 209.978C104.226 209.609 104.28 209.21 103.994 208.791C103.827 208.548 103.646 208.312 103.451 208.084C103.006 207.559 102.559 207.035 102.111 206.512C101.656 205.98 101.203 205.448 100.75 204.916C100.565 204.697 100.38 204.47 100.202 204.252C99.9904 203.993 99.7718 203.724 99.5481 203.465C98.8502 202.654 98.2651 201.992 97.7066 201.38C97.5622 201.231 97.3715 201.118 97.1568 201.053C96.8933 200.98 96.6214 200.934 96.3469 200.914C95.3116 200.813 94.2759 200.718 93.4082 200.637L92.6419 200.566L92.6362 200.566L90.3782 200.444C88.3304 200.334 86.396 200.231 84.4834 200.122C84.0353 200.097 83.5394 200.111 83.3266 200.605C83.3039 200.636 83.2743 200.664 83.2393 200.686C83.2253 200.696 83.2114 200.706 83.1985 200.717C82.9751 200.893 82.7522 201.069 82.5298 201.246C81.978 201.685 81.4073 202.138 80.8379 202.576C79.3038 203.76 77.8612 205.025 76.5183 206.362C76.3156 206.579 76.1505 206.819 76.0278 207.075C75.9932 207.149 75.9766 207.227 75.979 207.307C75.9814 207.387 76.0027 207.466 76.0417 207.539C76.1851 207.779 76.3416 208.016 76.4929 208.245ZM101.034 210.247C101.029 210.253 101.023 210.259 101.017 210.264C101.016 210.265 101.015 210.266 101.014 210.267C100.911 210.373 100.822 210.465 100.725 210.552C100.328 210.907 99.9289 211.26 99.5282 211.612C98.7555 212.293 97.9565 212.998 97.1921 213.708C95.3965 215.376 93.5836 217.081 91.8304 218.73C91.0988 219.418 90.3668 220.106 89.6346 220.793C89.6043 220.822 89.5744 220.85 89.5443 220.877C89.6466 220.68 89.7526 220.479 89.8605 220.282C90.3076 219.467 90.7547 218.652 91.2018 217.838C91.2939 217.67 91.386 217.502 91.4781 217.334C92.7045 215.1 93.9293 212.865 95.1525 210.629C95.2573 210.425 95.347 210.215 95.421 210.001C95.453 209.915 95.4863 209.826 95.5228 209.734L101.034 210.247ZM93.5994 209.552L87.7877 220.474C87.5284 219.129 87.2229 217.78 86.9257 216.472C86.3669 214.009 85.7896 211.464 85.5158 208.904L93.5994 209.552ZM91.713 201.908C92.5351 201.959 93.3617 202.037 94.1641 202.113C94.1743 202.114 94.1845 202.115 94.1947 202.116C95.0089 202.193 95.8506 202.273 96.6864 202.325L101.423 208.717L95.2479 208.249L95.1704 208.243L91.713 201.908ZM85.8366 207.487C87.1323 205.678 88.7033 204.191 90.468 202.594L92.8886 208.012L85.8366 207.487ZM83.457 208.756C83.8504 211.438 84.4918 214.117 85.1123 216.71C85.1124 216.71 85.1125 216.71 85.1126 216.711C85.2929 217.464 85.4781 218.238 85.6564 219.008C84.0129 216.789 82.5322 214.463 81.0973 212.208C80.2812 210.925 79.4381 209.601 78.573 208.308C79.4232 208.306 82.3325 208.568 83.457 208.756ZM87.7247 201.625C88.1032 201.657 88.4817 201.69 88.8601 201.722C88.8958 201.725 88.9297 201.73 88.9742 201.737C87.2778 203.31 85.3885 205.162 84.0596 207.352L77.9848 206.787C78.0261 206.739 78.0717 206.694 78.1213 206.651C79.7112 205.348 81.0498 204.253 82.415 203.143C82.7653 202.858 83.1272 202.571 83.4764 202.294C83.8035 202.035 84.1296 201.774 84.4545 201.513C84.5075 201.462 84.5753 201.422 84.652 201.399C84.7286 201.375 84.8118 201.368 84.894 201.378C85.7993 201.462 86.7195 201.54 87.6124 201.616C87.6499 201.619 87.6873 201.622 87.7247 201.625Z" fill="#D9A6B3"/>
<path d="M93.5994 209.552L87.7877 220.474C87.5284 219.129 87.2229 217.78 86.9257 216.472C86.3669 214.009 85.7896 211.464 85.5158 208.904L93.5994 209.552Z" fill="#FBF2B4"/>
<path d="M101.034 210.247C101.029 210.253 101.023 210.259 101.017 210.264L101.014 210.267C100.911 210.373 100.822 210.465 100.725 210.552C100.328 210.907 99.9289 211.26 99.5282 211.612C98.7555 212.293 97.9565 212.998 97.1921 213.708C95.3965 215.376 93.5836 217.081 91.8304 218.73C91.0988 219.418 90.3668 220.106 89.6346 220.793C89.6043 220.822 89.5744 220.85 89.5443 220.877C89.6466 220.68 89.7526 220.479 89.8605 220.282C90.3076 219.467 90.7547 218.652 91.2018 217.838L91.4781 217.334C92.7045 215.1 93.9293 212.865 95.1525 210.629C95.2573 210.425 95.347 210.215 95.421 210.001C95.453 209.915 95.4863 209.826 95.5228 209.734L101.034 210.247Z" fill="#FBF2B4"/>
<path d="M91.713 201.908C92.5351 201.959 93.3617 202.037 94.1641 202.113L94.1947 202.116C95.0089 202.193 95.8506 202.273 96.6864 202.325L101.423 208.717L95.2479 208.249L95.1704 208.243L91.713 201.908Z" fill="#FBF2B4"/>
<path d="M85.8366 207.487C87.1323 205.678 88.7033 204.191 90.468 202.594L92.8886 208.012L85.8366 207.487Z" fill="#FBF2B4"/>
<path d="M87.7247 201.625C88.1032 201.657 88.4817 201.69 88.8601 201.722C88.8958 201.725 88.9297 201.73 88.9742 201.737C87.2778 203.31 85.3885 205.162 84.0596 207.352L77.9848 206.787C78.0261 206.739 78.0717 206.694 78.1213 206.651C79.7112 205.348 81.0498 204.253 82.415 203.143C82.7653 202.858 83.1272 202.571 83.4764 202.294C83.8035 202.035 84.1296 201.774 84.4545 201.513C84.5075 201.462 84.5753 201.422 84.652 201.399C84.7286 201.375 84.8118 201.368 84.894 201.378C85.7993 201.462 86.7195 201.54 87.6124 201.616L87.7247 201.625Z" fill="#FBF2B4"/>
<path d="M83.457 208.756C83.8504 211.438 84.4918 214.117 85.1123 216.71L85.1126 216.711C85.2929 217.464 85.4781 218.238 85.6564 219.008C84.0129 216.789 82.5322 214.463 81.0973 212.208C80.2812 210.925 79.4381 209.601 78.573 208.308C79.4232 208.306 82.3325 208.568 83.457 208.756Z" fill="#FBF2B4"/>
<path d="M108.094 29.7823C107.101 29.7512 106.529 29.4681 106.206 28.7837C105.898 28.1331 106.145 27.5738 106.529 27.0653C106.73 26.797 106.986 26.5723 107.282 26.4054C108.849 25.5469 110.412 24.6745 112.025 23.9021C112.557 23.6796 113.145 23.6106 113.718 23.7032C113.983 23.7453 114.234 23.8476 114.452 24.002C114.669 24.1563 114.846 24.3583 114.967 24.5915C115.089 24.8245 115.152 25.0821 115.152 25.3432C115.152 25.6043 115.088 25.8615 114.966 26.0937C114.657 26.6804 114.189 27.1732 113.611 27.5183C112.164 28.2826 110.64 28.9145 109.128 29.5593C108.794 29.6749 108.447 29.7499 108.094 29.7823Z" fill="#D9A6B3"/>
<path d="M61.7703 29.6234C61.4641 29.4367 60.7637 29.1615 60.2842 28.6781C59.513 27.884 58.8196 27.022 58.2131 26.1031C57.8887 25.6348 57.7159 25.0832 57.7172 24.5195C57.7769 23.4935 58.9246 22.8049 60.0337 23.2236C60.9551 23.5476 61.802 24.0453 62.5257 24.6879C63.2493 25.3306 63.8354 26.1056 64.2503 26.9683C64.9424 28.4443 63.8318 29.7665 61.7703 29.6234Z" fill="#D9A6B3"/>
<path d="M103.132 10.9262C104.63 10.9873 105.481 12.1179 105.131 13.2477C105.032 13.6146 104.84 13.9513 104.573 14.2273C103.511 15.1976 102.44 16.1669 101.293 17.0384C100.736 17.4612 100.044 17.7641 99.2422 17.4597C98.3093 17.1052 97.8874 16.3269 98.2379 15.4249C98.3298 15.1541 98.4752 14.9033 98.6654 14.6863C99.6684 13.658 100.66 12.6132 101.734 11.6585C102.176 11.266 102.817 11.0852 103.132 10.9262Z" fill="#D9A6B3"/>
<path d="M76.2762 15.0463C76.1512 15.883 75.7602 16.4884 74.9625 16.8179C74.2164 17.1256 73.5956 16.8613 73.1111 16.3498C72.0567 15.2838 71.2876 13.9831 70.8714 12.5621C70.5963 11.5585 70.9371 10.7464 71.6951 10.3367C72.5012 9.90168 73.3504 10.0078 74.0588 10.817C75.1394 12.0532 76.0309 13.4104 76.2762 15.0463Z" fill="#D9A6B3"/>
<path d="M119.481 38.3985C119.492 37.6833 119.395 36.9701 119.192 36.282C118.894 35.368 118.309 34.7291 117.549 34.4882C116.781 34.2434 115.914 34.4286 115.107 35.0052C114.499 35.4397 113.9 35.9175 113.322 36.379C113.084 36.5678 112.846 36.7597 112.609 36.9457L109.439 39.4345C106.853 41.4653 104.265 43.4959 101.674 45.5261C101.489 45.6629 101.295 45.7875 101.092 45.8988C101.01 45.9464 100.926 45.9939 100.841 46.0472C100.784 46.0815 100.719 46.1026 100.652 46.109C100.585 46.1156 100.517 46.1074 100.454 46.0847C100.39 46.0622 100.333 46.0256 100.286 45.9778C100.239 45.93 100.204 45.8723 100.184 45.8093C99.6986 44.3093 99.2273 42.8171 98.7555 41.3308C97.7077 38.0285 96.6225 34.6111 95.4746 31.3002C93.8749 26.693 92.1372 22.215 90.502 18.0614C90.0715 17.0559 89.4662 16.1296 88.7121 15.3233C88.0355 14.5687 87.2603 14.4783 86.2016 15.0374C85.3395 15.4885 84.9416 16.3213 84.5209 17.2017L84.4819 17.2833C84.0618 18.1551 83.6457 19.029 83.2329 19.9051C81.9703 22.5605 80.6652 25.3109 79.2906 27.9725C77.2132 31.9982 74.9809 36.0341 72.8712 39.8235C72.1553 41.11 71.3829 42.3424 70.5659 43.6473C70.1946 44.2416 69.8157 44.8465 69.4365 45.4689C69.4059 45.5197 69.3648 45.5637 69.3159 45.5981C69.2669 45.6325 69.2111 45.6569 69.152 45.6694C69.0929 45.6819 69.0317 45.6824 68.9723 45.671C68.9129 45.6593 68.8565 45.6361 68.8068 45.6024L67.6033 44.7887C66.839 44.2758 66.1432 43.8092 65.4505 43.3366C64.4756 42.674 63.5007 42.0103 62.5256 41.3455C60.616 40.0419 58.7041 38.7429 56.7899 37.4486C56.3628 37.1139 55.8479 36.9015 55.3037 36.8363C54.9009 36.83 54.5099 36.966 54.2035 37.2192C53.3052 37.8685 53.0217 38.7097 53.3389 39.7926C53.5415 40.4905 53.8266 41.1898 54.1006 41.8683L54.1141 41.8968C54.3354 42.4474 54.5799 43.0044 54.8134 43.5439C55.2542 44.5616 55.7139 45.6158 56.0724 46.6892C56.3025 47.3684 56.5335 48.0488 56.7653 48.7303C58.247 53.0881 59.7776 57.5942 60.7005 62.2032C61.0127 63.7665 61.8922 64.6449 63.3897 64.889C63.8013 64.9569 64.2133 65.0276 64.6213 65.0981C66.2986 65.424 67.9969 65.6363 69.7038 65.7328C73.5861 65.866 77.5371 65.9106 81.3591 65.955C83.0405 65.9735 84.721 65.9951 86.4004 66.0194C89.1576 66.0624 91.9146 66.1093 94.6711 66.1603L97.8365 66.2141C98.0921 66.2202 98.3479 66.2235 98.6063 66.23C98.8854 66.2372 99.1677 66.2418 99.4497 66.2467C100.428 66.2646 101.408 66.2723 102.386 66.2839C104.79 66.3106 107.27 66.3379 109.712 66.4379C110.839 66.4847 111.653 66.1393 112.275 65.3548C112.705 64.7774 113.042 64.1388 113.272 63.4614L113.636 62.4669C115.123 58.4105 116.658 54.2135 117.646 49.9397C117.742 49.524 117.84 49.1116 117.936 48.6959C118.72 45.3574 119.535 41.8981 119.481 38.3985ZM108.601 61.4306C108.569 61.5045 108.517 61.5679 108.449 61.614C108.382 61.6601 108.303 61.6867 108.221 61.6909C107.895 61.7099 107.56 61.7332 107.221 61.7567C107.191 61.7588 107.162 61.7608 107.132 61.7629C106.288 61.8235 105.412 61.8854 104.529 61.8811C103.082 61.8736 101.613 61.8477 100.194 61.8175C98.3009 61.7846 96.3436 61.7459 94.4223 61.7589C92.1832 61.7771 89.903 61.8504 87.6995 61.9217C86.4329 61.9626 85.1661 62.0035 83.9 62.0327C82.0508 62.0778 80.5077 62.1113 78.9031 62.0849C75.156 62.0262 71.3519 61.9439 67.6576 61.8639C67.4541 61.8595 67.251 61.8551 67.0483 61.8507L65.1238 61.8091L65.0795 61.807C64.9011 61.7951 64.7243 61.7665 64.5513 61.7222L64.5498 61.7219C64.492 61.7079 64.4345 61.6939 64.3793 61.6864C64.2965 61.6714 64.2198 61.6336 64.1583 61.5776C64.0968 61.5214 64.0531 61.4495 64.0322 61.3701L59.6875 45.0236C59.6643 44.9394 59.6684 44.85 59.6992 44.768C59.7299 44.6861 59.7859 44.6156 59.8594 44.5656C59.933 44.5157 60.0207 44.4889 60.1106 44.4892C60.2004 44.4892 60.2881 44.5161 60.3618 44.5663L61.0037 44.9937C61.4287 45.2763 61.8197 45.5345 62.2044 45.7983C62.7515 46.1726 63.2989 46.5449 63.8465 46.9151C65.2034 47.8386 66.609 48.7902 67.9602 49.7732C68.8248 50.4023 69.5952 50.6641 70.2445 50.5515C70.8794 50.4422 71.4563 49.9853 72.004 49.1567L72.4966 48.4168C73.4267 47.0202 74.3886 45.5736 75.2017 44.0943C77.8933 39.18 80.5959 34.1634 83.2084 29.3111C84.2391 27.3963 85.2719 25.4817 86.3066 23.5671C86.3935 23.4044 86.4833 23.2467 86.6112 23.0272L86.8578 22.5957C86.8976 22.5232 86.9587 22.4639 87.0332 22.4252C87.108 22.3865 87.1927 22.3702 87.277 22.3782C87.3612 22.3841 87.442 22.4135 87.5095 22.4627C87.5771 22.512 87.6286 22.5791 87.6579 22.6559C87.9673 23.4648 88.2808 24.2481 88.5889 25.0168C88.5936 25.0286 88.5983 25.0403 88.603 25.0521C89.2668 26.7109 89.8937 28.2777 90.4168 29.8995C91.5708 33.488 92.6946 37.1436 93.7862 40.6943C93.8338 40.8491 93.8813 41.0038 93.9288 41.1582C94.5798 43.2747 95.2339 45.3921 95.8909 47.5102C96.214 48.5898 96.6003 49.6505 97.0482 50.6872C97.1937 51.0647 97.4283 51.4038 97.7336 51.6772C98.0385 51.9506 98.4053 52.1505 98.8043 52.2609C99.5868 52.449 100.433 52.2227 101.19 51.6267C102.341 50.7206 103.487 49.8054 104.633 48.8933C105.638 48.0917 106.643 47.2919 107.648 46.4942C108.928 45.4857 110.211 44.4796 111.498 43.4765L113.221 42.1312C113.285 42.0816 113.361 42.0498 113.442 42.0397C113.523 42.0293 113.605 42.041 113.68 42.0728L113.98 42.2039C114.071 42.2438 114.147 42.3127 114.193 42.3996C114.239 42.4866 114.253 42.586 114.234 42.6815C113.071 48.2276 111.493 54.7939 108.601 61.4306Z" fill="#D9A6B3"/>
<path d="M108.601 61.4306C108.569 61.5045 108.517 61.5679 108.449 61.614C108.382 61.6601 108.303 61.6867 108.221 61.6909C107.895 61.7099 107.56 61.7332 107.221 61.7567L107.132 61.7629C106.288 61.8235 105.412 61.8854 104.529 61.8811C103.082 61.8736 101.613 61.8477 100.194 61.8175C98.3009 61.7846 96.3436 61.7459 94.4223 61.7589C92.1832 61.7771 89.903 61.8504 87.6995 61.9217C86.4329 61.9626 85.1661 62.0035 83.9 62.0327C82.0508 62.0778 80.5077 62.1113 78.9031 62.0849C75.156 62.0262 71.3519 61.9439 67.6576 61.8639L67.0483 61.8507L65.1238 61.8091L65.0795 61.807C64.9011 61.7951 64.7243 61.7665 64.5513 61.7222L64.5498 61.7219C64.492 61.7079 64.4345 61.6939 64.3793 61.6864C64.2965 61.6714 64.2198 61.6336 64.1583 61.5776C64.0968 61.5214 64.0531 61.4495 64.0322 61.3701L59.6875 45.0236C59.6643 44.9394 59.6684 44.85 59.6992 44.768C59.7299 44.6861 59.7859 44.6156 59.8594 44.5656C59.933 44.5157 60.0207 44.4889 60.1106 44.4892C60.2004 44.4892 60.2881 44.5161 60.3618 44.5663L61.0037 44.9937C61.4287 45.2763 61.8197 45.5345 62.2044 45.7983C62.7515 46.1726 63.2989 46.5449 63.8465 46.9151C65.2034 47.8386 66.609 48.7902 67.9602 49.7732C68.8248 50.4023 69.5952 50.6641 70.2445 50.5515C70.8794 50.4422 71.4563 49.9853 72.004 49.1567L72.4966 48.4168C73.4267 47.0202 74.3886 45.5736 75.2017 44.0943C77.8933 39.18 80.5959 34.1634 83.2084 29.3111C84.2391 27.3963 85.2719 25.4817 86.3066 23.5671C86.3935 23.4044 86.4833 23.2467 86.6112 23.0272L86.8578 22.5957C86.8976 22.5232 86.9587 22.4639 87.0332 22.4252C87.108 22.3865 87.1927 22.3702 87.277 22.3782C87.3612 22.3841 87.442 22.4135 87.5095 22.4627C87.5771 22.512 87.6286 22.5791 87.6579 22.6559C87.9673 23.4648 88.2808 24.2481 88.5889 25.0168L88.603 25.0521C89.2668 26.7109 89.8937 28.2777 90.4168 29.8995C91.5708 33.488 92.6946 37.1436 93.7862 40.6943L93.9288 41.1582C94.5798 43.2747 95.2339 45.3921 95.8909 47.5102C96.214 48.5898 96.6003 49.6505 97.0482 50.6872C97.1937 51.0647 97.4283 51.4038 97.7336 51.6772C98.0385 51.9506 98.4053 52.1505 98.8043 52.2609C99.5868 52.449 100.433 52.2227 101.19 51.6267C102.341 50.7206 103.487 49.8054 104.633 48.8933C105.638 48.0917 106.643 47.2919 107.648 46.4942C108.928 45.4857 110.211 44.4796 111.498 43.4765L113.221 42.1312C113.285 42.0816 113.361 42.0498 113.442 42.0397C113.523 42.0293 113.605 42.041 113.68 42.0728L113.98 42.2039C114.071 42.2438 114.147 42.3127 114.193 42.3996C114.239 42.4866 114.253 42.586 114.234 42.6815C113.071 48.2276 111.493 54.7939 108.601 61.4306Z" fill="#FBF2B4"/>
</svg>
