<svg width="190" height="410" viewBox="0 0 190 410" fill="none" xmlns="http://www.w3.org/2000/svg">
<rect x="-56" width="246" height="410" fill="#F1E4E7"/>
<path d="M133.994 384.064V333.738C133.994 327.278 131.964 324.018 127.903 324.018H123.043V321.926C130.241 321.064 136.147 318.111 140.762 313.066H146.483V384.064C146.483 390.032 148.637 393.047 152.882 393.047H156.819V396H123.043V393.047H127.288C131.779 393.047 133.994 390.032 133.994 384.064Z" fill="#963B50"/>
<rect x="-10" y="91" width="131" height="16" fill="#E9CFD5"/>
<rect x="-10" y="122" width="131" height="16" fill="#E9CFD5"/>
<rect x="-10" y="153" width="131" height="16" fill="#E9CFD5"/>
<path d="M73.4653 257.59C74.6338 256.431 75.5835 255.357 76.6704 254.445C77.9869 253.321 79.3792 252.288 80.8374 251.355C82.7147 250.178 84.2315 250.769 84.7815 252.946C85.5455 255.967 86.1573 259.027 86.7609 262.086C87.8901 267.825 88.1672 273.559 86.2688 279.21C82.8498 289.387 75.9308 295.848 65.4945 298.378C61.5673 299.334 57.5923 300.082 53.5862 300.619C33.4723 303.288 22.403 287.508 21.1706 275.152C20.2465 265.895 23.1457 257.749 28.2027 250.37C31.5176 245.533 35.6798 241.279 39.4322 236.738C41.7115 233.981 44.0319 231.248 46.148 228.368C47.8107 226.104 48.5687 223.413 49.0479 220.644C49.1578 220 49.5064 219.422 50.0241 219.024C50.2671 218.87 51.0311 219.484 51.5304 219.796C52.3621 220.314 53.1684 220.874 53.99 221.409C63.2755 227.456 68.8632 236.095 71.5262 246.701C72.3114 249.827 72.6868 253.056 73.2483 256.238C73.3135 256.611 73.3681 256.987 73.4653 257.59ZM51.602 223.276C50.73 228.14 48.3982 232.035 45.4726 235.603C42.6505 239.047 39.7565 242.431 36.8799 245.83C32.3187 251.218 28.7229 257.106 26.612 263.928C21.9203 279.091 31.8208 298.05 51.7752 296.761C57.175 296.413 62.5532 296.373 67.6221 293.838C75.7721 289.763 81.2868 283.725 83.2085 274.678C84.601 268.122 82.6473 261.899 81.4153 255.336C78.0605 257.975 75.5349 260.892 74.0671 264.654C73.7733 265.407 73.5198 266.179 73.1666 266.904C72.7201 267.818 71.961 268.341 70.9144 268.127C69.7601 267.891 69.3354 267.029 69.375 265.935C69.4167 264.78 69.5407 263.628 69.6039 262.473C70.1622 252.262 67.9443 242.723 62.5439 234.002C59.8371 229.579 56.0782 225.894 51.602 223.276Z" fill="#D9A6B3"/>
<path d="M51.602 223.276C50.73 228.14 48.3982 232.035 45.4726 235.603C42.6505 239.047 39.7565 242.431 36.8799 245.83C32.3187 251.218 28.7229 257.106 26.612 263.928C21.9203 279.091 31.8208 298.05 51.7752 296.761C57.175 296.413 62.5532 296.373 67.6221 293.838C75.7721 289.763 81.2868 283.725 83.2085 274.678C84.601 268.122 82.6473 261.899 81.4153 255.336C78.0605 257.975 75.5349 260.892 74.0671 264.654C73.7733 265.407 73.5198 266.179 73.1666 266.904C72.7201 267.818 71.961 268.341 70.9144 268.127C69.7601 267.891 69.3354 267.029 69.375 265.935C69.4167 264.78 69.5407 263.628 69.6039 262.473C70.1622 252.262 67.9443 242.723 62.5439 234.002C59.8371 229.579 56.0782 225.894 51.602 223.276Z" fill="#FBF2B4"/>
<path d="M85.9239 222.943C86.3347 224.177 86.7354 225.414 87.1587 226.644C88.0372 229.195 89.2075 231.685 89.7551 234.305C90.8805 239.691 88.0591 243.924 82.7753 245.316C80.9898 245.786 79.7466 245.115 79.0743 243.413C78.781 242.677 78.4065 241.977 77.9579 241.325C75.082 237.133 74.3972 232.79 76.7814 228.109C78.3322 225.065 80.6106 222.623 83.0021 220.274C83.4427 219.842 84.4484 219.559 84.979 219.763C85.5231 219.971 85.8884 220.828 86.1701 221.471C86.3399 221.859 86.2013 222.382 86.2013 222.844L85.9239 222.943ZM82.5507 225.582C78.5823 229.479 76.2442 235.609 81.4478 241.195C84.6932 240.221 85.9482 238.333 85.6707 235.047C85.3828 231.638 83.8462 228.667 82.5507 225.582Z" fill="#D9A6B3"/>
<path d="M82.5507 225.582C78.5823 229.479 76.2442 235.609 81.4478 241.195C84.6932 240.221 85.9482 238.333 85.6707 235.047C85.3828 231.638 83.8462 228.667 82.5507 225.582Z" fill="#FBF2B4"/>
<path d="M57.6057 268.919C58.4887 266.827 59.3013 264.928 60.0913 263.02C60.5108 262.006 61.0518 261.141 62.2929 261.11C63.4315 261.083 64.0708 261.819 64.5636 262.72C66.9776 267.135 69.2917 271.604 70.3297 276.578C72.076 284.944 66.8964 292.876 58.6134 294.874C52.9209 296.246 47.5409 295.334 42.4818 292.73C36.7028 289.757 34.1273 284.528 33.7554 278.289C33.0445 266.352 40.9379 254.283 52.1049 249.832C52.9622 249.49 53.7824 249.001 54.6697 248.807C55.3892 248.649 56.4448 248.542 56.8771 248.934C57.1498 249.242 57.3545 249.603 57.4781 249.995C57.6016 250.387 57.6412 250.801 57.5942 251.209C57.3813 252.681 56.8011 254.097 56.4135 255.547C55.0395 260.713 55.3638 264.636 57.6057 268.919ZM52.6566 253.262C52.3699 253.369 52.0887 253.491 51.8142 253.627C43.0353 258.408 38.72 266.181 37.7852 275.772C36.9741 284.081 42.2096 290.432 50.4137 292.058C50.8052 292.159 51.2147 292.17 51.6107 292.088C54.2085 291.331 56.849 290.676 59.3694 289.71C64.2097 287.855 66.9047 283.019 66.1672 277.913C65.6057 274.032 64.0031 270.522 62.3172 267.041C62.2825 266.972 62.1265 266.964 61.7018 266.808C61.1139 268.804 60.4653 270.759 59.9732 272.752C59.5472 274.48 57.9116 275.197 56.466 274.146C56.1392 273.907 55.8562 273.613 55.6295 273.278C53.407 269.958 51.7885 266.358 51.8028 262.324C51.8132 259.356 52.3424 256.391 52.6566 253.262V253.262Z" fill="#D9A6B3"/>
</svg>
