<svg width="234" height="350" viewBox="0 0 234 350" fill="none" xmlns="http://www.w3.org/2000/svg">
<rect width="234" height="349.696" fill="#F1E4E7"/>
<path d="M180.444 263.043C178.862 265.68 178.1 268.844 178.1 272.652C178.1 278.629 179.448 282.965 182.085 285.602C184.721 288.297 187.475 289.586 190.464 289.41C193.393 289.293 195.854 287.945 197.788 285.367C199.721 282.789 200.307 278.863 199.546 273.531C198.725 268.199 196.967 264.098 194.214 261.227C192.28 259.293 189.936 258.414 187.182 258.59C184.37 258.766 182.143 260.23 180.444 263.043ZM200.249 324.977C202.182 321.871 203.12 318.062 203.12 313.551C203.12 306.344 201.362 301.129 197.905 297.848C194.389 294.566 190.756 293.043 186.948 293.219C183.139 293.395 179.975 295.27 177.339 298.785C174.702 302.359 173.94 307.105 174.936 313.082C175.932 319.059 178.159 323.746 181.616 327.145C184.135 329.605 187.358 330.719 191.225 330.484C195.034 330.309 198.081 328.434 200.249 324.977ZM198.96 290.992C202.358 292.281 205.346 294.039 207.983 296.207C212.964 300.367 215.424 305.465 215.424 311.441C215.424 317.066 213.022 322.34 208.217 327.262C203.413 332.184 196.967 334.645 188.94 334.645C180.854 334.645 174.409 332.184 169.604 327.262C164.799 322.34 162.397 317.066 162.397 311.441C162.397 305.465 164.858 300.367 169.839 296.207C172.475 294.039 175.464 292.281 178.862 290.992C176.46 289.762 174.409 288.473 172.827 287.066C168.725 283.609 166.674 279.391 166.674 274.469C166.674 269.84 168.667 265.445 172.71 261.285C176.694 257.125 182.085 255.074 188.94 255.074C195.737 255.074 201.128 257.125 205.171 261.285C209.155 265.445 211.147 269.84 211.147 274.469C211.147 279.391 209.096 283.609 204.995 287.066C203.354 288.473 201.362 289.762 198.96 290.992Z" fill="#963B50"/>
<rect x="54.4688" y="75" width="124.61" height="13.6467" fill="#E9CFD5"/>
<rect x="54.4688" y="101.445" width="124.61" height="13.6467" fill="#E9CFD5"/>
<rect x="54.4688" y="127.883" width="124.61" height="13.6467" fill="#E9CFD5"/>
</svg>
