<svg width="234" height="350" viewBox="0 0 234 350" fill="none" xmlns="http://www.w3.org/2000/svg">
<rect width="234" height="349.696" fill="#F1E4E7"/>
<path d="M184.135 334.645C177.749 334.645 171.596 332.945 165.62 329.547V318.707H168.139C169.721 326.617 174.819 330.602 183.432 330.602C188.413 330.602 192.456 328.492 195.561 324.332C198.667 320.172 200.19 314.547 200.19 307.574C200.19 300.133 198.256 294.859 194.389 291.871C190.522 288.883 185.424 287.359 179.038 287.359C177.221 287.359 174.233 287.535 170.19 287.887L176.518 255.602H202.71C205.932 255.602 207.749 254.488 208.276 252.203H211.206L208.862 262.164H181.323L177.046 283.902C179.214 283.844 181.323 283.785 183.374 283.785C192.221 283.785 199.428 286.07 204.878 290.582C210.327 295.152 213.022 301.012 213.022 308.16C213.022 315.719 210.503 322.047 205.522 327.086C200.542 332.125 193.393 334.645 184.135 334.645Z" fill="#963B50"/>
<rect x="54.4688" y="75" width="124.61" height="13.6467" fill="#E9CFD5"/>
<rect x="54.4688" y="101.445" width="124.61" height="13.6467" fill="#E9CFD5"/>
<rect x="54.4688" y="127.883" width="124.61" height="13.6467" fill="#E9CFD5"/>
<path d="M17.3333 253.703C18.0766 254.078 18.8448 254.465 19.5698 254.879C30.3938 261.049 41.8847 266.674 52.9967 272.113C56.7014 273.926 60.5322 275.801 64.2812 277.669C65.4799 278.266 66.4137 278.416 67.2231 278.14C67.2961 278.115 67.3679 278.087 67.4383 278.055C68.1359 277.743 68.7275 277.096 69.2838 276.042C70.229 274.176 70.9997 272.264 71.5878 270.326C76.4626 255.111 81.1646 240.278 85.1209 227.776C85.5616 226.383 85.9679 224.964 86.3617 223.591C86.7198 222.341 87.0906 221.048 87.4849 219.782C87.9372 218.329 87.5088 217.273 86.2112 216.644C85.4568 216.281 84.6762 215.955 83.8727 215.667C82.0298 215 80.1847 214.336 78.3371 213.677C76.4636 213.007 74.5917 212.333 72.7213 211.658C71.9522 211.379 71.177 211.081 70.4269 210.794C69.5387 210.452 68.6195 210.099 67.7002 209.774C64.8303 208.758 62.4482 207.949 60.2035 207.226C59.636 207.062 59.004 207.05 58.3814 207.191C57.6261 207.38 56.8869 207.645 56.1793 207.98C53.4739 209.178 50.7741 210.39 48.5121 211.404L46.5137 212.299L46.4989 212.306L40.736 215.161C35.5094 217.75 30.5727 220.196 25.6834 222.601C24.5379 223.164 23.3297 223.891 23.4983 225.401C23.4861 225.51 23.4512 225.618 23.3953 225.721C23.375 225.766 23.3554 225.81 23.3378 225.854C23.0329 226.598 22.7297 227.343 22.428 228.089C21.6784 229.935 20.9031 231.844 20.1096 233.714C17.9786 238.766 16.1866 243.885 14.7438 249.043C14.5471 249.858 14.4763 250.678 14.5336 251.479C14.551 251.708 14.6209 251.924 14.739 252.116C14.8571 252.309 15.0211 252.473 15.2217 252.6C15.9135 252.987 16.6354 253.351 17.3333 253.703ZM80.9316 224.352C80.926 224.374 80.92 224.396 80.9143 224.418C80.9134 224.422 80.9124 224.426 80.9114 224.43C80.8052 224.833 80.7132 225.183 80.5943 225.533C80.111 226.959 79.6208 228.383 79.1239 229.806C78.1698 232.558 77.1834 235.404 76.29 238.215C74.1919 244.817 72.1032 251.535 70.0834 258.032C69.2406 260.743 68.3968 263.454 67.5516 266.165C67.5169 266.278 67.4822 266.388 67.4462 266.498C67.4219 265.871 67.4005 265.227 67.3907 264.593C67.3504 261.969 67.3104 259.344 67.2704 256.72C67.2622 256.179 67.254 255.638 67.2457 255.097C67.1363 247.898 67.022 240.7 66.9027 233.502C66.8751 232.855 66.802 232.215 66.6839 231.586C66.642 231.33 66.5995 231.066 66.5596 230.788L80.9316 224.352ZM61.5404 233.028L62.5276 267.959C59.9912 265.019 57.3347 262.133 54.7564 259.336C49.9042 254.068 44.8898 248.625 40.6077 242.723L61.5404 233.028ZM46.1034 216.892C48.211 215.869 50.3682 214.906 52.4623 213.972C52.489 213.96 52.5156 213.949 52.5423 213.937C54.6672 212.989 56.8641 212.01 59.0068 210.97L79.7409 220.053L63.7873 227.525L63.5871 227.619L46.1034 216.892ZM39.4067 238.796C40.068 232.545 41.8647 226.7 43.9852 220.313L57.6101 230.237L39.4067 238.796ZM35.2992 245.232C40.0506 251.269 45.4131 256.953 50.6005 262.452C50.6012 262.453 50.602 262.454 50.6028 262.454C52.11 264.052 53.6587 265.694 55.1849 267.336C47.9898 264.182 41.0463 260.537 34.3172 257.004C30.4896 254.994 26.536 252.919 22.5732 250.953C24.6753 249.76 32.2503 246.342 35.2992 245.232ZM35.8273 221.765C36.8099 221.316 37.7926 220.866 38.7754 220.418C38.8678 220.375 38.9589 220.339 39.0786 220.294C37.0927 226.526 35.0221 233.711 34.8158 240.946L18.9748 248.039C19.0091 247.864 19.0581 247.688 19.1215 247.515C21.2235 242.095 22.9961 237.536 24.8148 232.906C25.281 231.717 25.7736 230.508 26.2481 229.34C26.6929 228.246 27.1338 227.151 27.5705 226.056C27.629 225.856 27.7416 225.664 27.8983 225.499C28.0549 225.334 28.2507 225.201 28.4682 225.11C30.8289 224.053 33.2178 222.96 35.5357 221.899C35.633 221.854 35.7302 221.81 35.8273 221.765Z" fill="#D9A6B3"/>
<path d="M61.5404 233.028L62.5276 267.959C59.9912 265.019 57.3347 262.133 54.7564 259.336C49.9042 254.068 44.8898 248.625 40.6077 242.723L61.5404 233.028Z" fill="#FBF2B4"/>
<path d="M80.9316 224.352C80.926 224.374 80.92 224.396 80.9143 224.418L80.9114 224.43C80.8052 224.833 80.7132 225.183 80.5943 225.533C80.111 226.959 79.6208 228.383 79.1239 229.806C78.1698 232.558 77.1834 235.404 76.29 238.215C74.1919 244.817 72.1032 251.535 70.0834 258.032C69.2406 260.743 68.3968 263.454 67.5516 266.165C67.5169 266.278 67.4822 266.388 67.4462 266.498C67.4219 265.871 67.4005 265.227 67.3907 264.593C67.3504 261.969 67.3104 259.344 67.2704 256.72L67.2457 255.097C67.1363 247.898 67.022 240.7 66.9027 233.502C66.8751 232.855 66.802 232.215 66.6839 231.586C66.642 231.33 66.5995 231.066 66.5596 230.788L80.9316 224.352Z" fill="#FBF2B4"/>
<path d="M46.1034 216.892C48.211 215.869 50.3682 214.906 52.4623 213.972L52.5423 213.937C54.6672 212.989 56.8641 212.01 59.0068 210.97L79.7409 220.053L63.7873 227.525L63.5871 227.619L46.1034 216.892Z" fill="#FBF2B4"/>
<path d="M39.4067 238.796C40.068 232.545 41.8647 226.7 43.9852 220.313L57.6101 230.237L39.4067 238.796Z" fill="#FBF2B4"/>
<path d="M35.8273 221.765C36.8099 221.316 37.7926 220.866 38.7754 220.418C38.8678 220.375 38.9589 220.339 39.0786 220.294C37.0927 226.526 35.0221 233.711 34.8158 240.946L18.9748 248.039C19.0091 247.864 19.0581 247.688 19.1215 247.515C21.2235 242.095 22.9961 237.536 24.8148 232.906C25.281 231.717 25.7736 230.508 26.2481 229.34C26.6929 228.246 27.1338 227.151 27.5705 226.056C27.629 225.856 27.7416 225.664 27.8983 225.499C28.0549 225.334 28.2507 225.201 28.4682 225.11C30.8289 224.053 33.2178 222.96 35.5357 221.899L35.8273 221.765Z" fill="#FBF2B4"/>
<path d="M35.2992 245.232C40.0506 251.269 45.4131 256.953 50.6005 262.452L50.6028 262.454C52.11 264.052 53.6587 265.694 55.1849 267.336C47.9898 264.182 41.0463 260.537 34.3172 257.004C30.4896 254.994 26.536 252.919 22.5732 250.953C24.6753 249.76 32.2503 246.342 35.2992 245.232Z" fill="#FBF2B4"/>
<path d="M100.227 263.873C100.42 264.163 100.62 264.463 100.798 264.763C103.459 269.246 106.479 273.668 109.398 277.943C110.372 279.369 111.378 280.843 112.357 282.297C112.67 282.762 112.979 283.009 113.333 283.075C113.365 283.081 113.397 283.085 113.429 283.088C113.749 283.118 114.101 283.003 114.525 282.733C115.261 282.246 115.944 281.706 116.564 281.119C121.533 276.565 126.358 272.115 130.423 268.362C130.876 267.944 131.322 267.509 131.753 267.089C132.146 266.706 132.552 266.31 132.962 265.929C133.431 265.491 133.496 265.017 133.154 264.52C132.954 264.232 132.738 263.952 132.504 263.682C131.971 263.058 131.436 262.436 130.899 261.815C130.355 261.184 129.812 260.552 129.271 259.92C129.048 259.66 128.827 259.392 128.614 259.132C128.361 258.824 128.099 258.506 127.831 258.198C126.995 257.236 126.295 256.45 125.626 255.723C125.453 255.546 125.225 255.412 124.968 255.335C124.652 255.249 124.327 255.193 123.998 255.17C122.759 255.051 121.519 254.937 120.48 254.842L119.562 254.757L119.555 254.756L116.852 254.612C114.4 254.482 112.084 254.359 109.794 254.23C109.258 254.2 108.664 254.217 108.409 254.803C108.382 254.84 108.347 254.873 108.305 254.899C108.288 254.911 108.271 254.923 108.256 254.936C107.988 255.145 107.722 255.355 107.455 255.565C106.795 256.085 106.111 256.622 105.43 257.142C103.593 258.549 101.866 260.05 100.258 261.637C100.015 261.894 99.8174 262.179 99.6704 262.484C99.629 262.571 99.6092 262.664 99.612 262.759C99.6149 262.853 99.6404 262.947 99.6871 263.035C99.8587 263.319 100.046 263.6 100.227 263.873ZM129.61 266.249C129.604 266.256 129.597 266.262 129.59 266.269C129.589 266.271 129.588 266.272 129.587 266.273C129.463 266.398 129.356 266.507 129.24 266.611C128.764 267.032 128.287 267.451 127.807 267.869C126.882 268.678 125.925 269.514 125.01 270.357C122.86 272.337 120.69 274.361 118.591 276.318C117.715 277.135 116.838 277.952 115.962 278.768C115.925 278.802 115.89 278.835 115.854 278.868C115.976 278.634 116.103 278.394 116.232 278.161C116.767 277.193 117.303 276.226 117.838 275.259C117.948 275.06 118.059 274.861 118.169 274.662C119.637 272.009 121.104 269.356 122.568 266.702C122.694 266.46 122.801 266.211 122.89 265.957C122.928 265.855 122.968 265.75 123.011 265.64L129.61 266.249ZM120.709 265.424L113.75 278.389C113.44 276.792 113.074 275.191 112.718 273.638C112.049 270.714 111.358 267.693 111.03 264.655L120.709 265.424ZM118.45 256.35C119.434 256.411 120.424 256.503 121.385 256.593C121.397 256.595 121.409 256.596 121.421 256.597C122.396 256.688 123.404 256.783 124.405 256.844L130.076 264.433L122.682 263.877L122.59 263.87L118.45 256.35ZM111.414 262.973C112.966 260.826 114.847 259.06 116.959 257.164L119.858 263.595L111.414 262.973ZM108.565 264.478C109.036 267.662 109.804 270.843 110.547 273.92C110.547 273.921 110.547 273.921 110.548 273.922C110.763 274.816 110.985 275.734 111.199 276.649C109.231 274.015 107.458 271.253 105.74 268.577C104.763 267.054 103.754 265.481 102.718 263.947C103.736 263.944 107.219 264.256 108.565 264.478ZM113.675 256.014C114.128 256.052 114.581 256.091 115.034 256.129C115.077 256.132 115.118 256.138 115.171 256.146C113.14 258.014 110.878 260.212 109.287 262.813L102.014 262.142C102.063 262.085 102.118 262.031 102.177 261.981C104.081 260.433 105.683 259.133 107.318 257.816C107.737 257.478 108.17 257.138 108.589 256.808C108.98 256.501 109.371 256.191 109.76 255.881C109.823 255.82 109.904 255.773 109.996 255.745C110.088 255.717 110.187 255.709 110.286 255.72C111.37 255.821 112.471 255.913 113.54 256.003C113.585 256.007 113.63 256.011 113.675 256.014Z" fill="#D9A6B3"/>
<path d="M120.709 265.424L113.75 278.389C113.44 276.792 113.074 275.191 112.718 273.638C112.049 270.714 111.358 267.693 111.03 264.655L120.709 265.424Z" fill="#FBF2B4"/>
<path d="M129.61 266.249C129.604 266.256 129.597 266.262 129.59 266.269L129.587 266.273C129.463 266.398 129.356 266.507 129.24 266.611C128.764 267.032 128.287 267.451 127.807 267.869C126.882 268.678 125.925 269.514 125.01 270.357C122.86 272.337 120.69 274.361 118.591 276.318C117.715 277.135 116.838 277.952 115.962 278.768C115.925 278.802 115.89 278.835 115.854 278.868C115.976 278.634 116.103 278.394 116.232 278.161C116.767 277.193 117.303 276.226 117.838 275.259L118.169 274.662C119.637 272.009 121.104 269.356 122.568 266.702C122.694 266.46 122.801 266.211 122.89 265.957C122.928 265.855 122.968 265.75 123.011 265.64L129.61 266.249Z" fill="#FBF2B4"/>
<path d="M118.45 256.35C119.434 256.411 120.424 256.503 121.385 256.593L121.421 256.597C122.396 256.688 123.404 256.783 124.405 256.844L130.076 264.433L122.682 263.877L122.59 263.87L118.45 256.35Z" fill="#FBF2B4"/>
<path d="M111.414 262.973C112.966 260.826 114.847 259.06 116.959 257.164L119.858 263.595L111.414 262.973Z" fill="#FBF2B4"/>
<path d="M113.675 256.014C114.128 256.052 114.581 256.091 115.034 256.129C115.077 256.132 115.118 256.138 115.171 256.146C113.14 258.014 110.878 260.212 109.287 262.813L102.014 262.142C102.063 262.085 102.118 262.031 102.177 261.981C104.081 260.433 105.683 259.133 107.318 257.816C107.737 257.478 108.17 257.138 108.589 256.808C108.98 256.501 109.371 256.191 109.76 255.881C109.823 255.82 109.904 255.773 109.996 255.745C110.088 255.717 110.187 255.709 110.286 255.72C111.37 255.821 112.471 255.913 113.54 256.003L113.675 256.014Z" fill="#FBF2B4"/>
<path d="M108.565 264.478C109.036 267.662 109.804 270.843 110.547 273.92L110.548 273.922C110.763 274.816 110.985 275.734 111.199 276.649C109.231 274.015 107.458 271.253 105.74 268.577C104.763 267.054 103.754 265.481 102.718 263.947C103.736 263.944 107.219 264.256 108.565 264.478Z" fill="#FBF2B4"/>
<path d="M147.168 33.3562C145.956 33.3226 145.257 33.0171 144.862 32.2783C144.486 31.5761 144.789 30.9724 145.257 30.4237C145.502 30.1341 145.815 29.8916 146.176 29.7114C148.09 28.7848 149.998 27.8432 151.968 27.0096C152.618 26.7694 153.335 26.6949 154.035 26.7949C154.359 26.8402 154.666 26.9507 154.931 27.1173C155.196 27.2839 155.412 27.5019 155.561 27.7535C155.709 28.0051 155.786 28.2832 155.786 28.565C155.786 28.8468 155.708 29.1243 155.559 29.3749C155.182 30.0082 154.61 30.5401 153.904 30.9125C152.137 31.7374 150.276 32.4195 148.431 33.1155C148.023 33.2402 147.599 33.3211 147.168 33.3562Z" fill="#D9A6B3"/>
<path d="M90.6136 33.1782C90.2398 32.9767 89.3845 32.6796 88.799 32.1578C87.8574 31.3008 87.0107 30.3704 86.2701 29.3786C85.874 28.8732 85.6631 28.2779 85.6646 27.6694C85.7375 26.562 87.1389 25.8189 88.4932 26.2707C89.6182 26.6205 90.6523 27.1576 91.5359 27.8512C92.4195 28.5448 93.1352 29.3813 93.6417 30.3124C94.4869 31.9056 93.1307 33.3326 90.6136 33.1782Z" fill="#D9A6B3"/>
<path d="M141.104 12.9985C142.934 13.0645 143.972 14.2848 143.545 15.5042C143.424 15.9002 143.19 16.2636 142.863 16.5616C141.566 17.6088 140.259 18.655 138.858 19.5956C138.178 20.0519 137.333 20.3789 136.354 20.0503C135.215 19.6677 134.7 18.8277 135.128 17.8541C135.24 17.5619 135.418 17.2912 135.65 17.057C136.875 15.947 138.085 14.8194 139.397 13.789C139.937 13.3653 140.719 13.1702 141.104 12.9985Z" fill="#D9A6B3"/>
<path d="M108.312 17.4466C108.16 18.3496 107.682 19.0031 106.708 19.3587C105.797 19.6908 105.039 19.4055 104.448 18.8535C103.16 17.703 102.221 16.299 101.713 14.7653C101.377 13.6821 101.793 12.8056 102.719 12.3634C103.703 11.8939 104.74 12.0084 105.605 12.8818C106.924 14.216 108.013 15.6809 108.312 17.4466Z" fill="#D9A6B3"/>
<path d="M161.067 42.6526C161.08 41.8807 160.962 41.111 160.714 40.3683C160.349 39.3817 159.635 38.6922 158.708 38.4321C157.77 38.168 156.71 38.3679 155.726 38.9901C154.983 39.4591 154.251 39.9748 153.546 40.473C153.256 40.6768 152.965 40.8838 152.675 41.0846L148.805 43.7709C145.647 45.9627 142.487 48.1544 139.324 50.3457C139.098 50.4933 138.86 50.6278 138.613 50.7478C138.513 50.7992 138.41 50.8505 138.306 50.908C138.236 50.9451 138.158 50.9679 138.076 50.9747C137.994 50.9819 137.911 50.973 137.834 50.9485C137.756 50.9243 137.686 50.8848 137.628 50.8332C137.571 50.7816 137.529 50.7192 137.505 50.6513C136.911 49.0323 136.336 47.4218 135.76 45.8175C134.481 42.2533 133.156 38.5648 131.754 34.9913C129.801 30.0186 127.679 25.1855 125.682 20.7023C125.157 19.6171 124.417 18.6174 123.497 17.7471C122.671 16.9326 121.724 16.835 120.431 17.4385C119.379 17.9253 118.893 18.8242 118.379 19.7744L118.331 19.8625C117.819 20.8035 117.31 21.7467 116.806 22.6923C115.265 25.5583 113.671 28.5269 111.993 31.3996C109.456 35.7446 106.731 40.1007 104.155 44.1907C103.28 45.5793 102.337 46.9094 101.34 48.3178C100.886 48.9593 100.424 49.6121 99.9606 50.2839C99.9233 50.3387 99.8731 50.3862 99.8134 50.4233C99.7536 50.4605 99.6855 50.4868 99.6133 50.5003C99.5411 50.5138 99.4664 50.5143 99.3938 50.502C99.3213 50.4894 99.2525 50.4644 99.1917 50.4279L97.7223 49.5497C96.789 48.9961 95.9394 48.4925 95.0936 47.9825C93.9033 47.2673 92.7128 46.5509 91.5223 45.8334C89.1906 44.4264 86.8561 43.0244 84.5188 41.6274C83.9973 41.2661 83.3686 41.0369 82.7041 40.9666C82.2123 40.9597 81.7348 41.1066 81.3607 41.3798C80.2639 42.0806 79.9177 42.9885 80.305 44.1573C80.5525 44.9106 80.9005 45.6654 81.2351 46.3977L81.2516 46.4284C81.5218 47.0227 81.8203 47.6239 82.1055 48.2062C82.6437 49.3046 83.2049 50.4425 83.6428 51.601C83.9237 52.3341 84.2057 53.0684 84.4888 53.804C86.298 58.5075 88.1669 63.371 89.2938 68.3455C89.675 70.033 90.7489 70.981 92.5773 71.2444C93.0799 71.3177 93.583 71.394 94.0812 71.4702C96.1292 71.8219 98.2028 72.0511 100.287 72.1552C105.027 72.2989 109.852 72.3471 114.518 72.395C116.572 72.415 118.623 72.4383 120.674 72.4645C124.041 72.5109 127.407 72.5615 130.773 72.6166L134.638 72.6746C134.95 72.6812 135.262 72.6848 135.578 72.6919C135.919 72.6996 136.263 72.7046 136.608 72.7098C137.803 72.7292 138.998 72.7375 140.193 72.75C143.128 72.7788 146.156 72.8082 149.138 72.9162C150.515 72.9668 151.508 72.594 152.267 71.7472C152.793 71.124 153.204 70.4348 153.485 69.7036L153.93 68.6302C155.745 64.2521 157.619 59.7221 158.826 55.1093C158.943 54.6607 159.063 54.2155 159.18 53.7669C160.138 50.1636 161.133 46.4298 161.067 42.6526ZM147.781 67.5117C147.743 67.5914 147.678 67.6599 147.596 67.7096C147.515 67.7594 147.418 67.7881 147.317 67.7926C146.92 67.8132 146.51 67.8383 146.097 67.8637C146.06 67.8659 146.024 67.8681 145.988 67.8703C144.958 67.9358 143.887 68.0026 142.81 67.998C141.043 67.9898 139.249 67.9619 137.516 67.9293C135.205 67.8938 132.815 67.852 130.469 67.8661C127.735 67.8857 124.951 67.9648 122.26 68.0418C120.714 68.0859 119.167 68.1301 117.621 68.1616C115.363 68.2102 113.479 68.2464 111.52 68.2179C106.944 68.1546 102.299 68.0657 97.7885 67.9794C97.5401 67.9746 97.2922 67.9699 97.0446 67.9651L94.6947 67.9202L94.6407 67.918C94.4229 67.9051 94.2069 67.8742 93.9957 67.8265L93.9939 67.8261C93.9233 67.811 93.8531 67.7959 93.7856 67.7878C93.6845 67.7716 93.5909 67.7308 93.5158 67.6704C93.4407 67.6097 93.3873 67.5322 93.3619 67.4465L88.0569 49.8033C88.0286 49.7124 88.0335 49.6159 88.0711 49.5274C88.1086 49.439 88.177 49.3629 88.2668 49.3089C88.3567 49.255 88.4637 49.2262 88.5734 49.2265C88.6832 49.2265 88.7903 49.2556 88.8803 49.3097L89.6639 49.771C90.1829 50.076 90.6603 50.3547 91.13 50.6395C91.7981 51.0434 92.4665 51.4453 93.1351 51.8448C94.7919 52.8415 96.5082 53.8686 98.1581 54.9296C99.2138 55.6086 100.154 55.8912 100.947 55.7697C101.722 55.6516 102.427 55.1586 103.096 54.2642L103.697 53.4656C104.833 51.9582 106.007 50.3969 107 48.8002C110.287 43.4961 113.587 38.0816 116.777 32.8444C118.035 30.7777 119.296 28.7112 120.56 26.6448C120.666 26.4691 120.775 26.2989 120.931 26.062L121.233 25.5964C121.281 25.5181 121.356 25.4541 121.447 25.4123C121.538 25.3705 121.641 25.3529 121.744 25.3616C121.847 25.368 121.946 25.3996 122.028 25.4528C122.111 25.506 122.174 25.5784 122.21 25.6613C122.587 26.5344 122.97 27.3797 123.346 28.2095C123.352 28.2222 123.358 28.2349 123.364 28.2476C124.174 30.0379 124.939 31.7291 125.578 33.4794C126.987 37.3527 128.359 41.2982 129.692 45.1305C129.75 45.2977 129.808 45.4646 129.866 45.6313C130.661 47.9156 131.46 50.201 132.262 52.4871C132.657 53.6523 133.128 54.7972 133.675 55.9162C133.853 56.3236 134.139 56.6895 134.512 56.9847C134.885 57.2798 135.332 57.4954 135.82 57.6146C136.775 57.8177 137.808 57.5734 138.732 56.9301C140.138 55.9522 141.537 54.9644 142.936 53.9799C144.164 53.1147 145.391 52.2515 146.618 51.3905C148.18 50.302 149.747 49.2161 151.319 48.1335L153.423 46.6814C153.501 46.6279 153.594 46.5936 153.693 46.5827C153.791 46.5715 153.892 46.584 153.983 46.6184L154.349 46.7599C154.461 46.8029 154.553 46.8773 154.609 46.9711C154.666 47.065 154.683 47.1723 154.659 47.2754C153.24 53.2614 151.313 60.3486 147.781 67.5117Z" fill="#D9A6B3"/>
<path d="M147.781 67.5117C147.743 67.5914 147.678 67.6599 147.596 67.7096C147.515 67.7594 147.418 67.7881 147.317 67.7926C146.92 67.8132 146.51 67.8383 146.097 67.8637L145.988 67.8703C144.958 67.9358 143.887 68.0026 142.81 67.998C141.043 67.9898 139.249 67.9619 137.516 67.9293C135.205 67.8938 132.815 67.852 130.469 67.8661C127.735 67.8857 124.951 67.9648 122.26 68.0418C120.714 68.0859 119.167 68.1301 117.621 68.1616C115.363 68.2102 113.479 68.2464 111.52 68.2179C106.944 68.1546 102.299 68.0657 97.7885 67.9794L97.0446 67.9651L94.6947 67.9202L94.6407 67.918C94.4229 67.9051 94.2069 67.8742 93.9957 67.8265L93.9939 67.8261C93.9233 67.811 93.8531 67.7959 93.7856 67.7878C93.6845 67.7716 93.5909 67.7308 93.5158 67.6704C93.4407 67.6097 93.3873 67.5322 93.3619 67.4465L88.0569 49.8033C88.0286 49.7124 88.0335 49.6159 88.0711 49.5274C88.1086 49.439 88.177 49.3629 88.2668 49.3089C88.3567 49.255 88.4637 49.2262 88.5734 49.2265C88.6832 49.2265 88.7903 49.2556 88.8803 49.3097L89.6639 49.771C90.1829 50.076 90.6603 50.3547 91.13 50.6395C91.7981 51.0434 92.4665 51.4453 93.1351 51.8448C94.7919 52.8415 96.5082 53.8686 98.1581 54.9296C99.2138 55.6086 100.154 55.8912 100.947 55.7697C101.722 55.6516 102.427 55.1586 103.096 54.2642L103.697 53.4656C104.833 51.9582 106.007 50.3969 107 48.8002C110.287 43.4961 113.587 38.0816 116.777 32.8444C118.035 30.7777 119.296 28.7112 120.56 26.6448C120.666 26.4691 120.775 26.2989 120.931 26.062L121.233 25.5964C121.281 25.5181 121.356 25.4541 121.447 25.4123C121.538 25.3705 121.641 25.3529 121.744 25.3616C121.847 25.368 121.946 25.3996 122.028 25.4528C122.111 25.506 122.174 25.5784 122.21 25.6613C122.587 26.5344 122.97 27.3797 123.346 28.2095L123.364 28.2476C124.174 30.0379 124.939 31.7291 125.578 33.4794C126.987 37.3527 128.359 41.2982 129.692 45.1305L129.866 45.6313C130.661 47.9156 131.46 50.201 132.262 52.4871C132.657 53.6523 133.128 54.7972 133.675 55.9162C133.853 56.3236 134.139 56.6895 134.512 56.9847C134.885 57.2798 135.332 57.4954 135.82 57.6146C136.775 57.8177 137.808 57.5734 138.732 56.9301C140.138 55.9522 141.537 54.9644 142.936 53.9799C144.164 53.1147 145.391 52.2515 146.618 51.3905C148.18 50.302 149.747 49.2161 151.319 48.1335L153.423 46.6814C153.501 46.6279 153.594 46.5936 153.693 46.5827C153.791 46.5715 153.892 46.584 153.983 46.6184L154.349 46.7599C154.461 46.8029 154.553 46.8773 154.609 46.9711C154.666 47.065 154.683 47.1723 154.659 47.2754C153.24 53.2614 151.313 60.3486 147.781 67.5117Z" fill="#FBF2B4"/>
</svg>
