<svg width="278" height="510" viewBox="0 0 278 510" fill="none" xmlns="http://www.w3.org/2000/svg">
<rect x="19" y="25" width="95" height="461" rx="10" fill="#9B707A"/>
<rect x="164" y="25" width="95" height="461" rx="10" fill="#9B707A"/>
<path fill-rule="evenodd" clip-rule="evenodd" d="M0 30C0 13.4315 13.4315 0 30 0H247.67C264.238 0 277.67 13.4315 277.67 30V510H0V30ZM19 35C19 29.4772 23.4772 25 29 25H104C109.523 25 114 29.4772 114 35V476C114 481.523 109.523 486 104 486H29C23.4772 486 19 481.523 19 476V35ZM174 25C168.477 25 164 29.4772 164 35V476C164 481.523 168.477 486 174 486H249C254.523 486 259 481.523 259 476V35C259 29.4772 254.523 25 249 25H174Z" fill="#963B50"/>
<rect width="5.33981" height="510" transform="matrix(-1 0 0 1 141.336 0)" fill="#70172E"/>
<rect x="130" y="310" width="7" height="35" rx="3.5" transform="rotate(90 130 310)" fill="#C9667F"/>
<rect x="183" y="310" width="7" height="35" rx="3.5" transform="rotate(90 183 310)" fill="#C9667F"/>
</svg>
