<svg width="173" height="308" viewBox="0 0 173 308" fill="none" xmlns="http://www.w3.org/2000/svg">
<rect width="173" height="308" fill="#F1E4E7"/>
<path d="M132.986 248.551C129.112 249.73 126.473 252.875 125.013 257.873C123.497 262.87 123.44 268.598 124.844 274.999C126.248 281.4 128.606 286.117 131.976 289.149C135.345 292.238 138.938 293.192 142.757 292.013C146.575 290.834 149.383 287.633 151.124 282.411C152.864 277.189 153.145 271.518 151.966 265.453C150.787 259.445 148.26 254.784 144.498 251.583C140.679 248.383 136.861 247.372 132.986 248.551ZM124.114 249.506C128.101 245.856 132.762 244.003 137.984 244.003C146.294 244.003 152.752 246.698 157.3 252.089C161.849 257.536 164.095 263.095 164.095 268.878C164.095 276.178 161.849 282.636 157.3 288.195C152.752 293.81 146.294 296.618 137.984 296.618C129.617 296.618 123.216 293.473 118.667 287.128C114.119 280.783 111.873 273.034 111.873 263.825C111.873 250.966 115.916 240.409 124.058 232.211C132.144 224.013 142.757 219.24 155.953 217.892L156.514 220.924C147.586 222.553 140.23 226.034 134.502 231.256C128.775 236.479 125.293 242.599 124.114 249.506Z" fill="#963B50"/>
<rect x="41" y="68" width="92.126" height="12.0195" fill="#E9CFD5"/>
<rect x="41" y="91.2812" width="92.126" height="12.0195" fill="#E9CFD5"/>
<rect x="41" y="114.633" width="92.126" height="12.0195" fill="#E9CFD5"/>
</svg>
