<svg width="246" height="410" viewBox="0 0 246 410" fill="none" xmlns="http://www.w3.org/2000/svg">
<rect width="246" height="410" fill="#F1E4E7"/>
<rect x="57" y="80" width="131" height="16" fill="#E9CFD5"/>
<rect x="57" y="111" width="131" height="16" fill="#E9CFD5"/>
<rect x="57" y="142" width="131" height="16" fill="#E9CFD5"/>
<path d="M190.18 323.495C188.519 326.264 187.719 329.586 187.719 333.585C187.719 339.86 189.134 344.413 191.902 347.182C194.671 350.012 197.562 351.365 200.7 351.181C203.776 351.058 206.36 349.643 208.391 346.936C210.421 344.229 211.036 340.106 210.236 334.508C209.375 328.909 207.529 324.603 204.638 321.588C202.607 319.558 200.146 318.635 197.255 318.819C194.302 319.004 191.964 320.542 190.18 323.495ZM210.975 388.525C213.005 385.265 213.989 381.266 213.989 376.528C213.989 368.961 212.144 363.485 208.514 360.04C204.822 356.595 201.008 354.995 197.009 355.18C193.01 355.364 189.688 357.333 186.919 361.024C184.15 364.777 183.351 369.761 184.396 376.036C185.442 382.312 187.78 387.233 191.41 390.802C194.056 393.386 197.439 394.555 201.5 394.309C205.499 394.124 208.698 392.155 210.975 388.525ZM209.621 352.842C213.189 354.195 216.327 356.041 219.096 358.317C224.325 362.686 226.909 368.038 226.909 374.313C226.909 380.22 224.387 385.757 219.342 390.925C214.297 396.093 207.529 398.677 199.101 398.677C190.61 398.677 183.843 396.093 178.798 390.925C173.753 385.757 171.23 380.22 171.23 374.313C171.23 368.038 173.814 362.686 179.044 358.317C181.812 356.041 184.95 354.195 188.519 352.842C185.996 351.55 183.843 350.196 182.182 348.72C177.875 345.09 175.722 340.66 175.722 335.492C175.722 330.632 177.813 326.018 182.059 321.649C186.242 317.281 191.902 315.128 199.101 315.128C206.237 315.128 211.897 317.281 216.143 321.649C220.326 326.018 222.418 330.632 222.418 335.492C222.418 340.66 220.265 345.09 215.958 348.72C214.235 350.196 212.144 351.55 209.621 352.842Z" fill="#963B50"/>
</svg>
