<svg width="173" height="308" viewBox="0 0 173 308" fill="none" xmlns="http://www.w3.org/2000/svg">
<rect width="173" height="308" fill="#F1E4E7"/>
<path d="M113.953 294V291.473C125.24 280.018 133.775 270.135 139.671 261.881C145.567 253.626 148.543 246.046 148.656 239.083C148.656 233.917 147.364 229.93 144.725 227.123C142.086 224.371 138.661 222.911 134.393 222.855C126.475 222.855 120.523 226.112 116.48 232.625L115.357 228.302C120.523 221.62 127.823 218.307 137.201 218.307C145.062 218.307 150.958 220.272 154.889 224.203C158.763 228.133 160.728 232.738 160.728 237.96C160.728 243.744 158.145 250.482 152.923 258.175C147.701 265.868 138.885 275.75 126.475 287.711H153.653C157.135 287.711 159.493 285.858 160.728 282.208H163.985L159.493 294H113.953Z" fill="#963B50"/>
<rect x="41" y="68" width="92.126" height="12.0195" fill="#E9CFD5"/>
<rect x="41" y="91.2812" width="92.126" height="12.0195" fill="#E9CFD5"/>
<rect x="41" y="114.633" width="92.126" height="12.0195" fill="#E9CFD5"/>
</svg>
