<svg width="234" height="350" viewBox="0 0 234 350" fill="none" xmlns="http://www.w3.org/2000/svg">
<rect width="234" height="349.696" fill="#F1E4E7"/>
<path d="M199.663 334H174.526V331.188H177.983C180.678 331.188 182.378 328.434 183.139 322.867C185.307 305.172 192.104 284.957 203.647 262.164H177.749C173.237 262.164 169.78 264.684 167.319 269.664H164.038L169.311 255.602H217.71V257.418C203.589 282.027 195.092 303.648 192.221 322.34C191.342 328.258 192.631 331.188 196.147 331.188H199.663V334Z" fill="#963B50"/>
<rect x="54.4688" y="75" width="124.61" height="13.6467" fill="#E9CFD5"/>
<rect x="54.4688" y="101.445" width="124.61" height="13.6467" fill="#E9CFD5"/>
<rect x="54.4688" y="127.883" width="124.61" height="13.6467" fill="#E9CFD5"/>
<path d="M70.3052 307.463C77.4985 314.173 81.4341 320.017 80.0092 322.841C77.6711 327.424 61.8596 322.029 44.6861 310.796C27.5188 299.564 15.486 286.743 17.821 282.164C19.2773 279.308 27.0041 280.771 36.0334 284.691" stroke="#E7B4C1" stroke-width="5" stroke-linecap="round" stroke-linejoin="round"/>
<path d="M48.9144 324.477C61.0476 324.477 70.8835 314.641 70.8835 302.508C70.8835 290.375 61.0476 280.539 48.9144 280.539C36.7812 280.539 26.9453 290.375 26.9453 302.508C26.9453 314.641 36.7812 324.477 48.9144 324.477Z" stroke="#E7B4C1" stroke-width="5" stroke-linecap="round" stroke-linejoin="round"/>
<path d="M165.88 47.0535C158.333 53.8094 154.158 59.7423 155.566 62.6802C157.876 67.4466 174.267 62.2262 192.183 51.025C210.093 39.8237 222.751 26.8792 220.444 22.1161C219.005 19.1452 211.019 20.4879 201.641 24.3329" stroke="#963B50" stroke-width="5" stroke-linecap="round" stroke-linejoin="round"/>
<path d="M187.543 65.0114C175.052 64.7555 165.134 54.4224 165.39 41.9318C165.646 29.4412 175.979 19.523 188.47 19.7789C200.96 20.0347 210.878 30.3678 210.623 42.8585C210.367 55.3491 200.034 65.2673 187.543 65.0114Z" stroke="#963B50" stroke-width="5" stroke-linecap="round" stroke-linejoin="round"/>
<path d="M76.7322 220.152C75.5107 220.369 74.4873 220.584 73.4541 220.729C68.9077 221.367 65.337 218.539 64.669 214.022C63.6979 207.465 68.6907 200.283 73.4566 198.311C75.0695 197.643 76.9551 197.631 79.179 197.238C85.1056 183.634 96.3712 176.982 111.669 176.055C111.894 173.551 112.117 171.079 112.351 168.479C111.69 168.209 110.898 168.107 110.471 167.658C109.849 167.006 109.133 166.105 109.13 165.308C109.128 164.624 109.984 163.455 110.611 163.343C112.348 163.034 114.242 162.823 115.927 163.209C118.078 163.702 118.387 165.408 117.016 167.161C116.735 167.452 116.553 167.824 116.496 168.224C116.611 170.452 116.806 172.675 116.956 174.663C120.983 175.021 124.833 175.214 128.638 175.73C141.087 177.417 149.331 184.397 153.827 195.97C153.902 196.163 153.992 196.351 154.085 196.537C154.131 196.602 154.185 196.66 154.245 196.711C156.314 196.711 158.439 196.432 160.463 196.768C164.802 197.489 168.045 199.826 169.122 204.283C170.2 208.74 168.484 212.44 165.202 215.379C161.974 218.27 158.037 219.065 153.773 218.521C153.614 218.652 153.477 218.807 153.365 218.981C148.598 230.166 139.756 236.725 128.539 240.409C118.797 243.634 108.307 243.853 98.438 241.039C87.5456 238.036 79.6713 231.763 76.7322 220.152ZM112.198 237.442C114.508 237.247 116.832 237.158 119.123 236.837C128.311 235.55 136.441 232.05 142.677 224.984C153.623 212.585 150.898 190.018 131.807 183.758C124.737 181.442 117.358 180.017 109.856 180.497C101.458 181.035 94.1335 184.234 88.716 190.86C83.6916 197.004 81.4754 204.297 81.2934 212.11C81.0291 223.449 86.5712 231.154 97.2841 234.916C102.086 236.554 107.122 237.407 112.196 237.441L112.198 237.442ZM77.2389 201.735C77.0598 201.71 76.8781 201.712 76.6997 201.741C72.5708 202.954 68.5121 210.022 69.5642 214.121C69.883 215.364 70.6726 216.103 71.9244 216.127C73.2865 216.154 74.6528 215.986 75.6497 215.925C76.2023 210.981 76.7174 206.379 77.2376 201.734L77.2389 201.735ZM155.537 212.535C157.816 212.496 160.004 211.634 161.693 210.109C163.989 208.031 164.261 204.882 162.284 203.067C160.366 201.305 158.066 200.798 155.537 201.31V212.535Z" fill="#877177"/>
<path d="M119.175 215.001C120.246 215.201 121.435 215.176 122.348 215.672C122.763 215.903 123.128 216.218 123.42 216.597C123.711 216.975 123.924 217.41 124.045 217.875C124.229 219.145 123.143 219.798 121.951 219.956C121.373 220.034 120.787 220 120.222 219.854C119.204 219.543 118.125 219.501 117.086 219.73C116.047 219.959 115.082 220.453 114.283 221.165C113.377 221.92 112.315 222.491 111.404 221.372C110.597 220.381 110.968 219.231 111.772 218.345C112.694 217.278 113.834 216.426 115.112 215.848C116.39 215.271 117.776 214.982 119.175 215.001V215.001Z" fill="#877177"/>
<path d="M101.14 196.004C103.531 196.089 105.026 197.837 104.896 200.398C104.793 202.437 103.195 204.081 101.399 203.997C99.3693 203.901 97.7604 201.821 97.8471 199.403C97.9355 196.951 98.9283 195.926 101.14 196.004Z" fill="#877177"/>
<path d="M124.063 199.717C124.058 197.867 124.824 197.029 126.544 197.001C128.767 196.964 130.164 198.138 130.113 200C130.068 201.603 128.707 202.963 127.109 202.999C125.282 203.04 124.067 201.729 124.063 199.717Z" fill="#877177"/>
</svg>
