<svg width="234" height="350" viewBox="0 0 234 350" fill="none" xmlns="http://www.w3.org/2000/svg">
<rect width="234" height="349.696" fill="#F1E4E7"/>
<path d="M142.475 322.633V274.703C142.475 268.551 140.542 265.445 136.675 265.445H132.046V263.453C138.901 262.633 144.526 259.82 148.921 255.016H154.37V322.633C154.37 328.316 156.421 331.188 160.464 331.188H164.214V334H132.046V331.188H136.089C140.366 331.188 142.475 328.316 142.475 322.633ZM200.382 264.625C196.339 260.113 192.355 258.707 188.371 260.406C184.328 262.105 181.281 266.969 179.172 274.996C177.004 283.023 176.769 292.223 178.41 302.535C179.992 312.848 182.804 320.289 186.73 324.918C190.656 329.547 194.64 331.012 198.625 329.312C202.55 327.613 205.656 322.691 207.882 314.547C210.109 306.461 210.402 297.262 208.82 286.949C207.179 276.637 204.367 269.195 200.382 264.625ZM165.168 294.859C165.168 284.254 167.746 274.938 172.843 266.969C177.941 259.059 184.855 255.074 193.586 255.074C202.316 255.074 209.289 259.059 214.386 266.969C219.484 274.938 222.004 284.254 222.004 294.859C222.004 305.465 219.484 314.781 214.386 322.691C209.289 330.66 202.316 334.645 193.586 334.645C184.855 334.645 177.941 330.66 172.843 322.691C167.746 314.781 165.168 305.465 165.168 294.859Z" fill="#963B50"/>
<rect x="54.4688" y="75" width="124.61" height="13.6467" fill="#E9CFD5"/>
<rect x="54.4688" y="101.445" width="124.61" height="13.6467" fill="#E9CFD5"/>
<rect x="54.4688" y="127.883" width="124.61" height="13.6467" fill="#E9CFD5"/>
</svg>
