<svg width="234" height="350" viewBox="0 0 234 350" fill="none" xmlns="http://www.w3.org/2000/svg">
<rect width="234" height="349.696" fill="#F1E4E7"/>
<path d="M164.506 334V331.363C176.284 319.41 185.19 309.098 191.342 300.484C197.495 291.871 200.6 283.961 200.717 276.695C200.717 271.305 199.37 267.145 196.616 264.215C193.862 261.344 190.288 259.82 185.835 259.762C177.573 259.762 171.362 263.16 167.143 269.957L165.971 265.445C171.362 258.473 178.979 255.016 188.764 255.016C196.967 255.016 203.12 257.066 207.221 261.168C211.264 265.27 213.315 270.074 213.315 275.523C213.315 281.559 210.62 288.59 205.171 296.617C199.721 304.645 190.522 314.957 177.573 327.438H205.932C209.565 327.438 212.026 325.504 213.315 321.695H216.714L212.026 334H164.506Z" fill="#963B50"/>
<rect x="54.4688" y="75" width="124.61" height="13.6467" fill="#E9CFD5"/>
<rect x="54.4688" y="101.445" width="124.61" height="13.6467" fill="#E9CFD5"/>
<rect x="54.4688" y="127.883" width="124.61" height="13.6467" fill="#E9CFD5"/>
</svg>
