<svg width="246" height="410" viewBox="0 0 246 410" fill="none" xmlns="http://www.w3.org/2000/svg">
<rect width="246" height="410" fill="#F1E4E7"/>
<rect x="57" y="80" width="131" height="16" fill="#E9CFD5"/>
<rect x="57" y="111" width="131" height="16" fill="#E9CFD5"/>
<rect x="57" y="142" width="131" height="16" fill="#E9CFD5"/>
<path d="M71.8191 386.938C65.0134 390.079 57.1839 390.269 50.053 387.466C42.9222 384.663 37.074 379.098 33.7951 371.993C30.5162 364.888 30.0751 356.827 32.569 349.582C35.0628 342.338 40.2872 336.503 47.0929 333.362C53.8985 330.221 61.728 330.031 68.8589 332.834C75.9898 335.637 81.8379 341.202 85.1168 348.307C88.3957 355.412 88.8368 363.473 86.343 370.718C83.8492 377.962 78.6248 383.797 71.8191 386.938ZM73.5852 390.765C81.3631 387.175 87.3339 380.507 90.184 372.227C93.034 363.948 92.53 354.735 88.7827 346.615C85.0353 338.496 78.3517 332.135 70.2022 328.932C62.0526 325.729 53.1046 325.946 45.3267 329.535C37.5488 333.125 31.578 339.793 28.728 348.073C25.8779 356.352 26.382 365.565 30.1293 373.685C33.8766 381.804 40.5602 388.165 48.7098 391.368C56.8593 394.571 65.8073 394.354 73.5852 390.765Z" fill="#877177"/>
<path d="M48.6055 372.432C48.9094 371.984 49.3779 371.684 49.9081 371.599C50.4382 371.513 50.9866 371.649 51.4324 371.976C53.4988 373.493 55.8995 374.437 58.3932 374.712C60.8868 374.987 63.3855 374.584 65.638 373.544C67.8911 372.505 69.8188 370.865 71.2274 368.788C72.6359 366.712 73.4756 364.273 73.6621 361.717C73.6803 361.442 73.7513 361.176 73.871 360.933C73.9907 360.691 74.1567 360.476 74.3595 360.302C74.5622 360.129 74.7977 359.999 75.0525 359.921C75.3072 359.843 75.5761 359.818 75.8436 359.847C76.1112 359.877 76.3722 359.96 76.6115 360.093C76.8509 360.226 77.0639 360.405 77.2382 360.62C77.4126 360.836 77.5449 361.083 77.6276 361.348C77.7102 361.614 77.7415 361.891 77.7198 362.165C77.4801 365.452 76.4006 368.588 74.5898 371.257C72.779 373.926 70.3007 376.034 67.4042 377.37C64.5082 378.708 61.2958 379.226 58.0898 378.872C54.8839 378.518 51.7975 377.305 49.1409 375.355C48.695 375.028 48.3881 374.536 48.2877 373.988C48.1873 373.439 48.3016 372.88 48.6055 372.432ZM53.1414 356.101C54.6038 359.27 54.1483 362.6 52.1248 363.533C50.1013 364.467 47.2721 362.654 45.8097 359.485C44.3474 356.317 44.8028 352.987 46.8263 352.053C48.8499 351.119 51.679 352.933 53.1414 356.101ZM67.8048 349.334C69.2671 352.503 68.8117 355.832 66.7882 356.766C64.7646 357.7 61.9355 355.886 60.4731 352.718C59.0107 349.549 59.4661 346.219 61.4897 345.286C63.5132 344.352 66.3424 346.165 67.8048 349.334Z" fill="#877177"/>
<path fill-rule="evenodd" clip-rule="evenodd" d="M71.8191 386.938C65.0134 390.079 57.1839 390.269 50.053 387.466C42.9222 384.663 37.074 379.098 33.7951 371.993C30.5162 364.888 30.0751 356.827 32.569 349.582C35.0628 342.338 40.2872 336.503 47.0929 333.362C53.8985 330.221 61.728 330.031 68.8589 332.834C75.9898 335.637 81.8379 341.202 85.1168 348.307C88.3957 355.412 88.8368 363.473 86.343 370.718C83.8492 377.962 78.6248 383.797 71.8191 386.938ZM49.9081 371.599C49.3779 371.684 48.9094 371.984 48.6055 372.432C48.3016 372.88 48.1873 373.439 48.2877 373.988C48.3881 374.536 48.695 375.028 49.1409 375.355C51.7975 377.305 54.8839 378.518 58.0898 378.872C61.2958 379.226 64.5082 378.708 67.4042 377.37C70.3007 376.034 72.779 373.926 74.5898 371.257C76.4006 368.588 77.4801 365.452 77.7198 362.165C77.7415 361.891 77.7102 361.614 77.6276 361.348C77.5449 361.083 77.4126 360.836 77.2382 360.62C77.0639 360.405 76.8509 360.226 76.6115 360.093C76.3722 359.96 76.1112 359.877 75.8436 359.847C75.5761 359.818 75.3072 359.843 75.0525 359.921C74.7977 359.999 74.5622 360.129 74.3595 360.302C74.1567 360.476 73.9907 360.691 73.871 360.933C73.7513 361.176 73.6803 361.442 73.6621 361.717C73.4756 364.273 72.6359 366.712 71.2274 368.788C69.8188 370.865 67.8911 372.505 65.638 373.544C63.3855 374.584 60.8868 374.987 58.3932 374.712C55.8995 374.437 53.4988 373.493 51.4324 371.976C50.9866 371.649 50.4382 371.513 49.9081 371.599ZM52.1248 363.533C54.1483 362.6 54.6038 359.27 53.1414 356.101C51.679 352.933 48.8499 351.119 46.8263 352.053C44.8028 352.987 44.3474 356.317 45.8097 359.485C47.2721 362.654 50.1013 364.467 52.1248 363.533ZM66.7882 356.766C68.8117 355.832 69.2671 352.503 67.8048 349.334C66.3424 346.165 63.5132 344.352 61.4897 345.286C59.4661 346.219 59.0107 349.549 60.4731 352.718C61.9355 355.886 64.7646 357.7 66.7882 356.766Z" fill="#FBF2B4"/>
<path d="M201.918 54.1844C197.519 52.5461 193.945 49.2422 191.983 44.9995C190.021 40.7567 189.831 35.9228 191.456 31.561C193.08 27.1991 196.386 23.6668 200.645 21.741C204.904 19.8152 209.768 19.6537 214.167 21.292C218.567 22.9303 222.14 26.2342 224.102 30.4769C226.064 34.7196 226.254 39.5536 224.63 43.9154C223.005 48.2772 219.7 51.8096 215.441 53.7354C211.181 55.6612 206.317 55.8227 201.918 54.1844ZM201.043 56.5339C206.07 58.4062 211.63 58.2216 216.497 56.0207C221.365 53.8198 225.143 49.7828 226.999 44.7979C228.856 39.8129 228.639 34.2884 226.397 29.4396C224.154 24.5908 220.07 20.8148 215.042 18.9425C210.015 17.0702 204.456 17.2547 199.588 19.4557C194.72 21.6566 190.943 25.6936 189.086 30.6785C187.23 35.6634 187.446 41.188 189.689 46.0368C191.931 50.8856 196.015 54.6615 201.043 56.5339Z" fill="#877177"/>
<path d="M197.869 38.1416C198.199 38.0871 198.538 38.1654 198.812 38.359C199.085 38.5527 199.271 38.8459 199.327 39.1742C199.59 40.6958 200.25 42.1241 201.243 43.3155C202.235 44.5069 203.524 45.4195 204.981 45.9614C206.437 46.5041 208.009 46.6571 209.539 46.405C211.069 46.153 212.503 45.5047 213.696 44.5255C213.824 44.4196 213.971 44.3398 214.13 44.2909C214.289 44.242 214.456 44.2248 214.622 44.2404C214.788 44.2559 214.949 44.3039 215.097 44.3816C215.244 44.4593 215.375 44.5651 215.481 44.6929C215.588 44.8208 215.668 44.9682 215.717 45.1266C215.766 45.285 215.783 45.4513 215.767 45.616C215.751 45.7806 215.703 45.9404 215.625 46.086C215.546 46.2316 215.44 46.3602 215.311 46.4644C213.776 47.7234 211.933 48.5568 209.966 48.8809C207.999 49.205 205.978 49.0084 204.106 48.3109C202.233 47.614 200.576 46.4407 199.3 44.909C198.024 43.3772 197.175 41.5409 196.838 39.5848C196.781 39.2564 196.858 38.9199 197.051 38.6493C197.245 38.3786 197.539 38.196 197.869 38.1416ZM206.986 33.3317C206.261 35.277 204.612 36.4605 203.304 35.9734C201.996 35.4863 201.522 33.5121 202.247 31.5667C202.971 29.6214 204.621 28.4379 205.929 28.925C207.237 29.4121 207.71 31.3863 206.986 33.3317ZM216.464 36.8615C215.74 38.8068 214.09 39.9903 212.782 39.5032C211.474 39.0161 211.001 37.0419 211.725 35.0966C212.45 33.1512 214.099 31.9677 215.407 32.4548C216.715 32.942 217.189 34.9161 216.464 36.8615Z" fill="#877177"/>
<path fill-rule="evenodd" clip-rule="evenodd" d="M201.918 54.1844C197.519 52.5461 193.945 49.2422 191.983 44.9995C190.021 40.7567 189.831 35.9228 191.456 31.561C193.08 27.1991 196.386 23.6668 200.645 21.741C204.904 19.8152 209.768 19.6537 214.167 21.292C218.567 22.9303 222.14 26.2342 224.102 30.4769C226.064 34.7196 226.254 39.5536 224.63 43.9154C223.005 48.2772 219.7 51.8096 215.441 53.7354C211.181 55.6612 206.317 55.8227 201.918 54.1844ZM198.812 38.359C198.538 38.1654 198.199 38.0871 197.869 38.1416C197.539 38.196 197.245 38.3786 197.051 38.6493C196.858 38.9199 196.781 39.2564 196.838 39.5848C197.175 41.5409 198.024 43.3772 199.3 44.909C200.576 46.4407 202.233 47.614 204.106 48.3109C205.978 49.0084 207.999 49.205 209.966 48.8809C211.933 48.5568 213.776 47.7234 215.311 46.4644C215.44 46.3602 215.546 46.2316 215.625 46.086C215.703 45.9404 215.751 45.7806 215.767 45.616C215.783 45.4513 215.766 45.285 215.717 45.1266C215.668 44.9682 215.588 44.8208 215.481 44.6929C215.375 44.5651 215.244 44.4593 215.097 44.3816C214.949 44.3039 214.788 44.2559 214.622 44.2404C214.456 44.2248 214.289 44.242 214.13 44.2909C213.971 44.3398 213.824 44.4196 213.696 44.5255C212.503 45.5047 211.069 46.153 209.539 46.405C208.009 46.6571 206.437 46.5041 204.981 45.9614C203.524 45.4195 202.235 44.5069 201.243 43.3155C200.25 42.1241 199.59 40.6958 199.327 39.1742C199.271 38.8459 199.085 38.5527 198.812 38.359ZM203.304 35.9734C204.612 36.4605 206.261 35.277 206.986 33.3317C207.71 31.3863 207.237 29.4121 205.929 28.925C204.621 28.4379 202.971 29.6214 202.247 31.5667C201.522 33.5121 201.996 35.4863 203.304 35.9734ZM212.782 39.5032C214.09 39.9903 215.74 38.8068 216.464 36.8615C217.189 34.9161 216.715 32.942 215.407 32.4548C214.099 31.9677 212.45 33.1512 211.725 35.0966C211.001 37.0419 211.474 39.0161 212.782 39.5032Z" fill="#FBF2B4"/>
<path d="M150.351 246.094C149.368 245.634 148.353 245.157 147.398 244.632C146.824 244.379 146.199 244.261 145.571 244.287C138.617 244.091 132.947 246.688 128.687 252.004C124.736 256.933 123.272 262.838 124.337 269.554C125.648 277.832 130.986 283.174 138.982 284.21C139.922 284.331 140.869 284.392 141.816 284.392C145.224 284.347 148.591 283.639 151.729 282.308C160.237 278.87 165.101 269.462 163.044 260.426C162.839 259.499 162.727 258.555 162.709 257.607C162.519 249.964 162.352 242.192 162.192 234.677L162.171 233.695C162.155 232.996 162.16 232.285 162.164 231.598C162.164 231.373 162.167 231.148 162.167 230.924C177.872 224.884 194.606 219.271 213.297 213.775L213.87 231.404C213.681 231.371 213.497 231.343 213.316 231.315C212.757 231.268 212.211 231.124 211.7 230.891C207.084 228.286 201.786 227.634 195.51 228.894C188.619 230.276 183.935 233.85 181.589 239.515C177.79 248.683 178.952 257.503 184.949 265.014C189.566 270.798 195.631 273.07 202.495 271.588C207.991 270.401 212.645 267.481 216.329 262.911C217.996 260.832 219.14 258.385 219.667 255.773C220.748 250.417 220.669 244.893 219.436 239.57C219.219 238.727 219.104 237.862 219.094 236.992C219.147 234.897 219.231 232.766 219.312 230.706C219.451 227.199 219.594 223.574 219.593 220.004C219.593 213.105 219.444 206.094 219.302 199.312C219.268 197.674 219.234 196.035 219.201 194.396C219.149 193.048 219.003 191.706 218.765 190.378C218.527 188.907 217.713 188.05 216.532 188.024L216.32 188.02C214.762 187.985 213.153 187.95 211.657 188.359C207.176 189.587 202.442 191.014 197.586 192.604C192.301 194.334 186.991 196.269 181.855 198.141C174.413 200.854 166.717 203.659 158.97 205.883C158.337 206.005 157.751 206.305 157.282 206.748L157.207 206.835C156.577 207.572 155.863 208.403 155.734 209.339C155.464 211.305 155.387 213.291 155.504 215.272C155.989 223.446 156.521 231.755 157.035 239.787C157.254 243.203 157.472 246.618 157.69 250.032C157.71 250.346 157.706 250.664 157.701 250.998C155.695 248.6 152.981 247.327 150.351 246.094ZM155.683 256.99C158.102 260.469 158.659 265.269 157.134 269.515C156.481 271.431 155.372 273.161 153.904 274.556C152.437 275.951 150.653 276.97 148.706 277.526C147.119 277.971 145.465 278.309 143.866 278.635C143.132 278.785 142.397 278.935 141.666 279.096C135.015 278.776 130.794 275.059 129.779 268.625C128.615 261.252 131.356 251.606 142.909 248.69C143.444 248.55 143.995 248.478 144.549 248.474C145.63 248.472 146.687 248.8 147.577 249.415C151.21 251.854 153.786 254.261 155.683 256.99ZM163.205 224.523C162.735 224.707 162.263 224.891 161.789 225.059C161.758 225.057 161.723 225.049 161.68 225.042L161.145 212.293L213.267 193.544V209.906C195.402 212.572 178.795 218.448 163.502 224.407L163.205 224.523ZM214.108 244.961C214.112 245.224 214.116 245.488 214.116 245.751C214.116 245.839 214.144 245.926 214.195 245.997C214.247 246.069 214.321 246.122 214.405 246.15C214.314 246.928 214.241 247.715 214.169 248.479C214.033 250.458 213.75 252.425 213.322 254.361C211.719 260.794 203.667 266.243 197.067 265.362C193.118 264.836 189.909 262.463 187.79 258.499C184.8 252.912 184.398 247.252 186.593 241.678C187.637 238.851 189.734 236.538 192.446 235.224C195.25 233.8 198.343 233.036 201.487 232.991C203.355 232.992 205.212 233.292 206.985 233.879C210.695 235.099 214.444 237.162 214.123 243.214C214.093 243.8 214.101 244.389 214.109 244.962L214.108 244.961Z" fill="#AC9198"/>
<path d="M204.314 367.73C208.56 366.438 211.451 363.055 213.112 357.579C214.712 352.104 214.773 345.828 213.235 338.814C211.697 331.801 209.113 326.633 205.422 323.249C201.73 319.927 197.793 318.881 193.609 320.173C189.426 321.465 186.35 324.972 184.442 330.693C182.535 336.415 182.228 342.629 183.52 349.212C184.812 355.856 187.58 360.901 191.764 364.408C195.886 367.915 200.069 369.022 204.314 367.73ZM214.65 364.777C210.651 370.13 205.422 372.775 198.839 372.775C189.733 372.775 182.72 369.822 177.736 363.854C172.753 357.948 170.23 351.857 170.23 345.521C170.23 337.522 172.753 330.447 177.736 324.295C182.72 318.204 189.733 315.128 198.9 315.128C208.006 315.128 215.02 318.573 220.003 325.525C224.986 332.478 227.447 340.968 227.447 351.058C227.447 365.146 223.141 376.836 214.466 386.003C205.791 395.17 194.409 400.276 180.382 401.322L179.767 398C189.18 396.646 196.809 393.017 202.653 387.049C208.498 381.081 212.497 373.698 214.65 364.777Z" fill="#963B50"/>
</svg>
