<svg width="234" height="350" viewBox="0 0 234 350" fill="none" xmlns="http://www.w3.org/2000/svg">
<rect width="234" height="349.696" fill="#F1E4E7"/>
<path d="M182.846 292.34V290.465C193.569 289.469 198.901 283.844 198.901 273.59C198.901 268.023 197.671 264.215 195.21 262.047C192.749 259.938 189.702 258.883 186.128 258.883C179.155 258.883 174.585 262.105 172.534 268.492H170.424V259.293C175.874 256.48 181.381 255.074 187.065 255.074C195.561 255.074 201.655 256.949 205.405 260.641C209.155 264.391 211.03 268.844 211.03 273.941C211.03 281.559 206.46 287.301 197.319 291.227C208.569 295.035 214.194 301.832 214.194 311.559C214.194 318.062 211.557 323.512 206.342 327.965C201.128 332.418 194.096 334.645 185.307 334.645C178.921 334.645 172.768 332.945 166.792 329.547V319.293H168.725C170.307 326.852 175.581 330.602 184.604 330.602C189.292 330.602 193.276 328.785 196.499 325.211C199.721 321.637 201.362 316.949 201.362 311.031C201.362 299.84 195.21 293.629 182.846 292.34Z" fill="#963B50"/>
<rect x="54.4688" y="75" width="124.61" height="13.6467" fill="#E9CFD5"/>
<rect x="54.4688" y="101.445" width="124.61" height="13.6467" fill="#E9CFD5"/>
<rect x="54.4688" y="127.883" width="124.61" height="13.6467" fill="#E9CFD5"/>
<g clip-path="url(#clip0_3191_5226)">
<path d="M37.4049 283.029C36.1179 283.033 34.8489 283.273 33.6717 283.733C32.4945 284.193 31.4327 284.864 30.5481 285.708C29.6589 286.548 28.9638 287.545 28.5032 288.64C28.0426 289.735 27.8257 290.907 27.8653 292.087L27.8993 292.815L27.1186 292.822C24.5303 292.844 22.0741 293.808 20.2902 295.502C18.5062 297.195 17.5408 299.48 17.6061 301.854C17.6971 304.22 18.796 306.474 20.6668 308.132C22.5376 309.79 25.0311 310.72 27.6121 310.722L46.5179 310.588C46.9097 310.584 47.2815 310.438 47.5516 310.182C47.8217 309.925 47.968 309.579 47.9583 309.22L47.4524 291.883C47.3575 289.513 46.2511 287.257 44.3718 285.601C42.4925 283.944 39.9905 283.021 37.4049 283.029Z" fill="#D9A6B3"/>
</g>
<g clip-path="url(#clip1_3191_5226)">
<path d="M217.257 186.767C216.719 185.609 215.936 184.562 214.953 183.685C213.969 182.808 212.806 182.119 211.529 181.659C210.255 181.193 208.893 180.964 207.522 180.986C206.151 181.007 204.798 181.279 203.542 181.785L202.771 182.106L202.44 181.405C201.345 179.083 199.289 177.255 196.724 176.324C194.159 175.392 191.296 175.433 188.765 176.438C186.252 177.463 184.277 179.351 183.264 181.696C182.252 184.042 182.282 186.658 183.349 188.983L191.323 205.956C191.489 206.307 191.8 206.584 192.189 206.725C192.577 206.866 193.01 206.86 193.394 206.708L211.873 199.344C214.389 198.314 216.363 196.418 217.37 194.066C218.377 191.713 218.337 189.092 217.257 186.767Z" fill="#D9A6B3"/>
</g>
<path d="M65.3736 183.172C64.5041 182.682 63.537 182.356 62.5286 182.212C61.5202 182.068 60.4907 182.11 59.5 182.334C58.5082 182.554 57.574 182.953 56.7518 183.508C55.9297 184.063 55.236 184.762 54.7113 185.565L54.3938 186.064L53.8645 185.769C52.1097 184.792 50.0038 184.495 48.01 184.942C46.0162 185.39 44.2977 186.545 43.2326 188.155C42.1884 189.769 41.8758 191.695 42.362 193.518C42.8482 195.342 44.0944 196.917 45.8331 197.907L58.6382 205.06C58.904 205.208 59.2228 205.253 59.5247 205.185C59.8265 205.118 60.0867 204.943 60.2482 204.699L68.0082 192.932C69.0518 191.313 69.3605 189.383 68.8677 187.558C68.3749 185.732 67.1201 184.157 65.3736 183.172Z" fill="#D9A6B3"/>
<g clip-path="url(#clip2_3191_5226)">
<path d="M127.324 323.127C126.924 322.266 126.341 321.487 125.609 320.834C124.878 320.182 124.012 319.669 123.062 319.327C122.114 318.98 121.1 318.81 120.08 318.826C119.06 318.842 118.053 319.044 117.119 319.42L116.545 319.659L116.299 319.138C115.484 317.41 113.953 316.05 112.045 315.357C110.137 314.663 108.006 314.694 106.122 315.442C104.252 316.204 102.783 317.609 102.03 319.354C101.276 321.1 101.299 323.046 102.093 324.777L108.026 337.407C108.15 337.668 108.381 337.874 108.67 337.979C108.959 338.084 109.282 338.079 109.567 337.966L123.318 332.486C125.19 331.72 126.659 330.309 127.408 328.559C128.158 326.808 128.128 324.858 127.324 323.127Z" fill="#D9A6B3"/>
</g>
<g clip-path="url(#clip3_3191_5226)">
<path d="M139.434 230.604C139.033 229.743 138.451 228.963 137.719 228.311C136.987 227.658 136.121 227.146 135.171 226.804C134.223 226.457 133.21 226.286 132.189 226.302C131.169 226.319 130.162 226.521 129.228 226.897L128.654 227.136L128.408 226.615C127.593 224.887 126.063 223.526 124.154 222.833C122.246 222.14 120.116 222.171 118.232 222.918C116.362 223.681 114.892 225.086 114.139 226.831C113.386 228.576 113.408 230.523 114.202 232.253L120.135 244.883C120.259 245.145 120.491 245.351 120.78 245.456C121.069 245.56 121.391 245.556 121.676 245.443L135.427 239.963C137.299 239.196 138.768 237.786 139.518 236.035C140.267 234.285 140.237 232.334 139.434 230.604Z" fill="#D9A6B3"/>
</g>
<path d="M206.948 19.6256C206.246 18.5448 205.317 17.6029 204.214 16.8547C203.112 16.1065 201.858 15.5671 200.526 15.2677C199.195 14.9623 197.812 14.9028 196.456 15.0925C195.101 15.2823 193.8 15.7176 192.629 16.3731L191.912 16.786L191.482 16.1324C190.057 13.9656 187.753 12.4067 185.075 11.7985C182.398 11.1903 179.566 11.5826 177.204 12.8892C174.863 14.2135 173.182 16.3268 172.521 18.7756C171.86 21.2243 172.272 23.8131 173.668 25.9863L184.048 41.8272C184.264 42.1551 184.613 42.3911 185.018 42.4831C185.423 42.5752 185.852 42.5159 186.21 42.3183L203.448 32.7507C205.791 31.4209 207.471 29.3 208.125 26.845C208.78 24.39 208.357 21.7974 206.948 19.6256Z" fill="#D9A6B3"/>
<path d="M49.6168 18.1795C48.6523 17.2708 47.5035 16.5501 46.2373 16.0592C44.971 15.5684 43.6126 15.3172 42.2412 15.3203C40.8698 15.3172 39.5114 15.5684 38.2452 16.0592C36.9789 16.5501 35.8301 17.2708 34.8657 18.1795L34.2773 18.7474L33.689 18.1991C31.7384 16.3814 29.0929 15.3602 26.3344 15.3602C23.576 15.3602 20.9305 16.3814 18.9799 18.1991C17.0548 20.0294 15.9766 22.4903 15.9766 25.0533C15.9766 27.6163 17.0548 30.0771 18.9799 31.9074L33.2057 45.2045C33.5012 45.4796 33.9017 45.634 34.3194 45.634C34.737 45.634 35.1375 45.4796 35.433 45.2045L49.6588 31.9074C51.5846 30.0711 52.6593 27.6032 52.6515 25.0355C52.6436 22.4677 51.5538 20.0056 49.6168 18.1795Z" fill="#D9A6B3"/>
<defs>
<clipPath id="clip0_3191_5226">
<rect width="44.9736" height="45.8396" fill="white" transform="matrix(0.725186 -0.688553 0.7484 0.663247 3.01562 300.695)"/>
</clipPath>
<clipPath id="clip1_3191_5226">
<rect width="49.8862" height="46.8478" fill="white" transform="matrix(0.939915 0.341408 -0.396324 0.918111 183.969 162.836)"/>
</clipPath>
<clipPath id="clip2_3191_5226">
<rect width="37.1213" height="34.8603" fill="white" transform="matrix(0.939915 0.341408 -0.396324 0.918111 102.555 305.32)"/>
</clipPath>
<clipPath id="clip3_3191_5226">
<rect width="37.1213" height="34.8603" fill="white" transform="matrix(0.939915 0.341408 -0.396324 0.918111 114.664 212.797)"/>
</clipPath>
</defs>
</svg>
