<svg width="174" height="308" viewBox="0 0 174 308" fill="none" xmlns="http://www.w3.org/2000/svg">
<rect x="1" width="173" height="308" fill="#F1E4E7"/>
<path d="M142.981 267.373C146.856 266.194 149.495 263.105 151.011 258.108C152.471 253.11 152.527 247.383 151.124 240.981C149.72 234.58 147.361 229.863 143.992 226.775C140.623 223.743 137.029 222.788 133.211 223.967C129.393 225.146 126.585 228.347 124.844 233.569C123.104 238.792 122.823 244.463 124.002 250.471C125.181 256.536 127.708 261.14 131.526 264.341C135.289 267.542 139.107 268.552 142.981 267.373ZM152.415 264.678C148.765 269.563 143.992 271.978 137.984 271.978C129.673 271.978 123.272 269.282 118.724 263.835C114.175 258.445 111.873 252.886 111.873 247.102C111.873 239.802 114.175 233.345 118.724 227.729C123.272 222.17 129.673 219.363 138.04 219.363C146.351 219.363 152.752 222.507 157.3 228.853C161.849 235.198 164.095 242.947 164.095 252.156C164.095 265.015 160.164 275.684 152.247 284.05C144.329 292.417 133.941 297.078 121.138 298.032L120.577 295C129.168 293.765 136.131 290.452 141.465 285.005C146.8 279.558 150.45 272.82 152.415 264.678Z" fill="#963B50"/>
<rect x="42" y="64" width="92.126" height="12.0195" fill="#E9CFD5"/>
<rect x="42" y="87.2812" width="92.126" height="12.0195" fill="#E9CFD5"/>
<rect x="42" y="110.633" width="92.126" height="12.0195" fill="#E9CFD5"/>
<path d="M44.6647 286.765C39.219 289.279 32.9541 289.431 27.2482 287.188C21.5423 284.946 16.8628 280.492 14.2391 274.807C11.6154 269.122 11.2625 262.672 13.258 256.875C15.2535 251.078 19.4339 246.409 24.8796 243.896C30.3253 241.383 36.5902 241.231 42.2961 243.473C48.002 245.716 52.6815 250.169 55.3052 255.854C57.9289 261.539 58.2818 267.99 56.2863 273.787C54.2908 279.584 50.1104 284.252 44.6647 286.765ZM46.078 289.828C52.3016 286.955 57.0792 281.62 59.3598 274.995C61.6403 268.369 61.237 260.997 58.2385 254.501C55.24 248.004 49.892 242.914 43.3709 240.351C36.8499 237.788 29.69 237.962 23.4663 240.834C17.2427 243.706 12.4651 249.042 10.1845 255.667C7.90399 262.292 8.30733 269.664 11.3058 276.161C14.3043 282.658 19.6523 287.748 26.1734 290.311C32.6944 292.874 39.8543 292.7 46.078 289.828Z" fill="#877177"/>
<path d="M26.0899 275.158C26.3331 274.8 26.708 274.56 27.1322 274.492C27.5564 274.423 27.9952 274.532 28.352 274.794C30.0054 276.008 31.9264 276.762 33.9217 276.983C35.9171 277.203 37.9165 276.88 39.7189 276.048C41.5217 275.216 43.0642 273.904 44.1913 272.243C45.3184 270.582 45.9903 268.63 46.1395 266.585C46.154 266.365 46.2109 266.152 46.3066 265.958C46.4024 265.763 46.5352 265.592 46.6975 265.453C46.8597 265.314 47.0482 265.21 47.252 265.147C47.4558 265.085 47.671 265.065 47.8851 265.089C48.0992 265.112 48.308 265.179 48.4995 265.285C48.691 265.391 48.8615 265.535 49.001 265.707C49.1405 265.88 49.2464 266.077 49.3125 266.29C49.3787 266.502 49.4037 266.724 49.3863 266.943C49.1945 269.573 48.3307 272.082 46.8818 274.218C45.4328 276.354 43.4498 278.041 41.1321 279.11C38.8148 280.18 36.2443 280.594 33.679 280.311C31.1137 280.028 28.6441 279.058 26.5184 277.497C26.1616 277.235 25.916 276.842 25.8357 276.403C25.7553 275.964 25.8468 275.517 26.0899 275.158ZM29.7194 262.091C30.8896 264.627 30.5252 267.291 28.906 268.038C27.2868 268.785 25.023 267.334 23.8529 264.799C22.6827 262.263 23.0471 259.599 24.6663 258.852C26.2855 258.104 28.5493 259.556 29.7194 262.091ZM41.4526 256.676C42.6228 259.211 42.2583 261.876 40.6392 262.623C39.02 263.37 36.7562 261.919 35.586 259.384C34.4159 256.848 34.7803 254.184 36.3995 253.437C38.0186 252.689 40.2825 254.141 41.4526 256.676Z" fill="#877177"/>
<path fill-rule="evenodd" clip-rule="evenodd" d="M44.6647 286.765C39.219 289.279 32.9541 289.431 27.2482 287.188C21.5423 284.946 16.8628 280.492 14.2391 274.807C11.6154 269.122 11.2625 262.672 13.258 256.875C15.2535 251.078 19.4339 246.409 24.8796 243.896C30.3253 241.383 36.5902 241.231 42.2961 243.473C48.002 245.716 52.6815 250.169 55.3052 255.854C57.9289 261.539 58.2818 267.99 56.2863 273.787C54.2908 279.584 50.1104 284.252 44.6647 286.765ZM27.1322 274.492C26.708 274.56 26.3331 274.8 26.0899 275.158C25.8468 275.517 25.7553 275.964 25.8357 276.403C25.916 276.842 26.1616 277.235 26.5184 277.497C28.6441 279.058 31.1137 280.028 33.679 280.311C36.2443 280.594 38.8148 280.18 41.1321 279.11C43.4498 278.041 45.4328 276.354 46.8818 274.218C48.3307 272.082 49.1945 269.573 49.3863 266.943C49.4037 266.724 49.3787 266.502 49.3125 266.29C49.2464 266.077 49.1405 265.88 49.001 265.707C48.8615 265.535 48.691 265.391 48.4995 265.285C48.308 265.179 48.0992 265.112 47.8851 265.089C47.671 265.065 47.4558 265.085 47.252 265.147C47.0482 265.21 46.8597 265.314 46.6975 265.453C46.5352 265.592 46.4024 265.763 46.3066 265.958C46.2109 266.152 46.154 266.365 46.1395 266.585C45.9903 268.63 45.3184 270.582 44.1913 272.243C43.0642 273.904 41.5217 275.216 39.7189 276.048C37.9165 276.88 35.9171 277.203 33.9217 276.983C31.9264 276.762 30.0054 276.008 28.352 274.794C27.9952 274.532 27.5564 274.423 27.1322 274.492ZM28.906 268.038C30.5252 267.291 30.8896 264.627 29.7194 262.091C28.5493 259.556 26.2855 258.104 24.6663 258.852C23.0471 259.599 22.6827 262.263 23.8529 264.799C25.023 267.334 27.2868 268.785 28.906 268.038ZM40.6392 262.623C42.2583 261.876 42.6228 259.211 41.4526 256.676C40.2825 254.141 38.0186 252.689 36.3995 253.437C34.7803 254.184 34.4159 256.848 35.586 259.384C36.7562 261.919 39.02 263.37 40.6392 262.623Z" fill="#FBF2B4"/>
<path d="M138.868 45.8485C135.348 44.5375 132.488 41.8938 130.918 38.4989C129.348 35.104 129.196 31.236 130.496 27.7459C131.796 24.2557 134.441 21.4292 137.849 19.8882C141.257 18.3472 145.149 18.218 148.669 19.5289C152.19 20.8398 155.049 23.4835 156.619 26.8784C158.189 30.2733 158.341 34.1413 157.041 37.6315C155.741 41.1217 153.096 43.9482 149.688 45.4892C146.28 47.0301 142.388 47.1594 138.868 45.8485ZM138.168 47.7284C142.19 49.2266 146.639 49.0789 150.534 47.3178C154.429 45.5567 157.452 42.3264 158.937 38.3376C160.422 34.3488 160.249 29.9283 158.455 26.0484C156.661 22.1685 153.393 19.1471 149.37 17.6489C145.347 16.1508 140.898 16.2985 137.003 18.0596C133.108 19.8207 130.086 23.051 128.6 27.0397C127.115 31.0285 127.288 35.4491 129.082 39.329C130.877 43.2089 134.145 46.2302 138.168 47.7284Z" fill="#877177"/>
<path d="M135.628 33.0115C135.892 32.9679 136.163 33.0305 136.382 33.1855C136.601 33.3404 136.749 33.5751 136.795 33.8378C137.005 35.0553 137.533 36.1981 138.327 37.1515C139.122 38.1048 140.153 38.835 141.318 39.2687C142.483 39.7029 143.741 39.8253 144.966 39.6236C146.19 39.4219 147.337 38.9032 148.292 38.1197C148.394 38.0349 148.512 37.9711 148.639 37.932C148.766 37.8928 148.9 37.8791 149.033 37.8915C149.166 37.904 149.295 37.9424 149.413 38.0046C149.531 38.0667 149.636 38.1514 149.721 38.2537C149.806 38.356 149.87 38.4739 149.909 38.6007C149.949 38.7274 149.962 38.8605 149.95 38.9923C149.937 39.124 149.898 39.2518 149.835 39.3683C149.773 39.4848 149.687 39.5878 149.584 39.6712C148.356 40.6785 146.881 41.3454 145.307 41.6048C143.733 41.8641 142.116 41.7068 140.618 41.1486C139.12 40.591 137.794 39.6522 136.773 38.4265C135.752 37.2008 135.073 35.7315 134.803 34.1663C134.757 33.9036 134.819 33.6343 134.974 33.4177C135.128 33.2012 135.364 33.055 135.628 33.0115ZM142.923 29.1627C142.343 30.7193 141.023 31.6663 139.977 31.2765C138.93 30.8868 138.551 29.3071 139.131 27.7505C139.711 26.1939 141.031 25.2469 142.077 25.6366C143.124 26.0264 143.503 27.6061 142.923 29.1627ZM150.507 31.9872C149.928 33.5438 148.608 34.4908 147.561 34.101C146.514 33.7112 146.135 32.1316 146.715 30.575C147.295 29.0183 148.615 28.0713 149.661 28.4611C150.708 28.8509 151.087 30.4306 150.507 31.9872Z" fill="#877177"/>
<path fill-rule="evenodd" clip-rule="evenodd" d="M138.868 45.8485C135.348 44.5375 132.488 41.8938 130.918 38.4989C129.348 35.104 129.196 31.236 130.496 27.7459C131.796 24.2557 134.441 21.4292 137.849 19.8882C141.257 18.3472 145.149 18.218 148.669 19.5289C152.19 20.8398 155.049 23.4835 156.619 26.8784C158.189 30.2733 158.341 34.1413 157.041 37.6315C155.741 41.1217 153.096 43.9482 149.688 45.4892C146.28 47.0301 142.388 47.1594 138.868 45.8485ZM136.382 33.1855C136.163 33.0305 135.892 32.9679 135.628 33.0115C135.364 33.055 135.128 33.2012 134.974 33.4177C134.819 33.6343 134.757 33.9036 134.803 34.1663C135.073 35.7315 135.752 37.2008 136.773 38.4265C137.794 39.6522 139.12 40.591 140.618 41.1486C142.116 41.7068 143.733 41.8641 145.307 41.6048C146.881 41.3454 148.356 40.6785 149.584 39.6712C149.687 39.5878 149.773 39.4848 149.835 39.3683C149.898 39.2518 149.937 39.124 149.95 38.9923C149.962 38.8605 149.949 38.7274 149.909 38.6007C149.87 38.4739 149.806 38.356 149.721 38.2537C149.636 38.1514 149.531 38.0667 149.413 38.0046C149.295 37.9424 149.166 37.904 149.033 37.8915C148.9 37.8791 148.766 37.8928 148.639 37.932C148.512 37.9711 148.394 38.0349 148.292 38.1197C147.337 38.9032 146.19 39.4219 144.966 39.6236C143.741 39.8253 142.483 39.7029 141.318 39.2687C140.153 38.835 139.122 38.1048 138.327 37.1515C137.533 36.1981 137.005 35.0553 136.795 33.8378C136.749 33.5751 136.601 33.3404 136.382 33.1855ZM139.977 31.2765C141.023 31.6663 142.343 30.7193 142.923 29.1627C143.503 27.6061 143.124 26.0264 142.077 25.6366C141.031 25.2469 139.711 26.1939 139.131 27.7505C138.551 29.3071 138.93 30.8868 139.977 31.2765ZM147.561 34.101C148.608 34.4908 149.928 33.5438 150.507 31.9872C151.087 30.4306 150.708 28.8509 149.661 28.4611C148.615 28.0713 147.295 29.0183 146.715 30.575C146.135 32.1316 146.514 33.7112 147.561 34.101Z" fill="#FBF2B4"/>
<path d="M85.3098 180.777C84.6273 180.462 83.9217 180.136 83.2585 179.776C82.8593 179.603 82.4249 179.522 81.989 179.54C77.1566 179.406 73.2166 181.184 70.2567 184.824C67.5111 188.199 66.4942 192.242 67.2339 196.84C68.1454 202.509 71.8544 206.166 77.4103 206.875C78.0633 206.959 78.7212 207 79.3797 207C81.7479 206.969 84.0874 206.485 86.2677 205.573C92.1794 203.219 95.5596 196.777 94.13 190.59C93.9877 189.956 93.9098 189.309 93.8974 188.66C93.7654 183.427 93.6494 178.106 93.5376 172.96L93.5231 172.288C93.5126 171.809 93.5157 171.322 93.5185 170.852C93.5185 170.697 93.5203 170.544 93.5208 170.39C104.434 166.255 116.061 162.411 129.049 158.648L129.447 170.719C129.315 170.696 129.187 170.677 129.062 170.658C128.673 170.626 128.294 170.527 127.939 170.368C124.732 168.584 121.05 168.137 116.689 169C111.901 169.947 108.647 172.394 107.016 176.273C104.377 182.55 105.184 188.589 109.351 193.732C112.559 197.692 116.773 199.248 121.543 198.233C125.361 197.42 128.596 195.421 131.155 192.292C132.313 190.869 133.109 189.193 133.475 187.404C134.226 183.737 134.171 179.955 133.314 176.31C133.164 175.733 133.084 175.141 133.076 174.545C133.114 173.111 133.172 171.651 133.228 170.241C133.325 167.84 133.424 165.358 133.423 162.913C133.423 158.19 133.32 153.389 133.221 148.746C133.198 147.624 133.174 146.502 133.151 145.38C133.115 144.457 133.014 143.537 132.848 142.628C132.683 141.621 132.117 141.034 131.296 141.017L131.149 141.013C130.067 140.99 128.949 140.965 127.909 141.246C124.795 142.087 121.506 143.064 118.132 144.152C114.459 145.337 110.77 146.662 107.201 147.944C102.03 149.801 96.6821 151.722 91.2994 153.245C90.8591 153.328 90.4521 153.533 90.126 153.837L90.0743 153.897C89.6363 154.401 89.14 154.97 89.0505 155.611C88.8629 156.957 88.8094 158.317 88.8909 159.673C89.2276 165.27 89.5973 170.959 89.9548 176.459C90.1065 178.797 90.2582 181.136 90.4099 183.474C90.4235 183.688 90.4209 183.906 90.4172 184.135C89.0234 182.493 87.1379 181.621 85.3098 180.777ZM89.0149 188.238C90.6962 190.62 91.083 193.907 90.0237 196.814C89.5693 198.126 88.7992 199.31 87.7793 200.265C86.7594 201.221 85.5199 201.918 84.1668 202.299C83.0643 202.604 81.9153 202.835 80.8042 203.058C80.294 203.161 79.7832 203.264 79.275 203.374C74.6536 203.155 71.7207 200.61 71.0154 196.204C70.2069 191.156 72.1112 184.552 80.139 182.555C80.5111 182.459 80.8937 182.409 81.2783 182.407C82.03 182.405 82.7644 182.63 83.3828 183.051C85.9074 184.721 87.697 186.369 89.0149 188.238ZM94.2417 166.007C93.915 166.133 93.5876 166.26 93.2577 166.374C93.2367 166.373 93.212 166.368 93.1819 166.363L92.8101 157.634L129.028 144.796V155.999C116.614 157.825 105.075 161.848 94.448 165.928L94.2417 166.007ZM129.612 180.001C129.615 180.182 129.617 180.362 129.617 180.542C129.617 180.603 129.637 180.662 129.673 180.711C129.709 180.76 129.76 180.797 129.818 180.816C129.756 181.348 129.705 181.887 129.655 182.411C129.56 183.765 129.363 185.112 129.066 186.438C127.952 190.842 122.357 194.573 117.771 193.97C115.027 193.61 112.798 191.985 111.325 189.271C109.247 185.445 108.968 181.57 110.493 177.754C111.218 175.818 112.676 174.234 114.56 173.334C116.508 172.359 118.657 171.836 120.842 171.806C122.141 171.806 123.43 172.011 124.663 172.414C127.24 173.249 129.846 174.661 129.622 178.805C129.602 179.206 129.607 179.61 129.613 180.002L129.612 180.001Z" fill="#AC9198"/>
</svg>
