<svg width="173" height="308" viewBox="0 0 173 308" fill="none" xmlns="http://www.w3.org/2000/svg">
<rect width="173" height="308" fill="#F1E4E7"/>
<path d="M141.187 269.293V234.872L116.368 269.293H141.187ZM152.586 273.897V283.106C152.586 288.553 154.552 291.305 158.426 291.305H162.02V294H131.192V291.305H135.067C139.166 291.305 141.187 288.553 141.187 283.106V273.897H109.181V272.213L147.196 218.307H152.586V269.293H157.022C160.111 269.293 162.301 267.103 163.536 262.667H166.231L162.301 273.897H152.586Z" fill="#963B50"/>
<rect x="41" y="68" width="92.126" height="12.0195" fill="#E9CFD5"/>
<rect x="41" y="91.2812" width="92.126" height="12.0195" fill="#E9CFD5"/>
<rect x="41" y="114.633" width="92.126" height="12.0195" fill="#E9CFD5"/>
</svg>
