<svg width="246" height="410" viewBox="0 0 246 410" fill="none" xmlns="http://www.w3.org/2000/svg">
<rect width="246" height="410" fill="#F1E4E7"/>
<path d="M202.284 369.93V332.216L175.091 369.93H202.284ZM214.773 374.975V385.064C214.773 391.032 216.927 394.047 221.172 394.047H225.109V397H191.333V394.047H195.578C200.069 394.047 202.284 391.032 202.284 385.064V374.975H167.216V373.129L208.867 314.066H214.773V369.93H219.634C223.018 369.93 225.417 367.53 226.771 362.67H229.724L225.417 374.975H214.773Z" fill="#963B50"/>
<rect x="57" y="88" width="131" height="16" fill="#E9CFD5"/>
<rect x="57" y="119" width="131" height="16" fill="#E9CFD5"/>
<rect x="57" y="150" width="131" height="16" fill="#E9CFD5"/>
</svg>
