<svg width="234" height="350" viewBox="0 0 234 350" fill="none" xmlns="http://www.w3.org/2000/svg">
<rect width="234" height="349.696" fill="#F1E4E7"/>
<path d="M194.858 305.172C198.901 303.941 201.655 300.719 203.237 295.504C204.76 290.289 204.819 284.312 203.354 277.633C201.889 270.953 199.428 266.031 195.913 262.809C192.397 259.645 188.647 258.648 184.663 259.879C180.678 261.109 177.749 264.449 175.932 269.898C174.116 275.348 173.823 281.266 175.053 287.535C176.284 293.863 178.921 298.668 182.905 302.008C186.831 305.348 190.815 306.402 194.858 305.172ZM204.702 302.359C200.893 307.457 195.913 309.977 189.643 309.977C180.971 309.977 174.292 307.164 169.546 301.48C164.799 295.855 162.397 290.055 162.397 284.02C162.397 276.402 164.799 269.664 169.546 263.805C174.292 258.004 180.971 255.074 189.702 255.074C198.374 255.074 205.053 258.355 209.799 264.977C214.546 271.598 216.889 279.684 216.889 289.293C216.889 302.711 212.788 313.844 204.526 322.574C196.264 331.305 185.424 336.168 172.065 337.164L171.479 334C180.444 332.711 187.71 329.254 193.276 323.57C198.842 317.887 202.651 310.855 204.702 302.359Z" fill="#963B50"/>
<rect x="54.4688" y="75" width="124.61" height="13.6467" fill="#E9CFD5"/>
<rect x="54.4688" y="101.445" width="124.61" height="13.6467" fill="#E9CFD5"/>
<rect x="54.4688" y="127.883" width="124.61" height="13.6467" fill="#E9CFD5"/>
<path d="M56.3003 316.938C49.4359 320.079 41.5389 320.269 34.3466 317.466C27.1542 314.663 21.2557 309.098 17.9485 301.993C14.6413 294.888 14.1965 286.827 16.7118 279.582C19.2271 272.338 24.4965 266.503 31.3609 263.362C38.2252 260.221 46.1222 260.031 53.3146 262.834C60.5069 265.637 66.4055 271.202 69.7126 278.307C73.0198 285.412 73.4647 293.473 70.9494 300.718C68.4341 307.962 63.1646 313.797 56.3003 316.938ZM58.0817 320.765C65.9266 317.175 71.9488 310.507 74.8235 302.227C77.6981 293.948 77.1897 284.735 73.4101 276.615C69.6305 268.496 62.8893 262.135 54.6694 258.932C46.4496 255.729 37.4245 255.946 29.5795 259.535C21.7345 263.125 15.7123 269.793 12.8377 278.073C9.96304 286.352 10.4715 295.565 14.2511 303.685C18.0307 311.804 24.7719 318.165 32.9917 321.368C41.2116 324.571 50.2367 324.354 58.0817 320.765Z" fill="#877177"/>
<path d="M32.8866 302.432C33.1931 301.984 33.6656 301.684 34.2004 301.599C34.7351 301.513 35.2882 301.649 35.7379 301.976C37.822 303.493 40.2435 304.437 42.7586 304.712C45.2738 304.987 47.794 304.584 50.0659 303.544C52.3384 302.505 54.2828 300.865 55.7035 298.788C57.1242 296.712 57.9711 294.273 58.1592 291.717C58.1776 291.442 58.2492 291.176 58.3699 290.933C58.4906 290.691 58.658 290.476 58.8626 290.302C59.0671 290.129 59.3046 289.999 59.5615 289.921C59.8185 289.843 60.0897 289.818 60.3595 289.847C60.6294 289.877 60.8926 289.96 61.134 290.093C61.3754 290.226 61.5903 290.405 61.7662 290.62C61.942 290.836 62.0755 291.083 62.1589 291.348C62.2422 291.614 62.2738 291.891 62.2518 292.165C62.0101 295.452 60.9213 298.588 59.0949 301.257C57.2684 303.926 54.7688 306.034 51.8473 307.37C48.9264 308.708 45.6862 309.226 42.4527 308.872C39.2191 308.518 36.1061 307.305 33.4266 305.355C32.9769 305.028 32.6673 304.536 32.5661 303.988C32.4648 303.439 32.5801 302.88 32.8866 302.432ZM37.4616 286.101C38.9366 289.27 38.4772 292.6 36.4362 293.533C34.3952 294.467 31.5417 292.654 30.0667 289.485C28.5917 286.317 29.0511 282.987 31.0921 282.053C33.1331 281.119 35.9866 282.933 37.4616 286.101ZM52.2513 279.334C53.7263 282.503 53.267 285.832 51.226 286.766C49.185 287.7 46.3315 285.886 44.8565 282.718C43.3815 279.549 43.8408 276.219 45.8818 275.286C47.9228 274.352 50.7764 276.165 52.2513 279.334Z" fill="#877177"/>
<path fill-rule="evenodd" clip-rule="evenodd" d="M56.3003 316.938C49.4359 320.079 41.5389 320.269 34.3466 317.466C27.1542 314.663 21.2557 309.098 17.9485 301.993C14.6413 294.888 14.1965 286.827 16.7118 279.582C19.2271 272.338 24.4965 266.503 31.3609 263.362C38.2252 260.221 46.1222 260.031 53.3146 262.834C60.5069 265.637 66.4055 271.202 69.7126 278.307C73.0198 285.412 73.4647 293.473 70.9494 300.718C68.4341 307.962 63.1646 313.797 56.3003 316.938ZM34.2004 301.599C33.6656 301.684 33.1931 301.984 32.8866 302.432C32.5801 302.88 32.4648 303.439 32.5661 303.988C32.6673 304.536 32.9769 305.028 33.4266 305.355C36.1061 307.305 39.2191 308.518 42.4527 308.872C45.6862 309.226 48.9264 308.708 51.8473 307.37C54.7688 306.034 57.2684 303.926 59.0949 301.257C60.9213 298.588 62.0101 295.452 62.2518 292.165C62.2738 291.891 62.2422 291.614 62.1589 291.348C62.0755 291.083 61.942 290.836 61.7662 290.62C61.5903 290.405 61.3754 290.226 61.134 290.093C60.8926 289.96 60.6294 289.877 60.3595 289.847C60.0897 289.818 59.8185 289.843 59.5615 289.921C59.3046 289.999 59.0671 290.129 58.8626 290.302C58.658 290.476 58.4906 290.691 58.3699 290.933C58.2492 291.176 58.1776 291.442 58.1592 291.717C57.9711 294.273 57.1242 296.712 55.7035 298.788C54.2828 300.865 52.3384 302.505 50.0659 303.544C47.794 304.584 45.2738 304.987 42.7586 304.712C40.2435 304.437 37.822 303.493 35.7379 301.976C35.2882 301.649 34.7351 301.513 34.2004 301.599ZM36.4362 293.533C38.4772 292.6 38.9366 289.27 37.4616 286.101C35.9866 282.933 33.1331 281.119 31.0921 282.053C29.0511 282.987 28.5917 286.317 30.0667 289.485C31.5417 292.654 34.3952 294.467 36.4362 293.533ZM51.226 286.766C53.267 285.832 53.7263 282.503 52.2513 279.334C50.7764 276.165 47.9228 274.352 45.8818 275.286C43.8408 276.219 43.3815 279.549 44.8565 282.718C46.3315 285.886 49.185 287.7 51.226 286.766Z" fill="#FBF2B4"/>
<path d="M190.46 56.3016C186.023 54.6633 182.419 51.3594 180.44 47.1166C178.461 42.8739 178.27 38.04 179.908 33.6781C181.546 29.3163 184.88 25.784 189.176 23.8582C193.472 21.9324 198.378 21.7708 202.816 23.4091C207.253 25.0474 210.857 28.3514 212.836 32.5941C214.815 36.8368 215.006 41.6708 213.368 46.0326C211.729 50.3944 208.396 53.9267 204.1 55.8526C199.804 57.7784 194.897 57.9399 190.46 56.3016ZM189.578 58.651C194.649 60.5234 200.256 60.3388 205.166 58.1379C210.075 55.9369 213.885 51.9 215.758 46.915C217.63 41.9301 217.412 36.4056 215.15 31.5568C212.888 26.7079 208.769 22.932 203.698 21.0597C198.627 19.1873 193.02 19.3719 188.11 21.5729C183.201 23.7738 179.39 27.8108 177.518 32.7957C175.646 37.7806 175.864 43.3051 178.126 48.154C180.387 53.0028 184.507 56.7787 189.578 58.651Z" fill="#877177"/>
<path d="M186.377 40.2588C186.71 40.2043 187.052 40.2825 187.327 40.4762C187.603 40.6699 187.79 40.9631 187.847 41.2914C188.112 42.813 188.778 44.2413 189.779 45.4327C190.78 46.6241 192.081 47.5367 193.549 48.0786C195.018 48.6213 196.604 48.7743 198.147 48.5222C199.69 48.2701 201.136 47.6219 202.34 46.6427C202.469 46.5367 202.617 46.457 202.778 46.4081C202.938 46.3592 203.106 46.342 203.274 46.3576C203.441 46.3731 203.604 46.4211 203.753 46.4988C203.901 46.5765 204.033 46.6823 204.141 46.8101C204.248 46.938 204.329 47.0854 204.378 47.2438C204.428 47.4022 204.445 47.5685 204.429 47.7332C204.413 47.8978 204.364 48.0575 204.285 48.2032C204.206 48.3488 204.099 48.4774 203.969 48.5816C202.421 49.8405 200.561 50.674 198.577 50.9981C196.594 51.3222 194.555 51.1256 192.667 50.4281C190.779 49.7312 189.107 48.5579 187.82 47.0261C186.533 45.4944 185.677 43.6581 185.336 41.7019C185.279 41.3736 185.357 41.0371 185.552 40.7665C185.747 40.4958 186.044 40.3132 186.377 40.2588ZM195.572 35.4488C194.841 37.3942 193.178 38.5777 191.858 38.0906C190.539 37.6035 190.061 35.6293 190.792 33.6839C191.523 31.7386 193.187 30.5551 194.506 31.0422C195.825 31.5293 196.303 33.5035 195.572 35.4488ZM205.132 38.9787C204.401 40.924 202.738 42.1075 201.418 41.6204C200.099 41.1333 199.621 39.1591 200.352 37.2138C201.083 35.2684 202.747 34.0849 204.066 34.572C205.385 35.0591 205.863 37.0333 205.132 38.9787Z" fill="#877177"/>
<path fill-rule="evenodd" clip-rule="evenodd" d="M190.46 56.3016C186.023 54.6633 182.419 51.3594 180.44 47.1166C178.461 42.8739 178.27 38.04 179.908 33.6781C181.546 29.3163 184.88 25.784 189.176 23.8582C193.472 21.9324 198.378 21.7708 202.816 23.4091C207.253 25.0474 210.857 28.3514 212.836 32.5941C214.815 36.8368 215.006 41.6708 213.368 46.0326C211.729 50.3944 208.396 53.9267 204.1 55.8526C199.804 57.7784 194.897 57.9399 190.46 56.3016ZM187.327 40.4762C187.052 40.2825 186.71 40.2043 186.377 40.2588C186.044 40.3132 185.747 40.4958 185.552 40.7665C185.357 41.0371 185.279 41.3736 185.336 41.7019C185.677 43.6581 186.533 45.4944 187.82 47.0261C189.107 48.5579 190.779 49.7312 192.667 50.4281C194.555 51.1256 196.594 51.3222 198.577 50.9981C200.561 50.674 202.421 49.8405 203.969 48.5816C204.099 48.4774 204.206 48.3488 204.285 48.2032C204.364 48.0575 204.413 47.8978 204.429 47.7332C204.445 47.5685 204.428 47.4022 204.378 47.2438C204.329 47.0854 204.248 46.938 204.141 46.8101C204.033 46.6823 203.901 46.5765 203.753 46.4988C203.604 46.4211 203.441 46.3731 203.274 46.3576C203.106 46.342 202.938 46.3592 202.778 46.4081C202.617 46.457 202.469 46.5367 202.34 46.6427C201.136 47.6219 199.69 48.2701 198.147 48.5222C196.604 48.7743 195.018 48.6213 193.549 48.0786C192.081 47.5367 190.78 46.6241 189.779 45.4327C188.778 44.2413 188.112 42.813 187.847 41.2914C187.79 40.9631 187.603 40.6699 187.327 40.4762ZM191.858 38.0906C193.178 38.5777 194.841 37.3942 195.572 35.4488C196.303 33.5035 195.825 31.5293 194.506 31.0422C193.187 30.5551 191.523 31.7386 190.792 33.6839C190.061 35.6293 190.539 37.6035 191.858 38.0906ZM201.418 41.6204C202.738 42.1075 204.401 40.924 205.132 38.9787C205.863 37.0333 205.385 35.0591 204.066 34.572C202.747 34.0849 201.083 35.2684 200.352 37.2138C199.621 39.1591 200.099 41.1333 201.418 41.6204Z" fill="#FBF2B4"/>
<path d="M149.041 214.175C148.374 213.864 147.683 213.543 147.034 213.189C146.644 213.018 146.218 212.938 145.792 212.956C141.063 212.824 137.208 214.575 134.312 218.16C131.625 221.484 130.63 225.465 131.354 229.994C132.246 235.577 135.875 239.179 141.312 239.877C141.951 239.959 142.594 240 143.239 240C145.556 239.97 147.845 239.492 149.979 238.595C155.763 236.276 159.071 229.932 157.672 223.839C157.533 223.214 157.457 222.577 157.444 221.938C157.315 216.784 157.202 211.543 157.092 206.476L157.078 205.813C157.068 205.342 157.071 204.863 157.074 204.4C157.074 204.247 157.075 204.096 157.076 203.945C167.754 199.872 179.132 196.087 191.84 192.381L192.23 204.268C192.101 204.246 191.976 204.227 191.853 204.209C191.473 204.177 191.102 204.08 190.755 203.923C187.616 202.166 184.014 201.726 179.746 202.576C175.061 203.508 171.877 205.918 170.281 209.738C167.699 215.921 168.489 221.868 172.566 226.933C175.705 230.833 179.829 232.366 184.496 231.366C188.232 230.566 191.397 228.596 193.902 225.515C195.035 224.113 195.813 222.463 196.171 220.701C196.906 217.09 196.852 213.365 196.014 209.775C195.867 209.207 195.789 208.623 195.782 208.037C195.818 206.624 195.875 205.187 195.93 203.798C196.025 201.433 196.122 198.989 196.121 196.581C196.121 191.929 196.02 187.201 195.924 182.628C195.9 181.523 195.877 180.418 195.855 179.313C195.819 178.404 195.72 177.499 195.558 176.604C195.396 175.612 194.843 175.033 194.04 175.016L193.896 175.013C192.837 174.99 191.743 174.966 190.725 175.242C187.678 176.07 184.46 177.033 181.158 178.104C177.564 179.271 173.954 180.576 170.462 181.838C165.402 183.668 160.169 185.56 154.902 187.059C154.471 187.141 154.073 187.344 153.754 187.642L153.703 187.701C153.275 188.198 152.789 188.758 152.702 189.39C152.518 190.715 152.466 192.055 152.546 193.39C152.875 198.902 153.237 204.505 153.587 209.922C153.735 212.225 153.883 214.528 154.032 216.83C154.045 217.042 154.043 217.256 154.039 217.482C152.675 215.864 150.83 215.006 149.041 214.175ZM152.667 221.522C154.312 223.868 154.691 227.105 153.654 229.968C153.209 231.26 152.456 232.427 151.458 233.367C150.46 234.308 149.247 234.995 147.923 235.37C146.844 235.67 145.72 235.898 144.633 236.118C144.133 236.219 143.634 236.32 143.136 236.429C138.614 236.213 135.744 233.707 135.054 229.368C134.263 224.396 136.126 217.892 143.982 215.925C144.346 215.831 144.72 215.782 145.096 215.779C145.832 215.778 146.551 215.999 147.156 216.414C149.626 218.058 151.377 219.681 152.667 221.522ZM157.781 199.629C157.462 199.753 157.141 199.877 156.819 199.99C156.798 199.988 156.774 199.984 156.744 199.979L156.381 191.382L191.82 178.739V189.772C179.673 191.57 168.381 195.532 157.983 199.55L157.781 199.629ZM192.392 213.41C192.394 213.588 192.397 213.766 192.397 213.943C192.397 214.003 192.416 214.061 192.451 214.109C192.486 214.158 192.537 214.194 192.594 214.212C192.532 214.737 192.482 215.268 192.433 215.783C192.341 217.118 192.148 218.443 191.857 219.749C190.767 224.087 185.293 227.762 180.805 227.167C178.12 226.813 175.938 225.212 174.498 222.54C172.465 218.772 172.191 214.956 173.684 211.197C174.393 209.29 175.819 207.731 177.663 206.844C179.569 205.884 181.672 205.369 183.81 205.339C185.081 205.34 186.343 205.542 187.549 205.938C190.071 206.76 192.62 208.151 192.402 212.232C192.382 212.627 192.387 213.025 192.393 213.412L192.392 213.41Z" fill="#AC9198"/>
</svg>
