<svg width="246" height="410" viewBox="0 0 246 410" fill="none" xmlns="http://www.w3.org/2000/svg">
<rect width="246" height="410" fill="#F1E4E7"/>
<path d="M209.359 398H182.966V395.047H186.596C189.426 395.047 191.21 392.155 192.01 386.311C194.286 367.73 201.423 346.505 213.543 322.572H186.35C181.612 322.572 177.982 325.218 175.398 330.447H171.953L177.49 315.682H228.309V317.589C213.481 343.429 204.561 366.131 201.546 385.757C200.623 391.971 201.977 395.047 205.668 395.047H209.359V398Z" fill="#963B50"/>
<rect x="57" y="80" width="131" height="16" fill="#E9CFD5"/>
<rect x="57" y="111" width="131" height="16" fill="#E9CFD5"/>
<rect x="57" y="142" width="131" height="16" fill="#E9CFD5"/>
<path d="M82.696 363.185C91.673 371.558 96.5845 378.851 94.8063 382.376C91.8884 388.095 72.1562 381.362 50.7242 367.344C29.3001 353.326 14.2836 337.327 17.1976 331.612C19.0149 328.048 28.6577 329.873 39.926 334.765" stroke="#E7B4C1" stroke-width="5" stroke-linecap="round" stroke-linejoin="round"/>
<path d="M56.0026 384.419C71.1444 384.419 83.4193 372.144 83.4193 357.003C83.4193 341.861 71.1444 329.586 56.0026 329.586C40.8608 329.586 28.5859 341.861 28.5859 357.003C28.5859 372.144 40.8608 384.419 56.0026 384.419Z" stroke="#E7B4C1" stroke-width="5" stroke-linecap="round" stroke-linejoin="round"/>
<g clip-path="url(#clip0_3016_1502)">
<path d="M181.003 42.1962C173.435 47.1139 168.949 51.7675 169.787 54.5465C171.17 59.059 186.315 56.7016 203.621 49.2865C220.921 41.8704 233.835 32.202 232.454 27.6929C231.593 24.8805 224.378 24.9718 215.595 27.0761" stroke="#963B50" stroke-width="5" stroke-linecap="round" stroke-linejoin="round"/>
<path d="M197.623 60.9688C186.66 59.0371 179.339 48.5839 181.27 37.6208C183.202 26.6577 193.655 19.3363 204.618 21.268C215.581 23.1997 222.903 33.653 220.971 44.616C219.039 55.5791 208.586 62.9005 197.623 60.9688Z" stroke="#963B50" stroke-width="5" stroke-linecap="round" stroke-linejoin="round"/>
</g>
<path d="M74.9045 238.095C73.4105 238.361 72.1587 238.624 70.8949 238.802C65.3339 239.584 60.9664 236.116 60.1494 230.577C58.9616 222.534 65.0685 213.727 70.898 211.307C72.8708 210.489 75.1772 210.474 77.8973 209.991C85.1465 193.306 98.9261 185.148 117.638 184.011C117.913 180.941 118.185 177.909 118.472 174.72C117.663 174.389 116.694 174.263 116.172 173.713C115.412 172.913 114.535 171.808 114.532 170.831C114.529 169.992 115.576 168.559 116.343 168.421C118.468 168.042 120.785 167.782 122.845 168.256C125.477 168.861 125.855 170.953 124.178 173.103C123.834 173.46 123.611 173.916 123.542 174.407C123.682 177.14 123.921 179.866 124.105 182.304C129.03 182.744 133.739 182.98 138.394 183.613C153.62 185.682 163.704 194.242 169.203 208.436C169.295 208.673 169.405 208.904 169.519 209.132C169.575 209.211 169.641 209.282 169.715 209.345C172.246 209.345 174.845 209.003 177.321 209.415C182.628 210.3 186.594 213.165 187.912 218.632C189.23 224.098 187.132 228.636 183.117 232.241C179.169 235.786 174.353 236.762 169.137 236.094C168.943 236.255 168.775 236.445 168.638 236.658C162.808 250.376 151.992 258.421 138.272 262.94C126.356 266.894 113.525 267.163 101.454 263.712C88.131 260.028 78.4995 252.335 74.9045 238.095ZM118.285 259.3C121.11 259.061 123.953 258.952 126.755 258.558C137.993 256.979 147.938 252.687 155.565 244.021C168.953 228.814 165.621 201.136 142.269 193.459C133.622 190.619 124.596 188.871 115.42 189.459C105.148 190.119 96.189 194.042 89.5626 202.169C83.417 209.705 80.7062 218.649 80.4836 228.231C80.1603 242.138 86.9391 251.588 100.043 256.202C105.916 258.212 112.075 259.258 118.283 259.299L118.285 259.3ZM75.5243 215.506C75.3052 215.476 75.083 215.479 74.8648 215.515C69.8146 217.001 64.85 225.67 66.137 230.698C66.5269 232.222 67.4927 233.128 69.0239 233.158C70.6899 233.191 72.3611 232.985 73.5804 232.911C74.2564 226.847 74.8865 221.203 75.5227 215.505L75.5243 215.506ZM171.295 228.752C174.083 228.705 176.758 227.648 178.825 225.777C181.634 223.229 181.966 219.367 179.548 217.14C177.201 214.98 174.388 214.357 171.295 214.986V228.752Z" fill="#877177"/>
<path d="M126.503 232.54C127.757 232.771 129.15 232.743 130.221 233.315C130.708 233.582 131.135 233.946 131.477 234.383C131.819 234.821 132.068 235.323 132.209 235.86C132.425 237.327 131.153 238.081 129.755 238.264C129.079 238.354 128.391 238.314 127.73 238.146C126.536 237.787 125.272 237.738 124.054 238.003C122.836 238.267 121.706 238.838 120.77 239.66C119.707 240.532 118.463 241.192 117.395 239.899C116.45 238.755 116.884 237.426 117.827 236.403C118.908 235.17 120.243 234.186 121.741 233.519C123.238 232.852 124.863 232.518 126.503 232.54V232.54Z" fill="#877177"/>
<path d="M105.19 209.325C108.11 209.426 109.936 211.51 109.778 214.56C109.652 216.991 107.7 218.95 105.506 218.849C103.027 218.735 101.062 216.257 101.168 213.375C101.276 210.454 102.489 209.232 105.19 209.325Z" fill="#877177"/>
<path d="M133.398 213.11C133.393 210.674 134.328 209.57 136.427 209.532C139.141 209.484 140.845 211.03 140.783 213.483C140.729 215.596 139.067 217.387 137.116 217.434C134.887 217.489 133.404 215.762 133.398 213.11Z" fill="#877177"/>
<defs>
<clipPath id="clip0_3016_1502">
<rect width="69.107" height="69.107" fill="white" transform="matrix(-0.984829 -0.173527 -0.173527 0.984829 241.148 13.0859)"/>
</clipPath>
</defs>
</svg>
