<svg width="173" height="308" viewBox="0 0 173 308" fill="none" xmlns="http://www.w3.org/2000/svg">
<rect width="173" height="308" fill="#F1E4E7"/>
<path d="M131.529 254.076V252.279C141.805 251.324 146.915 245.934 146.915 236.107C146.915 230.772 145.736 227.123 143.377 225.045C141.019 223.023 138.099 222.013 134.674 222.013C127.992 222.013 123.612 225.101 121.646 231.222H119.625V222.406C124.847 219.71 130.125 218.363 135.572 218.363C143.714 218.363 149.554 220.16 153.148 223.697C156.742 227.291 158.538 231.559 158.538 236.444C158.538 243.744 154.159 249.247 145.399 253.009C156.18 256.659 161.571 263.172 161.571 272.494C161.571 278.727 159.044 283.949 154.046 288.216C149.049 292.484 142.31 294.618 133.888 294.618C127.767 294.618 121.871 292.989 116.143 289.732V279.906H117.996C119.513 287.149 124.566 290.743 133.214 290.743C137.706 290.743 141.524 289.002 144.613 285.577C147.701 282.152 149.273 277.66 149.273 271.988C149.273 261.263 143.377 255.311 131.529 254.076Z" fill="#963B50"/>
<rect x="41" y="68" width="92.126" height="12.0195" fill="#E9CFD5"/>
<rect x="41" y="91.2812" width="92.126" height="12.0195" fill="#E9CFD5"/>
<rect x="41" y="114.633" width="92.126" height="12.0195" fill="#E9CFD5"/>
<g clip-path="url(#clip0_3516_3681)">
<path d="M31.1471 235.61C30.206 235.613 29.278 235.804 28.4172 236.171C27.5565 236.537 26.78 237.073 26.1332 237.746C25.483 238.415 24.9747 239.21 24.6379 240.083C24.3011 240.955 24.1425 241.889 24.1714 242.83L24.1963 243.411L23.6254 243.416C21.7328 243.434 19.9368 244.202 18.6323 245.552C17.3279 246.902 16.6219 248.724 16.6697 250.616C16.7362 252.502 17.5398 254.299 18.9077 255.62C20.2757 256.942 22.099 257.683 23.9863 257.685L37.8107 257.578C38.0972 257.575 38.3691 257.459 38.5666 257.254C38.7641 257.05 38.871 256.774 38.864 256.488L38.494 242.668C38.4246 240.778 37.6156 238.98 36.2414 237.66C34.8672 236.339 33.0377 235.603 31.1471 235.61Z" fill="#D9A6B3"/>
</g>
<path d="M162.658 158.876C162.265 157.954 161.692 157.119 160.973 156.42C160.254 155.721 159.403 155.172 158.47 154.805C157.538 154.434 156.542 154.251 155.539 154.268C154.537 154.286 153.548 154.502 152.629 154.905L152.065 155.161L151.824 154.603C151.023 152.752 149.519 151.295 147.644 150.552C145.768 149.809 143.675 149.842 141.824 150.643C139.986 151.46 138.542 152.965 137.802 154.835C137.061 156.704 137.084 158.79 137.864 160.643L143.694 174.173C143.816 174.453 144.043 174.674 144.327 174.786C144.611 174.899 144.928 174.894 145.209 174.773L158.721 168.902C160.561 168.081 162.004 166.57 162.741 164.695C163.477 162.82 163.448 160.73 162.658 158.876Z" fill="#D9A6B3"/>
<path d="M51.5947 156.023C50.9589 155.632 50.2517 155.372 49.5144 155.257C48.777 155.142 48.0242 155.175 47.2998 155.355C46.5746 155.53 45.8914 155.848 45.2903 156.29C44.6891 156.732 44.1819 157.29 43.7982 157.93L43.566 158.328L43.179 158.093C41.8959 157.314 40.356 157.077 38.898 157.434C37.4401 157.79 36.1835 158.711 35.4047 159.994C34.6411 161.281 34.4126 162.816 34.7681 164.27C35.1236 165.723 36.0349 166.979 37.3063 167.769L46.6696 173.471C46.864 173.588 47.0971 173.624 47.3178 173.57C47.5386 173.516 47.7289 173.377 47.8469 173.183L53.5212 163.803C54.2843 162.512 54.51 160.974 54.1497 159.518C53.7893 158.063 52.8718 156.808 51.5947 156.023Z" fill="#D9A6B3"/>
<g clip-path="url(#clip1_3516_3681)">
<path d="M96.904 267.58C96.6114 266.894 96.1852 266.272 95.6501 265.752C95.115 265.232 94.4818 264.824 93.7873 264.551C93.0942 264.274 92.353 264.138 91.6069 264.151C90.8608 264.164 90.1247 264.325 89.4414 264.625L89.0217 264.816L88.8419 264.4C88.2458 263.023 87.127 261.938 85.7315 261.386C84.336 260.833 82.7781 260.857 81.4006 261.453C80.0333 262.061 78.9588 263.181 78.4079 264.572C77.857 265.964 77.8736 267.516 78.454 268.895L82.7926 278.963C82.883 279.171 83.0524 279.335 83.2637 279.419C83.475 279.502 83.7109 279.499 83.9195 279.409L93.9745 275.04C95.3435 274.429 96.4176 273.305 96.9656 271.91C97.5135 270.514 97.4914 268.959 96.904 267.58Z" fill="#D9A6B3"/>
</g>
<g clip-path="url(#clip2_3516_3681)">
<path d="M105.754 193.83C105.461 193.144 105.035 192.522 104.5 192.002C103.965 191.482 103.331 191.074 102.637 190.801C101.944 190.524 101.203 190.388 100.456 190.401C99.7104 190.414 98.9743 190.575 98.291 190.875L97.8713 191.066L97.6915 190.65C97.0954 189.273 95.9766 188.188 94.5811 187.636C93.1856 187.083 91.6277 187.107 90.2502 187.703C88.8829 188.311 87.8084 189.431 87.2575 190.822C86.7066 192.214 86.7232 193.766 87.3036 195.145L91.6422 205.213C91.7326 205.421 91.9021 205.585 92.1133 205.669C92.3246 205.752 92.5605 205.749 92.7691 205.659L102.824 201.29C104.193 200.679 105.267 199.555 105.815 198.16C106.363 196.764 106.341 195.209 105.754 193.83Z" fill="#D9A6B3"/>
</g>
<path d="M155.117 25.6449C154.604 24.7834 153.925 24.0325 153.119 23.4361C152.312 22.8397 151.396 22.4097 150.422 22.171C149.449 21.9276 148.437 21.8801 147.446 22.0314C146.455 22.1827 145.503 22.5297 144.647 23.0523L144.123 23.3814L143.808 22.8603C142.767 21.1331 141.082 19.8904 139.124 19.4056C137.166 18.9208 135.095 19.2335 133.368 20.275C131.657 21.3307 130.427 23.0153 129.944 24.9673C129.46 26.9193 129.762 28.983 130.783 30.7153L138.372 43.3428C138.53 43.6042 138.785 43.7922 139.082 43.8656C139.378 43.9391 139.692 43.8918 139.953 43.7343L152.558 36.1075C154.272 35.0474 155.5 33.3568 155.978 31.3998C156.457 29.4428 156.148 27.3761 155.117 25.6449Z" fill="#D9A6B3"/>
<path d="M39.7532 24.8055C39.0457 24.0902 38.2028 23.5228 37.2738 23.1364C36.3448 22.75 35.3482 22.5522 34.342 22.5547C33.3358 22.5522 32.3392 22.75 31.4102 23.1364C30.4812 23.5228 29.6383 24.0902 28.9307 24.8055L28.4991 25.2526L28.0674 24.821C26.6363 23.39 24.6954 22.5861 22.6716 22.5861C20.6478 22.5861 18.7069 23.39 17.2757 24.821C15.8634 26.2619 15.0723 28.1991 15.0723 30.2168C15.0723 32.2345 15.8634 34.1717 17.2757 35.6126L27.7128 46.0805C27.9296 46.2971 28.2235 46.4187 28.5299 46.4187C28.8363 46.4187 29.1302 46.2971 29.347 46.0805L39.7841 35.6126C41.197 34.167 41.9855 32.2242 41.9797 30.2028C41.974 28.1814 41.1744 26.2431 39.7532 24.8055Z" fill="#D9A6B3"/>
<defs>
<clipPath id="clip0_3516_3681">
<rect width="34.3232" height="34.8805" fill="white" transform="translate(6 249.695) rotate(-45.9875)"/>
</clipPath>
<clipPath id="clip1_3516_3681">
<rect width="27.4405" height="27.4405" fill="white" transform="translate(78.791 253.383) rotate(21.6024)"/>
</clipPath>
<clipPath id="clip2_3516_3681">
<rect width="27.4405" height="27.4405" fill="white" transform="translate(87.6406 179.633) rotate(21.6024)"/>
</clipPath>
</defs>
</svg>
