<svg width="173" height="308" viewBox="0 0 173 308" fill="none" xmlns="http://www.w3.org/2000/svg">
<rect width="173" height="308" fill="#F1E4E7"/>
<path d="M140.586 296H116.497V293.305H119.81C122.393 293.305 124.021 290.666 124.751 285.331C126.829 268.373 133.342 249 144.404 227.157H119.585C115.261 227.157 111.948 229.572 109.59 234.345H106.445L111.499 220.868H157.881V222.609C144.348 246.193 136.206 266.913 133.455 284.826C132.612 290.497 133.848 293.305 137.217 293.305H140.586V296Z" fill="#963B50"/>
<rect x="41" y="68" width="92.126" height="12.0195" fill="#E9CFD5"/>
<rect x="41" y="91.2812" width="92.126" height="12.0195" fill="#E9CFD5"/>
<rect x="41" y="114.633" width="92.126" height="12.0195" fill="#E9CFD5"/>
<path d="M51.0357 198.151C49.9295 198.349 49.0026 198.545 48.0669 198.677C43.9494 199.259 40.7156 196.679 40.1106 192.558C39.2312 186.574 43.7528 180.021 48.0692 178.221C49.5299 177.612 51.2376 177.601 53.2516 177.242C58.6191 164.828 68.8219 158.758 82.6764 157.913C82.8802 155.628 83.0817 153.373 83.2939 151C82.6955 150.754 81.9778 150.66 81.5912 150.251C81.0283 149.655 80.3794 148.834 80.3771 148.106C80.3748 147.482 81.1499 146.416 81.7181 146.313C83.2908 146.031 85.0066 145.838 86.5323 146.19C88.4806 146.64 88.7605 148.197 87.5192 149.797C87.2643 150.062 87.0994 150.402 87.0482 150.767C87.1518 152.8 87.3285 154.829 87.465 156.642C91.1117 156.969 94.5983 157.145 98.0447 157.616C109.319 159.156 116.785 165.524 120.857 176.085C120.925 176.261 121.006 176.433 121.091 176.603C121.132 176.661 121.181 176.715 121.236 176.761C123.11 176.761 125.034 176.507 126.867 176.814C130.797 177.471 133.733 179.604 134.709 183.671C135.685 187.738 134.131 191.114 131.159 193.796C128.235 196.434 124.67 197.16 120.808 196.663C120.664 196.783 120.54 196.924 120.439 197.082C116.122 207.289 108.113 213.274 97.9545 216.636C89.1319 219.579 79.6312 219.779 70.6936 217.211C60.8289 214.47 53.6975 208.747 51.0357 198.151ZM83.1559 213.928C85.2471 213.75 87.3525 213.669 89.427 213.376C97.748 212.202 105.111 209.008 110.759 202.561C120.672 191.246 118.204 170.654 100.914 164.942C94.5115 162.829 87.8286 161.528 81.034 161.966C73.4284 162.457 66.7952 165.376 61.8889 171.422C57.3385 177.029 55.3314 183.683 55.1666 190.812C54.9272 201.16 59.9464 208.191 69.6486 211.623C73.9971 213.118 78.5579 213.897 83.154 213.928L83.1559 213.928ZM51.4946 181.345C51.3324 181.323 51.1678 181.325 51.0063 181.351C47.2669 182.458 43.5911 188.907 44.544 192.648C44.8327 193.782 45.5478 194.456 46.6815 194.478C47.9151 194.503 49.1525 194.35 50.0553 194.294C50.5558 189.783 51.0223 185.584 51.4934 181.344L51.4946 181.345ZM122.406 191.201C124.47 191.165 126.451 190.379 127.981 188.987C130.061 187.091 130.306 184.217 128.516 182.561C126.779 180.953 124.696 180.49 122.406 180.958V191.201Z" fill="#877177"/>
<path d="M88.8977 194.001C89.7957 194.172 90.7931 194.151 91.5595 194.576C91.9078 194.774 92.2137 195.044 92.4584 195.368C92.7031 195.693 92.8815 196.066 92.9828 196.465C93.1373 197.553 92.2264 198.112 91.226 198.248C90.7417 198.315 90.2496 198.285 89.7761 198.161C88.9219 197.894 88.0163 197.858 87.1447 198.054C86.2731 198.251 85.464 198.674 84.7937 199.284C84.0332 199.931 83.1422 200.421 82.3781 199.462C81.7015 198.613 82.0121 197.626 82.6871 196.867C83.4606 195.952 84.4165 195.222 85.4887 194.727C86.5609 194.232 87.724 193.984 88.8977 194.001V194.001Z" fill="#877177"/>
<path d="M73.2681 177.004C75.6383 177.078 77.1206 178.608 76.9923 180.848C76.89 182.632 75.3054 184.071 73.5246 183.997C71.5125 183.913 69.9174 182.094 70.0033 179.978C70.0909 177.832 71.0752 176.935 73.2681 177.004Z" fill="#877177"/>
<path d="M94 179.717C93.9958 177.867 94.7551 177.029 96.4605 177.001C98.6646 176.964 100.049 178.138 99.9987 180C99.9546 181.603 98.605 182.963 97.0201 182.999C95.2095 183.04 94.0046 181.729 94 179.717Z" fill="#877177"/>
<path d="M66.6633 268.176C73.4438 274.501 77.1536 280.009 75.8105 282.671C73.6065 286.991 58.7024 281.905 42.5144 271.317C26.3324 260.73 14.9901 248.645 17.1911 244.329C18.5638 241.636 25.8472 243.015 34.3583 246.71" stroke="#E7B4C1" stroke-width="5" stroke-linecap="round" stroke-linejoin="round"/>
<path d="M46.4993 284.206C57.9362 284.206 67.2077 274.934 67.2077 263.497C67.2077 252.06 57.9362 242.789 46.4993 242.789C35.0625 242.789 25.791 252.06 25.791 263.497C25.791 274.934 35.0625 284.206 46.4993 284.206Z" stroke="#E7B4C1" stroke-width="5" stroke-linecap="round" stroke-linejoin="round"/>
<g clip-path="url(#clip0_3516_3739)">
<path d="M139.698 29.0087C147.167 26.6743 152.756 26.2517 154.148 28.348C156.397 31.7671 146.447 40.5778 131.925 48.0342C117.405 55.4862 103.808 58.7633 101.56 55.3476C100.158 53.2172 104.209 48.4498 110.471 43.7484" stroke="#963B50" stroke-width="5" stroke-linecap="round" stroke-linejoin="round"/>
<path d="M143.046 50.4911C147.819 42.1016 144.887 31.4316 136.497 26.6589C128.108 21.8863 117.438 24.8183 112.665 33.2079C107.892 41.5974 110.824 52.2674 119.214 57.0401C127.604 61.8127 138.274 58.8807 143.046 50.4911Z" stroke="#963B50" stroke-width="5" stroke-linecap="round" stroke-linejoin="round"/>
</g>
<defs>
<clipPath id="clip0_3516_3739">
<rect width="59.9198" height="59.9198" fill="white" transform="translate(87 53.0781) rotate(-60.3653)"/>
</clipPath>
</defs>
</svg>
