<svg width="401" height="510" viewBox="0 0 401 510" fill="none" xmlns="http://www.w3.org/2000/svg">
<rect x="27.4375" y="25" width="137.195" height="461" rx="10" fill="#9B707A"/>
<rect x="236.844" y="25" width="137.195" height="461" rx="10" fill="#9B707A"/>
<path fill-rule="evenodd" clip-rule="evenodd" d="M0 30C0 13.4315 13.4315 0 30 0H371C387.569 0 401 13.4315 401 30V510H0V30ZM27.4406 35C27.4406 29.4772 31.9178 25 37.4406 25H154.636C160.159 25 164.636 29.4772 164.636 35V476C164.636 481.523 160.159 486 154.636 486H37.4406C31.9178 486 27.4406 481.523 27.4406 476V35ZM246.844 25C241.321 25 236.844 29.4772 236.844 35V476C236.844 481.523 241.321 486 246.844 486H364.039C369.562 486 374.039 481.523 374.039 476V35C374.039 29.4772 369.562 25 364.039 25H246.844Z" fill="#963B50"/>
<rect width="7.71154" height="510" transform="matrix(-1 0 0 1 204.109 0)" fill="#70172E"/>
<rect x="187.742" y="310" width="7" height="50.5456" rx="3.5" transform="rotate(90 187.742 310)" fill="#C9667F"/>
<rect x="264.281" y="310" width="7" height="50.5456" rx="3.5" transform="rotate(90 264.281 310)" fill="#C9667F"/>
</svg>
