<svg width="234" height="350" viewBox="0 0 234 350" fill="none" xmlns="http://www.w3.org/2000/svg">
<rect width="234" height="349.696" fill="#F1E4E7"/>
<path d="M192.924 308.219V272.301L167.026 308.219H192.924ZM204.819 313.023V322.633C204.819 328.316 206.87 331.188 210.913 331.188H214.663V334H182.495V331.188H186.538C190.815 331.188 192.924 328.316 192.924 322.633V313.023H159.526V311.266L199.194 255.016H204.819V308.219H209.448C212.671 308.219 214.956 305.934 216.245 301.305H219.057L214.956 313.023H204.819Z" fill="#963B50"/>
<rect x="54.4688" y="75" width="124.61" height="13.6467" fill="#E9CFD5"/>
<rect x="54.4688" y="101.445" width="124.61" height="13.6467" fill="#E9CFD5"/>
<rect x="54.4688" y="127.883" width="124.61" height="13.6467" fill="#E9CFD5"/>
</svg>
