<svg width="173" height="308" viewBox="0 0 173 308" fill="none" xmlns="http://www.w3.org/2000/svg">
<rect width="173" height="308" fill="#F1E4E7"/>
<path d="M140.708 283.106V237.174C140.708 231.278 138.855 228.302 135.149 228.302H130.713V226.393C137.283 225.606 142.674 222.911 146.885 218.307H152.107V283.106C152.107 288.553 154.073 291.305 157.947 291.305H161.541V294H130.713V291.305H134.588C138.687 291.305 140.708 288.553 140.708 283.106Z" fill="#963B50"/>
<rect x="41" y="68" width="92.126" height="12.0195" fill="#E9CFD5"/>
<rect x="41" y="91.2812" width="92.126" height="12.0195" fill="#E9CFD5"/>
<rect x="41" y="114.633" width="92.126" height="12.0195" fill="#E9CFD5"/>
<path d="M99.8963 190.99C100.718 190.119 101.386 189.312 102.15 188.627C103.076 187.782 104.055 187.007 105.081 186.305C106.401 185.421 107.468 185.865 107.854 187.501C108.392 189.77 108.822 192.069 109.246 194.367C110.041 198.679 110.235 202.986 108.9 207.231C106.496 214.876 101.63 219.73 94.2908 221.63C91.529 222.349 88.7336 222.911 85.9163 223.314C71.7712 225.319 63.9866 213.465 63.1199 204.183C62.4701 197.228 64.509 191.109 68.0653 185.566C70.3965 181.932 73.3236 178.736 75.9625 175.325C77.5654 173.254 79.1972 171.201 80.6854 169.037C81.8547 167.337 82.3878 165.315 82.7248 163.235C82.802 162.752 83.0472 162.317 83.4112 162.018C83.5822 161.903 84.1194 162.363 84.4706 162.598C85.0555 162.987 85.6225 163.408 86.2003 163.81C92.7303 168.352 96.6599 174.842 98.5327 182.81C99.0848 185.158 99.3488 187.584 99.7437 189.974C99.7896 190.254 99.8279 190.537 99.8963 190.99ZM84.5209 165.212C83.9077 168.866 82.2679 171.792 80.2104 174.473C78.2258 177.06 76.1906 179.602 74.1676 182.155C70.9599 186.203 68.4312 190.626 66.9466 195.751C63.6472 207.141 70.6097 221.384 84.6428 220.415C88.4401 220.154 92.2224 220.124 95.7871 218.22C101.519 215.159 105.397 210.623 106.748 203.826C107.728 198.901 106.354 194.227 105.487 189.296C103.128 191.279 101.352 193.47 100.32 196.296C100.113 196.861 99.9347 197.442 99.6863 197.986C99.3723 198.673 98.8384 199.066 98.1024 198.905C97.2907 198.728 96.992 198.08 97.0198 197.258C97.0491 196.391 97.1363 195.525 97.1808 194.658C97.5734 186.987 96.0137 179.821 92.2158 173.27C90.3123 169.947 87.6688 167.179 84.5209 165.212Z" fill="#D9A6B3"/>
<path d="M84.5209 165.212C83.9077 168.866 82.2679 171.792 80.2104 174.473C78.2258 177.06 76.1906 179.602 74.1676 182.155C70.9599 186.203 68.4312 190.626 66.9466 195.751C63.6472 207.141 70.6097 221.384 84.6428 220.415C88.4401 220.154 92.2224 220.124 95.7871 218.22C101.519 215.159 105.397 210.623 106.748 203.826C107.728 198.901 106.354 194.227 105.487 189.296C103.128 191.279 101.352 193.47 100.32 196.296C100.113 196.861 99.9347 197.442 99.6863 197.986C99.3723 198.673 98.8384 199.066 98.1024 198.905C97.2907 198.728 96.992 198.08 97.0198 197.258C97.0491 196.391 97.1363 195.525 97.1808 194.658C97.5734 186.987 96.0137 179.821 92.2158 173.27C90.3123 169.947 87.6688 167.179 84.5209 165.212Z" fill="#FBF2B4"/>
<path d="M108.661 164.963C108.95 165.89 109.232 166.82 109.529 167.743C110.147 169.66 110.97 171.53 111.355 173.498C112.147 177.544 110.162 180.724 106.447 181.77C105.191 182.123 104.317 181.619 103.844 180.341C103.638 179.788 103.374 179.262 103.059 178.772C101.036 175.623 100.555 172.36 102.231 168.844C103.322 166.557 104.924 164.722 106.606 162.958C106.916 162.634 107.623 162.421 107.996 162.574C108.379 162.731 108.636 163.374 108.834 163.857C108.953 164.149 108.856 164.542 108.856 164.889L108.661 164.963ZM106.289 166.946C103.498 169.873 101.854 174.478 105.513 178.675C107.795 177.943 108.678 176.525 108.483 174.056C108.28 171.495 107.2 169.263 106.289 166.946Z" fill="#D9A6B3"/>
<path d="M106.289 166.946C103.498 169.873 101.854 174.478 105.513 178.675C107.795 177.943 108.678 176.525 108.483 174.056C108.28 171.495 107.2 169.263 106.289 166.946Z" fill="#FBF2B4"/>
<path d="M88.7474 199.497C89.3684 197.926 89.9398 196.499 90.4954 195.065C90.7904 194.304 91.1709 193.654 92.0437 193.631C92.8444 193.61 93.294 194.164 93.6405 194.841C95.3382 198.157 96.9656 201.514 97.6956 205.251C98.9237 211.536 95.2811 217.494 89.4561 218.995C85.4528 220.026 81.6693 219.34 78.1115 217.385C74.0474 215.151 72.2361 211.223 71.9746 206.536C71.4747 197.568 77.0258 188.502 84.8789 185.159C85.4819 184.902 86.0587 184.535 86.6826 184.388C87.1886 184.27 87.931 184.19 88.235 184.484C88.4268 184.715 88.5708 184.987 88.6577 185.281C88.7445 185.576 88.7724 185.887 88.7393 186.193C88.5896 187.299 88.1815 188.363 87.909 189.452C86.9427 193.333 87.1708 196.28 88.7474 199.497ZM85.267 187.735C85.0653 187.816 84.8676 187.908 84.6745 188.01C78.5008 191.601 75.466 197.44 74.8086 204.645C74.2382 210.887 77.92 215.658 83.6896 216.88C83.965 216.956 84.2529 216.963 84.5314 216.902C86.3583 216.334 88.2153 215.841 89.9877 215.116C93.3917 213.723 95.287 210.09 94.7683 206.253C94.3734 203.338 93.2464 200.701 92.0608 198.086C92.0363 198.034 91.9267 198.029 91.628 197.911C91.2146 199.411 90.7584 200.879 90.4124 202.377C90.1127 203.674 88.9625 204.214 87.9459 203.424C87.7161 203.244 87.5171 203.024 87.3576 202.772C85.7947 200.277 84.6565 197.573 84.6665 194.543C84.6738 192.313 85.046 190.086 85.267 187.735V187.735Z" fill="#D9A6B3"/>
</svg>
