<svg width="246" height="410" viewBox="0 0 246 410" fill="none" xmlns="http://www.w3.org/2000/svg">
<rect width="246" height="410" fill="#F1E4E7"/>
<path d="M193.056 397.677C186.35 397.677 179.89 395.893 173.614 392.324V380.942H176.26C177.921 389.248 183.273 393.432 192.317 393.432C197.547 393.432 201.792 391.217 205.053 386.849C208.313 382.48 209.913 376.574 209.913 369.253C209.913 361.439 207.883 355.902 203.822 352.765C199.762 349.627 194.409 348.027 187.703 348.027C185.796 348.027 182.658 348.212 178.413 348.581L185.058 314.682H212.559C215.942 314.682 217.85 313.513 218.403 311.113H221.479L219.019 321.572H190.103L185.611 344.397C187.888 344.336 190.103 344.274 192.256 344.274C201.546 344.274 209.113 346.674 214.835 351.411C220.557 356.21 223.387 362.362 223.387 369.868C223.387 377.805 220.741 384.449 215.512 389.74C210.282 395.031 202.776 397.677 193.056 397.677Z" fill="#963B50"/>
<rect x="57" y="88" width="131" height="16" fill="#E9CFD5"/>
<rect x="57" y="119" width="131" height="16" fill="#E9CFD5"/>
<rect x="57" y="150" width="131" height="16" fill="#E9CFD5"/>
<path d="M23.1814 268.703C23.9183 269.078 24.68 269.465 25.3988 269.879C36.1302 276.049 47.523 281.674 58.54 287.113C62.2131 288.926 66.0111 290.801 69.7281 292.669C70.9165 293.266 71.8423 293.416 72.6448 293.14C72.7172 293.115 72.7884 293.087 72.8581 293.055C73.5498 292.743 74.1364 292.096 74.6879 291.042C75.625 289.176 76.3891 287.264 76.9722 285.326C81.8053 270.111 86.4671 255.278 90.3896 242.776C90.8266 241.383 91.2294 239.964 91.6199 238.591C91.9749 237.341 92.3425 236.048 92.7334 234.782C93.1819 233.329 92.7572 232.273 91.4706 231.644C90.7226 231.281 89.9487 230.955 89.1521 230.667C87.325 230 85.4957 229.336 83.6638 228.677C81.8063 228.007 79.9504 227.333 78.0961 226.658C77.3335 226.379 76.5649 226.081 75.8212 225.794C74.9406 225.452 74.0293 225.099 73.1178 224.774C70.2724 223.758 67.9108 222.949 65.6852 222.226C65.1225 222.062 64.496 222.05 63.8787 222.191C63.1298 222.38 62.397 222.645 61.6954 222.98C59.0131 224.178 56.3364 225.39 54.0937 226.404L52.1124 227.299L52.0977 227.306L46.384 230.161C41.2022 232.75 36.3076 235.196 31.4601 237.601C30.3244 238.164 29.1265 238.891 29.2937 240.401C29.2816 240.51 29.2471 240.618 29.1916 240.721C29.1715 240.766 29.152 240.81 29.1345 240.854C28.8323 241.598 28.5317 242.343 28.2326 243.089C27.4894 244.935 26.7207 246.844 25.934 248.714C23.8212 253.766 22.0446 258.885 20.6141 264.043C20.419 264.858 20.3489 265.678 20.4057 266.479C20.4229 266.708 20.4922 266.924 20.6093 267.116C20.7264 267.309 20.889 267.473 21.0879 267.6C21.7738 267.987 22.4895 268.351 23.1814 268.703ZM86.2361 239.352C86.2306 239.374 86.2247 239.396 86.219 239.418C86.218 239.422 86.2171 239.426 86.2161 239.43C86.1108 239.833 86.0196 240.183 85.9017 240.533C85.4225 241.959 84.9366 243.383 84.4439 244.806C83.4979 247.558 82.52 250.404 81.6342 253.215C79.554 259.817 77.4832 266.535 75.4806 273.032C74.6451 275.743 73.8084 278.454 72.9705 281.165C72.9361 281.278 72.9017 281.388 72.866 281.498C72.8419 280.871 72.8207 280.227 72.8109 279.593C72.771 276.969 72.7314 274.344 72.6917 271.72C72.6836 271.179 72.6754 270.638 72.6672 270.097C72.5587 262.898 72.4454 255.7 72.3272 248.502C72.2998 247.855 72.2273 247.215 72.1102 246.586C72.0687 246.33 72.0265 246.066 71.9869 245.788L86.2361 239.352ZM67.0106 248.028L67.9895 282.959C65.4747 280.019 62.8409 277.133 60.2847 274.336C55.4739 269.068 50.5023 263.625 46.2569 257.723L67.0106 248.028ZM51.7056 231.892C53.7952 230.869 55.934 229.906 58.0102 228.972C58.0366 228.96 58.063 228.949 58.0895 228.937C60.1962 227.989 62.3743 227.01 64.4987 225.97L85.0556 235.053L69.2384 242.525L69.0398 242.619L51.7056 231.892ZM45.0661 253.796C45.7218 247.545 47.5031 241.7 49.6056 235.313L63.1139 245.237L45.0661 253.796ZM40.9938 260.232C45.7046 266.269 51.0212 271.953 56.1643 277.452C56.165 277.453 56.1658 277.454 56.1666 277.454C57.6609 279.052 59.1964 280.694 60.7095 282.336C53.5759 279.183 46.6917 275.537 40.0201 272.004C36.2252 269.994 32.3054 267.919 28.3765 265.953C30.4607 264.76 37.9709 261.342 40.9938 260.232ZM41.5173 236.765C42.4916 236.316 43.4659 235.866 44.4402 235.418C44.5319 235.375 44.6222 235.339 44.7409 235.294C42.7719 241.526 40.719 248.711 40.5145 255.946L24.8089 263.039C24.8429 262.864 24.8915 262.688 24.9543 262.515C27.0383 257.095 28.7958 252.536 30.599 247.906C31.0611 246.717 31.5496 245.508 32.02 244.34C32.461 243.246 32.8981 242.151 33.3311 241.056C33.3892 240.856 33.5008 240.664 33.6561 240.499C33.8114 240.334 34.0055 240.201 34.2211 240.11C36.5617 239.053 38.9301 237.96 41.2283 236.899C41.3247 236.854 41.4211 236.81 41.5173 236.765Z" fill="#D9A6B3"/>
<path d="M67.0106 248.028L67.9895 282.959C65.4747 280.019 62.8409 277.133 60.2847 274.336C55.4739 269.068 50.5023 263.625 46.2569 257.723L67.0106 248.028Z" fill="#FBF2B4"/>
<path d="M86.2361 239.352C86.2306 239.374 86.2247 239.396 86.219 239.418L86.2161 239.43C86.1108 239.833 86.0196 240.183 85.9017 240.533C85.4225 241.959 84.9366 243.383 84.4439 244.806C83.4979 247.558 82.52 250.404 81.6342 253.215C79.554 259.817 77.4832 266.535 75.4806 273.032C74.6451 275.743 73.8084 278.454 72.9705 281.165C72.9361 281.278 72.9017 281.388 72.866 281.498C72.8419 280.871 72.8207 280.227 72.8109 279.593C72.771 276.969 72.7314 274.344 72.6917 271.72L72.6672 270.097C72.5587 262.898 72.4454 255.7 72.3272 248.502C72.2998 247.855 72.2273 247.215 72.1102 246.586C72.0687 246.33 72.0265 246.066 71.9869 245.788L86.2361 239.352Z" fill="#FBF2B4"/>
<path d="M51.7056 231.892C53.7952 230.869 55.934 229.906 58.0102 228.972L58.0895 228.937C60.1962 227.989 62.3743 227.01 64.4987 225.97L85.0556 235.053L69.2384 242.525L69.0398 242.619L51.7056 231.892Z" fill="#FBF2B4"/>
<path d="M45.0661 253.796C45.7218 247.545 47.5031 241.7 49.6056 235.313L63.1139 245.237L45.0661 253.796Z" fill="#FBF2B4"/>
<path d="M41.5173 236.765C42.4916 236.316 43.4659 235.866 44.4402 235.418C44.5319 235.375 44.6222 235.339 44.7409 235.294C42.7719 241.526 40.719 248.711 40.5145 255.946L24.8089 263.039C24.8429 262.864 24.8915 262.688 24.9543 262.515C27.0383 257.095 28.7958 252.536 30.599 247.906C31.0611 246.717 31.5496 245.508 32.02 244.34C32.461 243.246 32.8981 242.151 33.3311 241.056C33.3892 240.856 33.5008 240.664 33.6561 240.499C33.8114 240.334 34.0055 240.201 34.2211 240.11C36.5617 239.053 38.9301 237.96 41.2283 236.899L41.5173 236.765Z" fill="#FBF2B4"/>
<path d="M40.9938 260.232C45.7046 266.269 51.0212 271.953 56.1643 277.452L56.1666 277.454C57.6609 279.052 59.1964 280.694 60.7095 282.336C53.5759 279.183 46.6917 275.537 40.0201 272.004C36.2252 269.994 32.3054 267.919 28.3765 265.953C30.4607 264.76 37.9709 261.342 40.9938 260.232Z" fill="#FBF2B4"/>
<path d="M106.55 256.013C106.741 256.303 106.939 256.603 107.116 256.903C109.755 261.387 112.748 265.808 115.643 270.084C116.608 271.509 117.606 272.983 118.576 274.437C118.886 274.902 119.193 275.15 119.544 275.216C119.575 275.221 119.607 275.226 119.639 275.229C119.957 275.258 120.305 275.144 120.726 274.874C121.456 274.387 122.132 273.847 122.748 273.26C127.674 268.705 132.458 264.255 136.488 260.503C136.937 260.085 137.379 259.65 137.807 259.23C138.196 258.847 138.599 258.451 139.005 258.07C139.471 257.632 139.535 257.158 139.195 256.661C138.998 256.373 138.783 256.093 138.551 255.822C138.023 255.199 137.492 254.577 136.96 253.955C136.421 253.324 135.882 252.693 135.345 252.061C135.125 251.801 134.906 251.532 134.694 251.273C134.443 250.965 134.183 250.647 133.918 250.339C133.089 249.377 132.395 248.59 131.732 247.864C131.561 247.687 131.334 247.553 131.079 247.476C130.766 247.389 130.444 247.334 130.118 247.31C128.889 247.191 127.66 247.078 126.63 246.982L125.72 246.898L125.713 246.897L123.033 246.753C120.602 246.623 118.306 246.499 116.035 246.371C115.503 246.341 114.915 246.358 114.662 246.944C114.635 246.981 114.6 247.014 114.558 247.04C114.542 247.052 114.525 247.064 114.51 247.076C114.245 247.285 113.98 247.495 113.716 247.705C113.061 248.225 112.384 248.763 111.708 249.283C109.887 250.689 108.174 252.19 106.58 253.778C106.34 254.035 106.144 254.32 105.998 254.624C105.957 254.711 105.937 254.805 105.94 254.899C105.943 254.994 105.968 255.088 106.015 255.175C106.185 255.459 106.37 255.741 106.55 256.013ZM135.682 258.389C135.675 258.396 135.669 258.403 135.662 258.41C135.661 258.411 135.66 258.412 135.659 258.413C135.536 258.539 135.43 258.648 135.314 258.751C134.843 259.173 134.37 259.592 133.894 260.01C132.977 260.818 132.029 261.655 131.121 262.498C128.99 264.477 126.838 266.501 124.757 268.459C123.888 269.276 123.019 270.092 122.15 270.909C122.114 270.942 122.079 270.976 122.043 271.008C122.164 270.774 122.29 270.535 122.418 270.301C122.949 269.334 123.48 268.367 124.01 267.4C124.12 267.201 124.229 267.002 124.338 266.802C125.794 264.15 127.248 261.497 128.7 258.843C128.825 258.6 128.931 258.352 129.019 258.098C129.057 257.996 129.096 257.89 129.14 257.78L135.682 258.389ZM126.856 257.565L119.958 270.529C119.65 268.933 119.287 267.331 118.934 265.778C118.271 262.855 117.586 259.833 117.261 256.796L126.856 257.565ZM124.617 248.491C125.593 248.551 126.574 248.644 127.527 248.734C127.539 248.735 127.551 248.736 127.563 248.738C128.53 248.829 129.529 248.924 130.521 248.985L136.144 256.573L128.813 256.017L128.721 256.011L124.617 248.491ZM117.642 255.114C119.18 252.966 121.045 251.201 123.139 249.305L126.013 255.736L117.642 255.114ZM114.817 256.619C115.284 259.803 116.045 262.984 116.782 266.061C116.782 266.061 116.782 266.062 116.782 266.062C116.996 266.956 117.216 267.875 117.428 268.789C115.477 266.155 113.719 263.394 112.016 260.717C111.047 259.195 110.046 257.622 109.019 256.088C110.029 256.085 113.482 256.396 114.817 256.619ZM119.883 248.155C120.332 248.193 120.781 248.231 121.231 248.27C121.273 248.273 121.313 248.279 121.366 248.287C119.352 250.155 117.11 252.353 115.532 254.953L108.321 254.282C108.37 254.225 108.424 254.171 108.483 254.121C110.37 252.574 111.959 251.274 113.58 249.957C113.996 249.618 114.425 249.278 114.84 248.949C115.228 248.641 115.615 248.332 116.001 248.022C116.064 247.961 116.144 247.914 116.235 247.886C116.326 247.858 116.425 247.849 116.523 247.861C117.597 247.961 118.69 248.054 119.75 248.144C119.794 248.147 119.838 248.151 119.883 248.155Z" fill="#D9A6B3"/>
<path d="M126.856 257.565L119.958 270.529C119.65 268.933 119.287 267.331 118.934 265.778C118.271 262.855 117.586 259.833 117.261 256.796L126.856 257.565Z" fill="#FBF2B4"/>
<path d="M135.682 258.389C135.675 258.396 135.669 258.403 135.662 258.41L135.659 258.413C135.536 258.539 135.43 258.648 135.314 258.751C134.843 259.173 134.37 259.592 133.894 260.01C132.977 260.818 132.029 261.655 131.121 262.498C128.99 264.477 126.838 266.501 124.757 268.459C123.888 269.276 123.019 270.092 122.15 270.909C122.114 270.942 122.079 270.976 122.043 271.008C122.164 270.774 122.29 270.535 122.418 270.301C122.949 269.334 123.48 268.367 124.01 267.4L124.338 266.802C125.794 264.15 127.248 261.497 128.7 258.843C128.825 258.6 128.931 258.352 129.019 258.098C129.057 257.996 129.096 257.89 129.14 257.78L135.682 258.389Z" fill="#FBF2B4"/>
<path d="M124.617 248.491C125.593 248.551 126.574 248.644 127.527 248.734L127.563 248.738C128.53 248.829 129.529 248.924 130.521 248.985L136.144 256.573L128.813 256.017L128.721 256.011L124.617 248.491Z" fill="#FBF2B4"/>
<path d="M117.642 255.114C119.18 252.966 121.045 251.201 123.139 249.305L126.013 255.736L117.642 255.114Z" fill="#FBF2B4"/>
<path d="M119.883 248.155C120.332 248.193 120.781 248.231 121.231 248.27C121.273 248.273 121.313 248.279 121.366 248.287C119.352 250.155 117.11 252.353 115.532 254.953L108.321 254.282C108.37 254.225 108.424 254.171 108.483 254.121C110.37 252.574 111.959 251.274 113.58 249.957C113.996 249.618 114.425 249.278 114.84 248.949C115.228 248.641 115.615 248.332 116.001 248.022C116.064 247.961 116.144 247.914 116.235 247.886C116.326 247.858 116.425 247.849 116.523 247.861C117.597 247.961 118.69 248.054 119.75 248.144L119.883 248.155Z" fill="#FBF2B4"/>
<path d="M114.817 256.619C115.284 259.803 116.045 262.984 116.782 266.061L116.782 266.062C116.996 266.956 117.216 267.875 117.428 268.789C115.477 266.155 113.719 263.394 112.016 260.717C111.047 259.195 110.046 257.622 109.019 256.088C110.029 256.085 113.482 256.396 114.817 256.619Z" fill="#FBF2B4"/>
<path d="M149.563 35.2401C148.297 35.2004 147.567 34.8392 147.155 33.966C146.762 33.1359 147.077 32.4224 147.566 31.7737C147.823 31.4314 148.15 31.1447 148.527 30.9317C150.527 29.8364 152.521 28.7234 154.579 27.738C155.258 27.4541 156.008 27.366 156.738 27.4842C157.077 27.5378 157.398 27.6685 157.675 27.8654C157.952 28.0623 158.177 28.32 158.333 28.6174C158.488 28.9148 158.569 29.2435 158.568 29.5766C158.568 29.9097 158.487 30.2378 158.331 30.534C157.937 31.2826 157.339 31.9113 156.602 32.3515C154.756 33.3266 152.811 34.1329 150.883 34.9555C150.457 35.103 150.013 35.1986 149.563 35.2401Z" fill="#D9A6B3"/>
<path d="M90.4646 35.0376C90.074 34.7993 89.1804 34.4482 88.5687 33.8315C87.5847 32.8184 86.7001 31.7186 85.9263 30.5463C85.5124 29.9488 85.292 29.2451 85.2936 28.5259C85.3697 27.2168 86.834 26.3384 88.2491 26.8725C89.4246 27.286 90.5051 27.9208 91.4284 28.7407C92.3516 29.5607 93.0994 30.5494 93.6287 31.6501C94.5117 33.5332 93.0947 35.2201 90.4646 35.0376Z" fill="#D9A6B3"/>
<path d="M143.233 11.183C145.144 11.261 146.229 12.7034 145.783 14.1449C145.656 14.6129 145.412 15.0425 145.071 15.3947C143.716 16.6326 142.349 17.8693 140.886 18.9811C140.175 19.5205 139.292 19.907 138.27 19.5186C137.08 19.0664 136.541 18.0734 136.988 16.9226C137.106 16.5771 137.291 16.2571 137.534 15.9803C138.814 14.6683 140.078 13.3353 141.449 12.1174C142.013 11.6165 142.83 11.3859 143.233 11.183Z" fill="#D9A6B3"/>
<path d="M108.968 16.4382C108.809 17.5056 108.31 18.278 107.292 18.6984C106.34 19.0909 105.548 18.7537 104.93 18.1012C103.585 16.7412 102.604 15.0817 102.073 13.2688C101.722 11.9884 102.157 10.9523 103.124 10.4296C104.152 9.87456 105.236 10.0099 106.139 11.0423C107.518 12.6195 108.655 14.351 108.968 16.4382Z" fill="#D9A6B3"/>
<path d="M164.092 46.2345C164.107 45.322 163.983 44.4121 163.724 43.5342C163.343 42.368 162.596 41.553 161.628 41.2456C160.648 40.9333 159.541 41.1696 158.512 41.9052C157.735 42.4596 156.971 43.0691 156.235 43.658C155.931 43.8989 155.628 44.1436 155.324 44.381L151.281 47.5563C147.981 50.1471 144.679 52.7378 141.374 55.328C141.138 55.5025 140.89 55.6616 140.631 55.8034C140.527 55.8642 140.419 55.9248 140.311 55.9928C140.238 56.0366 140.155 56.0636 140.07 56.0716C139.984 56.0801 139.898 56.0696 139.817 56.0407C139.736 56.012 139.662 55.9653 139.603 55.9043C139.543 55.8434 139.499 55.7696 139.473 55.6893C138.853 53.7755 138.252 51.8718 137.65 49.9755C136.313 45.7624 134.929 41.4024 133.464 37.1783C131.423 31.3004 129.206 25.5873 127.12 20.2879C126.571 19.0051 125.799 17.8234 124.837 16.7947C123.973 15.832 122.984 15.7165 121.634 16.43C120.534 17.0054 120.026 18.0679 119.489 19.1912L119.44 19.2953C118.904 20.4075 118.373 21.5225 117.846 22.6402C116.235 26.028 114.57 29.5371 112.817 32.9328C110.166 38.0688 107.318 43.218 104.626 48.0526C103.713 49.6939 102.728 51.2662 101.685 52.931C101.212 53.6893 100.728 54.461 100.244 55.255C100.205 55.3199 100.153 55.3759 100.09 55.4198C100.028 55.4638 99.9569 55.4948 99.8814 55.5108C99.806 55.5268 99.7279 55.5274 99.6521 55.5129C99.5763 55.498 99.5044 55.4684 99.441 55.4253L97.9056 54.3872C96.9304 53.7328 96.0427 53.1375 95.159 52.5346C93.9152 51.6893 92.6713 50.8425 91.4274 49.9943C88.9911 48.3311 86.5518 46.6739 84.1096 45.0226C83.5647 44.5955 82.9078 44.3246 82.2134 44.2414C81.6996 44.2333 81.2007 44.4069 80.8098 44.7299C79.6637 45.5582 79.302 46.6315 79.7067 48.013C79.9653 48.9035 80.329 49.7957 80.6785 50.6613L80.6958 50.6976C80.9781 51.4001 81.29 52.1107 81.588 52.799C82.1503 54.0975 82.7368 55.4425 83.1942 56.8119C83.4877 57.6785 83.7825 58.5465 84.0783 59.416C85.9686 64.9758 87.9214 70.7248 89.0989 76.6049C89.4972 78.5995 90.6193 79.7202 92.5297 80.0316C93.0548 80.1182 93.5805 80.2084 94.1011 80.2984C96.241 80.7142 98.4077 80.9851 100.585 81.1082C105.538 81.278 110.579 81.3349 115.455 81.3916C117.601 81.4153 119.745 81.4428 121.887 81.4738C125.405 81.5286 128.922 81.5884 132.439 81.6536L136.478 81.7221C136.804 81.7299 137.13 81.7342 137.46 81.7425C137.816 81.7517 138.176 81.7575 138.536 81.7637C139.785 81.7866 141.034 81.7964 142.282 81.8112C145.349 81.8453 148.513 81.8801 151.629 82.0077C153.067 82.0675 154.105 81.6268 154.898 80.6259C155.447 79.8892 155.877 79.0745 156.171 78.2102L156.636 76.9414C158.532 71.7662 160.49 66.4115 161.751 60.959C161.873 60.4287 161.999 59.9024 162.121 59.3721C163.122 55.1128 164.161 50.6993 164.092 46.2345ZM150.211 75.6193C150.17 75.7135 150.103 75.7945 150.018 75.8532C149.932 75.912 149.831 75.946 149.726 75.9514C149.311 75.9757 148.883 76.0053 148.451 76.0353C148.413 76.0379 148.375 76.0406 148.337 76.0432C147.26 76.1206 146.142 76.1996 145.016 76.1941C143.17 76.1844 141.296 76.1514 139.485 76.1128C137.07 76.0709 134.573 76.0215 132.122 76.0382C129.265 76.0614 126.356 76.1549 123.545 76.2459C121.929 76.2981 120.312 76.3502 118.697 76.3875C116.338 76.445 114.369 76.4877 112.322 76.4541C107.541 76.3792 102.688 76.2741 97.9748 76.1721C97.7153 76.1664 97.4561 76.1608 97.1975 76.1552L94.7421 76.1022L94.6857 76.0995C94.4581 76.0843 94.2325 76.0478 94.0118 75.9914L94.0098 75.9909C93.9361 75.973 93.8628 75.9553 93.7923 75.9456C93.6866 75.9265 93.5888 75.8783 93.5103 75.8069C93.4319 75.7351 93.3761 75.6434 93.3495 75.5422L87.8065 54.6869C87.7769 54.5794 87.782 54.4655 87.8213 54.3609C87.8605 54.2563 87.9319 54.1663 88.0258 54.1026C88.1197 54.0389 88.2315 54.0047 88.3462 54.0051C88.4608 54.0052 88.5727 54.0395 88.6668 54.1035L89.4856 54.6487C90.0279 55.0093 90.5267 55.3388 91.0175 55.6753C91.7156 56.1528 92.414 56.6279 93.1125 57.1001C94.8437 58.2783 96.637 59.4924 98.361 60.7465C99.464 61.5491 100.447 61.8831 101.275 61.7395C102.085 61.6 102.821 61.0172 103.52 59.96L104.149 59.016C105.335 57.2342 106.562 55.3886 107.6 53.5012C111.034 47.2315 114.482 40.8313 117.815 34.6405C119.13 32.1977 120.447 29.7549 121.768 27.3123C121.878 27.1047 121.993 26.9035 122.156 26.6234L122.471 26.073C122.522 25.9805 122.6 25.9048 122.695 25.8554C122.79 25.806 122.898 25.7852 123.006 25.7955C123.113 25.803 123.216 25.8405 123.302 25.9033C123.388 25.9661 123.454 26.0517 123.492 26.1498C123.886 27.1818 124.286 28.181 124.679 29.1619C124.685 29.1769 124.691 29.1919 124.697 29.2069C125.544 31.3232 126.344 33.3222 127.011 35.3912C128.484 39.9696 129.918 44.6334 131.31 49.1635C131.371 49.361 131.432 49.5583 131.492 49.7554C132.323 52.4556 133.157 55.157 133.995 57.8594C134.408 59.2367 134.901 60.5901 135.472 61.9127C135.658 62.3943 135.957 62.8269 136.346 63.1757C136.735 63.5245 137.203 63.7795 137.712 63.9204C138.711 64.1604 139.79 63.8717 140.756 63.1112C142.225 61.9553 143.687 60.7877 145.148 59.6239C146.431 58.6012 147.713 57.5809 148.995 56.5631C150.628 55.2765 152.265 53.9929 153.907 52.7131L156.106 50.9967C156.187 50.9334 156.284 50.8929 156.387 50.88C156.491 50.8668 156.596 50.8816 156.691 50.9222L157.073 51.0895C157.19 51.1404 157.287 51.2282 157.345 51.3392C157.405 51.4501 157.423 51.5769 157.398 51.6989C155.914 58.7746 153.901 67.1521 150.211 75.6193Z" fill="#D9A6B3"/>
<path d="M150.211 75.6193C150.17 75.7135 150.103 75.7945 150.018 75.8532C149.932 75.912 149.831 75.946 149.726 75.9514C149.311 75.9757 148.883 76.0053 148.451 76.0353L148.337 76.0432C147.26 76.1206 146.142 76.1996 145.016 76.1941C143.17 76.1844 141.296 76.1514 139.485 76.1128C137.07 76.0709 134.573 76.0215 132.122 76.0382C129.265 76.0614 126.356 76.1549 123.545 76.2459C121.929 76.2981 120.312 76.3502 118.697 76.3875C116.338 76.445 114.369 76.4877 112.322 76.4541C107.541 76.3792 102.688 76.2741 97.9748 76.1721L97.1975 76.1552L94.7421 76.1022L94.6857 76.0995C94.4581 76.0843 94.2325 76.0478 94.0118 75.9914L94.0098 75.9909C93.9361 75.973 93.8628 75.9553 93.7923 75.9456C93.6866 75.9265 93.5888 75.8783 93.5103 75.8069C93.4319 75.7351 93.3761 75.6434 93.3495 75.5422L87.8065 54.6869C87.7769 54.5794 87.782 54.4655 87.8213 54.3609C87.8605 54.2563 87.9319 54.1663 88.0258 54.1026C88.1197 54.0389 88.2315 54.0047 88.3462 54.0051C88.4608 54.0052 88.5727 54.0395 88.6668 54.1035L89.4856 54.6487C90.0279 55.0093 90.5267 55.3388 91.0175 55.6753C91.7156 56.1528 92.414 56.6279 93.1125 57.1001C94.8437 58.2783 96.637 59.4924 98.361 60.7465C99.464 61.5491 100.447 61.8831 101.275 61.7395C102.085 61.6 102.821 61.0172 103.52 59.96L104.149 59.016C105.335 57.2342 106.562 55.3886 107.6 53.5012C111.034 47.2315 114.482 40.8313 117.815 34.6405C119.13 32.1977 120.447 29.7549 121.768 27.3123C121.878 27.1047 121.993 26.9035 122.156 26.6234L122.471 26.073C122.522 25.9805 122.6 25.9048 122.695 25.8554C122.79 25.806 122.898 25.7852 123.006 25.7955C123.113 25.803 123.216 25.8405 123.302 25.9033C123.388 25.9661 123.454 26.0517 123.492 26.1498C123.886 27.1818 124.286 28.181 124.679 29.1619L124.697 29.2069C125.544 31.3232 126.344 33.3222 127.011 35.3912C128.484 39.9696 129.918 44.6334 131.31 49.1635L131.492 49.7554C132.323 52.4556 133.157 55.157 133.995 57.8594C134.408 59.2367 134.901 60.5901 135.472 61.9127C135.658 62.3943 135.957 62.8269 136.346 63.1757C136.735 63.5245 137.203 63.7795 137.712 63.9204C138.711 64.1604 139.79 63.8717 140.756 63.1112C142.225 61.9553 143.687 60.7877 145.148 59.6239C146.431 58.6012 147.713 57.5809 148.995 56.5631C150.628 55.2765 152.265 53.9929 153.907 52.7131L156.106 50.9967C156.187 50.9334 156.284 50.8929 156.387 50.88C156.491 50.8668 156.596 50.8816 156.691 50.9222L157.073 51.0895C157.19 51.1404 157.287 51.2282 157.345 51.3392C157.405 51.4501 157.423 51.5769 157.398 51.6989C155.914 58.7746 153.901 67.1521 150.211 75.6193Z" fill="#FBF2B4"/>
</svg>
