<svg width="173" height="308" viewBox="0 0 173 308" fill="none" xmlns="http://www.w3.org/2000/svg">
<rect width="173" height="308" fill="#F1E4E7"/>
<path d="M129.168 227C127.652 229.526 126.922 232.559 126.922 236.208C126.922 241.936 128.213 246.091 130.74 248.618C133.267 251.201 135.906 252.437 138.77 252.268C141.578 252.156 143.936 250.864 145.789 248.394C147.642 245.923 148.204 242.161 147.474 237.051C146.688 231.941 145.003 228.01 142.364 225.259C140.511 223.406 138.265 222.563 135.625 222.732C132.93 222.9 130.796 224.304 129.168 227ZM148.147 286.353C150 283.376 150.899 279.727 150.899 275.403C150.899 268.496 149.214 263.499 145.901 260.354C142.532 257.209 139.051 255.75 135.401 255.918C131.751 256.086 128.719 257.883 126.192 261.252C123.665 264.678 122.935 269.226 123.89 274.954C124.844 280.681 126.978 285.173 130.291 288.43C132.706 290.789 135.794 291.855 139.5 291.631C143.15 291.462 146.07 289.666 148.147 286.353ZM146.912 253.784C150.169 255.02 153.033 256.704 155.56 258.782C160.333 262.769 162.691 267.654 162.691 273.381C162.691 278.772 160.389 283.826 155.784 288.542C151.18 293.259 145.003 295.618 137.31 295.618C129.561 295.618 123.384 293.259 118.78 288.542C114.175 283.826 111.873 278.772 111.873 273.381C111.873 267.654 114.231 262.769 119.004 258.782C121.531 256.704 124.395 255.02 127.652 253.784C125.35 252.605 123.384 251.37 121.868 250.022C117.938 246.709 115.972 242.666 115.972 237.949C115.972 233.513 117.881 229.302 121.756 225.315C125.574 221.328 130.74 219.363 137.31 219.363C143.824 219.363 148.99 221.328 152.864 225.315C156.683 229.302 158.592 233.513 158.592 237.949C158.592 242.666 156.626 246.709 152.696 250.022C151.124 251.37 149.214 252.605 146.912 253.784Z" fill="#963B50"/>
<rect x="41" y="64" width="92.126" height="12.0195" fill="#E9CFD5"/>
<rect x="41" y="87.2812" width="92.126" height="12.0195" fill="#E9CFD5"/>
<rect x="41" y="110.633" width="92.126" height="12.0195" fill="#E9CFD5"/>
</svg>
