<svg width="190" height="410" viewBox="0 0 190 410" fill="none" xmlns="http://www.w3.org/2000/svg">
<rect x="-56" width="246" height="410" fill="#F1E4E7"/>
<rect x="-10" y="80" width="131" height="16" fill="#E9CFD5"/>
<rect x="-10" y="111" width="131" height="16" fill="#E9CFD5"/>
<rect x="-10" y="142" width="131" height="16" fill="#E9CFD5"/>
<path d="M136.363 346.013C132.118 347.305 129.227 350.75 127.627 356.226C125.966 361.701 125.904 367.977 127.442 374.99C128.98 382.004 131.564 387.172 135.256 390.494C138.947 393.878 142.885 394.924 147.068 393.632C151.252 392.34 154.328 388.833 156.235 383.111C158.143 377.39 158.45 371.176 157.158 364.531C155.866 357.948 153.098 352.842 148.976 349.335C144.792 345.828 140.608 344.721 136.363 346.013ZM126.643 347.059C131.011 343.06 136.117 341.029 141.839 341.029C150.944 341.029 158.02 343.982 163.003 349.889C167.986 355.856 170.447 361.947 170.447 368.284C170.447 376.282 167.986 383.357 163.003 389.448C158.02 395.601 150.944 398.677 141.839 398.677C132.672 398.677 125.658 395.231 120.675 388.279C115.691 381.327 113.23 372.837 113.23 362.747C113.23 348.658 117.66 337.092 126.581 328.109C135.44 319.127 147.068 313.897 161.526 312.421L162.142 315.743C152.359 317.527 144.3 321.342 138.024 327.063C131.749 332.785 127.935 339.491 126.643 347.059Z" fill="#963B50"/>
</svg>
