<svg width="234" height="350" viewBox="0 0 234 350" fill="none" xmlns="http://www.w3.org/2000/svg">
<rect width="234" height="349.7" fill="#F1E4E7"/>
<path d="M180.046 322.633V274.703C180.046 268.551 178.112 265.445 174.245 265.445H169.616V263.453C176.471 262.633 182.096 259.82 186.491 255.016H191.94V322.633C191.94 328.316 193.991 331.188 198.034 331.188H201.784V334H169.616V331.188H173.659C177.936 331.188 180.046 328.316 180.046 322.633Z" fill="#963B50"/>
<rect x="54.4688" y="75" width="124.61" height="13.6468" fill="#E9CFD5"/>
<rect x="54.4688" y="101.438" width="124.61" height="13.6468" fill="#E9CFD5"/>
<rect x="54.4688" y="127.883" width="124.61" height="13.6468" fill="#E9CFD5"/>
<path d="M99.1575 219.13C100.445 217.985 101.492 216.923 102.689 216.022C104.14 214.911 105.674 213.891 107.281 212.969C109.35 211.806 111.021 212.39 111.627 214.541C112.469 217.526 113.143 220.55 113.808 223.572C115.053 229.243 115.358 234.909 113.266 240.492C109.499 250.548 101.874 256.932 90.3741 259.432C86.0466 260.376 81.6664 261.115 77.2519 261.646C55.0875 264.283 42.8897 248.691 41.5317 236.483C40.5135 227.336 43.7082 219.287 49.2808 211.996C52.9336 207.217 57.52 203.013 61.655 198.527C64.1667 195.802 66.7236 193.102 69.0554 190.256C70.8876 188.019 71.7229 185.36 72.251 182.624C72.372 181.989 72.7562 181.417 73.3266 181.024C73.5945 180.872 74.4363 181.478 74.9865 181.786C75.903 182.299 76.7915 182.852 77.6969 183.381C87.929 189.355 94.0862 197.891 97.0208 208.371C97.886 211.459 98.2996 214.65 98.9184 217.794C98.9903 218.162 99.0504 218.534 99.1575 219.13ZM75.0654 185.225C74.1046 190.031 71.535 193.879 68.3112 197.405C65.2014 200.808 62.0124 204.152 58.8425 207.51C53.8164 212.834 49.854 218.651 47.5278 225.392C42.3578 240.374 53.2676 259.107 75.2563 257.833C81.2066 257.49 87.1331 257.45 92.7186 254.946C101.699 250.919 107.776 244.954 109.894 236.014C111.428 229.536 109.276 223.387 107.918 216.903C104.221 219.51 101.438 222.392 99.8207 226.11C99.4969 226.853 99.2176 227.617 98.8284 228.332C98.3363 229.236 97.4999 229.753 96.3466 229.541C95.0746 229.308 94.6066 228.456 94.6503 227.375C94.6962 226.234 94.8328 225.096 94.9024 223.955C95.5178 213.865 93.0737 204.44 87.1227 195.824C84.14 191.453 79.9979 187.812 75.0654 185.225Z" fill="#D9A6B3"/>
<path d="M75.0654 185.225C74.1046 190.031 71.535 193.879 68.3112 197.405C65.2014 200.808 62.0124 204.152 58.8425 207.51C53.8164 212.834 49.854 218.651 47.5278 225.392C42.3578 240.374 53.2676 259.107 75.2563 257.833C81.2066 257.49 87.1331 257.45 92.7186 254.946C101.699 250.919 107.776 244.954 109.894 236.014C111.428 229.536 109.276 223.387 107.918 216.903C104.221 219.51 101.438 222.392 99.8207 226.11C99.4969 226.853 99.2176 227.617 98.8284 228.332C98.3363 229.236 97.4999 229.753 96.3466 229.541C95.0746 229.308 94.6066 228.456 94.6503 227.375C94.6962 226.234 94.8328 225.096 94.9024 223.955C95.5178 213.865 93.0737 204.44 87.1227 195.824C84.14 191.453 79.9979 187.812 75.0654 185.225Z" fill="#FBF2B4"/>
<path d="M112.886 184.897C113.339 186.116 113.78 187.338 114.247 188.553C115.215 191.074 116.504 193.534 117.108 196.123C118.348 201.444 115.239 205.627 109.417 207.003C107.449 207.467 106.079 206.804 105.338 205.122C105.015 204.396 104.602 203.704 104.108 203.059C100.939 198.917 100.184 194.626 102.812 190.001C104.52 186.993 107.031 184.58 109.666 182.259C110.152 181.832 111.26 181.553 111.845 181.754C112.444 181.96 112.847 182.806 113.157 183.442C113.344 183.825 113.192 184.342 113.192 184.799L112.886 184.897ZM109.169 187.504C104.796 191.354 102.22 197.412 107.954 202.931C111.53 201.969 112.913 200.103 112.607 196.856C112.29 193.487 110.597 190.552 109.169 187.504Z" fill="#D9A6B3"/>
<path d="M109.169 187.504C104.796 191.354 102.22 197.412 107.954 202.931C111.53 201.969 112.913 200.103 112.607 196.856C112.29 193.487 110.597 190.552 109.169 187.504Z" fill="#FBF2B4"/>
<path d="M81.6822 230.326C82.6553 228.259 83.5507 226.383 84.4212 224.497C84.8835 223.495 85.4796 222.64 86.8472 222.61C88.102 222.583 88.8064 223.311 89.3494 224.201C92.0096 228.563 94.5596 232.979 95.7033 237.893C97.6277 246.16 91.92 253.997 82.7927 255.971C76.5198 257.327 70.5914 256.425 65.0166 253.853C58.6485 250.915 55.8103 245.749 55.4005 239.585C54.6172 227.789 63.3153 215.864 75.6206 211.467C76.5654 211.129 77.4692 210.646 78.4469 210.453C79.2397 210.297 80.403 210.192 80.8794 210.58C81.1798 210.884 81.4055 211.241 81.5416 211.628C81.6778 212.015 81.7214 212.424 81.6696 212.827C81.435 214.282 80.7956 215.681 80.3685 217.114C78.8544 222.218 79.2118 226.094 81.6822 230.326ZM76.2286 214.855C75.9127 214.962 75.6028 215.082 75.3003 215.216C65.6265 219.94 60.8713 227.621 59.8412 237.097C58.9473 245.307 64.7166 251.582 73.7571 253.189C74.1885 253.289 74.6397 253.299 75.0761 253.219C77.9387 252.471 80.8484 251.823 83.6257 250.869C88.9595 249.037 91.9292 244.258 91.1165 239.212C90.4977 235.378 88.7318 231.91 86.874 228.47C86.8358 228.402 86.6639 228.394 86.196 228.24C85.5481 230.212 84.8333 232.144 84.2911 234.114C83.8216 235.82 82.0193 236.529 80.4263 235.491C80.0663 235.254 79.7544 234.964 79.5045 234.633C77.0555 231.352 75.272 227.795 75.2877 223.81C75.2992 220.877 75.8823 217.947 76.2286 214.856V214.855Z" fill="#D9A6B3"/>
</svg>
