<svg width="173" height="308" viewBox="0 0 173 308" fill="none" xmlns="http://www.w3.org/2000/svg">
<rect width="173" height="308" fill="#F1E4E7"/>
<path d="M82.7648 284.106V238.174C82.7648 232.278 80.9118 229.302 77.2058 229.302H72.7697V227.393C79.3396 226.606 84.7302 223.911 88.9416 219.307H94.1638V284.106C94.1638 289.553 96.1291 292.305 100.004 292.305H103.597V295H72.7697V292.305H76.6442C80.7434 292.305 82.7648 289.553 82.7648 284.106ZM138.259 228.516C134.385 224.192 130.566 222.844 126.748 224.473C122.873 226.101 119.953 230.762 117.932 238.455C115.854 246.147 115.63 254.963 117.202 264.846C118.718 274.729 121.413 281.86 125.176 286.296C128.938 290.732 132.756 292.136 136.575 290.508C140.337 288.879 143.313 284.163 145.447 276.357C147.58 268.608 147.861 259.792 146.345 249.91C144.773 240.027 142.077 232.896 138.259 228.516ZM104.512 257.49C104.512 247.327 106.982 238.398 111.867 230.762C116.753 223.181 123.379 219.363 131.745 219.363C140.112 219.363 146.794 223.181 151.679 230.762C156.565 238.398 158.979 247.327 158.979 257.49C158.979 267.654 156.565 276.582 151.679 284.163C146.794 291.799 140.112 295.618 131.745 295.618C123.379 295.618 116.753 291.799 111.867 284.163C106.982 276.582 104.512 267.654 104.512 257.49Z" fill="#963B50"/>
<rect x="41" y="65" width="92.126" height="12.0195" fill="#E9CFD5"/>
<rect x="41" y="88.2812" width="92.126" height="12.0195" fill="#E9CFD5"/>
<rect x="41" y="111.633" width="92.126" height="12.0195" fill="#E9CFD5"/>
</svg>
