<svg width="246" height="410" viewBox="0 0 246 410" fill="none" xmlns="http://www.w3.org/2000/svg">
<rect width="246" height="410" fill="#F1E4E7"/>
<path d="M126.148 386.064V335.738C126.148 329.278 124.118 326.018 120.058 326.018H115.197V323.926C122.396 323.064 128.302 320.111 132.916 315.066H138.638V386.064C138.638 392.032 140.791 395.047 145.036 395.047H148.974V398H115.197V395.047H119.442C123.934 395.047 126.148 392.032 126.148 386.064ZM204.591 325.156C200.346 320.419 196.162 318.942 191.979 320.727C187.733 322.511 184.534 327.617 182.319 336.046C180.043 344.475 179.797 354.134 181.52 364.962C183.181 375.79 186.134 383.604 190.256 388.464C194.378 393.324 198.562 394.862 202.745 393.078C206.867 391.294 210.128 386.126 212.466 377.574C214.804 369.084 215.111 359.425 213.45 348.597C211.728 337.769 208.774 329.955 204.591 325.156ZM167.615 356.902C167.615 345.767 170.322 335.984 175.675 327.617C181.027 319.312 188.287 315.128 197.454 315.128C206.621 315.128 213.942 319.312 219.295 327.617C224.647 335.984 227.293 345.767 227.293 356.902C227.293 368.038 224.647 377.82 219.295 386.126C213.942 394.493 206.621 398.677 197.454 398.677C188.287 398.677 181.027 394.493 175.675 386.126C170.322 377.82 167.615 368.038 167.615 356.902Z" fill="#963B50"/>
<rect x="57" y="80" width="131" height="16" fill="#E9CFD5"/>
<rect x="57" y="111" width="131" height="16" fill="#E9CFD5"/>
<rect x="57" y="142" width="131" height="16" fill="#E9CFD5"/>
</svg>
