<svg width="234" height="350" viewBox="0 0 234 350" fill="none" xmlns="http://www.w3.org/2000/svg">
<rect width="234" height="349.696" fill="#F1E4E7"/>
<path d="M184.428 284.488C180.385 285.719 177.631 289 176.108 294.215C174.526 299.43 174.467 305.406 175.932 312.086C177.397 318.766 179.858 323.688 183.374 326.852C186.889 330.074 190.639 331.07 194.624 329.84C198.608 328.609 201.538 325.27 203.354 319.82C205.171 314.371 205.464 308.453 204.233 302.125C203.003 295.855 200.366 290.992 196.44 287.652C192.456 284.312 188.471 283.258 184.428 284.488ZM175.171 285.484C179.331 281.676 184.194 279.742 189.643 279.742C198.315 279.742 205.053 282.555 209.799 288.18C214.546 293.863 216.889 299.664 216.889 305.699C216.889 313.316 214.546 320.055 209.799 325.855C205.053 331.715 198.315 334.645 189.643 334.645C180.913 334.645 174.233 331.363 169.487 324.742C164.741 318.121 162.397 310.035 162.397 300.426C162.397 287.008 166.616 275.992 175.112 267.438C183.549 258.883 194.624 253.902 208.393 252.496L208.979 255.66C199.663 257.359 191.987 260.992 186.01 266.441C180.034 271.891 176.401 278.277 175.171 285.484Z" fill="#963B50"/>
<rect x="54.4688" y="75" width="124.61" height="13.6467" fill="#E9CFD5"/>
<rect x="54.4688" y="101.445" width="124.61" height="13.6467" fill="#E9CFD5"/>
<rect x="54.4688" y="127.883" width="124.61" height="13.6467" fill="#E9CFD5"/>
</svg>
