<svg width="120" height="120" viewBox="0 0 120 120" fill="none" xmlns="http://www.w3.org/2000/svg">
<path d="M109.216 64.5318C108.639 64.6406 106.865 65.185 105.113 65.6204C102.292 66.4043 101.677 66.1643 99.2305 63.5044C97.0584 61.1279 96.3588 60.7572 96.1127 61.9559C95.9338 62.8277 96.6841 64.5717 97.8876 65.7273L99.8693 67.9511L97.1718 69.2145C95.588 69.9115 94.2114 71.2189 94.0325 72.0907C93.7641 73.3984 94.3182 73.3986 96.9093 72.1133C101 70.0003 102.276 70.2622 105.204 73.8159C106.973 75.9961 107.589 76.2361 107.835 75.0373C108.014 74.1655 107.264 72.4216 106.166 71.2878L104.078 69.0422L106.882 67.8006C109.345 66.6025 111.225 63.9221 109.216 64.5318Z" fill="#963B50"/>
<path d="M103.591 48.7326L97.6241 46.4858L102.09 45.2447C104.441 44.5915 106.584 43.328 106.741 42.5652C106.942 41.5844 105.022 41.7582 100.579 42.8903C97.0528 43.8701 94.0139 45.177 93.8573 45.9398C93.7007 46.7026 96.158 48.2291 99.5556 49.4943L105.416 51.7193L100.351 53.1782C97.6143 54.0928 95.4933 55.2474 95.7005 55.8578C96.1765 57.3183 108.825 54.0089 109.183 52.2653C109.339 51.5025 106.882 49.976 103.591 48.7326Z" fill="#963B50"/>
<path d="M100.371 85.998L98.2834 88.0681L93.7156 84.4049C91.0511 82.2681 88.7618 81.0032 88.2022 81.5697C87.7713 82.0491 89.5403 84.2293 92.2048 86.3661C96.3919 89.724 96.7894 90.487 95.4521 92.1432C94.6966 93.1238 94.3442 94.3007 94.7025 94.7149C95.1671 95.151 96.9523 93.4732 98.7876 91.0108C102.587 85.9987 103.555 82.9039 100.371 85.998Z" fill="#963B50"/>
<path d="M99.4393 28.4584C98.8515 27.5427 98.0062 26.8014 97.4745 26.6923C96.8364 26.5613 96.0359 25.602 95.5768 24.5992C94.8881 23.0951 93.6681 23.6396 88.2958 28.2153C84.7927 31.244 81.4799 34.4253 80.9819 35.2316C79.5104 37.5416 81.5364 37.3896 83.6684 35.1016L85.627 33.1187L86.6461 35.7128C88.1467 39.2007 92.3165 39.943 96.2003 37.2196C99.6532 34.9756 101.035 30.9436 99.4393 28.4584ZM95.2149 35.541C92.5959 37.5019 89.8086 37.0433 88.4481 34.4927C86.6285 30.9394 93.4334 25.8628 96.9487 28.1743C98.919 29.3737 97.9627 33.4929 95.2149 35.541Z" fill="#963B50"/>
<path d="M83.8344 95.3259C82.4907 93.233 80.5483 91.3579 79.6975 91.1833C77.3579 90.7031 72.9369 93.8841 72.4001 96.4995C71.7962 99.4418 72.798 99.4203 74.6388 96.3912C76.586 93.3838 79.5131 92.6218 80.8567 94.7147C81.5901 96.0009 80.8571 96.8725 77.4937 98.6807C73.8728 100.663 73.4196 101.251 74.2762 103.017C75.8663 106.069 80.954 106.659 83.4498 104.219C86.5052 101.212 86.5832 99.7514 83.8344 95.3259ZM81.4123 103.346C79.0731 105.024 78.2 104.958 76.9404 102.996C76.2685 101.95 76.8952 101.056 79.296 99.6184C81.182 98.5292 82.9561 97.9848 83.3144 98.399C84.5403 99.4456 83.5781 101.974 81.4123 103.346Z" fill="#963B50"/>
<path d="M66.6717 98.5092C66.5752 90.8804 64.7779 87.218 64.3313 93.7132C64.1528 96.7429 63.873 97.0262 61.3207 96.5023C59.8319 96.1967 57.9121 96.3705 57.0112 96.9805C54.823 98.4621 53.8726 104.172 55.2892 107.53C56.4146 110.145 60.2544 111.956 62.1851 110.648C62.7224 110.191 63.7466 110.06 64.3846 110.191C66.1925 110.562 66.8859 107.184 66.6717 98.5092ZM60.0355 108.163C55.4626 107.224 56.0599 98.3752 60.7109 97.8535C62.9943 97.5272 64.7414 101.974 63.7066 105.396C62.9123 108.186 62.2687 108.621 60.0355 108.163Z" fill="#963B50"/>
<path d="M65.7779 21.3213C65.1398 21.1903 64.714 18.9451 64.7808 16.4604C64.7635 13.8448 64.2145 11.1201 63.3916 10.2697C61.5555 8.41649 56.1825 8.67645 54.8844 10.6813C53.4128 12.9913 54.8514 14.0816 56.7876 12.2077C58.7238 10.3337 62.3172 11.1849 62.5079 13.4954C62.6703 14.3237 61.4279 14.9772 59.8496 15.1075C55.5009 15.237 52.6189 17.9389 53.5486 20.9689C54.2879 23.8463 58.4522 25.1553 60.7298 23.2379C61.6532 22.5189 63.2315 22.3886 64.2278 22.9338C65.3305 23.5008 66.3547 23.3703 66.4889 22.7165C66.6231 22.0626 66.3096 21.4304 65.7779 21.3213ZM61.0261 21.2545C58.5805 22.9103 55.586 21.8414 56.0781 19.4439C56.5031 17.3734 58.6857 16.4586 61.6634 17.0697C63.4713 17.4408 63.0855 19.8601 61.0261 21.2545Z" fill="#963B50"/>
<path d="M45.6126 17.5268L42.6173 12.1422L38.3529 14.5603L34.2172 16.8913L36.1993 21.273C37.2855 23.5402 37.9353 26.8534 37.5998 28.4881C37.2419 30.2317 37.466 31.2998 38.1935 30.9948C40.2251 30.2762 40.5041 25.6772 38.8748 22.2764C36.9936 18.4833 37.1333 17.2627 39.7468 15.8685C41.3753 14.9536 42.1142 15.6731 44.7736 20.5345C46.554 23.7391 48.0935 25.4179 48.2724 24.5461C48.4514 23.6743 47.3314 20.4916 45.6126 17.5268Z" fill="#963B50"/>
<path d="M34.5601 86.4654C33.922 86.3345 33.021 86.9445 32.5231 87.7508C30.5535 90.8671 28.5494 88.7523 29.4442 84.3933C29.9363 81.9958 29.9806 79.62 29.4096 79.1621C28.861 78.5952 28.0778 80.2515 27.4738 83.1939C26.4896 87.9888 26.3386 88.1849 23.3609 87.5737C21.553 87.2027 19.7397 87.3983 19.3088 87.8777C18.7492 88.4442 20.3612 89.2294 23.4453 89.8624L28.3371 90.8665L26.0988 93.1327C21.8795 97.4907 25.3159 96.9468 30.3243 92.5236C35.6126 87.8171 36.2616 86.8147 34.5601 86.4654Z" fill="#963B50"/>
<path d="M30.3904 28.4765C27.4292 26.1652 24.8263 24.2681 24.6137 24.2245C23.2312 23.9407 23.5062 28.5398 25.214 32.6381C26.2331 35.2322 26.8716 37.521 26.6142 37.6953C26.3567 37.8696 24.3864 36.6702 22.0578 35.0566C19.8579 33.3558 17.9268 32.5051 17.7926 33.159C17.5018 34.5757 27.824 42.5999 29.0048 41.7066C29.5196 41.358 29.1217 38.4371 28.1528 35.0584C26.1256 28.7368 26.4502 28.2356 30.2958 31.637C31.6057 32.8144 33.2794 33.8393 34.0014 34.1011C36.8728 34.6904 35.3388 32.4449 30.3904 28.4765Z" fill="#963B50"/>
<path d="M25.047 68.0376C24.1009 66.7078 23.7312 65.2691 24.1397 64.8987C25.7345 63.0682 23.8929 61.7817 21.7271 63.1542C20.4624 63.9167 17.7649 65.1801 15.7557 65.7898C13.1477 66.6173 11.8158 67.7068 11.4356 69.5593C10.8764 72.2837 13.0319 76.3603 15.2652 76.8187C17.3921 77.2553 17.0279 75.2499 14.9289 74.1376C13.7198 73.5488 13.1151 72.1754 13.3612 70.9767C14.1217 67.2715 15.9295 67.6426 17.6597 71.6319C19.3059 75.4903 21.9143 76.8207 24.4885 75.0777C26.8054 73.5091 27.0456 70.7192 25.047 68.0376ZM22.7588 73.2463C21.4324 73.769 18.04 69.7793 18.3755 68.1446C18.711 66.51 22.0356 66.511 23.34 68.2551C24.9186 70.2826 24.6616 72.6148 22.7588 73.2463Z" fill="#963B50"/>
<path d="M19.8038 43.9022C11.3131 42.6136 10.334 44.684 17.3476 48.8492L22.2623 51.9022L19.0386 52.4898C17.3092 52.8162 14.5779 53.1641 13.1284 53.2073C11.5724 53.2286 10.2013 53.9693 10.0224 54.8411C9.77632 56.0398 11.4107 56.716 16.9854 57.6331C23.7075 58.8993 23.8139 58.9212 19.504 57.2415L14.8526 55.6054L18.3114 54.9526C20.2759 54.5608 22.4754 54.1037 23.2645 54.0386C25.783 53.647 24.7416 51.1619 21.4782 49.2428C16.6476 46.3206 16.7425 45.318 21.5281 46.3003C23.974 46.8023 26.1064 46.6722 26.2183 46.1273C26.3748 45.3645 23.8897 44.5137 19.8038 43.9022Z" fill="#963B50"/>
</svg>
