<svg width="74" height="69" viewBox="0 0 74 69" fill="none" xmlns="http://www.w3.org/2000/svg">
<path d="M59.5677 1.70137C58.7359 2.42301 27.0299 42.6976 26.8771 43.2449C26.6898 43.924 26.9332 45.4244 27.3214 45.9628C27.707 46.4835 31.4467 49.2308 32.0551 49.4287C32.6077 49.617 34.1258 49.3709 34.6872 49.0153C35.1628 48.6908 64.352 6.58818 64.7974 5.58102C65.1978 4.63488 64.7863 2.97891 63.9692 2.23371C62.9204 1.27016 62.3828 1.06159 61.1521 1.17411C60.298 1.26623 59.9346 1.37504 59.5677 1.70137Z" fill="#E7B4C1"/>
<path d="M20.7055 47.794C18.6872 48.8023 17.3816 50.8247 16.0278 54.9337C15.7062 55.9222 15.2803 57.5412 15.0824 58.5112C14.6063 60.8791 14.1742 61.9747 13.3945 62.9235C12.6422 63.814 11.0023 65.0548 9.47818 65.8624L8.42524 66.4364L9.04596 66.5963C13.5227 67.7502 18.8356 67.3681 23.2889 65.5963C24.9077 64.9373 28.177 63.1082 29.2255 62.2636C30.2739 61.4191 31.5247 59.5134 32.0045 58.0129C33.163 54.5299 32.1191 51.432 29.1178 49.3875C26.2386 47.4331 22.7389 46.7653 20.7055 47.794Z" fill="#E7B4C1"/>
</svg>
