<svg width="57" height="53" viewBox="0 0 57 53" fill="none" xmlns="http://www.w3.org/2000/svg">
<path d="M45.911 1.01524C45.272 1.56949 20.9181 32.5019 20.8007 32.9222C20.6568 33.4438 20.8438 34.5961 21.142 35.0096C21.4382 35.4095 24.3106 37.5195 24.7779 37.6715C25.2024 37.8161 26.3684 37.627 26.7996 37.354C27.1649 37.1047 49.5858 4.76838 49.9279 3.99486C50.2354 3.26819 49.9194 1.99636 49.2918 1.42403C48.4862 0.684012 48.0733 0.523835 47.1279 0.610268C46.4719 0.681023 46.1928 0.764605 45.911 1.01524Z" fill="#E7B4C1"/>
<path d="M16.0667 36.4155C14.5164 37.1899 13.5136 38.7431 12.4737 41.899C12.2266 42.6582 11.8995 43.9017 11.7475 44.6466C11.3817 46.4652 11.0498 47.3067 10.4509 48.0354C9.87308 48.7194 8.61345 49.6724 7.44272 50.2926L6.63395 50.7335L7.11072 50.8563C10.5493 51.7424 14.6302 51.4489 18.0508 50.0881C19.2942 49.5819 21.8054 48.1771 22.6107 47.5284C23.4161 46.8798 24.3768 45.4162 24.7453 44.2637C25.6352 41.5887 24.8334 39.2094 22.5282 37.6392C20.3167 36.1382 17.6286 35.6254 16.0667 36.4155Z" fill="#E7B4C1"/>
</svg>
