<svg width="67" height="74" viewBox="0 0 67 74" fill="none" xmlns="http://www.w3.org/2000/svg">
<path d="M26.779 0.17611C18.7391 0.677662 11.6833 2.10515 7.01437 4.20781C3.41319 5.82821 1.2148 7.81513 0.41919 10.1686C0.000448585 11.3646 0.000448562 12.0012 0.000448562 36.9823C0.000448562 65.2042 -0.0623627 63.6224 1.29855 65.6093C4.64848 70.4512 15.7451 73.557 31.1967 73.9621C40.4299 74.2129 49.5166 73.2098 56.0071 71.2421C60.9692 69.7375 64.026 67.9628 65.6591 65.6479C67.0828 63.5838 66.9991 65.32 66.9991 37.0016C66.9991 8.6832 67.0828 10.4193 65.6591 8.35526C62.5814 3.95704 53.2225 0.967015 39.8856 0.156816C36.3053 -0.0553792 30.3592 -0.0553749 26.779 0.17611ZM37.4778 4.20781C51.9663 5.0373 61.3042 7.77655 62.3929 11.5189C63.1257 14.0459 60.027 16.438 53.725 18.1741C36.9963 22.8231 8.45902 20.1417 4.92066 13.583C4.27161 12.387 4.27161 12.2326 4.9416 10.9981C7.01437 7.15925 18.2366 4.34285 32.6623 4.05349C33.416 4.0342 35.5725 4.11136 37.4778 4.20781Z" fill="#963B50"/>
<path d="M37.4778 4.20781C51.9663 5.0373 61.3042 7.77655 62.3929 11.5189C63.1257 14.0459 60.027 16.438 53.725 18.1741C36.9963 22.8231 8.45902 20.1417 4.92066 13.583C4.27161 12.387 4.27161 12.2326 4.9416 10.9981C7.01437 7.15925 18.2366 4.34285 32.6623 4.05349C33.416 4.0342 35.5725 4.11136 37.4778 4.20781Z" fill="#FEF1F1"/>
</svg>
