<svg width="70" height="79" viewBox="0 0 70 79" fill="none" xmlns="http://www.w3.org/2000/svg">
<path d="M24.6329 0.160515C22.6663 0.544617 20.6843 2.08102 19.8547 3.86325C19.2862 5.07701 19.0865 6.10641 19.0865 7.84255V9.19458L11.6042 9.24067C4.30626 9.28677 4.09116 9.30213 3.39978 9.60941C2.47793 10.0396 1.47927 11.0383 1.06444 11.9601C0.60352 12.9434 0.60352 14.6949 1.06444 15.6782C1.47927 16.6001 2.47793 17.5987 3.39978 18.0289L4.10653 18.3516H35.2188H66.331L67.0377 18.0289C67.9596 17.5987 68.9582 16.6001 69.3731 15.6782C69.834 14.6949 69.834 12.9434 69.3731 11.9601C68.9582 11.0383 67.9596 10.0396 67.0377 9.60941C66.3463 9.30213 66.1312 9.28677 58.8487 9.24067L51.351 9.19458V7.84255C51.351 7.08971 51.2742 6.12177 51.1974 5.66085C50.675 2.89532 48.4472 0.66753 45.6817 0.145151C44.6676 -0.039217 25.6162 -0.039217 24.6329 0.160515ZM45.5127 4.90801C46.4345 5.3843 46.7418 6.10641 46.7418 7.82718V9.20995H35.2188H23.6957V7.82718C23.6957 6.13713 24.003 5.3843 24.8941 4.92337C25.4472 4.63146 25.8159 4.61609 35.188 4.60073C44.6369 4.60073 44.9288 4.61609 45.5127 4.90801Z" fill="#E7B4C1"/>
<path d="M5.4987 23.684C5.54479 24.0528 6.45127 34.8537 7.49602 47.6981C8.55614 60.5424 9.49335 71.6353 9.58554 72.3574C9.95427 75.3841 12.0284 77.7655 14.8554 78.4262C16.2535 78.7642 54.2028 78.7642 55.6009 78.4262C58.4279 77.7655 60.502 75.3841 60.8708 72.3574C60.963 71.6353 61.9002 60.5424 62.9603 47.6981C64.005 34.8537 64.9115 24.0528 64.9576 23.684L65.0344 23.0387H35.2282H5.42188L5.4987 23.684ZM22.7372 28.0782C22.9984 28.2625 23.3056 28.6313 23.4439 28.9078C23.6283 29.3073 23.9356 33.5785 24.8574 48.4663L26.0404 67.5023L25.7178 68.163C25.1493 69.346 23.7358 69.7609 22.5682 69.0848C21.4005 68.4242 21.5541 69.684 20.2482 48.6199L19.0652 29.5838L19.3878 28.9232C19.9716 27.7094 21.631 27.2946 22.7372 28.0782ZM36.3036 27.9552C36.7031 28.155 37.0257 28.4776 37.2255 28.8771C37.5328 29.4763 37.5328 29.7375 37.5328 48.5431C37.5328 67.3487 37.5328 67.6099 37.2255 68.2091C36.8721 68.9005 35.9964 69.4382 35.2282 69.4382C34.46 69.4382 33.5842 68.9005 33.2308 68.2091C32.9235 67.6099 32.9235 67.3487 32.9235 48.5431C32.9235 29.7528 32.9235 29.4763 33.2308 28.8771C33.7993 27.7555 35.136 27.356 36.3036 27.9552ZM50.1467 27.9552C50.5615 28.1703 50.8534 28.4776 51.0685 28.9232L51.3911 29.5838L50.2081 48.6199C48.9022 69.684 49.0558 68.4242 47.8881 69.0848C46.7205 69.7609 45.307 69.346 44.7385 68.163L44.4159 67.5023L45.5835 48.5431C46.6744 30.7976 46.7666 29.5224 47.0738 28.9232C47.3043 28.4776 47.5962 28.1857 48.0418 27.9552C48.8407 27.5711 49.3631 27.5711 50.1467 27.9552Z" fill="#E7B4C1"/>
</svg>
