<svg width="58" height="65" viewBox="0 0 58 65" fill="none" xmlns="http://www.w3.org/2000/svg">
<path d="M20.1018 0.117441C18.4487 0.434324 16.7827 1.70185 16.0853 3.17219C15.6074 4.17354 15.4395 5.02278 15.4395 6.45509V7.57052L9.15008 7.60855C3.01559 7.64657 2.83478 7.65925 2.25362 7.91275C1.47874 8.26766 0.639279 9.09156 0.290581 9.85207C-0.0968604 10.6633 -0.0968604 12.1083 0.290581 12.9195C0.639279 13.68 1.47874 14.5039 2.25362 14.8588L2.8477 15.125H29H55.1523L55.7464 14.8588C56.5213 14.5039 57.3607 13.68 57.7094 12.9195C58.0969 12.1083 58.0969 10.6633 57.7094 9.85207C57.3607 9.09156 56.5213 8.26766 55.7464 7.91275C55.1652 7.65925 54.9844 7.64657 48.8628 7.60855L42.5605 7.57052V6.45509C42.5605 5.834 42.4959 5.03546 42.4313 4.6552C41.9922 2.37365 40.1196 0.535726 37.7949 0.104766C36.9426 -0.0473377 20.9283 -0.0473377 20.1018 0.117441ZM37.6529 4.03411C38.4277 4.42704 38.686 5.02278 38.686 6.44242V7.58319H29H19.314V6.44242C19.314 5.04813 19.5723 4.42704 20.3213 4.04679C20.7862 3.80595 21.0962 3.79328 28.9742 3.7806C36.9167 3.7806 37.1621 3.79328 37.6529 4.03411Z" fill="#E7B4C1"/>
<path d="M4.02551 19.535C4.06426 19.8392 4.82622 28.75 5.70442 39.3465C6.59554 49.9431 7.38334 59.0946 7.46083 59.6904C7.77078 62.1874 9.51427 64.1521 11.8906 64.6971C13.0658 64.976 44.9652 64.976 46.1404 64.6971C48.5167 64.1521 50.2602 62.1874 50.5702 59.6904C50.6476 59.0946 51.4354 49.9431 52.3266 39.3465C53.2048 28.75 53.9667 19.8392 54.0055 19.535L54.07 19.0027H29.0155H3.96094L4.02551 19.535ZM18.5158 23.1602C18.7354 23.3123 18.9937 23.6165 19.1099 23.8446C19.2649 24.1742 19.5232 27.6979 20.2981 39.9803L21.2925 55.685L21.0213 56.23C20.5434 57.206 19.3553 57.5482 18.3738 56.9905C17.3922 56.4455 17.5214 57.4849 16.4236 40.107L15.4292 24.4023L15.7004 23.8573C16.1912 22.856 17.586 22.5137 18.5158 23.1602ZM29.9195 23.0588C30.2553 23.2235 30.5265 23.4897 30.6944 23.8193C30.9527 24.3136 30.9527 24.5291 30.9527 40.0437C30.9527 55.5582 30.9527 55.7737 30.6944 56.268C30.3974 56.8384 29.6612 57.2821 29.0155 57.2821C28.3698 57.2821 27.6336 56.8384 27.3366 56.268C27.0783 55.7737 27.0783 55.5582 27.0783 40.0437C27.0783 24.5418 27.0783 24.3136 27.3366 23.8193C27.8144 22.894 28.938 22.5644 29.9195 23.0588ZM41.5557 23.0588C41.9044 23.2362 42.1498 23.4897 42.3306 23.8573L42.6018 24.4023L41.6073 40.107C40.5096 57.4849 40.6387 56.4455 39.6572 56.9905C38.6757 57.5482 37.4875 57.206 37.0097 56.23L36.7385 55.685L37.72 40.0437C38.637 25.4037 38.7144 24.3516 38.9727 23.8573C39.1665 23.4897 39.4118 23.2489 39.7864 23.0588C40.4579 22.7419 40.897 22.7419 41.5557 23.0588Z" fill="#E7B4C1"/>
</svg>
