<svg width="303" height="82" viewBox="0 0 303 82" fill="none" xmlns="http://www.w3.org/2000/svg">
<g clip-path="url(#clip0_3756_9623)">
<path d="M285 0H41C31.0589 0 23 6.11877 23 13.6667V57.7037C23 65.2516 31.0589 71.3704 41 71.3704H285C294.941 71.3704 303 65.2516 303 57.7037V13.6667C303 6.11877 294.941 0 285 0Z" fill="#963B50"/>
<path d="M19.2407 75.7848C16.6487 76.582 14.0614 74.3654 15.0163 72.1655L24.0211 51.4209C24.8732 49.4579 27.9359 49.0893 29.5333 50.7575L42.8294 64.6423C44.2446 66.1201 43.5907 68.2948 41.5417 68.925L19.2407 75.7848Z" fill="#963B50"/>
</g>
<defs>
<clipPath id="clip0_3756_9623">
<rect width="303" height="82" fill="white"/>
</clipPath>
</defs>
</svg>
