<svg width="100" height="100" viewBox="0 0 100 100" fill="none" xmlns="http://www.w3.org/2000/svg">
<path d="M28.9965 8.00367C26.7965 10.2037 26.4965 11.6037 28.0965 12.5037C28.6965 12.9037 29.3965 12.3037 29.6965 11.2037C30.2965 8.70367 32.8965 7.50367 34.3965 9.00367C35.0965 9.70367 34.3965 10.9037 32.0965 12.8037C29.4965 14.9037 28.8965 16.1037 29.3965 17.7037C30.3965 20.9037 32.9965 21.4037 36.1965 19.0037C37.6965 17.9037 39.5965 17.0037 40.4965 17.0037C41.2965 17.0037 41.9965 16.5037 41.9965 16.0037C41.9965 15.4037 41.5965 15.0037 40.9965 15.0037C40.4965 15.0037 39.1965 13.0037 38.0965 10.5037C36.4965 6.90367 35.5965 6.00367 33.5965 6.00367C32.1965 6.00367 30.0965 6.90367 28.9965 8.00367ZM36.9965 13.9037C36.9965 16.2037 35.5965 18.0037 33.8965 18.0037C31.7965 18.0037 31.3965 16.0037 33.1965 14.2037C34.5965 12.8037 36.9965 12.6037 36.9965 13.9037Z" fill="#963B50"/>
<path d="M62.5984 9.19957C60.6984 11.8996 60.4984 17.0996 62.1984 18.7996C63.8984 20.4996 68.4984 20.2996 69.9984 18.4996C70.9984 17.1996 70.6984 17.0996 67.3984 17.2996C63.9984 17.4996 63.4984 17.1996 63.1984 15.1996C62.9984 13.8996 63.5984 11.9996 64.5984 10.8996C66.8984 8.39957 69.9984 8.39957 69.9984 10.9996C69.9984 12.0996 70.6984 12.9996 71.4984 12.9996C73.2984 12.9996 73.3984 11.5996 71.9984 8.89957C70.4984 6.09957 64.5984 6.29957 62.5984 9.19957Z" fill="#963B50"/>
<path d="M14.9969 19.2016L11.7969 22.5016L16.5969 26.8016L21.2969 31.1016L24.1969 28.3016C27.6969 24.9016 27.7969 20.7016 24.2969 20.2016C22.9969 20.0016 21.9969 19.3016 21.9969 18.5016C21.9969 17.5016 19.9969 16.0016 18.4969 16.0016C18.3969 16.0016 16.7969 17.5016 14.9969 19.2016ZM19.9969 20.4016C19.9969 22.6016 17.0969 24.5016 15.7969 23.2016C14.8969 22.3016 15.0969 21.5016 16.4969 20.0016C18.2969 18.0016 19.9969 18.2016 19.9969 20.4016ZM24.9969 23.3016C24.9969 24.1016 24.1969 25.4016 23.1969 26.3016C21.7969 27.6016 21.0969 27.7016 20.1969 26.8016C19.2969 25.9016 19.3969 25.2016 20.6969 23.8016C22.5969 21.7016 24.9969 21.4016 24.9969 23.3016Z" fill="#963B50"/>
<path d="M78.2973 16.9991C75.5973 18.0991 72.6973 22.2991 73.1973 24.5991C73.3973 25.4991 74.6973 27.1991 76.0973 28.1991C78.5973 30.0991 78.8973 30.0991 81.8973 28.4991C87.0973 25.8991 87.8973 20.4991 83.6973 17.4991C81.2973 15.7991 81.2973 15.7991 78.2973 16.9991ZM83.7973 21.5991C84.1973 24.2991 81.5973 26.9991 78.4973 26.9991C75.4973 26.9991 74.5973 24.2991 76.4973 21.2991C78.5973 18.1991 83.2973 18.3991 83.7973 21.5991Z" fill="#963B50"/>
<path d="M82.5966 30.1033C79.7966 32.3033 79.2966 34.9033 81.1966 36.8033C81.9966 37.6033 81.6966 38.2033 79.6966 38.9033C75.8966 40.4033 76.1966 42.3033 79.9966 41.5033C82.4966 41.0033 82.9966 41.2033 82.9966 42.7033C82.9966 47.0033 89.3966 48.5033 93.8966 45.4033C95.7966 44.0033 96.0966 43.1033 95.6966 40.0033C95.2966 36.8033 95.4966 36.1033 97.0966 35.7033C100.497 34.8033 99.2966 32.8033 95.8966 33.5033C93.6966 34.0033 92.9966 33.9033 93.3966 33.1033C93.7966 32.5033 93.5966 31.1033 92.9966 30.0033C91.5966 27.3033 86.0966 27.3033 82.5966 30.1033ZM90.9966 31.6033C92.8966 33.7033 90.2966 36.1033 85.8966 36.3033C83.0966 36.5033 82.4966 36.1033 82.4966 34.5033C82.4966 33.4033 83.5966 32.0033 84.9966 31.3033C88.2966 29.6033 89.4966 29.7033 90.9966 31.6033ZM93.6966 39.7033C94.4966 41.8033 90.3966 45.2033 87.5966 44.8033C84.4966 44.4033 84.1966 40.2033 87.1966 39.1033C90.6966 37.6033 92.9966 37.8033 93.6966 39.7033Z" fill="#963B50"/>
<path d="M7.20283 32.6023C4.00283 34.8023 4.30283 39.3023 7.70283 42.0023C11.1028 44.7023 14.7028 44.2023 17.3028 40.9023C19.7028 37.6023 18.9028 34.5023 15.0028 32.5023C11.3028 30.6023 10.0028 30.6023 7.20283 32.6023ZM15.0028 35.5023C17.2028 38.1023 15.8028 40.5023 12.1028 40.5023C8.40283 40.5023 6.30283 38.3023 7.30283 35.6023C8.10283 33.6023 13.3028 33.5023 15.0028 35.5023Z" fill="#963B50"/>
<path d="M7.8 48.7C4.3 49 3 49.5 3 50.7C3 51.8 3.7 52.1 5.4 51.8C9.6 51 10.6 56.4 6.5 57.4C3.6 58.1 3.1 60 5.9 60C10.7 60 17 58.6 17 57.5C17 56.8 15.9 56.5 14 56.8C11.2 57.2 11 57 11 54.1C11 51.5 11.4 51 13.5 51C15.1 51 16 50.4 16 49.5C16 48.7 15.2 48.1 14.3 48.2C13.3 48.3 10.4 48.5 7.8 48.7Z" fill="#963B50"/>
<path d="M83.9996 49.2033C83.9996 49.9033 85.6996 51.9033 87.6996 53.7033L91.4996 56.9033L87.2996 57.0033C82.2996 57.0033 81.5996 58.5033 86.0996 59.4033C91.2996 60.4033 95.9996 60.1033 95.9996 58.7033C95.9996 58.1033 94.2996 56.1033 92.2996 54.3033L88.4996 51.1033L92.7996 51.0033C97.9996 51.0033 98.2996 49.5033 93.2996 48.6033C87.2996 47.7033 83.9996 47.9033 83.9996 49.2033Z" fill="#963B50"/>
<path d="M12.4986 64.9998C5.79857 68.8998 5.99857 70.3998 13.4986 70.9998L19.4986 71.4998L15.0986 73.7998C12.1986 75.3998 11.0986 76.4998 11.7986 77.1998C12.3986 77.7998 14.6986 77.0998 18.3986 74.9998C22.9986 72.3998 23.7986 71.4998 22.8986 70.3998C22.1986 69.5998 19.6986 68.9998 16.5986 68.8998C12.2986 68.8998 11.7986 68.6998 13.3986 67.6998C20.8986 62.8998 20.0986 60.5998 12.4986 64.9998Z" fill="#963B50"/>
<path d="M81.0037 62.7016C81.0037 63.0016 81.7037 64.2016 82.7037 65.2016C84.0037 66.7016 84.1037 67.5016 83.2037 69.5016C82.0037 72.0016 82.0037 72.0016 79.4037 70.3016C76.9037 68.7016 76.8037 68.7016 77.1037 70.4016C77.3037 71.3016 79.9037 73.5016 82.7037 75.1016L88.0037 78.1016L90.1037 73.6016C92.0037 69.9016 92.1037 68.9016 91.0037 67.6016C90.3037 66.7016 89.1037 66.0016 88.3037 66.0016C87.6037 66.0016 86.0037 65.1016 84.8037 64.0016C82.6037 62.0016 81.0037 61.4016 81.0037 62.7016ZM89.0037 69.4016C89.0037 71.9016 87.8037 74.0016 86.5037 74.0016C84.4037 74.0016 83.8037 72.3016 85.2037 70.0016C86.7037 67.7016 89.0037 67.3016 89.0037 69.4016Z" fill="#963B50"/>
<path d="M24.5 72.7C24.1 73.7 23.6 75.2 23.5 76.1C23.4 77 22.2 79.2 20.7 81.2L18 84.7L21.7 87.3L25.4 90L29.2 86C31.3 83.8 33.5 82.1 34.1 82.3C35.5 82.6 37.6 79.3 36.7 78.3C36.2 77.9 35.5 78.2 35.1 78.9C33.8 81 26.7 75.4 27.5 72.9C28.3 70.4 25.5 70.3 24.5 72.7ZM28.3 83.4C26.8 85.1 25.4 86.7 25.2 86.9C25.1 87.2 24.2 86.6 23.3 85.7C21.8 84.2 21.8 83.8 24 80.7C26.3 77.4 26.5 77.3 28.7 78.8L31.1 80.3L28.3 83.4Z" fill="#963B50"/>
<path d="M43.8 79.7014C41.4 82.5014 35 92.8014 35 94.0014C35 96.2014 37 94.8014 39.1 91.0014C40.4 88.8014 41.7 87.0014 42.2 87.0014C42.6 87.0014 43 89.0014 43 91.4014C43 95.5014 44.3 98.0014 45.7 96.7014C45.9 96.4014 45.7 93.1014 45.1 89.4014C44.4 84.6014 44.4 82.2014 45.1 81.3014C45.7 80.6014 46.5 80.2014 46.8 80.3014C47.2 80.4014 47.6 80.0014 47.8 79.5014C48.3 77.7014 45.4 77.9014 43.8 79.7014Z" fill="#963B50"/>
<path d="M60.2016 84.4C60.9016 87.9 59.8016 88.4 56.7016 86C55.3016 84.9 53.4016 84 52.3016 84C50.9016 84.1 51.4016 84.8 54.2016 87.1L58.0016 90.2L55.4016 93.6C53.3016 96.3 53.1016 97 54.4016 97C55.3016 97 57.0016 95.4 58.2016 93.5C60.9016 89.4 62.0016 89.1 62.0016 92.5C62.0016 94.1 62.6016 95 63.5016 95C65.3016 95 65.3016 95 63.6016 88.1C62.9016 85.1 61.8016 82.4 61.0016 82.2C60.1016 81.9 59.9016 82.5 60.2016 84.4Z" fill="#963B50"/>
</svg>
