<svg width="70" height="60" viewBox="0 0 70 60" fill="none" xmlns="http://www.w3.org/2000/svg">
<path d="M30.0934 0.472408C29.0152 1.09022 1.94352 26.4207 0.777894 27.8916C-0.125467 29.039 -0.242029 30.4217 0.428206 31.7456C0.807035 32.4517 26.6839 57.0172 29.3649 59.1649C30.7054 60.2534 32.075 60.2828 32.8909 59.2237C33.4737 58.4588 33.5029 58.0763 33.5029 50.486V42.5427L38.1071 42.7192C45.5088 43.0134 50.317 44.0431 54.9213 46.3084C59.5838 48.6032 62.5852 51.6334 65.1496 56.6348C66.8398 59.9298 66.8981 59.9886 68.0345 59.9886C69.7538 59.9886 70.0744 59.2237 69.987 55.458C69.8121 47.4264 68.5299 41.1305 65.849 35.3937C62.8475 28.8919 57.5731 23.6552 51.2787 21.0074C47.0241 19.1834 40.6423 17.9183 35.6301 17.9183H33.5029V9.975C33.5029 1.38442 33.3572 0.531248 31.9875 0.148791C31.0842 -0.0865677 31.1425 -0.0865677 30.0934 0.472408Z" fill="#963B50"/>
</svg>
