<svg width="71" height="61" viewBox="0 0 71 61" fill="none" xmlns="http://www.w3.org/2000/svg">
<path d="M30.8122 0.863033C29.7339 1.48085 2.66227 26.8113 1.49664 28.2823C0.593283 29.4296 0.476721 30.8124 1.14696 32.1363C1.52578 32.8423 27.4027 57.4079 30.0836 59.5555C31.4241 60.644 32.7937 60.6735 33.6097 59.6143C34.1925 58.8494 34.2216 58.467 34.2216 50.8767V42.9333L38.8258 43.1098C46.2276 43.404 51.0358 44.4337 55.64 46.6991C60.3025 48.9938 63.304 52.024 65.8684 57.0254C67.5585 60.3204 67.6168 60.3793 68.7533 60.3793C70.4726 60.3793 70.7931 59.6143 70.7057 55.8486C70.5309 47.817 69.2487 41.5212 66.5677 35.7843C63.5663 29.2825 58.2918 24.0458 51.9974 21.398C47.7429 19.574 41.3611 18.309 36.3489 18.309H34.2216V10.3656C34.2216 1.77505 34.0759 0.921871 32.7063 0.539417C31.8029 0.304058 31.8612 0.304058 30.8122 0.863033Z" fill="#E7B4C1"/>
</svg>
