<svg width="137" height="137" viewBox="0 0 137 137" fill="none" xmlns="http://www.w3.org/2000/svg">
<path d="M109.722 82.8488L103.531 79.4453L101.699 82.7789C99.0575 87.5833 98.9985 89.7213 101.38 91.0304C104.237 92.6012 106.731 91.6742 108.564 88.3406C109.804 86.0855 110.454 85.8047 112.454 86.9043C113.788 87.6373 115.051 87.8211 115.375 87.2328C115.698 86.6445 113.247 84.7862 109.722 82.8488ZM102.947 89.0828C101.451 88.6439 101.394 87.8461 102.687 85.493C104.035 83.0418 104.739 82.663 106.358 83.5531C107.882 84.3909 107.994 85.0906 106.522 87.0905C105.416 88.6526 104.007 89.4103 102.947 89.0828Z" fill="#963B50"/>
<path d="M103.543 94.7712L97.488 91.5704L90.0579 97.1894C86.0382 100.214 82.3708 103.05 82.0186 103.24C81.5047 103.723 88.2556 114.457 89.4938 115.137C89.7796 115.294 90.2396 114.909 90.5091 114.419C90.8325 113.83 89.6821 111.41 87.9477 108.925C84.8472 104.412 84.7195 103.065 87.5371 101.549C88.7967 100.837 89.8319 101.662 92.6053 105.867C94.8735 109.413 96.2772 110.695 96.7084 109.911C97.0857 109.224 95.9353 106.804 94.0931 104.515C90.8309 100.296 90.7571 98.8506 93.6286 97.2372C94.8882 96.5252 95.6916 97.0945 97.9185 100.489C100.924 104.95 102.423 106.285 103.123 105.01C103.339 104.618 101.915 101.793 100.003 98.9538L96.41 93.5314L102.411 96.8302C105.703 98.5124 108.586 99.5864 108.909 98.9981C109.232 98.4098 106.876 96.6038 103.543 94.7712Z" fill="#963B50"/>
<path d="M118.309 69.9465C118.364 66.9126 117.988 64.6631 117.392 64.8459C116.89 65.081 116.393 66.2119 116.425 67.5065C116.325 69.4942 115.43 69.7683 110.148 69.6738C106.727 69.5803 103.959 70.1019 103.976 70.7492C104.033 71.5469 106.601 72.0649 110.023 72.1584L115.888 72.3186L116.131 75.2611C116.68 79.9037 118.09 76.2103 118.309 69.9465Z" fill="#963B50"/>
<path d="M115.163 49.7112C114.187 46.7486 110.498 44.2096 109.581 45.8764C109.258 46.4647 109.668 47.073 110.591 47.1978C113.023 47.513 114.438 51.4827 112.693 53.0771C111.313 54.2337 111.027 54.0766 109.21 51.2901C106.478 47.2347 104.71 46.3902 102.124 48.1607C100.404 49.2582 100.014 50.193 100.539 52.3968C100.858 53.8485 101.896 55.5688 102.944 56.1447C103.897 56.6684 104.281 57.7736 103.85 58.558C103.419 59.3424 103.518 60.2905 103.994 60.5523C104.566 60.8665 105.216 60.5857 105.593 59.8994C105.917 59.3111 108.043 57.9261 110.346 56.8943C115.306 54.6413 116.264 53.1249 115.163 49.7112ZM103.248 54.0134C102.238 52.692 101.729 51.1355 102.052 50.5473C103.022 48.7824 106.149 49.863 107.871 52.5971C109.374 54.8276 109.307 55.1741 107.315 55.866C105.525 56.4143 104.763 55.9954 103.248 54.0134Z" fill="#963B50"/>
<path d="M80.5883 110.116C79.9267 107.71 78.6272 105.336 77.8652 104.917C75.7697 103.765 70.5908 105.514 69.2972 107.867C67.8419 110.515 68.807 110.79 71.4717 108.424C74.2317 106.111 77.2598 106.244 77.9213 108.65C78.2396 110.102 77.2782 110.723 73.5207 111.466C69.4649 112.3 68.8557 112.732 69.1489 114.68C69.7602 118.081 74.4526 120.15 77.5685 118.543C81.3887 116.557 81.8989 115.178 80.5883 110.116ZM75.8791 117.103C73.1405 118.024 72.3246 117.703 71.7043 115.447C71.3735 114.243 72.2396 113.57 74.9657 112.899C77.0951 112.409 78.9551 112.41 79.1744 112.914C80.0353 114.281 78.3607 116.425 75.8791 117.103Z" fill="#963B50"/>
<path d="M103.599 31.7318C99.2799 28.0808 98.6959 28.0151 95.9809 31.3744C94.5758 33.0279 92.0853 34.8507 90.4447 35.3533C88.6549 35.9015 87.4366 36.7639 87.6559 37.2675C88.0982 39.1705 92.233 37.7408 95.7225 34.552C99.3198 31.1671 100.745 31.0567 102.264 33.9345C102.988 35.0988 102.449 36.0793 100.016 38.6998C96.1907 42.7254 95.233 44.2418 96.376 44.8702C97.2333 45.3414 103.802 38.3554 105.473 35.316C105.905 34.5316 105.002 33.0141 103.599 31.7318Z" fill="#963B50"/>
<path d="M61.5307 112.524C62.4019 109.811 62.9335 107.039 62.6729 106.385C62.2719 104.632 53.7933 102.908 52.2102 104.208C50.5733 105.607 50.0705 108.777 51.3087 109.458C51.785 109.72 51.5443 110.609 50.5704 111.478C48.2039 113.752 49.8305 116.434 54.5066 117.855C59.2779 119.329 59.5349 119.087 61.5307 112.524ZM52.4163 114.663C51.4476 113.492 51.5679 113.048 53.1672 112.395C55.5661 111.416 58.7219 112.895 58.3232 114.974C58.0323 116.857 54.0806 116.6 52.4163 114.663ZM57.1241 110.612C53.8642 110.225 52.6097 108.897 53.6338 107.034C54.6579 105.171 57.0192 104.937 59.6862 106.403C61.4959 107.398 59.4603 110.875 57.1241 110.612Z" fill="#963B50"/>
<path d="M68.718 23.4128C67.2885 15.86 65.0764 16.0484 63.9416 23.979C63.4513 26.9014 62.837 29.3726 62.5387 29.464C62.1865 29.6534 60.9158 27.6781 59.6701 25.2058C57.2741 20.3136 54.0231 18.7818 54.0792 22.5153C54.1804 27.295 56.0034 34.8089 57.1014 34.391C57.698 34.2083 57.8272 32.6195 57.4802 30.7689C57.0792 29.0163 56.7034 26.7668 56.7536 25.773C56.7587 23.733 57.4004 24.5964 60.1937 30.3454C62.2751 34.6816 63.8582 33.3813 65.0919 26.3989L66.0887 21.2013L67.2664 26.9559C67.8365 30.2058 68.6723 32.0698 69.1574 31.1874C69.5886 30.403 69.4247 26.8655 68.718 23.4128Z" fill="#963B50"/>
<path d="M36.0196 85.3593C35.5522 83.9533 34.4594 82.3311 33.6022 81.8599C32.7449 81.3886 32.3477 80.5318 32.8616 80.0483C33.2802 79.5123 33.14 78.4138 32.5397 77.7008C31.8855 77.0858 31.4506 76.9744 31.616 77.576C31.7814 78.1776 29.697 79.713 27.095 80.8362C21.3896 83.3176 20.2828 84.8797 21.4783 88.3458C22.4544 91.3083 26.144 93.8473 27.0603 92.1805C27.3837 91.5922 26.9739 90.9839 26.2407 90.9639C24.2028 90.6097 22.2617 87.372 23.178 85.7052C24.4177 83.4501 26.1986 84.0461 28.2764 87.4865C29.8078 90.1159 30.8016 90.7899 32.471 90.6862C35.7147 90.4265 37.0371 88.4723 36.0196 85.3593ZM31.0475 87.8608C28.7903 87.003 27.6613 83.1904 29.4762 82.1452C30.9928 81.1915 33.7964 82.8604 34.4166 85.1165C35.0782 87.5231 33.6443 88.7777 31.0475 87.8608Z" fill="#963B50"/>
<path d="M36.6955 71.2977C35.7718 71.173 34.1149 71.0282 33.1912 70.9035C32.0231 70.772 31.7624 70.118 32.4631 68.8434C33.9723 66.0981 32.8759 63.5801 29.5421 61.7475C25.3512 59.4435 21.0509 60.2715 19.1105 63.8012C18.1942 65.468 17.9572 67.2529 18.6528 68.0183C19.1991 68.8294 19.4347 69.9803 19.0035 70.7647C18.5723 71.5491 18.4394 72.2421 18.6299 72.3468C20.1539 73.1846 37.4235 73.3578 37.8547 72.5734C38.1781 71.9851 37.6192 71.4225 36.6955 71.2977ZM24.9894 70.4804C18.2001 70.1954 19.1607 62.8074 25.9086 62.942C28.8953 62.924 29.8065 63.2972 30.4105 64.9061C31.5358 67.8229 28.8459 70.6852 24.9894 70.4804Z" fill="#963B50"/>
<path d="M50.6932 35.4541C51.275 31.6882 50.0655 31.4064 49.1027 34.9628C48.2477 38.3231 45.4301 39.8385 42.8584 38.4247C40.5724 37.168 40.6802 36.9719 45.5947 33.6727C47.6791 32.1374 49.3286 30.4906 49.2585 29.9413C48.6257 27.9336 43.7178 26.257 41.0744 27.2297C35.3403 29.3123 36.9012 39.1079 43.0851 40.7199C46.469 41.5587 50.1239 38.9715 50.6932 35.4541ZM43.2836 32.913C40.2792 35.2194 38.6312 33.9304 40.4638 30.5967C41.3801 28.9299 42.3828 28.4597 44.1099 29.1538C46.7067 30.0706 46.6941 30.3191 43.2836 32.913Z" fill="#963B50"/>
<path d="M32.198 47.886C27.245 45.1632 27.0132 44.908 28.3607 42.4569C29.1153 41.0842 29.2194 39.9923 28.4323 40.0703C27.7943 40.1027 25.9706 42.292 24.4614 45.0374C23.0061 47.6847 22.2965 50.1035 22.7728 50.3653C23.3443 50.6795 24.2104 50.0065 24.8033 48.928C25.7735 47.1631 26.548 47.3336 31.12 49.847C33.9775 51.4178 36.5743 52.3347 36.8977 51.7464C37.1672 51.2561 35.0555 49.4569 32.198 47.886Z" fill="#963B50"/>
</svg>
