<svg width="414" height="1248" viewBox="0 0 414 1248" fill="none" xmlns="http://www.w3.org/2000/svg">
<rect width="414" height="1248" fill="#FCF3F3"/>
<rect y="1181" width="414" height="67" fill="#695C60"/>
<path d="M75.2906 248.32C75.2906 300.213 73.9078 352.386 75.3298 404.288C75.4586 408.99 76.7003 413.527 76.7003 418.189" stroke="#B64962" stroke-width="5" stroke-linecap="round"/>
<path d="M73.8828 249.028C80.3329 247.51 86.7378 243.431 92.6005 240.57C115.489 229.398 139.223 220.615 162.968 211.475C173.354 207.477 183.935 203.777 194.177 199.414C196.037 198.622 199.849 198.077 197.936 196.164" stroke="#B64962" stroke-width="5" stroke-linecap="round"/>
<path d="M73.8843 368.853C73.8843 365.139 72.4184 357.903 74.7066 354.756C81.3612 345.606 91.9938 342.923 102.783 343.557C117.117 344.4 126.425 355.084 129.097 368.384C131.981 382.733 135.571 408.085 119.699 416.47C114.712 419.105 109.242 420.557 103.958 422.422C99.3733 424.04 94.9507 425.946 90.0175 425.946C86.2517 425.946 79.8147 427.198 76.3904 425.241C75.6455 424.816 75.294 421.883 75.294 421.012C75.294 420.183 76.6609 417.488 75.9989 417.488" stroke="#B64962" stroke-width="5" stroke-linecap="round"/>
<path d="M124.633 323.737C136.198 323.737 147.762 323.737 159.327 323.737C160.39 323.737 167.67 322.883 168.138 324.364C169.296 328.031 165.637 335.31 164.653 338.617C160.173 353.669 157.272 370.016 157.056 385.764C157.013 388.876 158.041 394.647 155.646 397.042" stroke="#B64962" stroke-width="5" stroke-linecap="round"/>
<path d="M161.988 303.297C168.997 323.949 176.972 344.723 183.839 365.324" stroke="#B64962" stroke-width="5" stroke-linecap="round"/>
<path d="M182.43 298.367C182.046 305.087 181.725 311.768 181.725 318.495C181.725 321.172 182.023 323.869 181.02 326.405C179.431 330.424 177.055 330.112 174.52 332.748C174.009 333.28 171.461 335.579 173.424 335.724C182.669 336.409 192.646 343.904 200.286 348.177C212.228 354.854 225.392 362.027 235.842 370.967C237.691 372.548 243.933 375.87 239.523 376.605" stroke="#B64962" stroke-width="5" stroke-linecap="round"/>
<path d="M126.748 550C126.748 581.64 126.748 613.28 126.748 644.92C126.748 646.024 126.486 657.267 126.043 656.824C124.913 655.693 124.843 652.898 124.634 651.537C123.521 644.306 123.873 636.857 123.968 629.57C124.057 622.722 123.77 616.037 128.158 610.382C131.781 605.712 137.976 602.344 143.508 600.514C149.746 598.45 158.561 597.573 160.933 604.939C162.935 611.155 162.665 617.873 162.695 624.322C162.725 630.605 162.391 635.467 159.171 641.082C153.743 650.55 140.113 653.615 130.39 656.393C128.716 656.871 122.216 659.349 121.109 657.137" stroke="#B64962" stroke-width="5" stroke-linecap="round"/>
<path d="M127.453 546.475C147.999 546.068 168.79 539.478 188.423 533.826C193.23 532.443 197.954 530.64 202.872 529.676C204.549 529.347 205.512 529.474 206.396 528.148" stroke="#B64962" stroke-width="5" stroke-linecap="round"/>
<path d="M191.593 601.451C195.92 590.272 207.296 590.504 217.751 590.252C223.891 590.104 231.4 589.269 237.291 591.583C245.863 594.951 246.616 604.74 246.963 612.729C248.2 641.254 241.99 675.582 221.079 696.723C218.145 699.69 214.888 702.202 210.78 703.184C209.456 703.501 206.277 704.789 206.708 703.498C207.069 702.414 211.406 702.422 211.877 702.401C220.211 702.037 228.071 703.36 235.528 707.218C255.058 717.319 258.62 746.611 247.433 763.958C228.795 792.859 193.902 803.872 161.402 806.092C156.016 806.46 145.807 808.461 140.844 805.153" stroke="#B64962" stroke-width="5" stroke-linecap="round"/>
<path d="M61.1953 1013.08C62.5388 1008.87 63.9807 997.908 69.3402 996.166C72.6485 995.091 77.5592 995.278 81.0094 995.461C92.5727 996.075 94.7521 1008.36 94.0099 1017.62C92.5506 1035.83 82.0971 1055.46 69.2619 1068.3C67.5444 1070.01 65.2051 1072.36 62.9183 1073.39C61.147 1074.18 63.3339 1069.26 64.6412 1067.83C77.6616 1053.55 101.207 1053.48 118.601 1056.43C130.007 1058.37 151.346 1063.24 151.69 1078.71C151.844 1085.63 146.644 1091.64 142.096 1096.22C134.118 1104.25 124.635 1111.36 114.686 1116.77C109.33 1119.69 102.678 1122.33 96.4378 1122.33" stroke="#B64962" stroke-width="5" stroke-linecap="round"/>
<path d="M234.587 981.366C234.587 959.278 233.647 936.951 234.587 914.875C234.684 912.593 242.497 920.245 243.084 920.749C251.425 927.913 259.739 935.089 265.913 944.244C267.169 946.106 268.582 947.553 269.281 949.648C270.06 951.985 249.678 951.864 248.135 951.919C237.338 952.305 226.428 953.218 215.752 954.934C212.353 955.48 207.91 957.406 212.384 953.211C228.994 937.639 246.104 922.203 263.29 907.279C264.916 905.867 267.897 903.757 266.07 907.514C260.47 919.025 254.568 930.324 248.057 941.346C243.735 948.663 238.475 956.327 235.683 964.45C234.31 968.443 233.767 972.546 232.472 976.432" stroke="#B64962" stroke-width="5" stroke-linecap="round"/>
<path d="M44.9831 545.771C44.9831 526.93 44.6332 508.028 45.0614 489.187C45.1456 485.482 44.7181 484.893 47.3326 486.485C53.7308 490.383 59.0087 496.093 64.4056 501.209C72.0806 508.485 82.6802 515.594 87.5481 525.33C87.8409 525.916 88.7803 528.123 87.9789 528.502C86.1402 529.373 83.4877 529.511 81.5569 529.873C73.1831 531.443 64.8397 532.767 56.339 533.475C44.0959 534.496 31.2878 535.701 18.982 535.042C14.8018 534.818 10.4081 534.411 6.88208 531.987C1.07317 527.994 11.2534 522.667 14.1264 520.396C27.0262 510.199 40.8267 501.558 55.6341 494.395C62.1909 491.224 70.2581 486.567 77.6411 485.311C79.7703 484.948 78.5871 489.27 78.3459 490.166C75.4212 501.03 71.0908 511.621 67.3033 522.198C64.5442 529.902 61.7655 537.502 58.1011 544.831C56.9039 547.226 54.9812 549.609 54.1461 552.115" stroke="#B64962" stroke-width="5" stroke-linecap="round"/>
<path d="M251.504 287.795C251.504 269.599 251.504 251.404 251.504 233.208C251.504 231.115 249.938 222.177 252.679 226.943C257.33 235.031 263.148 242.484 268.264 250.281C272.153 256.21 277.429 262.171 280.325 268.686C281.068 270.359 282.274 270.878 279.815 270.878C267.113 270.878 254.785 270.126 242.341 267.354C235.373 265.802 228.431 263.994 221.509 262.264C216.58 261.031 227.903 256.447 228.518 256.116C243.071 248.279 257.791 240.685 272.61 233.365C275.651 231.863 281.601 230.238 283.888 227.569C285.061 226.201 284.535 231.409 284.514 231.564C283.392 240.173 278.863 248.834 275.156 256.547C271.663 263.814 267.648 274.197 260.628 279.023C256.681 281.737 253.433 286.663 250.799 290.614" stroke="#B64962" stroke-width="5" stroke-linecap="round"/>
<path d="M181.02 157.396C181.02 149.643 181.02 141.89 181.02 134.136C181.02 126.206 179.839 117.343 181.02 109.467C181.398 106.946 195.882 115.288 196.879 115.928C205.316 121.344 212.106 127.865 219.121 134.88C222.846 138.605 226.965 142.504 230.203 146.667C231.165 147.904 227.149 147.519 225.582 147.528C217.079 147.577 208.587 147.483 200.09 147.92C187.057 148.591 173.802 148.632 160.814 149.8C158.396 150.017 156.037 150.252 153.609 150.387C152.269 150.461 149.313 152.204 149.615 150.896C150 149.23 154.368 146.071 155.332 145.179C163.634 137.501 172.573 130.365 182.077 124.229C196.654 114.819 212.56 108.116 227.775 99.9119C228.997 99.2528 230.871 97.8294 232.318 97.6407C232.576 97.607 227.448 105.254 227.109 105.707C218.619 117.076 211.576 129.452 202.949 140.715C198.773 146.167 193.028 150.328 189.165 155.947C187.085 158.973 183.353 162.42 180.315 164.445" stroke="#B64962" stroke-width="5" stroke-linecap="round"/>
<path d="M303.663 757.923C306.635 751.329 309.633 744.751 312.67 738.188C313.156 737.137 313.523 735.607 314.314 734.702C315.421 733.438 317.432 732.755 318.935 733.724C326.292 738.465 328.25 751.88 330.839 759.646C331.443 761.459 335.44 769.578 333.893 771.511C333.486 772.02 332.762 770.855 332.249 770.454C329.829 768.562 327.172 767.017 324.495 765.52C315.974 760.753 306.827 757.259 298.338 752.441C295.918 751.068 292.794 748.397 289.919 748.095C286.045 747.687 293.094 747.934 293.639 747.899C308.114 746.977 322.578 743.826 337.104 743.826C338.119 743.826 339.146 743.78 340.159 743.826C343.386 743.973 334.654 747.213 331.818 748.76C325.067 752.443 318.279 756.125 312.121 760.743" stroke="#B64962" stroke-width="5" stroke-linecap="round"/>
<path d="M110.535 894.67C110.535 887.664 109.4 879.787 112.963 873.446C115.261 869.358 127.034 858.539 132.347 863.852C135.388 866.894 135.42 873.725 135.871 877.597C136.894 886.376 136.741 895.256 136.262 904.068C135.993 909.029 134.564 918.848 128.861 920.749" stroke="#B64962" stroke-width="5" stroke-linecap="round"/>
<path d="M110.537 894.666C104.915 894.666 96.1673 892.941 90.9575 894.979C87.1568 896.467 82.7687 900.68 85.0054 905.004C91.3515 917.273 107.117 916.516 118.877 916.516C124.119 916.516 132.552 916.786 137.321 914.402" stroke="#B64962" stroke-width="5" stroke-linecap="round"/>
<path d="M228.95 429.464C228.95 422.818 244.414 425.521 246.258 430.326C248.61 436.452 247.059 444.93 242.891 449.905C241.324 451.774 235.05 454.748 237.487 454.839C242.847 455.037 246.409 455.965 249.548 460.869C252.915 466.13 254.745 472.211 255.265 478.412C255.721 483.854 256.448 492.589 251.741 496.66C246.037 501.593 232.927 501.19 226.836 497.13" stroke="#B64962" stroke-width="5" stroke-linecap="round"/>
<path d="M47.0972 717.047C52.4227 717.047 57.7482 717.047 63.0738 717.047C66.2746 717.047 62.182 722.398 61.5858 723.625C56.5316 734.027 52.475 745.139 49.0551 756.166C47.7402 760.406 45.6875 765.337 45.6875 769.911" stroke="#B64962" stroke-width="5" stroke-linecap="round"/>
<path d="M56.9648 688.852C60.0199 699.209 63.1611 709.768 66.8327 719.865C68.4483 724.308 72.4768 727.634 73.8812 731.847" stroke="#B64962" stroke-width="5" stroke-linecap="round"/>
<path d="M73.177 680.391C73.177 695.074 70.7731 709.07 67.6949 723.23C66.9554 726.631 68.5929 725.383 71.8848 725.54C78.3577 725.848 84.8495 727.292 91.0332 729.182C97.5185 731.163 103.706 734.383 109.751 737.405C110.567 737.813 115.018 738.766 113.353 739.598" stroke="#B64962" stroke-width="5" stroke-linecap="round"/>
<path d="M305.072 621.889C305.072 614.72 304.516 609.41 300.138 603.328C295.719 597.191 285.678 600.48 281.185 604.973C274.877 611.281 284.235 626.107 287.607 631.6C291.866 638.539 296.613 645.901 296.613 654.312" stroke="#B64962" stroke-width="5" stroke-linecap="round"/>
<path d="M305.779 621.187C305.779 609.551 320.274 601.738 330.722 605.445C347.672 611.46 332.013 636.86 321.794 641.823C315.612 644.826 310.339 646.401 304.917 650.791C302.413 652.818 300.102 655.743 297.32 657.134" stroke="#B64962" stroke-width="5" stroke-linecap="round"/>
<path d="M335.732 910.947C334.362 909.92 335.285 904.258 335.285 902.618C335.285 899.606 335.916 895.836 335.211 892.9C333.874 887.329 320.859 889.94 318.329 892.751C307.858 904.385 320.574 919.498 329.683 926.862C334.575 930.818 341.387 934.871 345.028 940.15C345.763 941.216 346.441 942.648 346.441 943.968" stroke="#B64962" stroke-width="5" stroke-linecap="round"/>
<path d="M335.731 911.395C335.731 907.37 335.498 903.287 335.78 899.273C336.105 894.649 340.953 891.455 345.002 890.175C349.546 888.738 353.847 888.526 357.149 892.356C361.539 897.448 364.384 905.267 365.974 911.742C367.574 918.256 364.918 922.439 361.19 927.41C358.933 930.419 355.695 932.71 353.679 935.838C351.635 939.009 347.632 940.84 346.44 944.416" stroke="#B64962" stroke-width="5" stroke-linecap="round"/>
<path d="M286.675 1104.55C286.675 1098.98 289.827 1084.05 283.114 1082.46C271.06 1079.61 260.714 1082.59 255.3 1094.74C247.632 1111.94 252.965 1132.42 261.893 1147.96C265.831 1154.82 272.206 1160.13 276.281 1166.92" stroke="#B64962" stroke-width="5" stroke-linecap="round"/>
<path d="M288.407 1103.68C288.407 1099.25 288.275 1095.85 292.065 1092.81C296.395 1089.33 307.241 1089.23 311.987 1091.75C332.367 1102.58 312.314 1132.96 299.475 1141.6C295.76 1144.11 262.748 1155.98 273.682 1166.92" stroke="#B64962" stroke-width="5" stroke-linecap="round"/>
<path d="M336.051 1113.21C336.051 1105.99 335.293 1094.78 341.248 1089.49C344.206 1086.86 350.536 1087.8 353.182 1090.4C357.923 1095.07 357.893 1101.76 356.791 1107.82C355.992 1112.22 352.804 1114.39 357.032 1114.13C368.737 1113.39 378.512 1122.84 373.971 1135.2C370.008 1145.99 357.224 1148.61 347.311 1146.13" stroke="#B64962" stroke-width="5" stroke-linecap="round"/>
<path d="M260.635 1009.98C260.635 1018.46 260.635 1026.95 260.635 1035.43C260.635 1042.26 260.079 1021.6 261.757 1014.98C263.169 1009.41 266.991 1003.89 272.542 1001.78C278.064 999.684 282.923 1006.68 284.88 1010.84C289.546 1020.77 288.761 1028.94 278.668 1034.31C275.71 1035.88 263.698 1040.18 261.412 1035.6" stroke="#B64962" stroke-width="5" stroke-linecap="round"/>
<path d="M259.862 1010.75C259.862 1002.95 259.323 994.947 260.207 987.195C260.545 984.234 261.341 975.067 264.521 973.477" stroke="#B64962" stroke-width="5" stroke-linecap="round"/>
<path d="M291.699 986.679C297.386 986.679 303.45 986.055 309.128 986.723C312.74 987.147 308.875 998.698 308.352 1000.48C305.509 1010.18 302.571 1018.44 302.571 1028.61" stroke="#B64962" stroke-width="5" stroke-linecap="round"/>
<path d="M306.453 975.812C311.903 980.899 315.779 991.835 316.505 999.454C316.968 1004.32 318.088 1006.57 321.984 1009.98" stroke="#B64962" stroke-width="5" stroke-linecap="round"/>
<path d="M321.983 971.93C321.983 975.733 323.324 982.853 320.43 985.907C318.315 988.14 317.159 990.117 316.591 993.241C316.02 996.378 327.66 1003.42 330.094 1005.36C333.424 1008.03 337.514 1011.06 337.514 1015.42" stroke="#B64962" stroke-width="5" stroke-linecap="round"/>
<path d="M264.645 971.672H286.004" stroke="#B64962" stroke-width="5" stroke-linecap="round"/>
<path d="M275.055 152.289C275.055 147.759 275.197 143.008 276.838 150.209C277.828 154.554 279.936 166.696 284.863 168.338" stroke="#B64962" stroke-width="5" stroke-linecap="round"/>
<path d="M265.246 146.051C266.811 146.051 269.278 145.392 269.902 147.141C271.518 151.663 271.488 155.971 271.488 160.714C271.488 165.769 274.242 186.581 269.704 188.85" stroke="#B64962" stroke-width="5" stroke-linecap="round"/>
<path d="M289.321 136.242C288.886 140.374 285.163 142.86 284.169 146.744C282.801 152.09 290.273 156.512 293.581 160.564C298.63 166.749 304.589 174.02 307.154 181.716" stroke="#B64962" stroke-width="5" stroke-linecap="round"/>
</svg>
