<svg width="414" height="1248" viewBox="0 0 414 1248" fill="none" xmlns="http://www.w3.org/2000/svg">
<g clip-path="url(#clip0_3905_3900)">
<rect width="414" height="1248" fill="#FCF3F3"/>
<rect y="1181" width="414" height="67" fill="#695C60"/>
<path d="M8.46641 717.308C-6.02008 717.308 37.4394 717.308 51.9259 717.308C87.3522 717.308 122.322 712.949 157.684 712.242C198.95 711.416 240.662 711.252 281.783 715.025C288.631 715.653 378.407 728.145 378.407 718.593" stroke="#D37995" stroke-width="5" stroke-linecap="round"/>
<path d="M378.406 716.023C371.788 716.023 363.443 709.603 357.853 706.389C346.339 699.768 335.798 692.52 325.669 683.839C295.612 658.075 263.275 634.489 230.758 611.977C203.835 593.339 180.467 571.033 156.541 548.893C144.581 537.826 133.432 526.537 122.073 514.853C106.003 498.324 91.1502 479.642 73.6184 464.615C64.1225 456.475 55.7781 447.916 47.0004 439.138C40.8646 433.003 33.5989 425.601 26.7336 420.584C16.699 413.251 10.9966 400.435 0.757812 393.609" stroke="#D37995" stroke-width="5" stroke-linecap="round"/>
<path d="M375.836 719.883C375.836 763.607 376.531 806.668 378.976 850.333C381.648 898.057 379.115 946.129 379.761 993.913C380.081 1017.59 381.497 1041.26 383.543 1064.85C384.381 1074.5 384.541 1084.41 386.683 1093.89C393.495 1124.06 379.689 1154.97 379.689 1184.88" stroke="#D37995" stroke-width="5" stroke-linecap="round"/>
<path d="M2.26562 389.634C4.99906 389.36 7.7208 387.446 10.1034 386.241C17.1415 382.682 24.2251 379.239 31.277 375.713C42.8077 369.947 54.4575 364.195 65.7865 358.049C84.6307 347.825 104.484 339.17 123.107 328.569C134.469 322.102 147.321 317.596 158.319 310.671C165.097 306.404 174.268 303.322 181.832 300.611C183.768 299.917 187.771 298.676 188.617 296.984" stroke="#D37995" stroke-width="5" stroke-linecap="round"/>
<path d="M187.449 299.281C191.323 300.056 195.777 305.211 198.75 307.719C202.353 310.759 206.275 313.336 209.975 316.232C222.372 325.934 233.722 336.583 245.158 347.347C253.582 355.276 260.696 364.804 269.342 372.51C276.46 378.854 283.081 386.098 289.834 392.851C294.34 397.358 299.529 401.19 304.111 405.772C309.443 411.105 313.647 417.343 318.99 422.685C322.57 426.266 328.202 428.905 330.517 433.534" stroke="#D37995" stroke-width="5" stroke-linecap="round"/>
<path d="M390.863 481.672C396.449 482.789 402.367 489.283 406.76 492.671C407.713 493.407 412.019 497.672 412.561 496.589" stroke="#D37995" stroke-width="5" stroke-linecap="round"/>
<path d="M71.8616 518.601C71.4521 515.325 55.7343 517.672 53.2707 518.306C45.7516 520.239 40.9979 525.598 36.0078 531.142C7.02563 563.345 24.3843 621.549 65.2958 633.392C79.0134 637.363 106.609 641.107 115.093 625.351C124.803 607.317 133.231 589.852 125.569 569.652C121.804 559.728 115.536 549.243 110.076 540.143C106.864 534.79 101.553 533.989 96.9445 530.404C87.3715 522.959 84.1489 518.931 73.1895 522.585" stroke="#D37995" stroke-width="5" stroke-linecap="round"/>
<path d="M66.5508 519.93C66.5508 544.373 66.5508 568.817 66.5508 593.26C66.5508 602.279 67.8787 611.13 67.8787 620.114C67.8787 622.39 67.1393 625.13 69.2066 626.163" stroke="#D37995" stroke-width="5" stroke-linecap="round"/>
<path d="M22.7266 570.392C46.1865 570.392 69.6464 570.392 93.1063 570.392C96.9048 570.392 120.364 567.807 122.321 571.72" stroke="#D37995" stroke-width="5" stroke-linecap="round"/>
<path d="M22.7264 792.148C22.7264 863.561 22.7264 934.974 22.7264 1006.39C22.7264 1011.99 23.6526 1016.95 24.0543 1022.17C24.3601 1026.15 26.7101 1029.87 26.7101 1033.83C26.7101 1037.78 25.6088 1040.47 30.2512 1040.47C59.3671 1040.47 88.483 1040.47 117.599 1040.47C162.962 1040.47 208.319 1041.8 253.711 1041.8C258.858 1041.8 264.872 1044.02 264.408 1037.52C263.817 1029.24 257.683 1019.12 255.112 1011.26C251.58 1000.45 248.964 989.335 247.44 978.057C245.187 961.383 242.255 944.955 239.104 928.408C232.765 895.128 232.538 861.653 232.538 827.928C232.538 824.924 234.438 796.294 231.21 796.132C214.297 795.287 196.778 797.223 179.864 797.755C149.767 798.702 120.001 801.856 90.0076 804.1C71.0312 805.519 52.362 806.756 33.3497 806.756C29.4243 806.756 24.7054 807.632 21.3984 805.428" stroke="#D37995" stroke-width="5" stroke-linecap="round"/>
<path d="M113.025 813.398C113.025 874.549 109.172 936.655 117.009 997.389C118.748 1010.87 122.321 1051.41 122.321 1037.82" stroke="#D37995" stroke-width="5" stroke-linecap="round"/>
<path d="M25.3828 906.352H231.21" stroke="#D37995" stroke-width="5" stroke-linecap="round"/>
<path d="M204.388 916.465C195.99 916.465 187.952 915.434 180.223 919.072C175.796 921.155 167.83 927.47 167.511 932.897C166.924 942.873 165.164 953.446 170.762 962.334C174.174 967.749 178.326 972.274 184.47 974.46C192.209 977.213 201.605 976.511 209.66 976.569C213.26 976.595 217.819 977.299 220.498 974.343C224.863 969.526 229.712 963.301 232.184 957.296C234.979 950.508 229.658 941.305 225.946 935.943C223.245 932.041 220.442 928.152 217.569 924.373C216.178 922.545 213.905 919.082 211.652 918.164C210.284 917.606 208.34 915.938 207.024 915.938" stroke="#D37995" stroke-width="5" stroke-linecap="round"/>
<path d="M183.827 945.99C184.541 945.99 188.099 945.529 188.044 946.518C187.966 947.934 185.524 949.64 184.354 950.208C180.245 952.204 180.867 948.342 183.299 946.518" stroke="#D37995" stroke-width="5" stroke-linecap="round"/>
<path d="M203.863 948.093C206.151 948.093 208.504 947.66 210.19 949.441C211.79 951.13 207.859 953.398 206.499 953.776C202.831 954.795 204.422 949.675 207.554 949.675" stroke="#D37995" stroke-width="5" stroke-linecap="round"/>
<path d="M192.789 957.586C192.789 960.941 195.187 963.196 198.589 963.385C200.831 963.51 203.334 964.048 203.334 961.277" stroke="#D37995" stroke-width="5" stroke-linecap="round"/>
<path d="M195.954 979.203C195.954 992.668 195.904 1006.1 196.452 1019.54C196.7 1025.61 197.536 1031.65 197.536 1037.73" stroke="#D37995" stroke-width="5" stroke-linecap="round"/>
<path d="M159.574 974.984C159.867 978.937 163.838 983.759 166.545 986.466C169.209 989.13 172.502 991.623 175.948 993.174C182.749 996.235 189.319 999.527 196.744 1000.82C204.577 1002.18 214.508 1002.29 221.904 999.237C224.16 998.305 230.223 994.123 230.223 991.328" stroke="#D37995" stroke-width="5" stroke-linecap="round"/>
<path d="M24.8849 797.925C24.048 797.82 30.7152 791.921 31.8982 791.022C34.4447 789.086 39.4574 785.609 42.0694 788.818C43.2978 790.328 44.9663 795.279 46.6592 796.125C47.5898 796.591 46.6959 794.045 46.6959 793.004C46.6959 791.612 46.3403 789.765 47.6506 788.818C51.7539 785.855 67.7139 783.518 65.0554 792.49C64.5311 794.26 63.5269 795.446 64.2476 792.564C66.1271 785.046 72.4559 781.533 79.8163 780.887C85.0044 780.432 95.0813 779.378 98.5062 784.706C99.5215 786.285 97.6406 788.174 97.5883 786.395C97.4396 781.339 101.94 782.062 105.997 782.062C110.168 782.062 123.864 779.961 126.376 784.706C126.787 785.483 125.306 788.941 124.356 788.561C121.288 787.334 128.03 780.774 128.946 780.226C132.114 778.334 157.18 775.153 151.124 782.723" stroke="#D37995" stroke-width="5" stroke-linecap="round"/>
<path d="M151.125 782.723C154.053 780.089 169.428 775.799 169.631 782.723C169.668 783.967 168.97 786.395 168.97 786.395C168.97 786.395 169.466 782.048 171.1 781.034C173.783 779.369 180.579 780.741 183.658 780.741C185.944 780.741 190.396 779.652 191.295 782.577C191.948 784.697 189.502 783.132 189.459 780.594C189.415 777.924 189.387 775.453 192.544 775.453C196.469 775.453 201.766 775.544 205.028 778.097C206.157 778.98 205.524 780.623 205.469 780.447C204.454 777.199 231.291 775.544 234.55 782.063C235.359 783.68 234.584 784.997 233.081 785.881C231.939 786.553 232.421 788.516 232.421 789.7C232.421 791.612 233.093 796.267 231.099 797.264" stroke="#D37995" stroke-width="5" stroke-linecap="round"/>
<path d="M32.153 1037.85C32.153 1043.88 26.5063 1050 29.9132 1056.03C32.1555 1059.99 37.3689 1062.99 40.8921 1059C43.2101 1056.37 46.6203 1046.69 46.6203 1050.19C46.6203 1053.92 44.6112 1057.05 45.8124 1060.98C47.3909 1066.15 52.7591 1071.23 58.4437 1070.09C62.244 1069.33 61.8953 1063.59 61.8953 1060.73C61.8953 1058.48 60.8338 1056.67 61.7484 1059.66C63.8473 1066.53 86.3534 1070.02 82.7149 1062.01C81.3873 1059.09 80.3689 1060.57 83.2657 1061.94C88.2875 1064.31 99.1105 1066.66 104.452 1064.29C106.169 1063.53 103.218 1061.81 102.91 1061.35C102.539 1060.8 103.485 1062.64 104.049 1063C107.951 1065.5 113.089 1065.57 117.561 1065.61C119.619 1065.63 123.973 1066.46 125.86 1065.32C126.345 1065.02 127.251 1063.22 126.263 1063C125.784 1062.9 123.538 1062.82 125.235 1063.33C129.622 1064.67 134.526 1065.11 139.078 1065.46C142.127 1065.7 149.139 1067.51 149.139 1063.33C149.139 1062.6 148.29 1060.74 148.919 1061.13C151.828 1062.92 156.687 1062.83 159.935 1062.93C163.09 1063.03 171.53 1064.61 168.967 1059C167.398 1055.57 176.48 1057.68 178.882 1057.68C181.076 1057.68 182.636 1057.34 183.802 1055.33C184.146 1054.74 184.83 1052.05 184.83 1052.47C184.83 1056.51 189.218 1058.9 192.614 1059.66C198.369 1060.96 203.986 1059.29 203.3 1052.43C203.249 1051.92 201.986 1049.39 202.125 1050.63C202.639 1055.26 207.571 1059.3 210.607 1062.31C213.772 1065.45 225.147 1074.4 225.147 1065.17C225.147 1062.14 221.423 1052.93 226.543 1054.71C230.863 1056.2 246.563 1058.07 249.602 1053.05C249.999 1052.4 249.601 1051.02 249.088 1051.88C248.302 1053.19 256.055 1056.13 256.652 1056.32C264.16 1058.78 276.775 1060.74 277.325 1049.75C277.402 1048.21 277.554 1041.31 274.718 1041.16C269.457 1040.88 264.097 1040.5 258.855 1040.5" stroke="#D37995" stroke-width="5" stroke-linecap="round"/>
<path d="M233.082 795.945C236.993 795.945 240.137 796.882 243.841 798.222C248.522 799.915 253.524 800.638 258.161 802.261C260.044 802.92 261.894 803.375 263.779 803.913C264.516 804.124 263.241 809.356 263.155 810.009C261.706 821.019 264.17 833.244 266.129 844.047C267.985 854.282 269.612 864.517 271.417 874.744C274.325 891.227 275.499 908.149 276.851 924.828C277.987 938.843 279.718 952.763 280.67 966.798C281.911 985.106 281.331 1003.56 281.331 1021.91C281.331 1028.11 281.331 1034.3 281.331 1040.49C281.331 1042.97 277.943 1041.41 276.337 1041.3C267.744 1040.69 259.981 1041.94 251.588 1043.14" stroke="#D37995" stroke-width="5" stroke-linecap="round"/>
<path d="M123.052 803.836C123.052 837.771 122.63 871.725 123.599 905.645C124.429 934.666 125.077 963.837 129.381 992.609C130.989 1003.35 134.304 1013.86 134.304 1024.8C134.304 1028.17 136.087 1035.95 132.194 1036.6" stroke="#D37995" stroke-width="5" stroke-linecap="round"/>
<path d="M23.8984 895.956C49.6732 895.956 75.4168 894.051 101.095 891.893C114.622 890.756 128.228 888.186 141.764 887.556C156.818 886.856 171.532 889.097 186.496 889.588C197.33 889.943 208.419 888.924 219.039 888.924C224.105 888.924 229.574 888.22 234.862 888.22" stroke="#D37995" stroke-width="5" stroke-linecap="round"/>
<path d="M34.4376 806.593C32.4706 806.593 22.0478 805.061 20.5578 806.923C19.5124 808.23 16.8373 808.362 15.4172 809.236C12.9944 810.727 10.7615 811.621 8 812.541" stroke="#D37995" stroke-width="5" stroke-linecap="round"/>
<path d="M375.836 722.446C379.024 722.047 383.541 717.181 386.112 715.381C391.982 711.272 397.18 706.522 402.811 702.179C407.188 698.802 411.086 694.664 415.656 691.617" stroke="#D37995" stroke-width="5" stroke-linecap="round"/>
<path d="M29.511 1041.16C29.3766 1042.23 27.3821 1042.26 26.5735 1042.48C23.7194 1043.25 21.7915 1044.52 19.3766 1046.08C15.8458 1048.35 11.804 1050.78 8.06722 1052.72C5.31665 1054.15 -2.875 1059.3 -2.875 1052.39" stroke="#D37995" stroke-width="5" stroke-linecap="round"/>
</g>
<defs>
<clipPath id="clip0_3905_3900">
<rect width="414" height="1248" fill="white"/>
</clipPath>
</defs>
</svg>
