<svg width="768" height="1024" viewBox="0 0 768 1024" fill="none" xmlns="http://www.w3.org/2000/svg">
<rect width="768" height="1024" fill="#FFF6F9"/>
<rect y="957" width="768" height="67" fill="#695C60"/>
<path d="M571.743 491.069C571.743 484.461 572.831 476.853 570.93 470.472C567.506 458.975 557.183 452.092 546.126 448.952C540.049 447.227 531.133 445.681 525.233 448.768C511.537 455.933 508.216 478.977 509.361 492.545C510.363 504.411 521.563 516.742 532.542 520.82C535.489 521.915 539.85 522.968 539.85 518.974C539.85 513.458 531.887 520.722 530.438 521.669C523.686 526.084 517.386 530.764 511.133 535.88C506.954 539.299 502.002 542.841 500.281 548.209C498.497 553.771 498.936 561.083 499.469 566.812C500.281 575.55 505.866 583.574 511.982 589.587C520.28 597.747 540.01 601.639 550.112 594.976C556.615 590.687 560.003 583.164 559.783 575.45C559.752 574.367 559.29 573.835 558.159 574.158C557.317 574.398 557.787 578.518 557.79 578.92C557.869 588.928 559.243 598.255 562.108 607.859C564.163 614.744 566.292 623.958 572.813 628.16C580.992 633.431 597.361 632.697 605.886 628.529C619.464 621.891 619.676 602.425 618.769 589.624C618.472 585.44 617.116 581.639 613.933 578.809C612.536 577.567 610.13 574.859 608.027 574.859C597.866 574.859 628.097 578.693 638.258 578.772C649.198 578.857 657.473 576.485 663.358 566.37C668.558 557.432 668.876 541.407 662.362 533.001C653.564 521.649 636.684 523.625 624.01 523.625C622.532 523.625 618.967 523.051 617.735 524.437C615.513 526.937 624.238 522.504 627.037 520.672C637.979 513.512 649.116 505.138 653.835 492.472C655.742 487.353 658.941 475.234 654.02 470.804C646.748 464.26 637.409 463.828 628.07 463.828C619.945 463.828 613.528 464.26 607.953 470.804C603.307 476.258 601.199 483.032 598.725 489.629C598.548 490.102 597.831 493.166 598.467 491.069C599.332 488.215 600.813 485.569 601.641 482.579C603.123 477.227 603.073 472.017 602.97 466.485C602.881 461.693 597.332 460.506 593.299 460.506C589.834 460.506 584.312 459.461 581.081 460.875C576.887 462.71 574.265 469.552 571.89 472.982C567.536 479.272 565.458 484.84 567.756 491.733" stroke="#963B50" stroke-width="5" stroke-linecap="round"/>
<path d="M581.708 522.961C580.361 523.129 579.051 537.979 579.051 540.236C579.051 545.889 587.865 542.649 590.383 541.232C593.815 539.302 596.91 536.901 594.628 532.337C592.975 529.031 586.138 528.941 583.037 528.941" stroke="#963B50" stroke-width="5" stroke-linecap="round"/>
<path d="M131.662 776.818C131.662 764.716 117.24 754.097 108.536 747.954C100.453 742.248 91.4508 739.829 81.5844 739.39C76.3297 739.157 73.7391 743.518 72.3686 748.041C70.1225 755.453 67.1319 762.483 64.5439 769.776C62.8589 774.525 60.0088 782.403 63.4137 787.034C71.4344 797.942 86.9953 805.69 100.233 807.248C101.917 807.446 107.015 807.335 105.319 807.335C101.233 807.335 97.1379 806.515 92.9737 806.552C84.7913 806.626 77.9833 808.672 70.282 811.073C66.449 812.268 60.8166 813.091 57.7625 815.942C49.8455 823.331 51.0681 830.805 51.0681 841.589C51.0681 848.811 52.842 853.991 58.4581 858.586C60.2059 860.016 62.2948 860.497 64.5439 860.89C72.9548 862.362 82.1953 861.325 90.7132 861.325C92.8576 861.325 96.6423 862.13 98.1901 860.195C104.076 852.838 108.912 844.675 114.709 837.242C115.101 836.74 119.597 830.141 118.187 831.156C113.178 834.763 111.933 842.944 109.797 848.284C108.951 850.397 101.056 866.02 105.232 866.02C111.044 866.02 117.939 864.92 123.577 866.368C126.323 867.073 128.371 873.242 130.141 875.366C132.929 878.712 137.762 883.231 142.53 882.278C147.875 881.209 153.602 877.15 158.136 874.236C160.531 872.696 165.739 869.617 166.7 866.628C168.346 861.507 167.36 852.579 166.83 847.284C166.706 846.04 160.555 839.327 160.005 839.938C154.321 846.253 184.534 855.548 187.044 856.152C197.803 858.742 207.403 856.879 213.344 846.806C219.773 835.904 217.072 823.049 207.562 815.159C199.159 808.189 190.711 804.987 179.784 804.987C173.726 804.987 173.185 810.048 177.654 807.335C184.002 803.48 189.58 798.101 195.216 793.25C197.698 791.114 202.298 788.897 203.476 785.599C204.434 782.917 203.65 778.818 203.65 776.036C203.65 768.357 203.312 752.296 196.26 747.258C193.467 745.264 189.808 746.712 187.044 747.867C182.232 749.877 177.223 751.198 172.829 754.127C168.906 756.742 170.003 760.938 170.003 765.168C170.003 766.15 169.166 774.005 171.177 773.558C176.486 772.378 173.363 753.917 172.786 751.605C170.212 741.313 167.242 733 155.615 733C147.988 733 146.5 739.55 143.052 745.693C139.132 752.677 131.662 760.619 131.662 768.994" stroke="#963B50" stroke-width="5" stroke-linecap="round"/>
<path d="M135.576 797.163C135.576 803.314 137.344 807.91 143.401 810.074C148.436 811.872 154.047 809.476 155.746 804.379C156.165 803.124 156.528 799.167 154.747 798.771C151.67 798.088 149.812 795.851 146.965 794.815C141.386 792.787 139.543 797.782 137.924 802.64" stroke="#963B50" stroke-width="5" stroke-linecap="round"/>
<path d="M70.0673 202.738C70.0673 196.748 69.0911 191.777 63.0046 188.913C52.1956 183.826 38.38 186.45 30.602 195.376C25.3459 201.408 21.8357 210.066 22.3408 218.148C22.9611 228.072 39.1684 233.58 46.9531 235.526C48.5484 235.925 49.9188 236.639 51.5759 236.639C52.2384 236.639 54.2527 235.8 52.6032 235.269C47.8783 233.751 42.3507 237.481 38.7775 239.892C30.3883 245.552 22.0903 252.906 16.3054 261.294C11.3047 268.545 7.48773 283.554 12.025 291.856C20.4283 307.232 33.8378 315.41 51.5759 314.286C60.135 313.743 69.1305 311.318 71.2658 302.472C71.979 299.517 72.3787 296.868 72.3787 293.825C72.3787 289.699 71.728 292.319 71.437 294.938C69.8811 308.942 73.366 321.3 85.862 329.353C97.2102 336.666 112.357 335.959 123.529 329.053C134.324 322.38 141.526 311.738 141.721 298.876C141.82 292.384 141.56 286.187 138.297 280.385C137.847 279.585 133.569 276.026 133.588 276.104C133.987 277.699 143.452 278.999 144.76 279.4C150.279 281.092 156.35 282.474 162.139 282.825C171.678 283.403 176.801 276.732 180.202 268.228C183.749 259.362 184.965 248.556 179.474 240.32C174.015 232.132 164.014 225.909 154.22 224.44C151.903 224.092 146.832 223.213 145.745 225.852C143.17 232.104 156.192 217.118 160.384 211.813C166.114 204.561 172.992 194.8 174.766 185.488C175.85 179.797 169.75 176.497 165.777 173.632C160 169.465 154.057 166.886 146.772 168.153C141.231 169.116 137.92 173.916 134.402 177.741C130.099 182.417 124.517 187.023 121.518 192.722C120.263 195.105 122.584 189 122.417 186.901C121.848 179.79 111.815 170.498 106.536 166.355C102.572 163.244 93.7181 157.579 88.3874 161.133C86.5915 162.33 86.0959 164.28 84.6206 165.756C81.9136 168.463 78.8134 170.719 76.1882 173.546C73.5118 176.428 70.7695 181.387 68.9544 185.017C66.1731 190.58 66.9854 196.618 66.9854 202.738" stroke="#877177" stroke-width="5" stroke-linecap="round"/>
<path d="M99.346 233.562C93.5216 233.562 93.9527 238.007 93.9527 243.407C93.9527 246.082 93.5499 247.658 96.2642 248.801C97.4418 249.297 101.184 249.354 102.428 248.801C106.731 246.888 107.821 245.775 107.821 240.497C107.821 234.844 103.131 235.874 98.5756 235.874" stroke="#877177" stroke-width="5" stroke-linecap="round"/>
<path d="M625.148 779.699C619.045 773.596 611.746 769.341 602.866 768.861C592.823 768.318 587.496 777.496 584.546 786.136C580.862 796.925 582.886 806.889 593.239 813.149C596.597 815.179 603.152 814.359 597.42 814.359C584.931 814.359 570.481 820.157 564.795 832.239C560.572 841.215 559.342 857.808 563.86 866.844C570.617 880.359 586.437 883.808 600.391 883.679C606.493 883.623 622.861 880.152 623.167 871.576C623.466 863.221 620.39 874.28 620.252 876.912C619.781 885.856 624.308 905.782 634.776 908.821C640.077 910.36 656.231 911.561 661.018 907.996C670.582 900.874 678.847 892.043 680.384 879.938C681.164 873.793 680.683 868.904 676.258 864.479C673.844 862.065 681.622 868.784 684.675 870.31C689.706 872.826 695.066 874.497 700.41 876.197C719.026 882.12 750.22 862.93 733.309 843.077C724.574 832.823 710.046 828.596 697.439 825.307C692.812 824.1 678.537 822.893 683.135 824.207C688.894 825.852 699.589 815.102 703.161 811.608C708.654 806.234 709.971 800.076 711.083 792.573C713.061 779.223 696.201 767.417 683.575 772.327C678.324 774.369 677.45 776.207 675.433 780.689C672.47 787.273 671.746 783.907 673.672 778.489C676.42 770.761 677.345 749 666.19 749C654.794 749 646.874 750.971 637.031 756.152C625.418 762.265 627.087 776.811 622.177 786.631" stroke="#877177" stroke-width="5" stroke-linecap="round"/>
<path d="M648.915 828.221C648.462 824.593 640.225 828.173 640.002 832.182C639.693 837.745 639.014 840.104 644.954 840.104C649.462 840.104 654.235 838.771 654.857 833.172C655.335 828.868 652.853 827.219 648.915 825.25" stroke="#877177" stroke-width="5" stroke-linecap="round"/>
<path d="M618.381 51.6552C620.83 51.043 617.069 46.3505 616.385 45.511C612.902 41.2366 607.725 39.5638 602.521 38.4215C593.797 36.5065 583.732 35.3824 578.47 43.5679C565.198 64.2124 560.129 95.8886 582.671 112.887C584.938 114.597 596.205 120.164 598.32 115.933C602.435 107.704 582.129 125.439 576.264 132.528C565.867 145.095 562.061 159.91 564.921 176.115C568.471 196.235 585.987 202.592 604.202 203.633C615.678 204.288 627.269 205.485 632.56 193.76C637.543 182.715 648.208 147.925 645.058 159.625C643.811 164.259 644.848 170.332 644.848 175.065C644.848 181.62 644.826 187.84 648.629 193.445C655.559 203.657 674.838 202.989 685.705 202.897C700.319 202.775 707.452 195.439 711.017 181.891C714.436 168.898 717.145 151.722 703.665 143.766C702.301 142.961 693.474 140.265 696.523 141.245C706.668 144.506 720.487 148.093 731.182 146.917C743.594 145.551 751.39 132.662 753.553 121.605C754.76 115.44 754.964 110.957 751.085 105.903C746.996 100.574 742.899 95.1369 737.904 90.6211C729.595 83.1084 721.515 79.0678 710.281 79.0678C705.305 79.0678 703.81 83.4815 707.656 80.3282C713.424 75.5982 715.017 69.9258 715.953 62.7883C716.75 56.7118 718.601 46.6928 715.533 41.0472C711.767 34.1179 708.794 30.8594 700.619 30.8594C690.181 30.8594 681.893 42.087 676.462 50.0798C675.871 50.9492 672.282 55.2323 673.259 56.6966C673.331 56.8048 676.742 52.026 676.987 51.4451C679.753 44.8946 679.025 38.6653 676.987 32.0147C671.811 15.1257 653.934 12.0311 639.177 17.4157C628.182 21.4273 623.059 24.8835 620.481 36.741C619.102 43.0839 618.381 48.9536 618.381 55.4362" stroke="#877177" stroke-width="5" stroke-linecap="round"/>
<path d="M661.864 93.25C656.344 93.25 649.766 91.399 646.95 97.031C645.263 100.404 648.399 105.538 651.939 105.538C653.36 105.538 655.732 107.768 657.138 106.011C658.266 104.601 660.01 103.808 661.391 102.703C662.774 101.596 663.755 99.2757 663.755 97.5036C663.755 93.846 663.683 94.1473 660.919 92.3047" stroke="#877177" stroke-width="5" stroke-linecap="round"/>
<path d="M380.207 190.122C380.207 185.848 377.006 181.97 374.174 178.971C368.377 172.833 361.152 173.359 353.286 173.687C345.618 174.006 340.965 179.989 338.183 186.71C332.338 200.827 327.474 217.902 327.78 233.394C327.974 243.157 341.061 245.143 348.585 246.959C349.553 247.192 360.939 249.881 361.441 248.124C362.526 244.327 349.956 251.546 349.791 251.66C338.151 259.758 329.676 269.223 327.531 283.657C325.737 295.722 328.517 306.533 335.436 316.527C342.727 327.059 351.778 331.528 364.479 331.673C373.939 331.781 385.576 331.296 392.814 324.058C398.264 318.608 396.684 308.875 396.684 301.881C396.684 298.026 396.54 301.589 397.932 303.213C404.199 310.524 414.066 317.271 423.646 318.941C434.744 320.875 445.058 317.987 453.437 310.369C463.919 300.84 467.191 288.067 467.085 274.337C467.025 266.609 464.31 259.678 455.767 259.108C454.975 259.055 447.029 258.369 447.029 260.107C447.029 261.18 453.007 260.048 453.146 260.024C465.628 257.809 477.715 252.678 486.973 243.88C492.465 238.66 500.405 228.136 499.123 219.747C497.927 211.922 485.986 208.577 479.692 206.599C470.15 203.6 458.912 201.138 448.86 203.27C446.602 203.749 444.72 204.821 443.202 206.557C442.883 206.921 442.022 208.411 442.037 208.388C444.358 204.519 444.855 198.859 445.74 194.532C447.475 186.047 448.267 177.142 448.361 168.486C448.437 161.455 445.928 159.083 439.956 155.67C430 149.981 417.743 149.334 407.585 154.588C398.329 159.376 392.194 169.558 387.696 178.555C385.789 182.37 383.952 188.842 383.952 193.118" stroke="#963B50" stroke-width="5" stroke-linecap="round"/>
<path d="M398.93 234.311C398.622 233.081 393.09 233.024 392.938 234.311C392.682 236.49 392.938 238.866 392.938 241.052C392.938 250.704 397.301 253.035 406.586 253.035C411.789 253.035 417.653 249.603 417.653 243.631C417.653 240.479 412.173 237.349 409.831 235.851C406.867 233.954 404.597 233.562 401.177 233.562" stroke="#963B50" stroke-width="5" stroke-linecap="round"/>
<path d="M166.587 466.237C163.624 465.99 161.092 464.792 158.331 463.788C152.624 461.713 146.178 462.459 140.21 462.459C131.936 462.459 118.97 459.327 113.062 466.167C105.264 475.197 101.674 487.7 99.5585 499.262C97.6902 509.471 95.4904 521.777 98.439 532.007C102.65 546.617 119.548 555.806 133.703 557.895C139.001 558.676 144.495 555.597 138.25 556.985C133.126 558.124 130.686 568.905 129.365 572.868C125.328 584.979 122.523 597.525 123.977 610.37C125.884 627.215 153.667 633.277 167.147 635.559C179.533 637.655 195.082 639.535 205.629 630.941C206.783 630.001 216.211 617.367 211.926 617.367C206.644 617.367 216.155 635.039 216.684 635.838C229.175 654.72 250.813 676.536 274.127 680.688C302.719 685.779 328.266 654.222 320.656 627.162C317.95 617.542 307.637 612.397 299.386 608.271C298.011 607.584 297.88 607.334 299.386 607.292C305.641 607.118 312.14 605.506 317.717 602.674C334.365 594.218 352.773 577.618 359.488 559.714C364.281 546.932 363.727 528.683 356.059 517.314C349.841 508.093 340.07 499.077 328.772 497.023C322.578 495.897 315.881 496.351 309.601 496.463C307.415 496.502 303.164 499.909 303.164 497.723C303.164 497.39 305.572 494.282 305.823 493.735C308.75 487.348 310.908 480.6 312.609 473.794C314.727 465.324 321.55 447.734 314.988 439.86C309.299 433.032 264.822 425.468 264.822 437.271C264.822 438.639 264.559 444.788 265.102 443.568C268.205 436.584 264.918 431.151 260.064 426.216C244.761 410.658 227.132 401.274 204.51 406.415C192.947 409.043 177.481 422.093 171.345 431.953C161.348 448.02 163.125 459.313 171.625 476.313" stroke="#D37995" stroke-width="5" stroke-linecap="round"/>
<path d="M229.557 511.575C225.946 511.575 219.482 509.655 219.482 514.373C219.482 521.976 219.482 529.58 219.482 537.183C219.482 541.488 217.939 546.838 223.54 546.838C229.449 546.838 235.825 547.53 241.591 546.139C247.452 544.724 253.486 543.667 253.486 536.763C253.486 530.51 253.267 526.01 249.708 520.67C241.783 508.784 235.37 495.686 222 509.056" stroke="#D37995" stroke-width="5" stroke-linecap="round"/>
<path d="M184.795 31.275C178.148 30.8002 169.743 28.453 164.754 34.0045C161.437 37.6946 157.221 43.3478 156.493 48.4424C155.491 55.4594 160.569 61.9154 164.718 67.0464C166.197 68.876 167.818 70.8634 169.926 72.0027C170.21 72.1562 171.602 72.6492 171.434 72.6492C166.318 72.6492 163.695 78.8956 162.671 82.9927C161.048 89.4848 160.164 99.1334 161.953 105.691C164.757 115.975 176.782 118.424 185.728 119.482C191.083 120.116 209.36 123.794 209.36 114.023C209.36 113 210.173 115.793 210.186 115.819C212.185 119.716 215.477 123.109 218.555 126.163C225.583 133.138 235.245 140.528 245.85 138.733C254.524 137.265 260.14 126.138 261.976 118.369C263.099 113.619 264.15 107.413 259.282 104.47C258.589 104.051 256.174 103.68 256.984 103.68C261.674 103.68 266.383 103.777 271.063 103.392C280.044 102.654 296.75 100.512 300.98 90.6426C305.287 80.5939 301.27 66.2596 294.551 58.3549C291.052 54.238 285.609 53.255 280.544 53.255C277.821 53.255 276.771 55.8028 275.947 58.0676C274.473 62.121 276.762 49.44 276.45 45.1382C275.389 30.4969 264.658 24.8102 251.453 24.8102C248.905 24.8102 246.809 24.5041 246.209 27.5039C245.73 29.901 244.916 37.1674 244.916 34.7228C244.916 32.9925 245.436 30.2612 244.629 28.6891C242.126 23.8149 236.213 19.3396 232.382 15.5082C225.643 8.76915 219.874 8.64844 210.797 8.64844C198.058 8.64844 187.38 23.0258 187.38 35.1538" stroke="#D37995" stroke-width="5" stroke-linecap="round"/>
<path d="M228.108 62.9544C223.727 62.9544 222.151 62.2025 222.29 67.1924C222.385 70.6194 223.969 78.436 227.461 80.2655C230.781 82.0045 238.196 84.5798 239.601 79.1162C240.626 75.1282 239.066 67.9666 235.219 66.0431C232.533 64.7001 227.263 64.8687 225.522 67.4797" stroke="#D37995" stroke-width="5" stroke-linecap="round"/>
<path d="M381.509 745.026C381.229 742.785 372.736 742.361 370.926 742.33C365.874 742.246 364.144 745.187 360.693 748.82C353.293 756.609 344.041 766.536 341.625 777.272C339.546 786.513 345.179 790.441 353.655 792.647C354.412 792.844 363.123 793.529 362.44 792.846C358.42 788.826 346.792 798.05 344.371 799.785C338.733 803.824 334.499 808.709 330.194 814.111C327.768 817.156 323.849 821.117 324.004 825.392C324.351 834.925 342.717 838.31 349.512 840.217C355.187 841.81 365.179 844.296 370.178 839.668C373.449 836.64 376.749 829.539 377.016 824.993C377.034 824.683 376.118 829.954 376.118 831.482C376.118 842.558 381.487 852.283 390.893 858.487C395.254 861.363 404.412 865.683 408.913 861.183C414.117 855.979 418.914 845.791 419.945 838.47C420.179 836.808 421.396 828.687 418.397 828.687C411.732 828.687 430.586 834.221 437.016 835.975C443.485 837.739 449.465 840.797 454.487 834.677C459.602 828.443 466.192 818.556 464.82 809.868C463.885 803.945 451.778 799.071 446.7 797.638C444.194 796.931 436.409 796.241 439.013 796.241C443.809 796.241 449.092 796.909 453.788 795.841C461.946 793.987 468.479 785.233 469.911 777.272C471.208 770.07 472.503 756.763 467.565 750.617C462.811 744.698 448.009 745.728 441.758 748.67C438.186 750.351 435.092 752.802 433.173 756.257C433.021 756.531 436.588 748.673 437.016 745.725C438.625 734.645 426.356 726.259 416.5 724.81C410.581 723.939 403.392 723.691 397.432 724.46C393.256 724.999 388.418 730.381 384.903 732.647C377.799 737.225 378.813 741.857 378.813 749.519" stroke="#D37995" stroke-width="5" stroke-linecap="round"/>
<path d="M397.68 774.679C396.769 774.679 393.474 774.165 393.238 775.228C392.369 779.137 394.432 783.931 395.434 787.607C396.878 792.9 402.873 796.112 408.263 794.246C411.783 793.027 415.66 784.938 412.456 782.316C407.706 778.43 398.885 778.754 393.188 776.476" stroke="#D37995" stroke-width="5" stroke-linecap="round"/>
<path d="M653.272 310.767C647.784 309.064 642.497 308.97 636.8 308.97C632.162 308.97 632.703 312.091 631.509 315.859C630.282 319.727 619.532 346.691 628.613 347.556C630.688 347.753 634.549 348.268 636.201 346.707C638.839 344.216 635.34 344.396 633.705 346.907C628.897 354.291 627.187 365.365 636.7 369.17C642.65 371.55 654.171 374.067 654.171 364.877C654.171 364.095 652.742 360.756 652.424 362.98C651.899 366.652 652.481 370.076 655.169 372.764C658.025 375.619 673.31 385.045 675.535 377.256C676.248 374.762 676.634 372.308 676.634 369.719C676.634 368.974 677.195 371.149 677.732 371.666C678.995 372.881 681.418 373.161 683.023 373.662C692.972 376.771 697.938 373.195 700.444 363.729C702.225 357.001 706.323 346.407 696.401 346.707C693.686 346.789 694.656 348.504 696.85 348.504C701.076 348.504 702.946 344.141 704.088 340.717C706.178 334.447 715.165 309.845 704.287 307.373C699.159 306.207 693.715 306.431 691.01 311.166C689.704 313.451 690.154 309.78 690.111 308.97C689.803 303.11 683.948 297.93 679.529 294.794C676.773 292.838 673.355 291 669.895 291C665.721 291 664.423 294.627 661.359 296.84C659.738 298.011 649.683 306.726 652.374 308.072" stroke="#D37995" stroke-width="5" stroke-linecap="round"/>
<path d="M658.664 333.235C658.664 337.306 676.634 345.72 676.634 336.329C676.634 332.216 673.763 329.641 669.446 329.641C664.574 329.641 665.852 334.921 665.852 338.626" stroke="#D37995" stroke-width="5" stroke-linecap="round"/>
</svg>
