<svg width="768" height="1024" viewBox="0 0 768 1024" fill="none" xmlns="http://www.w3.org/2000/svg">
<rect width="768" height="1024" fill="#FFF6F9"/>
<rect y="957" width="768" height="67" fill="#695C60"/>
<path d="M152.499 172.672C136.499 172.672 120.499 172.672 104.499 172.672C89.9923 172.672 84.9747 198.507 83.4546 208.996C80.8469 226.989 81.5553 241.796 94.1932 255.698C109.011 271.997 137.948 274.455 155.814 262.761C174.622 250.45 175.865 218.858 170.949 199.194C169.305 192.619 163.012 187.227 161.652 181.104C161 178.172 158.485 172.672 155.093 172.672" stroke="#877177" stroke-width="5" stroke-linecap="round"/>
<path d="M119.06 208.992C119.06 210.832 118.763 212.917 119.091 214.722C119.38 216.312 121.848 215.504 122.23 214.357C123.105 211.732 120.606 208.045 118.512 211.187" stroke="#877177" stroke-width="5" stroke-linecap="round"/>
<path d="M142.104 207.898C141.712 207.947 139.649 216.106 143.749 214.055C146.232 212.814 144.289 207.908 142.104 210.093" stroke="#877177" stroke-width="5" stroke-linecap="round"/>
<path d="M99.8579 216.672C99.8579 219.137 99.5527 221.548 100.681 223.804C102.413 227.268 104.23 230.11 106.442 233.253C112.039 241.207 122.982 242.169 131.679 243.434C137.843 244.33 151.12 244.578 154.296 237.52C155.742 234.307 157.086 230.68 158.289 227.34C159.345 224.406 160.758 215.2 160.758 218.318" stroke="#877177" stroke-width="5" stroke-linecap="round"/>
<path d="M126.191 271.539C126.191 303.808 126.191 336.076 126.191 368.345C126.191 388.492 128.574 408.117 130.245 428.178C130.65 433.031 131.678 447.587 131.678 442.717" stroke="#877177" stroke-width="5" stroke-linecap="round"/>
<path d="M61.4512 255.628C61.4512 255.301 61.4574 259.345 61.4817 260.048C61.7576 268.049 64.9508 276.57 67.6082 284.036C73.01 299.212 80.7482 314.834 90.9561 327.379C95.7072 333.218 101.392 336.821 108.818 338.352C116.276 339.889 125.184 341.291 132.775 339.815C143.144 337.799 151.696 331.089 158.287 323.051C164.785 315.127 170.278 304.472 172.765 294.521C174.25 288.585 175.125 282.409 176.423 276.416C176.977 273.859 177.216 271.394 177.216 268.796" stroke="#877177" stroke-width="5" stroke-linecap="round"/>
<path d="M132.226 446.555C129.288 456.082 124.601 464.148 119.607 472.798C111.326 487.143 102.348 501.268 94.7964 516.019C93.0245 519.481 90.6353 523.825 89.9805 527.754" stroke="#877177" stroke-width="5" stroke-linecap="round"/>
<path d="M134.422 447.656C135.526 453.021 140.473 458.372 143.657 462.683C151.681 473.546 159.527 484.533 167.645 495.328C171.112 499.936 174.773 504.333 178.557 508.678C179.531 509.796 181.057 512.734 181.057 510.202" stroke="#877177" stroke-width="5" stroke-linecap="round"/>
<path d="M106.713 172.166C106.713 163.081 107.281 153.964 105.452 145.022C105.356 144.552 104.947 143.838 104.947 143.382C104.947 143.129 105.432 143.537 105.654 143.66C106.689 144.233 107.768 144.712 108.857 145.173C115.486 147.982 122.256 149.662 128.559 153.246C129.216 153.619 134.028 157.216 134.765 156.626C135.08 156.375 134.855 155.016 134.866 154.709C134.974 151.752 136.26 148.829 137.237 146.081C137.603 145.054 141.79 132.322 143.241 132.736C143.612 132.842 144.117 134.97 144.301 135.31C145.806 138.082 147.527 140.677 148.943 143.508C149.621 144.864 153.02 155.365 154.19 155.365C162.441 155.365 170.939 152.717 178.912 150.723C179.714 150.523 181.958 149.538 181.384 150.849C178.28 157.944 173.499 164.461 169.856 171.283C168.083 174.602 165.893 178.16 164.836 181.802C164.597 182.623 163.019 186.381 163.019 186.242" stroke="#877177" stroke-width="5" stroke-linecap="round"/>
<path d="M592.024 254.913C575.788 254.913 557.687 252.551 541.995 256.853C524.303 261.704 511.525 272.356 503.934 289.092C495.532 307.614 494.786 329.188 510.726 343.973C519.764 352.356 534.06 354.958 545.876 355.618C558.818 356.342 574.138 356.869 585.932 350.551C594.477 345.973 599.356 329.982 601.243 321.385C603.671 310.325 602.639 300.248 600.273 289.362C598.783 282.51 597.35 276.229 594.396 269.9C592.7 266.265 590.298 258.219 586.202 256.853" stroke="#877177" stroke-width="5" stroke-linecap="round"/>
<path d="M539.152 297.347C539.867 296.633 541.848 294.423 541.902 293.498C542.084 290.396 539.477 294.772 539.152 295.453C538.732 296.337 536.966 299.661 539.397 298.966C540.638 298.612 540.551 295.273 541.902 294.598" stroke="#877177" stroke-width="5" stroke-linecap="round"/>
<path d="M572.698 295.147C572.698 294.363 572.685 296.028 572.698 296.246C572.736 296.895 573.774 297.314 574.347 297.346C576.204 297.449 577.344 296.924 578.075 295.024C579.332 291.756 578.386 289.368 574.47 289.647C571.841 289.835 571.598 293.764 571.598 295.696" stroke="#877177" stroke-width="5" stroke-linecap="round"/>
<path d="M533.104 336.94C533.104 328.13 538.313 320.992 548.227 320.992C549.513 320.992 551.984 325.962 552.901 327.011C554.592 328.944 556.335 331.025 558.125 332.816C560.136 334.826 565.775 339.515 568.727 336.268C571.521 333.194 574.898 326.098 574.898 322.092" stroke="#877177" stroke-width="5" stroke-linecap="round"/>
<path d="M499.008 301.75C495.315 298.427 482.399 294.537 479.883 301.078C478.452 304.798 477.543 310.424 481.135 313.298C483.353 315.073 485.289 318.267 486.91 320.57C488.753 323.19 490.823 324.915 493.478 326.741C495.971 328.455 499.644 332.546 502.857 332.546" stroke="#877177" stroke-width="5" stroke-linecap="round"/>
<path d="M600.743 297.347C600.743 293.42 605.457 290.193 608.442 288.12C609.895 287.111 613.525 286.898 615.285 286.898C617.827 286.898 619.911 288.469 621.64 290.198C623.441 291.999 622.74 295.293 622.74 297.683C622.74 303.502 621.309 308.341 617.118 312.623C611.308 318.56 605.497 326.257 598.543 330.893" stroke="#877177" stroke-width="5" stroke-linecap="round"/>
<path d="M548.501 357.289C548.501 364.703 548.501 372.117 548.501 379.531C548.501 391.12 546.852 402.59 546.852 414.145C546.852 422.736 546.852 431.25 546.852 439.778" stroke="#877177" stroke-width="5" stroke-linecap="round"/>
<path d="M546.851 439.775C540.283 439.775 533.714 439.775 527.145 439.775C522.849 439.775 518.736 439.686 514.986 442.097C510.887 444.732 507.903 449.043 505.118 452.942C500.337 459.635 497.393 466.38 496.93 474.665C496.172 488.225 497.012 501.849 500.963 514.87C505.17 528.74 517.838 545.48 533.592 546.98C544.032 547.974 556.355 549.14 565.732 543.467C573.582 538.717 580.723 529.766 586.324 522.692C596.676 509.616 604.555 490.947 599.094 474.176C595.722 463.818 586.712 457.454 579.175 450.101C572.402 443.493 564.592 442.016 555.925 439.5C551.59 438.241 537.937 438.125 542.452 438.125" stroke="#877177" stroke-width="5" stroke-linecap="round"/>
<path d="M467.66 415.58C467.66 403.909 466.716 438.988 467.966 450.592C469.12 461.311 471.112 472.209 473.709 482.671C474.661 486.506 475.64 492.155 477.803 495.564C481.075 500.72 486.964 503.587 492.682 505.493C496.455 506.751 499.95 508.518 503.955 508.518" stroke="#877177" stroke-width="5" stroke-linecap="round"/>
<path d="M600.193 499.171C602.464 499.171 606.421 499.989 608.473 498.835C613.442 496.039 615.068 485.433 616.141 480.718C618.751 469.257 620.083 457.539 619.166 445.797C618.817 441.329 619.697 434.242 617.791 430.43" stroke="#877177" stroke-width="5" stroke-linecap="round"/>
<path d="M521.004 542.617V586.611" stroke="#877177" stroke-width="5" stroke-linecap="round"/>
<path d="M570.498 539.312V583.307" stroke="#877177" stroke-width="5" stroke-linecap="round"/>
<path d="M370.679 603.579C363.837 602.015 356.982 601.652 350.035 600.93C342.435 600.14 332.533 599.594 325.028 601.202C317.583 602.798 311.027 609.944 305.824 615.147C300.723 620.249 297.251 626.278 294.411 632.87C288.383 646.864 288.635 666.699 298.54 678.951C309.66 692.704 329.661 697.531 346.529 697.531C357.19 697.531 367.261 697.269 376.756 691.844C386.033 686.543 395.255 680.69 400.516 671.043C405.023 662.781 405.736 654.514 405.736 645.335C405.736 639.96 405.891 634.997 403.243 630.183C398.344 621.276 389.85 615.864 382.754 609.032C379.161 605.571 372.228 602.176 367.174 602.176" stroke="#963B50" stroke-width="5" stroke-linecap="round"/>
<path d="M344.037 697.531V721.37" stroke="#963B50" stroke-width="5" stroke-linecap="round"/>
<path d="M344.036 720.669C340.039 720.669 336.363 720.798 332.429 721.526C325.217 722.862 316.306 725.205 309.603 728.109C296.846 733.637 278.982 744.843 276.182 759.777C271.99 782.137 284.779 802.132 304.033 812.791C314.494 818.582 325.57 822.891 337.337 825.139C344.524 826.511 352.145 825.84 359.422 825.84C366.556 825.84 372.924 825.596 379.833 823.736C390.005 820.998 401.928 819.13 409.67 811.388C417.605 803.454 421.111 793.35 423.966 782.681C428.164 766.993 424.073 751.574 413.76 739.483C405.245 729.5 394.374 721.645 382.287 716.502C373.33 712.69 365.55 711.555 355.956 711.555C351.32 711.555 346.788 712.174 343.725 716.112C341.429 719.063 343.825 723.812 344.036 726.98" stroke="#963B50" stroke-width="5" stroke-linecap="round"/>
<path d="M261.302 717.164C259.196 718.48 260.262 733.28 260.757 735.939C261.88 741.978 265.172 747.081 267.612 752.571C270.318 758.66 276.059 758.531 281.635 758.531" stroke="#963B50" stroke-width="5" stroke-linecap="round"/>
<path d="M422.564 748.008C427.771 748.008 432.978 748.008 438.184 748.008C442.147 748.008 445.565 748.722 446.715 752.994C447.899 757.392 447.23 762.767 447.649 767.328C447.935 770.438 448.506 773.645 448.506 776.754" stroke="#963B50" stroke-width="5" stroke-linecap="round"/>
<path d="M316.692 820.93C316.519 823.878 314.433 826.579 313.849 829.499C312.726 835.112 311.378 840.499 310.538 846.171C309.586 852.596 312.564 858.922 313.888 865.101" stroke="#963B50" stroke-width="5" stroke-linecap="round"/>
<path d="M404.334 818.125C404.547 820.045 406.47 821.699 407.45 823.267C409.835 827.082 411.071 831.698 411.501 836.121C412.24 843.708 413.449 851.146 413.449 858.791" stroke="#963B50" stroke-width="5" stroke-linecap="round"/>
<path d="M334.68 644.172C334.68 645.433 337.062 645.603 338.082 645.036C340.395 643.751 338.471 640.672 336.138 644.172" stroke="#963B50" stroke-width="5" stroke-linecap="round"/>
<path d="M353.634 644.176C353.634 637.726 351.069 643.865 352.662 644.662" stroke="#963B50" stroke-width="5" stroke-linecap="round"/>
<path d="M314.268 653.406C314.808 655.838 319.028 659.374 320.64 661.128C322.944 663.636 325.83 666.285 328.848 667.879C336.135 671.727 344.294 673.133 352.446 673.711C361.565 674.357 368.252 672.882 375.613 667.609C377.197 666.474 380.851 664.474 380.851 662.154" stroke="#963B50" stroke-width="5" stroke-linecap="round"/>
<path d="M202.828 351.883C202.828 371.791 207.748 391.501 212.475 410.406" stroke="#963B50" stroke-width="5" stroke-linecap="round"/>
<path d="M200.898 354.456C200.898 352.23 201.418 351.757 203.328 350.597C204.526 349.87 205.604 350.033 206.972 349.847C211.738 349.197 216.538 347.948 221.264 347.024C230.224 345.274 242.499 343.503 251.347 346.667C265.47 351.716 268.177 369.298 267.068 382.324C266.539 388.54 257.562 394.002 253.169 397.33C247.985 401.258 241.721 405.965 235.627 408.335C230.828 410.201 225.294 411.052 220.299 412.301C218.777 412.681 216.96 412.776 215.69 413.623" stroke="#963B50" stroke-width="5" stroke-linecap="round"/>
<path d="M295.437 384.036C293.511 384.036 288.685 383.041 287.862 385.179C286.149 389.634 284.504 395.277 284.504 400.078C284.504 406.33 287.495 409.822 293.186 412.011C296.144 413.149 295.437 405.75 295.437 404.115C295.437 398.16 295.437 392.206 295.437 386.251C295.437 385.497 295.573 384.286 296.08 385.679C297.1 388.485 298.626 390.456 300.582 392.718C303.67 396.289 308.917 399.896 310.872 404.294C311.567 405.857 313.498 406.707 314.087 408.474" stroke="#963B50" stroke-width="5" stroke-linecap="round"/>
<path d="M310.873 382.104C310.873 383.323 313.008 392.992 313.946 393.109C314.125 393.131 313.452 387.863 313.446 387.464C313.418 385.753 312.663 381.327 313.839 379.889C317.378 375.563 329.14 378.555 332.703 381.176C340.363 386.808 344.709 396.398 348.817 404.614" stroke="#963B50" stroke-width="5" stroke-linecap="round"/>
<path d="M359.748 361.529C351.716 361.529 344.509 367.99 348.172 375.963C352.042 384.386 363.03 385.069 371.146 385.288C381.997 385.581 392.147 378.567 395.441 367.924C396.33 365.052 397.371 362.016 397.049 358.956C396.809 356.68 391.604 357.027 390.118 357.027C384.485 357.027 382.257 364.097 382.257 368.924C382.257 378.662 390.077 382.685 398.978 384.038C409.021 385.564 419.563 386.605 427.275 378.893" stroke="#963B50" stroke-width="5" stroke-linecap="round"/>
<path d="M425.12 93.7656C419.692 93.7656 414.264 93.7656 408.836 93.7656C402.175 93.7656 397.585 99.4719 394.517 105.025C391.135 111.144 389.43 120.402 392.288 127.127C396.876 137.924 408.745 141.757 419.453 143.411C426.018 144.425 440.534 144.775 443.18 136.459C445.349 129.643 446.255 119.369 443.482 112.657C442.098 109.305 440.01 102.978 436.341 101.284C433.628 100.032 428.149 98.0923 427.16 95.1258" stroke="#66A865" stroke-width="5" stroke-linecap="round"/>
<path d="M410.371 119.817C410.398 119.601 412.473 118.05 411.1 117.745C409.796 117.455 407.785 118.158 407.219 119.292" stroke="#66A865" stroke-width="5" stroke-linecap="round"/>
<path d="M424.029 117.719H425.605" stroke="#66A865" stroke-width="5" stroke-linecap="round"/>
<path d="M418.251 142.93C418.251 164.727 413.523 186.227 413.523 208.069" stroke="#66A865" stroke-width="5" stroke-linecap="round"/>
<path d="M352.586 152.388C352.586 149.943 352.669 149.701 355.329 149.352C358.693 148.911 362.069 149.122 362.684 153.088C364.049 161.898 364.042 177.901 376.517 178.128C379.815 178.188 381.449 174.581 383.171 172.233C385.568 168.964 388.351 164.595 391.868 162.485C397.863 158.888 405.154 160.43 409.729 165.112C412.975 168.434 416.526 171.824 421.519 171.824C423.679 171.824 424.949 171.192 426.889 170.248C430.866 168.313 435.173 168.591 439.496 168.672C449.802 168.865 452.845 182.067 463.311 181.805C472.282 181.581 476.126 167.467 477.786 160.793C479.132 155.379 479.938 149.907 481.288 144.508" stroke="#66A865" stroke-width="5" stroke-linecap="round"/>
<path d="M411.947 129.803C414.507 132.362 422.454 132.85 422.454 128.227" stroke="#66A865" stroke-width="5" stroke-linecap="round"/>
<path d="M412.997 209.125C407.833 224.618 398.043 238.85 390.175 253.076C387.82 257.335 385.665 261.755 383.142 265.917C382.632 266.759 382.342 267.147 381.479 267.435" stroke="#66A865" stroke-width="5" stroke-linecap="round"/>
<path d="M414.574 211.749C419.71 211.749 424.849 211.814 429.983 211.72C442.131 211.497 453.944 208.878 465.822 206.554C477.723 204.226 490.18 203.344 502.302 203.344" stroke="#66A865" stroke-width="5" stroke-linecap="round"/>
<path d="M638.231 675.625C633.699 675.625 629.167 675.625 624.635 675.625C616.496 675.625 610.897 682.761 606.154 688.642C600.533 695.612 600.543 707.871 602.747 716.059C605.178 725.09 613.494 728.652 622.096 730.651C628.852 732.221 635.69 731.955 642.377 730.169C645.112 729.438 649.19 728.376 651.152 726.022C653.145 723.631 652.116 719.078 652.116 716.251C652.116 709.596 651.979 703.2 650.38 696.71C649.351 692.531 647.4 688.691 645.752 684.753C645.103 683.203 644.162 679.096 642.281 679.096" stroke="#66A865" stroke-width="5" stroke-linecap="round"/>
<path d="M624.924 699.344C625.02 700.014 628.255 695.003 624.346 697.609" stroke="#66A865" stroke-width="5" stroke-linecap="round"/>
<path d="M637.072 697.611C637.273 699.214 639.682 696.442 639.965 695.875" stroke="#66A865" stroke-width="5" stroke-linecap="round"/>
<path d="M627.238 733.484V780.346" stroke="#66A865" stroke-width="5" stroke-linecap="round"/>
<path d="M566.491 699.922C563.337 700.711 568.008 713.441 568.837 714.997C572.168 721.241 577.087 726.212 581.854 731.356C593.468 743.89 606.488 753.362 623.509 756.491C631.827 758.02 642.066 760.27 650.122 756.523C659.287 752.26 669.356 744.536 675.964 736.949C687.857 723.294 687.406 705.179 687.406 688.352" stroke="#66A865" stroke-width="5" stroke-linecap="round"/>
<path d="M627.238 781.503C615.641 781.503 604.609 780.569 593.811 785.553C586.666 788.851 576.098 795.061 579.026 804.645C580.732 810.228 587.688 810.737 592.525 811.266C598.465 811.916 604.817 812.304 610.332 809.723C613.184 808.388 616.508 806.19 618.881 804.066C620.486 802.63 617.193 806.694 616.824 807.248C614.327 810.993 614.51 814.696 614.51 819.044C614.51 823.48 615.349 824.973 619.717 826.308C630.536 829.614 639.51 822.691 643.437 812.873C643.673 812.283 644.176 811.427 643.983 810.752C643.904 810.475 643.09 810.278 643.116 810.559C643.465 814.407 651.871 817.903 654.751 819.108C659.029 820.899 663.373 822.001 668.025 822.001C673.671 822.001 676.245 817.907 677.571 812.745C678.638 808.589 677.657 806.021 673.393 804.645C672.916 804.491 668.27 802.632 667.864 803.038C667.492 803.41 670.078 803.831 670.114 803.841C672.194 804.426 674.083 805.379 676.221 805.802C681.32 806.811 687.643 808.231 692.388 805.384C695.569 803.476 709.558 789.668 701.87 785.682C698.049 783.7 693.883 783.817 689.72 783.817C687.306 783.817 683.907 783.1 681.91 784.653C680.774 785.537 682.102 781.603 682.167 780.957C682.357 779.057 682.128 777.205 680.431 776.039C674.407 771.898 662.442 772.839 655.586 773.532C647.781 774.322 640.34 777.388 632.702 778.611C630.602 778.947 626.447 780.192 625.502 782.082" stroke="#66A865" stroke-width="5" stroke-linecap="round"/>
<path d="M618.561 815.633C618.561 834.8 618.561 853.966 618.561 873.133C618.561 879.264 619 885.32 619.139 891.422C619.219 894.926 620.296 898.362 620.296 901.835" stroke="#66A865" stroke-width="5" stroke-linecap="round"/>
<path d="M652.694 817.945C652.694 832.602 652.694 847.258 652.694 861.914C652.694 867.796 651.87 876.532 653.24 881.328C653.421 881.96 652.87 883.269 653.851 883.32C655.037 883.383 657.162 882.859 658.158 883.674C659.181 884.511 659.581 886.608 659.636 887.82C659.81 891.645 660.749 895.405 660.793 899.262C660.853 904.367 660.348 906.243 657.322 910.383C654.556 914.169 651.858 905.787 651.537 904.18C650.856 900.775 650.958 897.472 650.958 893.991C650.958 890.647 650.33 887.761 649.351 884.606C649.05 883.635 648.91 882.03 649.801 881.585" stroke="#66A865" stroke-width="5" stroke-linecap="round"/>
<path d="M616.824 906.462C621.267 906.462 626.66 907.436 626.66 913.115C626.66 918.16 627.401 925.753 624.795 930.182C623.194 932.904 621.034 928.329 620.746 927.289C619.487 922.759 614.856 920.196 613.385 915.783C612.57 913.337 611.683 905.305 615.089 905.305" stroke="#66A865" stroke-width="5" stroke-linecap="round"/>
<path d="M277.221 784.972C269.405 784.972 265.398 785.672 265.65 794.228C265.771 798.347 270.08 798.756 273.267 798.889C280.32 799.183 287.554 800.399 294.223 797.732C296.149 796.961 290.639 799.866 289.081 801.235C284.327 805.409 280.398 811.708 278.056 817.563C276.982 820.248 274.401 825.086 274.939 828.041C275.249 829.75 279.04 829.495 280.113 829.519C284.99 829.63 289.73 830.506 294.577 829.391C300.076 828.125 304.887 824.476 308.462 820.23C311.216 816.96 314.826 812.318 314.826 807.824C314.826 806.514 314.829 809.074 314.858 809.335C315.246 812.824 319.341 815.408 321.768 817.498C325.491 820.704 329.811 824.282 334.207 820.841C336.506 819.042 339.311 816.49 339.125 813.32C339.048 812.026 338.546 813.683 338.546 814.188C338.546 816.122 338.831 817.54 339.96 819.234C342.55 823.119 347.639 830.254 353.009 829.487C358.96 828.637 361.955 818.167 362.234 813.416C362.292 812.436 361.735 809.668 362.588 811.617C363.608 813.948 365.832 816.589 367.602 818.398C372.836 823.749 378.573 829.852 386.436 830.548C395.514 831.351 405.402 826.531 403.021 815.988C402.424 813.343 396.059 807.68 397.686 809.849C399.045 811.661 404.218 812.642 406.235 813.449C410.215 815.04 414.363 815.634 418.642 815.634C424.067 815.634 426.026 809.912 426.452 805.22C426.855 800.784 422.686 796.706 418.256 796.542C413.255 796.357 419.938 796.952 421.277 797.249C423.804 797.811 429.16 799.708 431.37 797.699C433.405 795.849 434.584 793.243 434.584 790.5C434.584 782.167 417.953 780.853 412.406 779.797C398.23 777.097 382.878 778.502 368.502 778.608C356.978 778.692 345.701 780.852 334.368 782.657C321.948 784.636 309.788 786.707 297.18 786.707C292.606 786.707 288.15 786.129 283.585 786.129C282.219 786.129 276.638 786.12 276.064 784.972" stroke="#66A865" stroke-width="5" stroke-linecap="round"/>
<path d="M124.967 390.827C117.507 390.827 100.259 387.396 95.992 395.076C95.0438 396.783 92.0834 407.535 94.4467 407.01C97.6672 406.294 99.7867 405.299 103.332 405.507C104.361 405.568 104.023 406.501 103.332 406.881C100.145 408.634 96.3274 409.202 93.0301 410.744C81.9974 415.905 70.6529 422.055 60.8361 429.288C52.4163 435.492 66.9438 443.464 72.0396 444.484C77.9272 445.661 81.7251 445.152 85.9045 441.05C87.6302 439.356 101.085 429.272 100.113 426.841C99.7312 425.887 94.0526 434.674 93.674 435.684C92.2144 439.576 90.8988 448.024 94.833 450.922C101.609 455.915 115.568 449.256 121.361 445.342C124.197 443.426 128.611 441.097 126.941 437.015C126.387 435.66 118.777 424.477 118.184 424.995C117.414 425.669 122.52 429.969 122.82 430.232C127.628 434.446 132.69 437.443 138.746 439.461C145.939 441.859 150.842 442.827 157.762 438.388C158.42 437.966 172.704 427.105 169.308 425.596C167.722 424.891 161.948 423.662 160.938 425.682C157.605 432.348 180.873 437.762 184.461 438.56C187.9 439.324 191.727 440.277 195.278 440.277C197.627 440.277 197.661 436.872 197.94 435.083C198.691 430.256 200.605 418.097 193.561 416.496C192.138 416.173 188.043 415.584 189.183 416.496C190.826 417.811 195.069 417.097 196.995 417.097C201.881 417.097 208.025 417.303 206.739 410.873C205.395 404.151 195.012 400.263 189.097 400.099C187.044 400.042 180.275 401.198 180.555 399.24C181.309 393.959 181.012 387.511 176.262 384.302C172.337 381.65 168.133 380.958 163.471 380.825C156.874 380.637 149.418 379.959 143.081 382.156C140.266 383.132 138.863 386.191 136.127 386.191C131.656 386.191 127.171 385.418 122.649 385.418" stroke="#D37995" stroke-width="5" stroke-linecap="round"/>
<path d="M573.921 59.2578C573.921 64.843 573.821 70.3681 574.782 75.8958C575.498 80.0089 576.959 84.0934 577.185 88.2722C577.485 93.8283 579.79 100.811 582.444 105.636C587.047 114.006 588.214 123.57 593.506 131.885" stroke="#D37995" stroke-width="5" stroke-linecap="round"/>
<path d="M571.473 66.6063C571.65 65.1843 575.498 64.1127 576.46 63.6142C582.037 60.7222 587.521 59.0122 593.823 58.5367C599.984 58.0717 605.712 58.2279 610.823 62.0728C618.107 67.5511 623.947 75.1162 628.051 83.1989C633.837 94.5961 638.234 113.25 632.131 125.361C627.577 134.396 614.865 136.526 606.063 138.689C600.616 140.028 595.074 141.681 589.425 141.681" stroke="#D37995" stroke-width="5" stroke-linecap="round"/>
<path d="M632.676 149.023C627.938 149.023 614.388 146.401 615.721 153.466C617.05 160.509 624.846 169.969 632.676 164.935C634.86 163.531 635.628 155.408 638.026 159.767C640.428 164.135 643.943 167.465 646.549 171.69C648.037 174.103 650.574 177.149 653.077 178.4" stroke="#D37995" stroke-width="5" stroke-linecap="round"/>
<path d="M627.779 203.702C627.779 209.626 627.779 227.397 627.779 221.473C627.779 210.457 643.401 199.382 652.94 196.856C659.746 195.055 659.029 201.909 660.421 207.148C661.459 211.057 662.437 214.648 663.685 218.391" stroke="#D37995" stroke-width="5" stroke-linecap="round"/>
<path d="M687.35 252.663C685.188 252.663 673.76 251.292 672.843 253.025C671.763 255.065 672.661 259.553 672.661 261.684C672.661 267.693 671.391 275.664 674.429 281.133C677.736 287.086 690.942 291.044 697.505 289.293C701.676 288.181 706.366 282.608 709.383 279.592" stroke="#D37995" stroke-width="5" stroke-linecap="round"/>
<path d="M666.132 335.079C672.466 335.079 682.415 337.934 684.719 330.183C685.63 327.121 686.74 324.656 683.087 323.655C677.142 322.025 669.15 322.248 663.049 323.02C652.268 324.385 648.563 345.509 654.436 352.85C660.228 360.091 672.509 364.354 681.274 366.088C689.449 367.705 692.128 365.01 697.141 358.744" stroke="#D37995" stroke-width="5" stroke-linecap="round"/>
<path d="M50.4167 862.984C47.6469 863.677 49.378 887.168 49.378 889.067C49.378 902.378 49.378 915.688 49.378 928.999C49.378 929.644 49.378 941.201 49.378 936.731" stroke="#D37995" stroke-width="5" stroke-linecap="round"/>
<path d="M47.3008 865.065C64.3619 865.065 85.3685 860.54 97.9657 874.413C107.815 885.26 115.156 909.552 107.314 923.231C98.5597 938.5 83.5874 947.121 66.228 947.121C59.6526 947.121 49.3156 947.91 47.3008 939.85" stroke="#D37995" stroke-width="5" stroke-linecap="round"/>
<path d="M140.784 920.119C131.173 915.596 131.966 923.23 128.32 929.236C124.909 934.853 126.336 941.931 134.552 941.931C139.42 941.931 140.333 937.245 141.823 933.391C142.904 930.592 142.057 925.547 145.17 929.467C150.886 936.665 159.522 942.168 167.501 946.49C171.847 948.844 170.906 946.718 170.906 942.45C170.906 937.182 171.56 932.727 172.983 927.62C173.388 926.168 173.746 918.738 175.58 922.773C177.609 927.236 177.945 933.945 179.215 938.815C179.961 941.673 181.375 944.303 182.101 947.125C182.152 947.325 182.271 950.878 183.139 950.01C184.766 948.384 185.79 942.636 186.486 940.373C187.941 935.645 196.345 930.733 200.451 928.544C205.606 925.794 208.299 936.439 208.299 940.892" stroke="#D37995" stroke-width="5" stroke-linecap="round"/>
<path d="M236.343 928.424C237.828 928.424 234.671 928.379 234.266 928.424C232.614 928.608 231.377 932.109 230.573 933.387C228.906 936.035 227.62 941.858 231.207 943.428C242.18 948.228 266.465 950.222 266.465 933.041C266.465 928.874 266.829 919.076 260.752 919.076C255.18 919.076 255.881 929.865 256.078 933.618C256.224 936.385 262.002 939.031 263.926 940.196C268.877 943.194 274.718 945.043 280.487 945.043C285.618 945.043 289.352 942.134 293.471 939.273C304.88 931.35 315.639 922.269 326.709 913.883" stroke="#D37995" stroke-width="5" stroke-linecap="round"/>
<path d="M173.121 626.321C168.253 626.065 163.551 623.704 158.938 622.35C151.695 620.223 144.548 619.382 137.003 619.513C126.665 619.693 116.029 627.586 110.277 635.839C104.693 643.851 101.004 656.361 102.335 666.158C103.664 675.947 116.699 681.776 125.184 683.334C137.869 685.664 152.076 686.949 162.563 677.661C168.998 671.962 174.051 666.133 177.628 658.31C181.1 650.714 178.794 641.665 178.794 633.696C178.794 632.899 179.618 627.115 177.943 627.487C176.999 627.697 176.341 628.39 175.957 629.157" stroke="#D37995" stroke-width="5" stroke-linecap="round"/>
<path d="M121.496 654.68C121.496 654.801 118.092 654.59 118.092 656.949" stroke="#D37995" stroke-width="5" stroke-linecap="round"/>
<path d="M163.477 649.012C163.568 648.6 167.309 646.014 165.998 645.64C164.655 645.256 164.044 646.111 164.044 647.31" stroke="#D37995" stroke-width="5" stroke-linecap="round"/>
<path d="M131.707 664.891H148.159" stroke="#D37995" stroke-width="5" stroke-linecap="round"/>
<path d="M143.622 686.453C143.622 694.521 143.622 702.59 143.622 710.658C143.622 711.825 142.909 717.873 144.189 715.953" stroke="#D37995" stroke-width="5" stroke-linecap="round"/>
<path d="M143.622 715.383C143.211 719.491 140.153 724.339 138.547 728.052C135.721 734.589 134.959 742.276 134.419 749.295C133.158 765.689 133.142 782.701 136.593 798.807C138.042 805.569 139.234 812.606 141.352 819.198C142.427 822.54 143.854 825.711 144.756 829.094C145.346 831.304 147.006 833.929 148.601 835.524C150.939 837.861 152.057 836.488 153.833 834.515C157.35 830.607 156.431 822.852 156.796 818.064C157.856 804.147 157.683 790.929 156.669 776.998C156.039 768.323 155.551 759.59 154.841 750.933C154.466 746.348 153.533 741.734 152.95 737.161C152.494 733.572 152.542 729.72 151.816 726.193C151.22 723.297 149.672 720.33 147.467 718.345C146.047 717.068 144.189 719.177 144.189 720.488" stroke="#D37995" stroke-width="5" stroke-linecap="round"/>
<path d="M30.7285 830.541C45.7129 830.541 60.6079 831.675 75.5765 831.675C87.0535 831.675 98.5479 831.501 110.024 831.675C115.253 831.755 120.543 832.956 125.751 833.409C129.977 833.776 134.112 833.944 138.389 833.944C153.357 833.944 167.405 829.317 182.197 827.263C193.915 825.635 205.797 824.868 217.621 824.868C224.647 824.868 229.793 825.466 236.09 822.031" stroke="#D37995" stroke-width="5" stroke-linecap="round"/>
<path d="M74.9778 645.039C74.9778 662.159 72.6837 681.488 79.4847 697.64C84.4531 709.44 90.8072 719.237 99.9389 728.369C106.571 735.001 114.466 738.367 123.072 741.48C125.481 742.351 131.727 744.197 132.275 740.912" stroke="#D37995" stroke-width="5" stroke-linecap="round"/>
<path d="M157.803 747.717C164.64 747.717 169.027 744.78 173.498 739.491C186.913 723.62 193.235 700.477 194.929 680.145C196.604 660.052 200.121 639.729 198.396 619.508C197.956 614.356 196.555 609.446 195.37 604.443C195.255 603.955 195.244 601.932 195.244 603.623" stroke="#D37995" stroke-width="5" stroke-linecap="round"/>
<path d="M156.629 620.883C156.629 618.084 156.906 615.266 154.151 613.634C149.747 611.024 146.748 616.161 144.92 619.415C143.702 621.583 140.989 625.943 143.488 628.151C144.547 629.086 146.75 630.052 148.168 629.288C149.28 628.69 148.04 629.917 147.728 630.463C146.931 631.858 146.718 633.098 146.718 634.684C146.718 639.262 153.427 641.33 157.253 640.997C160.624 640.704 162.418 636.827 161.841 633.767C161.646 632.734 160.748 631.279 160.006 630.536C159.37 629.901 160.209 632.298 160.795 632.775C162.965 634.544 165.507 635.369 168.264 635.675C169.227 635.782 171.1 636.17 171.641 635.088C172.63 633.11 170.189 629.537 169.255 627.894C169.131 627.675 168.183 626.273 168.595 627.416C169.104 628.832 172.866 628.512 173.972 628.463C176.078 628.369 182.239 626.336 180.34 623.122C179.42 621.565 177.829 620.125 176.193 619.378C174.782 618.734 171.657 617.948 170.191 618.772C169.921 618.924 169.027 620.348 169.237 620.663C169.485 621.035 171.336 617.105 171.421 616.845C172.491 613.592 170.688 609.97 167.365 608.862C164.28 607.834 161.159 609.731 159.785 612.441C158.089 615.786 156.208 619.264 155.307 622.865" stroke="#D37995" stroke-width="5" stroke-linecap="round"/>
<path d="M369.57 508.863C369.57 506.698 369.57 504.533 369.57 502.368C369.57 498.297 374.835 497.311 377.868 495.946C379.514 495.205 385.771 491.994 387.393 493.384C388.81 494.598 389.053 499.643 389.053 501.394C389.053 503.998 388.822 504.706 387.393 506.77C385.659 509.276 387.672 508.319 389.342 507.275C394.917 503.791 402.313 502.678 408.825 503.162C414.859 503.611 416.33 506.494 416.33 512.254C416.33 522.565 402.78 526.99 394.321 528.635C392.997 528.892 389.684 529.872 390.388 527.408C391.049 525.094 394.179 535.146 394.213 535.309C395.546 541.728 396.235 549.062 395.403 555.622C394.752 560.759 386.828 560.863 382.919 561.612C377.619 562.627 368.478 566.83 363.22 563.777C358.803 561.212 359.179 554.928 359.179 550.571C359.179 547.935 359.461 546.395 361.777 544.907C362.123 544.684 364.952 542.97 364.952 544.402C364.952 548.912 358.965 552.461 355.246 553.313C348.994 554.746 340.827 555.244 334.716 552.953C329.391 550.956 325.108 542.197 327.284 536.789C329.575 531.093 337.351 530.085 342.582 528.995C344.574 528.58 354.06 525.272 355.787 527.191C357.214 528.777 350.372 531.928 349.437 532.098C345.649 532.787 341.722 531.563 338.721 529.248C333.803 525.454 332.552 521.798 332.552 515.754C332.552 508.279 341.95 501.665 348.499 499.482C355.703 497.08 360.97 498.941 366.972 503.018C368.588 504.115 374.132 507.231 370.869 508.863" stroke="#D37995" stroke-width="5" stroke-linecap="round"/>
<path d="M248.773 127.638C247.546 127.331 248.085 122.614 247.186 121.36C245.322 118.762 243.624 116.676 240.186 116.597C233.884 116.454 233.661 122.242 233.836 127.133C233.928 129.718 236.357 131.596 237.877 133.483C238.739 134.554 241.802 135.431 240.475 135.431C236.652 135.431 234.105 137.337 231.599 140.122C227.412 144.774 222.225 150.672 220.558 156.863C217.69 167.517 229.302 170.765 237.696 171.114C245.031 171.42 247.482 168.674 248.737 161.77C249.073 159.924 248.773 164.204 248.773 164.656C248.773 169.942 255.091 175.599 258.803 178.836C261.471 181.161 265.025 183.541 268.581 181.433C271.468 179.722 274.686 175.898 274.751 172.449C274.826 168.473 273.139 166.188 270.349 163.502C270.241 163.398 268.698 162.593 269.05 163.033C269.657 163.791 272.724 163.83 273.596 164.007C276.621 164.619 281.966 165.662 284.998 164.512C288.915 163.026 287.949 152.435 287.451 149.358C286.941 146.207 285.675 141.998 282.4 140.627C281.178 140.116 276.686 139.107 275.545 140.122C275.227 140.404 281.177 139.65 282.183 139.039C288.107 135.445 294.444 128.479 294.847 121.216C295.479 109.842 276.497 115.367 271.576 119.52C268.076 122.473 266.798 127.412 266.019 131.751C264.949 137.715 266.34 131.834 264.901 129.225C262.135 124.212 256.964 117.896 250.685 117.896C247.479 117.896 246.65 119.181 245.201 121.757C242.994 125.68 245.407 127.922 248.124 130.885" stroke="#D37995" stroke-width="5" stroke-linecap="round"/>
<path d="M660.088 598.204C659.817 595.222 653.34 588.726 651.02 593.022C650.064 594.792 650.223 596.59 650.223 598.528C650.223 602.656 650.243 606.329 652.241 610.063C653.295 612.035 654.475 613.83 656.501 614.896C657.623 615.487 657.613 614.389 656.6 614.348C654.289 614.256 651.912 620.133 650.92 621.698C647.75 626.7 645.056 631.986 643.745 637.792C642.53 643.174 658.121 642.21 661.359 641.454C663.255 641.012 664.09 639.006 664.124 637.219C664.132 636.815 663.731 633.582 663.676 635.076C663.373 643.251 674.375 648.88 681.539 649.302C685.329 649.525 684.903 646.054 685.101 642.949C685.162 641.995 685.818 632.158 684.852 632.037C684.396 631.98 684.879 633.012 685.151 633.382C686.72 635.515 689.633 636.702 691.903 637.867C694.243 639.068 701.891 643.225 704.334 640.458C709.305 634.829 708.644 624.406 708.495 617.487C708.402 613.181 707.836 610.013 703.388 608.768C702.104 608.408 701.38 608.336 700.448 609.216C698.422 611.13 700.991 607.449 701.345 606.675C703.457 602.051 705.522 596.787 705.306 591.602C705.169 588.312 700.93 587.143 698.181 587.018C693.202 586.792 687.892 587.042 687.892 593.396C687.892 593.765 687.757 592.666 687.618 592.325C687.042 590.918 686.284 589.506 685.45 588.239C683.403 585.129 680.761 581.834 677.229 580.366C672.524 578.412 666.669 580.194 664.124 584.577C662.365 587.607 660.675 590.789 659.092 593.919C658.125 595.831 656.949 597.396 656.949 599.55" stroke="#963B50" stroke-width="5" stroke-linecap="round"/>
<path d="M669.506 601.344C669.506 604.176 669.194 607.151 669.506 609.964C669.773 612.364 679.181 612.775 681.141 612.53C684.122 612.157 680.489 607.834 679.571 607.173C676.637 605.061 673.038 604.483 669.506 604.483" stroke="#963B50" stroke-width="5" stroke-linecap="round"/>
<path d="M469.46 889.482C468.815 888.322 461.265 887.579 460.467 889.219C459.107 892.01 458.58 895.489 457.732 898.475C456.932 901.29 456.943 903.76 458.784 906.205C460.271 908.181 465.253 909.834 465.253 909.834C465.253 909.834 462.215 910.329 461.413 911.464C458.18 916.045 457.312 927.524 462.465 931.028C467.324 934.332 474.661 934.999 480.346 935.288C482.913 935.418 487.614 935.944 489.234 933.184C490.276 931.409 490.331 928.978 490.286 926.979C490.248 925.344 489.339 924.676 491.863 925.296C493.322 925.653 510.569 932.725 511.111 931.449C511.855 929.7 511.602 927.233 511.69 925.401C511.883 921.368 512.039 917.343 512.058 913.305C512.071 910.564 513.132 905.092 511.953 902.471C511.49 901.442 507.949 904.174 509.429 904.996C517.277 909.356 518.644 899.391 519.053 893.847C519.598 886.458 513.752 884.275 507.325 884.275C506.683 884.275 503.192 883.8 503.065 884.749C502.996 885.27 503 883.241 502.855 882.855C501.056 878.089 491.621 873.628 487.446 877.649C485.79 879.243 485.12 881.028 484.711 883.223C484.341 885.21 484.058 883.803 482.607 882.75C480.275 881.057 472.818 874.864 469.565 876.913C467.011 878.52 467.093 883.729 467.093 886.168" stroke="#963B50" stroke-width="5" stroke-linecap="round"/>
</svg>
