<svg width="414" height="1248" viewBox="0 0 414 1248" fill="none" xmlns="http://www.w3.org/2000/svg">
<rect width="414" height="1248" fill="#FCF3F3"/>
<rect y="1181" width="414" height="67" fill="#695C60"/>
<path d="M278.434 533.197C278.434 521.765 279.757 510.472 274.824 499.866C267.181 483.433 251.683 467.878 236.696 458.326C213.774 443.716 182.273 435.244 155.298 442.996C125.493 451.56 116.118 485.877 106.242 511.784C92.5124 547.795 86.1641 585.515 86.1641 623.991C86.1641 651.309 93.2774 679.772 102.681 705.389C109.235 723.242 122.105 741.774 136.111 754.742C148.951 766.631 169.647 772.775 186.502 766.116C205.64 758.556 227.395 745.446 238.18 727.247C248.269 710.222 248.209 688.571 249.257 669.388C250.16 652.868 250.517 634.666 255.093 618.65C258.451 606.896 263.13 595.627 266.664 583.934C268.898 576.546 272.483 569.772 274.676 562.373C275.571 559.352 274.874 555.2 274.874 552.087C274.874 545.653 277.544 540.388 277.544 534.087" stroke="#66A865" stroke-width="5" stroke-linecap="round"/>
<path d="M122.659 481.572C122.659 471.458 123.005 462.306 119.543 452.692C115.445 441.307 105.839 433.394 95.0152 428.658C84.9606 424.259 70.7194 422.475 59.8547 425.098C51.9379 427.009 45.3225 432.628 39.0848 437.56C30.4087 444.419 21.0293 452.957 15.0511 462.385C6.15674 476.41 6.14048 494.282 7.13872 510.254C8.84455 537.548 23.6362 567.29 40.964 588.191C50.511 599.706 60.405 610.85 72.2178 620.038C74.9105 622.132 80.0025 624.679 83.4929 624.884C85.4845 625.002 82.9359 626.263 82.4049 626.467C80.8197 627.077 80.1024 627.952 78.9433 629.236C73.4953 635.271 68.1315 641.301 63.0197 647.632C43.9546 671.247 28.7436 695.215 23.4579 725.52C20.9919 739.658 19.0473 752.954 25.7327 766.021C29.7498 773.872 36.062 781.881 41.6563 788.67C47.1734 795.365 54.1361 803.622 62.2284 807.264C75.3338 813.161 92.6308 811.118 106.636 810.923C117.773 810.769 126.749 803.03 133.341 794.703C138.83 787.769 142.849 779.671 146.693 771.757C148.366 768.313 150.253 763.081 150.253 759.295" stroke="#66A865" stroke-width="5" stroke-linecap="round"/>
<path d="M274.876 497.591C274.876 486.72 273.745 475.33 275.073 464.557C276.493 453.045 289.625 449.788 299.107 448.238C314.19 445.772 326.993 445.946 333.625 461.293C339.007 473.75 338.997 488.671 337.482 501.893C335.794 516.622 330.51 530.971 323.339 543.829C319.467 550.77 313.825 557.032 308.701 563.066C302.141 570.791 296.052 579.203 288.92 586.407C278.814 596.615 267.456 609.057 254.501 615.534C253.505 616.033 251.788 617.116 251.04 617.957C250.211 618.89 255.43 617.111 255.688 617.067C273.995 613.959 294.145 626.75 309.195 635.365C326.952 645.529 336.676 661.382 342.427 680.712C346.784 695.354 348.493 710.674 350.537 725.763C351.653 733.998 354.525 744.968 350.34 752.863C342.685 767.302 327.79 776.26 312.805 780.952C297.984 785.593 280.283 788.422 264.639 787.727C257.052 787.39 248.071 783.546 241.94 779.073C236.947 775.429 233.888 769.048 232.545 763.1C231.248 757.357 230.365 751.623 228.786 745.94C228.113 743.514 228.602 738.823 225.918 737.928" stroke="#66A865" stroke-width="5" stroke-linecap="round"/>
<path d="M171.618 445.968C171.618 425.379 171.618 404.79 171.618 384.202C171.618 370.852 171.479 362.61 164.497 351.217C157.196 339.305 148.036 330.144 136.902 321.793C133.035 318.893 127.776 315.117 122.66 315.117" stroke="#66A865" stroke-width="5" stroke-linecap="round"/>
<path d="M121.772 307.102C112.01 307.102 117.019 344.857 126.223 329.157C129.497 323.572 126.392 308.109 121.08 304.431C119.32 303.213 116.935 303.381 114.849 303.541C112.565 303.717 112.532 308.116 111.98 309.772" stroke="#66A865" stroke-width="5" stroke-linecap="round"/>
<path d="M211.676 445.966C211.676 420.554 213.773 396.286 218.599 371.294C220.307 362.449 222.945 354.88 228.391 347.557C232.273 342.335 238.532 338.216 243.721 334.501C247.864 331.535 251.871 327.381 257.073 326.638C262.615 325.847 268.045 325.798 273.788 325.798C276.212 325.798 278.688 325.949 281.107 325.798C281.519 325.772 274.393 323.3 272.601 323.177C267.87 322.85 263.304 322.771 263.304 328.468C263.304 332.055 262.827 333.748 265.579 336.133C271.676 341.417 282.459 346.2 289.118 339.15C294.272 333.692 288.677 329.807 285.112 326.243C275.657 316.787 264.707 336.548 260.633 341.82" stroke="#66A865" stroke-width="5" stroke-linecap="round"/>
<path d="M107.527 508.273C117.621 508.634 128.382 514.643 137.545 518.609C149.219 523.662 161.221 527.647 173.497 530.972C194.838 536.752 217.902 538.538 239.96 538.538C251.17 538.538 268.019 540.208 275.764 530.527" stroke="#66A865" stroke-width="5" stroke-linecap="round"/>
<path d="M179.629 539.43C179.629 558.88 180.564 578.584 179.135 597.981C177.956 613.978 174.521 629.317 170.728 644.862C167.063 659.88 163.846 674.894 158.266 689.369C152.079 705.414 145.113 720.819 132.847 733.084C130.939 734.993 128.682 738.252 125.825 738.771C124.389 739.033 123.347 738.337 122.66 739.711" stroke="#66A865" stroke-width="5" stroke-linecap="round"/>
<path d="M184.97 534.977C184.97 566.572 184.207 598.14 187.195 629.628C188.709 645.582 190.225 661.581 192.091 677.498C193.263 687.496 194.529 696.914 198.371 706.328C202.05 715.341 207.932 723.858 213.652 731.697C216.304 735.331 219.103 738.335 222.257 741.489C224.057 743.288 224.826 745.939 227.697 745.939" stroke="#66A865" stroke-width="5" stroke-linecap="round"/>
<path d="M175.18 442.406C174.721 444.472 169.955 447.564 168.554 448.835C164.767 452.269 161.126 456.43 156.487 458.627C153.011 460.273 149.793 458.429 146.251 458.429C144.942 458.429 137.324 459.229 136.954 457.934C136.483 456.287 149.471 454.618 151.542 453.582C153.944 452.381 168.554 447.56 168.554 445.274C168.554 444.638 167.349 445.695 166.774 445.967C165.186 446.716 163.479 447.166 161.828 447.747C158.362 448.967 154.53 450.343 151.196 451.802C149.822 452.403 144.614 455.221 144.619 455.214C147.297 451.771 155.392 445.967 160.048 445.967" stroke="#66A865" stroke-width="5" stroke-linecap="round"/>
<path d="M211.676 447.742C212.317 453.513 222.351 458.164 226.215 461.787C230.897 466.176 236.671 470.262 243.276 470.836C245.023 470.988 252.928 471.958 253.463 469.551C254.128 466.559 240.249 462.896 238.182 461.787C232.903 458.954 227.509 456.298 221.962 454.023C220.073 453.248 216.045 452.606 214.544 451.105C213.725 450.286 216.865 450.413 217.017 450.413C221.03 450.413 225.441 454.681 228.44 456.891C234.485 461.345 240.257 465.723 245.6 470.985C245.758 471.14 249.8 474.045 248.567 474.397C246.842 474.89 246.041 471.075 245.501 469.996" stroke="#66A865" stroke-width="5" stroke-linecap="round"/>
<path d="M166.277 685.41C173.759 685.41 185.622 684.657 192.091 688.97" stroke="#66A865" stroke-width="5" stroke-linecap="round"/>
<path d="M152.924 708.555C136.009 708.555 186.747 709.445 203.662 709.445" stroke="#66A865" stroke-width="5" stroke-linecap="round"/>
<path d="M134.234 730.812C155.471 730.812 177.068 731.702 198.127 731.702C201.37 731.702 204.67 732.592 207.671 732.592C210.96 732.592 217.879 731.721 220.578 729.922" stroke="#66A865" stroke-width="5" stroke-linecap="round"/>
<path d="M259.744 165.57C259.744 173.297 266.124 172.526 271.761 170.021C274.807 168.667 274.226 165.885 271.712 164.285C271.149 163.926 268.031 163.973 269.041 162.9C270.121 161.753 271.526 161.316 272.206 159.784C273.336 157.242 275.396 154.718 272.898 152.02C269.343 148.18 263.86 142.917 258.656 141.734C257.525 141.477 254.977 141.062 254.008 142.031C253.249 142.79 254.001 144.339 253.315 144.899C250.057 147.565 239.669 141.49 239.271 148.658C238.961 154.243 241.829 151.359 244.068 154.493C244.721 155.407 240.78 156.901 240.161 157.361C238.27 158.766 236.893 160.524 236.65 162.949C235.958 169.868 237.269 174.702 242.733 178.527C244.38 179.68 236.289 182.238 240.26 183.373C241.769 183.804 250.685 183.651 249.755 186.043C248.359 189.633 255.801 188.978 258.162 188.516C261.594 187.844 265.975 186.309 265.975 182.285C265.975 178.689 263.305 176.741 263.305 173.582" stroke="#66A865" stroke-width="5" stroke-linecap="round"/>
<path d="M106.637 246.577C104.732 246.577 95.2353 245.543 95.0656 247.665C94.6815 252.466 98.5298 253.802 102.582 254.539C104.04 254.804 104.886 254.152 102.879 254.984C99.9421 256.202 97.0315 258.275 96.8459 261.71C96.5565 267.062 98.1573 267.05 103.027 267.05C106.587 267.05 105.826 269.765 110.198 270.413C113.114 270.845 116.102 270.246 119 270.66C120.558 270.883 120.693 272.391 122.66 272.391C126.608 272.391 127.22 268.863 126.023 265.27C125.531 263.795 133.734 264.761 131.907 262.204C130.283 259.93 130.851 264.802 133.787 261.215C135.15 259.549 135.398 257.529 134.232 255.676C133.499 254.512 129.93 253.142 131.265 252.808C136.215 251.571 131.382 248.343 129.385 247.072C128.708 246.64 130.391 243.687 127.308 241.632C124.374 239.676 124.23 238.227 120.039 236.341C118.669 235.724 116.628 234.365 115.044 235.203C114.078 235.715 115.232 238.904 114.451 239.06C112.431 239.464 107.148 236.704 106.687 240.396C106.433 242.425 104.705 248.281 106.637 249.248" stroke="#66A865" stroke-width="5" stroke-linecap="round"/>
<path d="M273.984 899.936C269.714 897.564 265.766 893.375 265.973 900.826C266.066 904.183 268.248 909.085 272.204 908.837C273.334 908.767 270.573 907.625 269.533 908.145C267.906 908.959 267.786 912.882 267.753 914.376C267.729 915.451 267.007 919.423 268.643 919.519C270.068 919.603 271.327 919.096 272.006 917.739C272.526 916.698 270.834 919.04 270.621 919.519C269.589 921.842 273.294 923.729 274.676 924.86C278.4 927.907 282.252 930.207 286.248 932.871C287.704 933.842 285.563 934.083 286.446 933.564C290.292 931.301 297.278 922.383 293.864 917.739C290.903 913.713 286.977 917.507 292.875 919.321C295.473 920.121 295.698 917.858 296.04 915.761C296.262 914.396 296.109 913.237 295.149 912.2C294.593 911.599 292.483 910.843 293.27 910.618C294.776 910.187 297.194 911.4 298.215 909.728C299.253 908.03 299.221 905.646 297.82 904.189C296.583 902.903 293.072 903.501 293.072 901.716C293.072 900.198 296.28 902.229 297.622 901.519C301.537 899.446 293.004 896.447 291.787 896.376C290.772 896.316 294.435 896.447 295.149 895.98C298.483 893.8 292.131 892.321 290.897 891.925C290.366 891.755 279.611 890.036 283.083 893.507C283.148 893.572 282.675 891.658 280.215 891.233C278.62 890.956 273.542 890.166 272.204 891.43C270.834 892.724 270.595 898.241 272.204 899.046" stroke="#66A865" stroke-width="5" stroke-linecap="round"/>
<path d="M65.6904 856.322C62.431 856.322 57.2641 855.321 54.2669 856.52C50.8408 857.89 51.4482 865.918 51.4482 868.784C51.4482 870.678 50.7459 874.449 51.5471 876.251C52.6376 878.705 56.9194 875.363 57.6791 874.323C61.9982 868.413 52.4334 869.668 51.0525 872.938C49.4859 876.649 46.2639 883.026 52.5361 883.026C56.0702 883.026 62.3015 883.306 58.5693 887.477C54.6795 891.825 65.3477 901.755 68.163 903.994C74.4831 909.021 72.6075 901.066 73.8994 898.159C76.3743 892.59 85.2734 891.908 85.2734 885.004C85.2734 881.5 78.631 890.507 85.2734 890.147C89.4525 889.922 99.8341 877.686 94.1748 877.686C92.6999 877.686 94.1198 879.162 95.51 878.081C97.3458 876.653 97.4022 873.116 95.5595 871.652C93.2637 869.829 91.039 870.192 88.4878 869.625C87.3229 869.366 94.1565 866.516 94.8672 866.114C96.3472 865.275 101.521 862.74 100.208 860.278C98.1286 856.38 91.0572 854.529 87.0537 853.85C83.9233 853.318 84.1908 854.548 84.3339 854.047C85.3581 850.463 80.7185 848.758 78.3501 847.421C77.3122 846.835 70.6789 842.76 70.1905 845.69C69.7669 848.232 70.5207 847.512 68.163 847.421C61.7103 847.173 62.1298 850.612 62.1298 856.322" stroke="#66A865" stroke-width="5" stroke-linecap="round"/>
<path d="M212.564 984.496C208.933 984.133 206.083 983.054 207.272 988.403C207.871 991.099 213.829 987.261 211.476 987.167C207.921 987.024 201.489 988.816 205.541 993.447C207.442 995.619 215.584 999.048 212.118 1000.91C207.607 1003.34 210.536 1009.34 214.542 1011.2C215.31 1011.56 218.556 1013.71 219.487 1012.78C220.135 1012.14 217.627 1011.82 217.212 1012.29C216.296 1013.32 233.336 1015.88 235.559 1015.6C236.175 1015.52 235.63 1013.87 236.251 1013.87C238.692 1013.87 241.609 1011.93 241.889 1009.42C242.12 1007.34 241.616 1005.1 239.466 1004.28C238.944 1004.08 236.167 1003.28 238.575 1003.19C241.504 1003.08 244.791 1003.36 247.576 1002.25C251.114 1000.83 249.923 991.624 249.356 989.046C248.463 984.987 245.589 982.686 243.916 979.155C243.174 977.588 246.105 978.817 245.993 977.87C245.678 975.193 233.155 971.942 233.037 974.903C233.01 975.572 232.632 977.959 233.531 978.216C235.806 978.866 229.776 975.423 228.982 975.199C227.202 974.697 209.806 971.151 217.41 975.99C219.368 977.236 213.454 975.021 213.454 978.265C213.454 986.589 211.603 994.105 210.783 1002.3" stroke="#66A865" stroke-width="5" stroke-linecap="round"/>
<path d="M76.3727 1061.05C75.9512 1057.68 70.2276 1061.6 70.1417 1064.61C70.0391 1068.2 76.9963 1070.28 78.4497 1066.89C78.8357 1065.98 74.095 1067.02 73.3561 1068.17C72.3485 1069.74 72.5409 1073.06 73.01 1074.8C73.8571 1077.93 75.9642 1080.8 77.9552 1083.3C78.6372 1084.16 82.8546 1085.95 81.1696 1087.26C79.4584 1088.59 78.153 1087.72 78.153 1090.42C78.153 1093.22 80.6821 1094.35 83.0982 1095.27C85.1272 1096.04 89.8597 1097.78 91.9007 1096.11C92.718 1095.44 95.0717 1091.72 93.9777 1090.62C93.7348 1090.38 93.3521 1091.53 95.2634 1091.31C99.1307 1090.89 102.357 1083.48 103.027 1080.24C104.63 1072.49 99.747 1077.96 107.528 1077.96C113.586 1077.96 109.796 1072.26 111.088 1071.53C115.342 1069.14 114.2 1065.5 110.247 1063.28C108.925 1062.53 106.865 1061.94 109.308 1061.94C113.494 1061.94 107.781 1057.37 106.637 1056.4C104.752 1054.81 103.039 1052.88 100.406 1053.04C98.2619 1053.16 101.198 1054.77 101.198 1053.43C101.198 1049.88 92.3472 1048.48 93.3843 1050.81C93.7264 1051.58 96.409 1053.01 96.7965 1051.65C97.8362 1048.02 88.3215 1046.38 86.3621 1045.92C81.5563 1044.79 72.6 1041.17 75.9277 1049.82C76.7553 1051.98 77.2629 1055.18 77.2629 1057.49" stroke="#66A865" stroke-width="5" stroke-linecap="round"/>
<path d="M309.59 1115.35C308.222 1115.35 304.322 1114.55 304.249 1116.44C304.198 1117.76 303.566 1122.09 304.447 1123.16C307.304 1126.65 315.838 1122.32 306.029 1123.41C302.286 1123.82 299.328 1134.04 302.963 1134.04C304.023 1134.04 307.699 1132.36 306.82 1132.36C303.664 1132.36 304.211 1136.91 304.249 1138.89C304.325 1142.82 305.078 1149.16 309.392 1150.76C311.996 1151.72 312.38 1148.19 313.15 1146.5C314.88 1142.72 312.937 1144.61 314.931 1144.72C316.747 1144.83 318.977 1144.13 319.332 1142C319.718 1139.69 319.222 1142.12 320.766 1143.39C322.06 1144.45 326.996 1145.92 328.283 1144.13C328.726 1143.51 329.255 1138.81 328.481 1139.58C326.656 1141.4 331.83 1142.76 332.733 1142.89C335.253 1143.25 337.144 1140.57 335.849 1138.24C335.578 1137.76 337.223 1140.13 338.47 1138.89C339.666 1137.69 339.164 1133.35 338.569 1131.96C337.958 1130.54 342.692 1133.52 343.217 1132.06C345.222 1126.49 336.775 1128.04 340.745 1127.81C343.169 1127.67 340.685 1123.33 339.855 1122.67C338.451 1121.55 333.336 1120.17 336.294 1119.75C342.042 1118.93 337.459 1109.12 333.178 1109.12C332.342 1109.12 331.843 1112.08 331.843 1111.24C331.843 1107.78 325.582 1104.4 322.942 1103.08C321.182 1102.2 318.331 1100.89 318.491 1103.78C318.664 1106.88 318.36 1104.19 315.821 1103.83C311.162 1103.16 309.167 1112.07 310.48 1115.35" stroke="#66A865" stroke-width="5" stroke-linecap="round"/>
<path d="M363.888 622.212C359.653 622.212 359.438 622.426 359.438 626.663C359.438 629.601 362.754 631.031 365.668 631.114C366.577 631.14 369.182 631.573 369.921 630.916C370.747 630.182 367.995 630.405 367.647 630.619C365.25 632.094 363.534 636.055 363.048 638.729C362.283 642.934 369.049 640.019 370.614 639.125C373.134 637.685 370.119 636.386 370.119 638.729C370.119 641.546 369.694 643.576 373.185 643.576C377.227 643.576 379.339 629.487 379.911 633.488C380.382 636.785 383.247 636.976 386.339 636.257C390.765 635.228 390.098 631.888 390.098 628.641C390.098 625.807 388.781 623.206 385.252 623.103C384.314 623.075 382.442 622.748 381.691 623.498C380.911 624.278 380.801 626.558 380.801 626.465C380.801 620.009 380.59 614.217 375.509 609.454C372.259 606.407 374.997 612.967 372.641 613.262C369.334 613.675 363.877 611.638 362.998 616.031C362.685 617.598 362.108 625.759 362.108 620.432" stroke="#66A865" stroke-width="5" stroke-linecap="round"/>
<path d="M286.448 395.227C286.448 397.032 286.063 399.045 287.536 400.37C288.775 401.486 292.996 401.458 289.514 401.458C282.611 401.458 284.309 406.464 290.008 406.799C291.005 406.858 290.713 421.585 291.096 423.316C291.295 424.212 298.595 439.739 299.8 436.124C300.432 434.229 300.053 431.222 302.025 430.784C305.864 429.93 308.713 425.287 309.394 421.734C309.548 420.928 309.057 412.641 310.482 413.228C311.882 413.805 314.932 414.966 314.932 412.536C314.932 408.703 315.433 410.189 317.108 408.036C320.29 403.945 314.438 399.28 314.438 395.623C314.438 394.391 316.343 394.442 315.427 392.557C314.497 390.642 312.166 388.665 310.482 387.414C306.51 384.463 307.317 388.584 308.108 388.057C308.205 387.992 302.695 386.419 302.025 386.375C299.742 386.228 296.329 385.743 294.113 386.425C290.81 387.441 291.789 394.828 291.789 397.008" stroke="#66A865" stroke-width="5" stroke-linecap="round"/>
<path d="M78.1533 379.201C75.1771 379.201 76.2073 385.667 76.3731 387.905C76.6071 391.065 83.1161 390.018 82.4557 387.707C81.519 384.428 78.1533 390.762 78.1533 392.059C78.1533 394.948 78.1069 397.227 80.1314 399.477C82.2219 401.799 87.1062 400.564 89.9229 400.564C93.6242 400.564 99.5167 402.552 99.5167 397.894C99.5167 395.029 100.375 395.576 101.198 392.899C101.589 391.628 101.297 382.397 101.297 388.103C101.297 389.46 102.697 393.428 104.857 391.267C108.114 388.011 110 378.211 107.874 373.959C106.99 372.191 101.857 370.657 101.346 373.465C100.497 378.136 102.209 378.333 97.9342 374.058C96.4241 372.548 88.9096 366.425 86.3624 368.717C84.1907 370.672 88.3616 370.381 83.8403 367.629C81.2391 366.046 75.1573 363.884 74.6422 368.519C74.3736 370.937 75.5559 373.836 72.8125 374.75" stroke="#66A865" stroke-width="5" stroke-linecap="round"/>
<path d="M242.829 258.148C241.578 258.148 237.857 257.373 239.664 258.742C241.186 259.895 242.673 261.074 244.213 262.204C245.29 262.993 248.843 263.957 247.576 264.379C245.221 265.165 243.371 263.296 241.939 266.16C240.273 269.491 241.127 272.415 244.164 274.517C245.336 275.328 248.092 275.326 249.505 275.012C250.494 274.792 250.398 274.002 251.038 273.479C252.132 272.584 256.035 273.281 257.269 273.281C260.83 273.281 268.08 273.581 270.225 269.72C271.282 267.817 268.84 266.259 270.027 267.446C272.058 269.476 273.093 266.893 273.093 265.22C273.093 260.877 271.128 258.755 268.297 255.923C265.674 253.3 263.389 246.672 261.472 243.461C261.338 243.236 251.546 228.887 250.148 232.928C248.887 236.57 252.737 246.729 247.23 247.417C244.517 247.757 241.607 247.467 238.872 247.467C234.568 247.467 231.256 255.479 229.477 258.148" stroke="#66A865" stroke-width="5" stroke-linecap="round"/>
<path d="M176.96 82.7869C176.716 80.8376 175.18 82.3588 175.18 83.7265C175.18 87.4174 176.311 89.0653 180.026 90.3036C181.107 90.664 185.136 91.685 184.872 91.7377C181.431 92.426 180.521 95.2813 180.521 98.3643C180.521 100.139 179.377 106.821 181.856 106.821C183.879 106.821 183.916 105.04 186.01 105.04C190.182 105.04 200.002 108.868 203.17 106.277C204.194 105.439 204.857 100.112 205.049 100.194C210.837 102.675 213.396 95.2325 209.895 90.7981C208.495 89.0244 211.221 92.0447 210.587 89.5124C209.457 84.9887 206.765 78.5107 202.972 75.6658C202.59 75.3793 201.315 74.3171 201.043 75.2701C200.88 75.841 201.413 77.4702 200.994 77.0504C197.873 73.9295 195.116 72.2318 190.114 72.1052C186.821 72.0218 179.444 70.5447 178.048 74.5778C177.575 75.9437 177.527 77.7294 178.74 78.3362" stroke="#66A865" stroke-width="5" stroke-linecap="round"/>
<path d="M170.813 838.607C171.483 838.607 170.46 842.109 170.875 843.563C171.736 846.576 180.561 839.565 176.636 839.722C171.977 839.908 169.672 849.458 171.433 852.979C173.044 856.203 180.326 855.454 180.787 857.068C184.241 869.159 190.816 839.733 192.061 849.696C192.556 853.651 197.4 855.99 200.92 855.085C206.296 853.703 207.546 846.526 207.611 841.952C207.667 837.924 208.339 832.956 207.115 829.067C206.888 828.344 203.687 822.44 203.212 825.288C202.273 830.921 206.562 826.109 201.787 824.111C197.486 822.31 187.545 822.596 188.716 829.624C189.148 832.213 189.822 827.393 189.522 826.341C188.638 823.25 185.71 823.241 183.141 822.438C179.596 821.33 180.472 826.56 184.194 826.341C188.037 826.115 180.165 820.766 177.565 820.766C172.478 820.766 176.025 828.204 173.911 830.554C173.01 831.554 168.102 833.349 171.928 835.262" stroke="#66A865" stroke-width="5" stroke-linecap="round"/>
<path d="M345.882 983.566C344.287 983.566 336.267 982.529 337.023 985.177C337.596 987.181 343.442 988.026 345.324 988.026C348.59 988.026 340.361 994.473 339.129 995.894C335.719 999.829 327.941 1013.45 333.12 1018.63C334.788 1020.3 337.564 1018.7 339.191 1017.89C344.631 1015.17 351.097 1014.82 357.033 1013.92C361.228 1013.29 362.608 1013.72 362.608 1009.21C362.608 1007.93 364.109 1010.63 364.838 1011.19C366.882 1012.77 369.733 1014.69 372.396 1014.79C375.266 1014.89 371.988 1011.9 374.316 1011.38C378.734 1010.4 379.334 1005.18 379.334 1001.47C379.334 994.549 379.917 987.743 377.042 981.274C374.286 975.072 371.177 977.115 370.29 970.681C369.708 966.466 363.322 953.04 357.528 955.937C356.41 956.496 357.63 958.179 356.537 958.786C354.464 959.938 351.665 959.749 349.475 960.645C342.698 963.417 343.156 968.231 342.289 974.397C341.558 979.593 339.191 985.018 339.191 990.256" stroke="#66A865" stroke-width="5" stroke-linecap="round"/>
<path d="M363.15 809.825C360.125 809.825 359.135 810.146 359.524 813.451C359.797 815.771 366.912 815.207 368.388 815.264C368.921 815.284 361.99 819.284 360.833 820.904C360.098 821.934 358.236 827.491 361.337 825.941C364.057 824.58 364.963 822.566 364.963 827.049C364.963 830.687 364.003 833.192 368.085 834.099C371.771 834.918 373.762 834.317 376.043 831.783C377.293 830.393 381.02 832.818 382.892 833.193C390.6 834.734 393.377 822.828 388.734 818.185C387.522 816.972 383.408 816.057 382.388 817.983C382.018 818.683 382.065 819.857 383.093 819.796C384.837 819.694 386.051 816.101 386.518 814.861C387.611 811.96 390.964 801.21 385.108 800.759C382 800.52 383.064 804.385 381.28 804.385C373.261 804.385 362.38 794.91 358.617 806.198" stroke="#66A865" stroke-width="5" stroke-linecap="round"/>
<path d="M161.9 1142.52C159.828 1142.29 157.209 1140.61 155.051 1141.81C153.84 1142.48 154.487 1149.2 154.698 1150.68C154.93 1152.29 158.778 1153.39 158.778 1153.39C158.778 1153.39 154.991 1155.57 154.698 1157.47C154.28 1160.2 157.94 1162.19 159.382 1159.74C161.181 1156.68 162.687 1160.26 164.721 1161.05C167.878 1162.28 172.695 1163.45 175.297 1160.85C177.131 1159.01 176.184 1159.47 177.311 1162.01C178.24 1164.1 182.313 1163.85 183.657 1162.31C185.167 1160.58 185.681 1152.69 187.283 1152.49C190.043 1152.14 186.97 1147.99 185.42 1147.5C182.971 1146.74 181.303 1147.95 181.643 1146.85C182.889 1142.8 178.903 1138.19 176.002 1135.82C175.538 1135.44 174.281 1135.07 174.793 1136.17C175.341 1137.34 175.875 1135.88 175.095 1135.47C170.338 1132.96 164.484 1134.28 161.044 1137.98C159.108 1140.07 155.555 1143.12 155.555 1146.14" stroke="#66A865" stroke-width="5" stroke-linecap="round"/>
</svg>
