<svg width="768" height="1024" viewBox="0 0 768 1024" fill="none" xmlns="http://www.w3.org/2000/svg">
<rect width="768" height="1024" fill="#FFF6F9"/>
<rect y="957" width="768" height="67" fill="#695C60"/>
<path d="M216.021 945.591C216.021 926.184 216.021 906.777 216.021 887.371C216.021 826.979 211.421 765.442 226.993 706.516C245.848 635.166 273.365 565.506 309.28 501.065C320.351 481.199 332.392 461.69 346.618 443.906" stroke="#66A865" stroke-width="5" stroke-linecap="round"/>
<path d="M335.47 458.24C335.47 469.469 332.285 435.935 332.285 424.706C332.285 397.257 341.711 383.006 363.784 367.282C378.619 356.715 395.303 348.038 411.918 340.561C421.1 336.429 431.369 334.552 440.408 330.032C445.812 327.33 444.224 332.699 442.974 337.199C439.853 348.434 440.585 360.536 440.585 372.06C440.585 391.369 435.601 403.67 421.827 418.07C409.234 431.236 396.56 445.215 380.065 453.462C376.046 455.472 338.656 470.248 338.656 459.833" stroke="#66A865" stroke-width="5" stroke-linecap="round"/>
<path d="M235.134 678.023C235.134 655.554 237.995 634.977 223.101 616.264C214.767 605.793 206.037 599.446 193.725 594.409C187.909 592.03 180.984 587.242 174.613 587.242" stroke="#66A865" stroke-width="5" stroke-linecap="round"/>
<path d="M206.465 603.174C191.099 603.174 175.733 603.174 160.367 603.174C146.263 603.174 130.518 605.885 122.851 591.141C111.927 570.132 113.618 546.095 107.721 523.895C105.829 516.774 103.073 509.869 100.642 502.926C99.4363 499.48 97.2228 495.837 101.704 498.767C117.256 508.936 139.324 506.823 156.208 513.986C176.111 522.429 189.759 532.598 200.094 552.121C205.774 562.848 211.243 570.041 211.243 582.469C211.243 589.371 211.243 596.272 211.243 603.174" stroke="#66A865" stroke-width="5" stroke-linecap="round"/>
<path d="M222.391 722.622C222.391 703.408 240.502 688.823 254.244 677.674C270.065 664.838 293.429 662.102 313.172 662.102" stroke="#66A865" stroke-width="5" stroke-linecap="round"/>
<path d="M276.543 671.653C276.543 653.862 273.342 634.622 288.399 621.927C308.968 604.584 342.149 608.335 367.324 611.132C380.02 612.543 392.419 612.725 405.193 612.725C414.699 612.725 419.191 611.493 427.49 608.301C433.401 606.027 430.857 611.508 428.641 615.202C424.761 621.667 423.529 629.821 420.677 636.791C409.838 663.288 391.869 685.532 366.704 700.143C359.336 704.422 351.657 703.506 343.434 703.506C330.736 703.506 317.47 704.626 304.856 703.152C293.966 701.879 289.284 695.322 289.284 685.19C289.284 679.002 286.438 671.653 279.728 671.653" stroke="#66A865" stroke-width="5" stroke-linecap="round"/>
<path d="M278.133 560.171C273.565 559.6 261.163 548.953 258.314 545.129C248.345 531.75 241.649 526.345 240.264 509.029C239.303 497.026 239.745 484.604 239.91 472.575C239.994 466.402 242.659 447.769 249.465 445.5" stroke="#66A865" stroke-width="5" stroke-linecap="round"/>
<path d="M235.134 485.311C224.674 485.311 219.629 477.038 216.907 467.703C212.834 453.74 216.082 434.173 219.561 420.631C224.756 400.41 233.473 382.936 244.336 365.331C250.722 354.98 262.388 343.946 272.384 337.283C274.75 335.706 273.357 340.961 273.357 343.211C273.357 355.095 277.192 365.155 281.32 376.214C290.259 400.157 299.37 423.083 301.671 448.68C302.246 455.072 303.526 464.254 300.432 470.269C298.224 474.563 292.717 476.388 289.195 479.205C275.672 490.024 259.529 502.13 243.097 507.608" stroke="#66A865" stroke-width="5" stroke-linecap="round"/>
<path d="M532.957 227.305C532.957 230.496 534.426 232.598 536.142 235.268C541.417 243.473 546.174 251.995 550.476 260.75C564.61 289.513 572.108 320.952 583.922 350.647C599.297 389.292 616.891 424.451 644.442 455.938C660.472 474.258 679.155 493.839 700.008 506.726C714.359 515.595 723.325 518.155 739.648 518.759C745.893 518.991 752.447 520.352 759.113 520.352" stroke="#66A865" stroke-width="5" stroke-linecap="round"/>
<path d="M566.405 291.01C566.405 273.421 567.292 255.569 566.317 238.01C564.999 214.282 562.927 187.258 542.869 171.562C527.18 159.283 498.733 158.82 479.871 158.82C474.028 158.82 472.525 158.832 477.217 164.306C481.966 169.846 482.64 179.912 483.588 186.78C487.794 217.278 494.458 253.277 523.315 269.509C532.29 274.558 542.33 278.753 550.833 284.64C554.532 287.201 563.247 302.051 564.813 295.788" stroke="#66A865" stroke-width="5" stroke-linecap="round"/>
<path d="M598.258 380.198C598.258 369.905 598.258 359.612 598.258 349.319C598.258 338.088 607.769 328.344 614.892 320.651C625.736 308.939 631.703 299.183 631.703 283.047" stroke="#66A865" stroke-width="5" stroke-linecap="round"/>
<path d="M615.775 321.274C615.775 318.046 613.874 317.341 612.943 314.55C611.331 309.714 610.997 302.96 610.997 297.915C610.997 281.386 608.728 261.414 620.641 248.012C634.502 232.419 651.377 220.088 664.262 203.595C665.043 202.596 671.88 193.251 671.164 195.809C669.511 201.71 669.925 207.564 669.925 213.682C669.925 233.243 679.13 250.696 679.481 270.31C679.661 280.417 681.666 290.514 671.164 294.553C660.502 298.654 651.951 306.67 640.903 310.48C632.85 313.257 626.831 320.243 618.96 322.867" stroke="#66A865" stroke-width="5" stroke-linecap="round"/>
<path d="M588.702 373.828C574.42 372.241 561.819 360.895 548.886 373.828C546.138 376.576 524.996 396.927 524.996 389.755" stroke="#66A865" stroke-width="5" stroke-linecap="round"/>
<path d="M532.961 378.607C518.803 378.607 503.262 371.696 489.163 376.395C471.949 382.133 456.462 395.856 450.143 412.584C445.068 426.016 442.18 444.461 442.18 458.947C442.18 470.166 443.409 458.603 448.904 453.108C459.943 442.069 479.944 446.65 493.941 443.021C504.474 440.29 521.194 439.36 528.183 429.926C538.922 415.428 540.924 399.441 540.924 381.792" stroke="#66A865" stroke-width="5" stroke-linecap="round"/>
<path d="M650.815 456.645C650.815 444.335 648.765 433.213 657.982 423.995C667.023 414.954 668.335 406.47 668.335 394.531" stroke="#66A865" stroke-width="5" stroke-linecap="round"/>
<path d="M661.961 421.612C640.266 421.612 641.257 390.376 641.257 375.336C641.257 366.457 650.128 357.171 654.264 349.589C659.327 340.306 665.737 330.598 673.995 323.841C676.712 321.617 690.629 315.245 690.629 318.974C690.629 325.723 694.95 330.136 697.354 336.317C701.808 347.77 704.97 359.172 708.148 371.001C709.764 377.015 716.598 399.973 708.148 404.447C693.549 412.176 672.916 412.25 660.369 424.797" stroke="#66A865" stroke-width="5" stroke-linecap="round"/>
<path d="M660.371 469.387C643.774 469.387 625.55 466.32 610.734 475.315C601.274 481.059 593.575 489.494 584.897 496.285C583.686 497.233 577.744 501.24 579.146 501.24" stroke="#66A865" stroke-width="5" stroke-linecap="round"/>
<path d="M590.293 488.497C575.765 488.497 558.426 485.934 544.106 488.851C523.901 492.966 509.74 526.436 501.989 542.558C495.559 555.932 488.363 584.94 488.363 584.94C488.363 584.94 492.204 579.14 494.734 576.8C504.379 567.878 520.44 564.34 533.046 562.643C548.358 560.582 564.408 561.759 579.852 561.759C595.433 561.759 610.997 540.71 610.997 526.012C610.997 510.06 604.721 498.334 599.849 483.719" stroke="#66A865" stroke-width="5" stroke-linecap="round"/>
<path d="M188.947 7.52344C188.947 53.9776 190.05 99.8615 172.136 143.606C165.045 160.921 157.905 178.403 145.945 192.979C143.01 196.556 139.278 203.518 134.797 205.012" stroke="#66A865" stroke-width="5" stroke-linecap="round"/>
<path d="M147.538 184.301C139.719 184.301 125.979 180.917 121.348 188.195C114.039 199.679 109.208 217.173 106.129 230.134C101.313 250.412 99.5395 271.697 101.44 292.602C101.9 297.661 104.537 302.713 104.537 307.732C104.537 313.883 110.407 302.218 111.173 301.184C119.018 290.593 132.458 285.342 143.999 279.86C148.991 277.489 159.382 272.239 162.226 267.119C168.466 255.887 168.243 239.989 168.243 227.48C168.243 217.551 168.316 207.675 164.703 198.281C161.832 190.816 157.721 190.672 150.724 190.672" stroke="#66A865" stroke-width="5" stroke-linecap="round"/>
<path d="M190.539 74.4141C190.539 85.3907 188.593 95.4577 195.317 104.32C201.733 112.778 217.775 120.601 228.762 120.601" stroke="#66A865" stroke-width="5" stroke-linecap="round"/>
<path d="M212.836 115.82C212.836 130.489 215.855 141.193 223.631 153.69C231.728 166.703 245.253 171.424 258.934 176.253C268.642 179.679 321.136 186.745 321.136 171.563" stroke="#66A865" stroke-width="5" stroke-linecap="round"/>
<path d="M219.207 115.821C234.451 115.821 249.808 115.257 265.04 115.821C269.807 115.998 273.811 119.703 277.516 122.28C283.953 126.758 291.172 129.764 296.893 135.287C303.405 141.574 307.223 149.026 313.173 155.637C316.26 159.067 318.766 166.397 322.729 168.378" stroke="#66A865" stroke-width="5" stroke-linecap="round"/>
<path d="M184.169 61.6719C180.575 62.3907 178.577 66.6524 176.56 69.2812C170.806 76.7792 164.158 84.213 156.917 90.3396C146.412 99.2284 133.922 104.002 121.525 109.363C114.915 112.221 105.926 115.822 98.5201 115.822C95.3515 115.822 96.5735 110.097 96.5735 107.859" stroke="#66A865" stroke-width="5" stroke-linecap="round"/>
<path d="M125.241 103.082C107.801 103.082 101.148 88.9496 88.6102 79.5465C82.7011 75.1147 69.0883 69.3994 61.5352 73.1759C47.7913 80.0478 41.275 105.683 37.9993 118.301C35.8023 126.764 34.4601 134.541 34.4601 143.252C34.4601 146.084 32.458 153.749 34.4601 151.747C37.8985 148.308 37.9033 145.04 43.6621 143.252C50.3955 141.163 60.3161 142.899 67.1979 142.899C83.6393 142.899 98.4582 144.372 113.739 138.121C124.074 133.892 125.241 128.158 125.241 117.77C125.241 113.25 124.609 106.748 120.463 104.675" stroke="#66A865" stroke-width="5" stroke-linecap="round"/>
<path d="M216.558 857.642C211.634 838.841 187.644 827.924 170.726 822.387C157.393 818.023 144.049 818.861 130.184 818.861" stroke="#66A865" stroke-width="5" stroke-linecap="round"/>
<path d="M191.879 825.914C191.879 819.376 185.571 810.072 182.086 804.761C175.14 794.177 166.426 783.039 154.861 777.341C142.441 771.221 117.069 766.761 103.35 771.661C88.8336 776.845 80.8926 794.53 64.9617 799.081C60.2543 800.426 32.0621 806.925 35.387 813.575C37.7526 818.306 43.922 823.728 47.4323 827.677C54.4807 835.606 61.3618 843.467 68.8789 850.984C81.1409 863.246 96.0452 878.495 114.71 878.796C141.829 879.233 161.948 868.91 185.807 857.643C192.988 854.252 193.641 849.171 193.641 841.779" stroke="#66A865" stroke-width="5" stroke-linecap="round"/>
<path d="M218.32 901.715C218.32 891.032 220.466 881.264 224.392 871.161C228.849 859.691 235.855 850.36 242.705 840.313C246.047 835.411 248.813 829.161 255.24 827.876C263.742 826.176 273.101 828.004 281.779 826.799C290.547 825.581 299.387 825.918 308.22 825.918" stroke="#66A865" stroke-width="5" stroke-linecap="round"/>
<path d="M255.335 838.256C255.335 819.373 261.106 808.756 274.725 794.285C283.243 785.235 290.267 781.848 302.537 781.848C321.71 781.848 340.958 781.357 360.12 781.946C390.777 782.89 421.115 790.662 451.782 790.662C459.598 790.662 445.43 815.202 443.752 818.278C435.912 832.651 428.745 847.967 417.898 860.388C408.745 870.87 395.683 875.643 383.035 880.561C353.097 892.204 319.839 891.467 288.239 891.138C257.102 890.814 250.047 863.336 250.047 838.256" stroke="#66A865" stroke-width="5" stroke-linecap="round"/>
<path d="M613.172 936.967C612.576 932.198 604.924 926.572 602.204 922.669C592.958 909.403 586.597 893.512 580.561 878.601C569.103 850.292 565.861 810.846 573.021 781.063C576.106 768.228 579.569 750.228 589.375 740.422C594.412 735.385 604.358 723.715 604.358 716.625" stroke="#66A865" stroke-width="5" stroke-linecap="round"/>
<path d="M581.441 743.064C581.441 723.746 581.847 698.589 596.522 683.914C609.019 671.417 623.381 665.969 638.631 658.061C645.71 654.391 652.14 649.354 659.001 645.722C662.287 643.982 660.764 655.184 660.764 657.082C660.764 672.498 662.188 687.942 663.408 703.305C664.051 711.415 667.006 725.354 663.408 733.271C659.639 741.562 642.054 747.441 635.106 752.074C625.079 758.758 610.088 772.543 596.913 773.03C591.959 773.214 576.152 778.299 576.152 771.268" stroke="#66A865" stroke-width="5" stroke-linecap="round"/>
<path d="M565.578 843.545C545.703 843.545 532.782 831.037 522.391 815.145C511.921 799.132 510.934 784.545 510.934 765.984" stroke="#66A865" stroke-width="5" stroke-linecap="round"/>
<path d="M519.747 813.573C510.687 813.573 499.154 815.527 491.544 809.656C483.29 803.289 480.967 791.134 480.967 781.452C480.967 767.654 478.183 741.696 488.41 730.333C498.459 719.168 508.925 707.384 517.005 694.687C519.006 691.543 518.584 694.539 519.356 697.625C521.123 704.694 526.388 710.819 530.52 716.721C542.229 733.448 555.048 748.704 559.311 769.407C561.925 782.105 560.855 797.308 553.239 808.187C550.613 811.939 544.426 826.963 544.426 817.099" stroke="#66A865" stroke-width="5" stroke-linecap="round"/>
<path d="M595.543 903.474C614.221 903.474 623.747 868.706 623.747 854.117" stroke="#66A865" stroke-width="5" stroke-linecap="round"/>
<path d="M618.46 884.084C603.177 884.084 609.647 840.221 609.647 831.104C609.647 795.641 637.109 774.664 667.817 763.826C670.987 762.707 668.021 772.174 667.915 773.815C667.182 785.17 667.494 796.931 667.915 808.286C668.372 820.623 669.579 832.728 669.579 845.108C669.579 852.184 671.22 861.483 668.6 868.219C664.972 877.549 657.536 878.102 649.798 882.713C640.161 888.454 629.774 892.792 620.223 898.577C615.566 901.397 611.762 905.236 606.121 905.236" stroke="#66A865" stroke-width="5" stroke-linecap="round"/>
<path d="M391.065 198.383C391.065 205.903 392.518 214.781 389.89 221.886C385.806 232.929 377.247 242.168 369.031 250.383C364.495 254.92 358.842 260.078 352.285 260.078" stroke="#66A865" stroke-width="5" stroke-linecap="round"/>
<path d="M368.152 242.453C355.114 242.453 339.226 239.707 326.826 244.216C316.601 247.934 316.23 261.461 312.528 269.874C307.089 282.237 306.457 292.575 306.457 305.814C306.457 308.391 305.587 312.991 306.555 315.411C306.872 316.205 311.205 313.217 311.745 312.963C315.335 311.267 319.346 311.033 323.203 310.319C336.81 307.799 352.348 308.724 365.998 307.674C374.868 306.992 373.7 294.79 375.987 288.872C379.017 281.03 394.284 244.216 375.203 244.216" stroke="#66A865" stroke-width="5" stroke-linecap="round"/>
<path d="M64.9612 603.812C64.9612 616.689 60.6923 636.025 73.1873 644.355C79.9422 648.859 87.4274 652.482 94.8298 655.813C98.9026 657.646 102.937 661.983 107.267 661.983" stroke="#66A865" stroke-width="5" stroke-linecap="round"/>
<path d="M89.6387 653.164C89.6387 675.878 97.7542 698.116 121.368 704.675C139.42 709.689 162.233 711.549 177.775 721.911" stroke="#66A865" stroke-width="5" stroke-linecap="round"/>
<path d="M94.9277 653.166C103.993 653.166 111.972 648.33 120.585 646.115C128.451 644.092 136.587 644.041 144.676 644.352C158.628 644.889 166.227 664.056 170.725 674.71C175.886 686.932 180.881 699.371 186.198 711.336C187.761 714.852 187.101 730.1 184.827 728.963" stroke="#66A865" stroke-width="5" stroke-linecap="round"/>
<path d="M66.7237 358.789C66.7237 379.976 64.9609 401.019 64.9609 422.247" stroke="#66A865" stroke-width="5" stroke-linecap="round"/>
<path d="M63.198 388.758C52.0568 388.758 48.7394 379.189 46.3541 369.367C42.0195 351.519 42.9418 329.612 43.9059 311.295C44.2789 304.207 47.5551 291.277 53.503 286.519C58.7475 282.323 56.6654 279.583 59.2808 290.044C65.8076 316.151 89.639 334.618 89.639 362.316C89.639 371.351 86.039 374.106 81.8046 381.804C80.2609 384.611 72.0117 402.358 72.0117 397.571" stroke="#66A865" stroke-width="5" stroke-linecap="round"/>
<path d="M179.54 318.25C179.54 342.939 177.777 367.543 177.777 392.285" stroke="#66A865" stroke-width="5" stroke-linecap="round"/>
<path d="M177.778 360.554C169.451 361.479 164.767 376.447 161.913 382.49C155.617 395.823 150.628 410.881 151.337 425.775C151.648 432.307 160.891 450.453 168.964 450.453C172.729 450.453 174.78 445.459 177.778 443.794C181.717 441.606 185.811 440.681 190.117 439.485C213.577 432.968 205.733 398.053 197.56 381.707C194.667 375.922 188.307 374.297 183.066 371.522C176.291 367.935 183.022 357.888 177.778 355.266" stroke="#66A865" stroke-width="5" stroke-linecap="round"/>
</svg>
