<svg width="768" height="1024" viewBox="0 0 768 1024" fill="none" xmlns="http://www.w3.org/2000/svg">
<rect width="768" height="1024" fill="#FFF6F9"/>
<rect y="957" width="768" height="67" fill="#695C60"/>
<path d="M98.3235 697.586C98.3235 751.586 98.3235 805.586 98.3235 859.586C98.3235 876.274 96.2914 892.784 96.2914 909.372C96.2914 917.688 96.2914 926.004 96.2914 934.321C96.2914 937.699 98.1424 954.224 95.2754 955.658" stroke="#D37995" stroke-width="5" stroke-linecap="round"/>
<path d="M122.709 689.453C122.709 759.183 122.709 828.913 122.709 898.642C122.709 911.895 123.725 925.034 123.725 938.268C123.725 940.576 124.916 949.469 122.709 950.573" stroke="#D37995" stroke-width="5" stroke-linecap="round"/>
<path d="M84.0986 788.006C77.2618 788.006 65.1358 790.775 60.3912 784.901C50.0249 772.067 81.1201 771.749 86.3564 771.749C91.4977 771.749 97.5824 771.151 99.7906 776.829C101.521 781.279 96.124 782.925 92.7348 783.941C73.5326 789.702 41.5382 785.698 41.5382 759.613C41.5382 749.405 55.6306 747.91 63.27 747.026C71.1684 746.111 84.8416 743.837 91.4366 749.905C96.3785 754.451 88.4811 757.537 84.8324 758.936C69.6967 764.738 50.9297 760.596 39.8448 748.832C27.6458 735.886 22.6774 715.426 25.5075 697.974C27.4421 686.044 43.3353 685.807 52.0936 689.902C64.354 695.634 79.2867 717.366 57.1173 719.311C45.9209 720.293 38.7931 711.867 36.2323 701.53C31.7092 683.273 34.0403 663.57 49.7793 651.745C57.6615 645.822 78.735 638.364 87.4853 646.777C91.5343 650.671 90.272 655.994 85.4533 658.18C75.5216 662.685 61.3297 662.469 52.4887 655.696C41.5056 647.281 41.3361 630.025 48.7633 619.232C59.3306 603.875 78.8684 595.296 96.2909 605.007C106.586 610.746 110.33 624.942 104.532 635.15C98.8251 645.197 83.6829 651.19 73.0351 645.536C56.654 636.836 50.8791 613.248 54.5208 596.202C59.7923 571.527 94.6252 574.544 111.757 582.881C126.471 590.04 141.514 606.822 141.899 624.086C142.24 639.307 122.619 649.759 109.951 652.422C106.114 653.229 98.9494 654.58 95.7265 651.18C90.9067 646.096 92.0433 633.631 93.1299 627.586C95.2178 615.972 104.692 605.665 113.112 598.008C122.104 589.83 133.692 587.229 145.512 586.154C164.028 584.471 181.514 592.875 181.976 613.474C182.349 630.128 169.422 645.04 156.124 653.551C152.088 656.134 132.158 667.054 127.506 660.212C117.662 645.736 155.277 641.864 160.244 641.641C182.869 640.623 205.883 648.256 211.102 672.912C215.623 694.27 204.544 712.094 185.081 720.665C176.406 724.486 159.235 730.415 151.89 720.835C143.04 709.291 170.164 712.844 174.13 713.835C188.125 717.334 200.828 733.487 201.845 747.872C203.146 766.274 184.299 776.268 169.163 780.16C165.448 781.115 146.213 786.868 144.891 779.2C142.554 765.646 177.02 771.378 182.089 772.822C200.538 778.074 216.387 799.143 209.24 818.712C201.425 840.109 169.621 843.32 150.761 838.525C133.967 834.255 120.392 817.306 123.329 799.521C125.277 787.719 134.293 772.071 148.334 773.217C160.851 774.239 157.377 796.966 153.245 803.528C145.918 815.166 129.132 821.962 115.821 817.583C96.4402 811.208 98.0987 778.853 100.919 763.339C102.949 752.176 118.026 714.826 135.521 727.947C150.677 739.314 140.072 765.57 129.594 775.926C119.666 785.739 100.512 791.962 91.4366 777.676C83.1444 764.624 80.7392 743.386 92.509 731.616C97.4202 726.705 104.689 724.549 111.531 725.689C121.589 727.365 125.807 736.02 128.352 744.994C131.501 756.093 134.65 782.061 115.37 779.595C98.0157 777.375 86.6691 749.051 84.2679 734.043C83.2859 727.906 81.8437 719.016 88.0498 714.964C96.2045 709.641 110.08 712.399 118.7 714.456C128.203 716.724 162.769 728.992 158.269 744.994C156.139 752.568 143.162 752.125 137.44 752.049C125.656 751.894 113.848 749.755 103.121 744.768C95.9483 741.433 81.2763 733.968 81.2763 724.391C81.2763 715.75 90.2489 710.657 98.2665 712.199C108.703 714.206 109.662 731.468 103.968 738.277C91.7783 752.851 72.3636 733.642 66.0358 723.488C53.8953 704.006 51.4662 682.829 53.279 660.325C54.6237 643.632 60.861 621.77 77.7766 614.152C82.4875 612.03 90.7493 610.282 92.2268 616.974C94.0594 625.274 87.6857 629.304 80.0344 630.069C64.8965 631.583 59.5835 611.022 58.3591 599.814C56.3307 581.246 61.7266 562.867 82.2923 558.722C106.988 553.743 124.122 578.3 131.626 598.46C139.26 618.969 143.891 641.986 129.82 660.55C127.737 663.298 114.788 676.652 109.951 670.033C107.229 666.309 108.508 657.515 109.386 653.551C111.67 643.251 119.437 635.428 128.352 630.295C144.738 620.861 172.51 617.417 187.621 631.424C198.487 641.498 206.027 661.463 197.442 675.339C194.622 679.898 180.13 690.088 174.751 684.709C162.919 672.878 191.106 661.914 198.007 661.115C230.978 657.295 264.96 684.234 276.354 714.061C289.775 749.195 266.719 783.127 233.794 795.118C226.317 797.841 218.414 798.921 210.538 799.577C205.942 799.96 198.391 801.418 194.281 798.335C190.758 795.692 192.365 790.491 194.394 787.498C199.211 780.393 208.384 778.143 216.295 776.66C235.204 773.114 255.749 779.167 257.106 801.553C258.014 816.537 247.757 827.328 237.293 836.662C225.447 847.23 213.68 853.294 198.176 856.362C178.8 860.196 155.954 863.64 153.697 837.904C152.213 820.994 162.313 804.696 180.113 803.303C199.217 801.807 210.329 821.915 208.167 838.92C204.9 864.62 170.084 866.886 149.971 862.119C131.042 857.633 108.769 843.91 103.29 824.075C99.7559 811.278 103.201 795.422 118.756 793.989C140.851 791.954 139.171 822.794 137.271 836.662C133.405 864.882 112.413 888.625 82.6874 888.875C39.3553 889.239 46.9646 825.557 64.0602 801.496C65.0241 800.14 68.3526 794.299 68.8017 799.238C69.226 803.906 67.717 806.913 62.4797 807.141C33.7498 808.39 20.6756 763.014 32.3939 741.946C36.532 734.506 45.5257 727.33 54.4079 727.044C58.1832 726.922 53.2603 733.946 52.0372 734.721C43.4813 740.139 27.4321 739.684 21.1047 731.334C5.88379 711.247 14.3432 679.663 27.2009 661.002C37.9586 645.389 56.7764 629.065 76.7606 628.489C81.9701 628.339 86.8037 629.987 84.8888 636.279C82.7122 643.43 66.0166 641.901 60.7299 641.02C49.5528 639.157 40.3719 631.248 43.5703 618.893C50.4062 592.488 86.408 577.865 109.838 572.382C116.514 570.819 137.659 565.546 139.077 576.671C140.207 585.54 130.587 591.984 123.159 593.944C116.736 595.639 115.107 588.838 120.676 585.59C130.223 580.021 144.825 579.815 155.446 580.397C169.532 581.169 182.492 588.119 193.378 596.766C204.951 605.959 211.135 620.232 215.053 634.134C218.686 647.022 218.722 657.833 210.651 668.904C196.781 687.929 176.311 705.879 151.608 705.707C144.906 705.661 135.687 699.518 145.512 694.531C157.375 688.509 180.003 688.064 189.766 698.369C204.521 713.944 185.078 732.64 172.267 742.51C161.989 750.429 149.251 755.032 137.045 758.992C128.945 761.621 120.056 764.203 111.418 763.169C97.9866 761.561 106.473 749.485 114.467 746.574C125.363 742.606 144.414 739.281 149.463 753.009C154.179 765.831 152.34 778.415 138.174 783.377C130.048 786.223 110.937 782.676 117.402 769.491C123.997 756.041 148.674 751.88 160.978 750.074C184.986 746.55 219.477 744.881 235.487 767.798C250.761 789.662 238.742 815.255 214.602 822.438C206.789 824.762 191.028 821.082 198.797 809.907C207.576 797.278 228.404 789.945 242.035 785.07C254.975 780.443 269.977 777.217 283.805 779.2C291.5 780.304 294.095 784.947 285.95 788.344C276.179 792.42 263.774 792.968 253.437 791.505C233.54 788.69 217.907 773.309 221.037 752.106C223.886 732.804 245.302 717.818 264.049 716.771C283.386 715.69 279.926 748.589 280.192 760.573" stroke="#D37995" stroke-width="5" stroke-linecap="round"/>
<path d="M461.047 562.453C461.047 669.418 461.047 776.384 461.047 883.349C461.047 897.713 463.079 911.958 463.079 926.192C463.079 931.93 463.079 937.669 463.079 943.408C463.079 944.976 463.079 954.037 463.079 948.544" stroke="#D37995" stroke-width="5" stroke-linecap="round"/>
<path d="M487.463 558.383C487.463 648.64 487.463 738.897 487.463 829.155C487.463 854.236 489.495 879.281 489.495 904.397C489.495 914.161 488.479 923.813 488.479 933.524C488.479 939.267 490.456 944.474 483.398 944.474" stroke="#D37995" stroke-width="5" stroke-linecap="round"/>
<path d="M459.015 749.396C449.231 749.396 439.447 749.396 429.663 749.396C425.579 749.396 414.309 751.668 414.309 744.824C414.309 738.281 416.966 731.577 424.921 736.64C429.221 739.376 424.912 742.067 421.76 742.51C408.837 744.327 393.9 744.488 380.893 743.187C376.991 742.797 368.794 740.213 366.782 736.188C365.898 734.42 366.556 730.903 366.556 728.963C366.556 719.692 365.802 707.024 370.62 698.764C374.993 691.267 389.785 694.448 397.037 694.531C401.756 694.584 406.14 695.405 405.109 701.079C404.269 705.699 397.359 704.791 394.215 704.691C382.362 704.315 372.753 693.886 368.701 683.467C366.644 678.178 365.506 664.3 368.024 658.97C369.948 654.894 374.629 655.917 378.353 655.414C385.508 654.447 392.873 654.906 400.085 654.906" stroke="#D37995" stroke-width="5" stroke-linecap="round"/>
<path d="M473.238 745.338C484.675 745.338 496.123 745.522 507.558 745.338C512.015 745.266 521.3 739.54 515.347 734.669C511.118 731.209 505.898 733.895 511.283 738.451C523.096 748.447 544.801 754.598 554.351 739.016C561.19 727.857 561.935 713.073 561.576 700.35C561.399 694.048 560.947 684.83 554.013 682.005C551.079 680.81 546.577 681.038 543.457 681.384C542.551 681.485 538.692 683.258 541.538 683.36C554.421 683.82 568.632 671.355 568.632 658.016C568.632 648.37 555.713 642.719 547.408 642.719" stroke="#D37995" stroke-width="5" stroke-linecap="round"/>
<path d="M416.341 652.877C409.403 652.877 412.205 638.127 412.277 633.572C412.553 616.07 420.692 601.676 440.049 602.075C443.698 602.151 457.368 608.561 451.677 614.042C448.328 617.267 440.934 617.924 436.662 618.219C427.605 618.844 420.601 617.02 413.406 611.22C402.269 602.24 393.015 585.279 395.23 570.578C397.13 557.972 416.503 554.211 426.276 559.402C431.758 562.314 432.907 566.735 432.598 572.61C432.524 574.018 431.156 575.274 430.001 573.909C426.949 570.301 426.558 564.678 426.502 560.192C426.442 555.405 425.744 551.444 430.34 548.734C437.045 544.78 445.481 541.407 453.144 540.098C457.584 539.339 467.192 537.134 471.094 540.436C475.074 543.804 476.217 550.447 476.287 555.338C476.294 555.798 476.626 562.539 475.723 562.281C473.558 561.662 474.167 555.876 474.255 554.322C475.06 540.108 506.359 542.218 514.67 544.049C528.298 547.05 536.249 559.227 539.45 572.159C541.86 581.895 544.313 595.759 540.523 605.462C538.401 610.893 535.429 607.968 543.571 608.172C558.646 608.548 572.497 626.718 571.794 641.475C571.397 649.801 558.209 648.813 552.489 648.813" stroke="#D37995" stroke-width="5" stroke-linecap="round"/>
<path d="M439.71 543.143C433.507 543.143 430.65 536.899 430.565 531.29C430.371 518.47 431.51 504.845 443.153 496.801C447.775 493.607 458.472 489.553 463.078 494.543C464.266 495.83 469.788 503.697 466.126 505.324C460.735 507.72 452.167 489.823 450.886 486.584C448.059 479.436 442.466 461.117 450.039 454.805C457.136 448.891 475.219 450.638 483.06 453.846C488.553 456.093 491.687 460.636 491.527 466.377C491.372 471.949 487.531 469.342 492.995 467.957C510.367 463.553 526.181 476.956 532.789 492.116C537.506 502.936 535.981 514.249 526.637 521.637C521.618 525.606 515.186 528.163 511.058 533.209C510.623 533.741 523.344 543.558 523.984 547.715C525.719 558.996 520.162 559.189 511.848 564.48" stroke="#D37995" stroke-width="5" stroke-linecap="round"/>
<path d="M286.243 763.836C286.243 787.566 287.215 811.537 285.735 835.222C284.252 858.947 281.549 882.767 281.16 906.495C280.927 920.704 279.127 934.499 279.127 948.852" stroke="#66A865" stroke-width="5" stroke-linecap="round"/>
<path d="M304.542 760.789C304.542 822.856 303.525 884.779 303.525 946.822" stroke="#66A865" stroke-width="5" stroke-linecap="round"/>
<path d="M265.912 863.462C250.268 863.462 234.624 863.462 218.98 863.462C208.982 863.462 198.818 865.045 198.818 852.788C198.818 842.27 211.103 841.245 219.489 841.098C226.198 840.98 232.547 840.447 232.365 848.44C232.205 855.483 222.366 856.792 216.665 856.064C209.592 855.161 206.292 848.922 204.466 842.736C200.613 829.684 200.015 814.514 206.669 802.242C213.21 790.177 234.595 779.514 246.145 791.963C254.915 801.415 256.051 822.019 245.355 830.48C230.377 842.328 216.375 816.986 214.349 805.744C210.499 784.376 214.23 753.885 230.84 738.085C240.987 728.433 247.101 737.117 244.903 748.816C243.171 758.034 230.916 777.169 219.15 768.018C213.688 763.77 212.331 755.462 211.695 749.098C210.289 735.04 211.362 721.485 217.681 708.717C221.213 701.583 236.907 678.213 242.418 697.196C246.638 711.733 237.719 728.449 221.804 729.614C215.694 730.061 214.488 724.335 214.18 719.335C213.443 707.354 218.091 696.551 224.854 686.861C233.77 674.086 261.044 650.944 267.832 677.317C270.987 689.573 269.914 703.455 265.912 715.382C265.393 716.93 262.484 727.013 259.587 726.79C256.89 726.582 257.361 717.624 257.271 716.285C256.575 705.84 257.758 696.531 264.048 687.821C272.845 675.641 294.387 668.261 303.921 684.15C312.099 697.781 302.102 711.852 291.326 720.69C290.605 721.282 284.797 726.207 283.42 724.983C281.787 723.531 288.683 722.389 288.729 722.385C312.135 720.018 324.639 744.755 326.172 764.855C326.786 772.902 325.279 800.42 310.754 798.345C309.034 798.1 309.552 795.529 309.851 794.335C311.255 788.718 318.983 787.628 323.744 787.445C353.417 786.304 352.49 831.908 344.527 851.038C341.972 857.176 337.864 865.368 331.029 867.698C322.632 870.561 324.806 854.779 325.043 850.642C325.625 840.449 328.057 829.7 337.58 824.211C345.269 819.781 352.571 824.342 356.048 831.779C359.496 839.153 360.593 849.888 358.081 857.702C355.835 864.689 347.513 873.359 339.331 871.708C328.341 869.491 329.896 848.997 329.956 841.211C330.039 830.523 331.567 817.948 339.331 809.81C353.823 794.619 364.979 818.917 357.291 831.497C353.692 837.385 343.694 842.376 337.072 838.5C324.298 831.022 325.276 805.168 325.099 792.867C324.885 778.011 328.377 764.847 335.434 751.809C338.887 745.43 344.828 736.167 353.168 735.77C360.059 735.441 361.575 745.666 361.639 750.566C361.76 759.739 355.276 765.393 346.673 767.114C316.332 773.182 316.73 725.023 318.209 706.458C318.925 697.479 320.402 685.884 329.73 681.609C338.828 677.439 341.583 690.415 342.268 696.632C344.573 717.537 330.724 760.507 302.452 756.158C290.653 754.342 284.376 742.575 281.895 732.099C279.393 721.535 276.758 707.118 282.46 697.14C287.369 688.549 306.492 680.053 304.881 696.857C303.017 716.293 267.918 729.933 252.584 717.98C238.591 707.072 237.891 675.063 247.614 661.56C249.605 658.794 256.385 651.772 260.377 655.009C270.4 663.135 267.845 684.334 266.533 694.937C264.728 709.529 260.688 723.085 250.438 734.019C245.794 738.972 236.004 746.71 228.525 743.394C222.619 740.776 220.175 732.152 219.602 726.338C218.563 715.801 223.726 707.93 232.365 702.279C244.119 694.591 252.308 698.968 258.796 711.089C266.283 725.077 267.229 741.078 267.945 756.609C269.194 783.706 269.385 811.403 266.251 838.387C263.396 862.967 256.067 889.888 241.063 910.112C239.437 912.303 234.539 919.36 230.445 917.68C225.947 915.833 226.569 905.161 226.492 902.149C226.007 883.262 227.645 855.63 243.604 842.453C252.782 834.875 272.118 837.287 271.616 851.828C271.279 861.613 262.353 856.033 261.394 849.117C259.939 838.624 263.977 827.155 274.384 823.138C296.374 814.651 307.256 845.479 308.947 861.429C309.842 869.873 306.088 877.953 296.409 878.033C284.583 878.131 286.1 857.437 286.921 850.134C289.106 830.702 305.739 806.173 328.375 811.617C335.466 813.323 341.942 818.785 344.075 825.793C346.127 832.533 340.92 833.413 334.983 834.321C309.061 838.281 324.015 803.093 332.667 792.528C339.819 783.796 350.072 773.329 361.809 771.406C368.971 770.233 370.706 776.579 369.038 782.475C366.873 790.129 361.904 796.279 354.749 799.701C341.755 805.915 332.661 793.294 329.617 781.741C324.958 764.057 325.625 742.275 328.036 724.192C328.856 718.041 329.85 708.418 336.112 705.103C342.282 701.836 351.25 707.801 347.577 715.043C344.372 721.361 331.91 721.581 326.116 720.239C311.924 716.95 305.038 706.523 302.622 692.678C300.935 683.017 300.26 671.008 302.791 661.39C303.971 656.905 307.747 647.934 312.674 646.142C317.355 644.44 317.594 651.33 317.701 654.105C317.926 659.955 317.04 665.989 311.884 669.636C294.646 681.829 288.095 657.821 287.486 644.899C286.924 632.979 290.938 625.86 299.346 617.452C302.944 613.854 309.73 607.801 315.498 608.303C320.474 608.735 316.419 623.204 315.611 625.359C312.58 633.441 305.826 642.852 299.233 648.514C288.909 657.38 282.6 648.846 279.128 639.816" stroke="#66A865" stroke-width="5" stroke-linecap="round"/>
<path d="M611.546 644.898C611.546 745.888 610.529 847.022 610.529 947.837" stroke="#66A865" stroke-width="5" stroke-linecap="round"/>
<path d="M625.777 641.852C625.777 666.325 625.777 690.798 625.777 715.271C625.777 753.175 629.523 790.828 629.844 828.675C630.078 856.294 631.877 883.834 631.877 911.469C631.877 923.178 631.877 934.888 631.877 946.597C631.877 948.601 632.798 953.987 630.86 954.956" stroke="#66A865" stroke-width="5" stroke-linecap="round"/>
<path d="M608.496 792.307C600.852 792.307 593.209 792.307 585.566 792.307C576.944 792.307 568.322 792.307 559.7 792.307C554.314 792.307 547.988 792.966 542.87 790.838C536.513 788.195 532.846 777.745 533.269 771.184C533.599 766.079 555.344 766.496 559.022 767.062C565.973 768.131 566.255 778.719 565.687 784.118C564.617 794.275 553.042 797.571 544.395 798.237C521.817 799.973 506.671 786.751 495.938 767.739C489.862 756.976 485.53 744.612 483.344 732.442C482.31 726.683 480.731 716.71 483.118 710.981C485.339 705.652 492.607 706.067 497.294 705.954C506.972 705.721 514.789 708.088 522.652 713.918C528.408 718.186 534.378 727.233 532.027 734.927C531.353 737.131 527.874 737.344 526.04 737.242C519.139 736.859 513.699 729.543 510.34 724.309C502.169 711.58 498.848 696.077 497.463 681.218C496.184 667.489 494.799 649.42 504.014 637.901C511.199 628.92 525.028 627.969 531.631 637.731C534.091 641.367 537.85 647.992 531.518 649.422C514.138 653.346 502.027 638.509 497.124 623.556C492.135 608.337 494.312 589.751 498.593 574.647C502.374 561.306 512.261 550.275 525.927 546.748C541.934 542.617 552.097 553.603 556.65 567.983C557.963 572.13 561.919 587.09 555.86 589.783C547.809 593.361 547.85 555.587 548.405 552.057C551.144 534.615 570.846 509.598 590.48 523.31C599.698 529.749 603.537 543.658 598.499 553.92C597.19 556.588 582.354 572.305 578.62 566.91C577.157 564.797 577.853 559.488 578.45 557.252C580.542 549.427 589.184 543.566 595.901 540.027C610.24 532.472 636.263 528.438 640.574 549.007C642.148 556.517 641.84 565.512 638.258 572.445C636.812 575.244 632.903 580.948 629.392 581.65C624.689 582.591 624.999 572.382 625.043 570.355C625.289 559.063 630.108 549.813 639.106 542.908C655.071 530.655 688.037 524.836 699.535 546.07C706.346 558.648 707.087 574.355 702.98 587.863C699.83 598.225 693.724 611.931 685.247 619.263C682.783 621.394 673.687 623.65 678.865 618.473C681.876 615.461 686.893 615.423 690.838 615.423C699.386 615.423 705.162 617.569 707.894 626.379C716.596 654.453 706.127 691.184 688.918 714.256C684.766 719.822 681.497 722.657 681.406 713.522C681.252 697.913 686.042 683.1 696.485 671.334C701.223 665.998 711.113 657.824 718.624 663.654C729.068 671.76 729.759 692.762 730.71 704.43C732.668 728.451 725.902 758.731 699.366 766.102C692.47 768.017 679.934 757.916 687.562 751.813C690.518 749.448 696.307 749.198 699.761 750.288C707.211 752.641 707.898 763.267 707.668 769.716C706.939 790.118 680.582 800.354 663.39 802.02C658.121 802.531 647.993 803.463 644.471 798.18C642.126 794.662 642.804 787.942 645.205 784.626C651.244 776.287 669.491 776.651 670.281 788.692C671.376 805.402 647.393 818.024 633.063 811.678C622.946 807.198 620.244 792.3 618.774 782.593C617.334 773.077 621.306 761.035 627.98 754.016C631.376 750.444 640.963 746.158 645.883 748.707C650.683 751.194 650.665 759.307 649.836 763.73C646.669 780.62 617.715 781.766 605.05 778.696C585.516 773.96 571.014 749.053 583.081 730.635C588.969 721.648 610.658 715.591 610.529 731.312C610.381 749.351 584.618 758.796 570.656 749.328C559.734 741.921 555.751 726.041 554.278 713.805C552.339 697.689 554.249 679.57 562.693 665.404C568.338 655.936 594.336 645.517 593.812 664.218C593.47 676.389 572.98 687.877 563.54 678.225C553.839 668.305 551.221 649.316 551.059 636.15C550.868 620.542 553.927 602.683 561.959 589.105C565.433 583.232 569.869 577.542 577.095 577.076C584.725 576.583 586.677 581.848 586.922 588.653C587.243 597.586 584.137 606.1 578.507 612.995C575.23 617.006 568.251 623.285 562.411 622.087C556.883 620.953 557.109 610.749 556.876 606.613C556.486 599.692 557.773 592.777 563.992 588.653C574.952 581.387 594.156 578.096 606.914 581.424C619.931 584.82 629.386 598.828 632.667 611.074C636.568 625.63 634.02 640.676 626.568 653.601C622.06 661.419 615.831 670.218 607.027 673.537C597.642 677.076 596.07 667.089 595.732 659.813C595.047 645.065 598.009 622.171 612.11 613.842C622.884 607.477 636.964 603.48 649.158 607.742C659.284 611.281 662.04 620.033 663.165 629.881C664.294 639.774 663.219 649.787 656.613 657.667C653.445 661.447 646.705 666.89 641.252 664.331C635.398 661.585 634.862 651.445 635.491 646.146C636.658 636.329 641.437 626.341 651.417 623.33C663.254 619.758 676.907 617.665 687.336 625.645C705.865 639.822 715.974 662.393 716.365 685.341C716.601 699.183 713.857 710.533 702.246 719C695.717 723.762 687.004 726.498 678.978 724.366C666.955 721.172 665.774 700.373 680.22 700.024C708.704 699.338 720.584 740.391 718.85 763.391C718.008 774.562 713.179 783.764 704.053 790.33C698.976 793.983 688.562 799.173 682.479 794.566C671.894 786.546 684.086 774.367 693.153 773.331C700.266 772.518 710.636 773.41 715.236 779.656C719.598 785.58 721.853 794.827 716.93 801.004C700.526 821.583 659.557 820.85 638.428 809.758C629.337 804.985 620.704 797.269 614.708 788.918C613.337 787.008 609.513 781.32 610.755 778.526C611.017 777.935 614.563 781.551 610.868 783.157C600.033 787.868 585.195 787.691 575.062 781.576C569.819 778.412 560.801 766.25 569.64 761.696C574.222 759.336 581.983 761.997 585.792 764.69C593.633 770.232 594.645 781.986 593.925 790.725C592.701 805.558 576.587 825.59 560.208 815.801C546.686 807.719 543.379 786.669 541.289 772.653C538.236 752.186 536.219 727.868 543.548 708.044C546.805 699.232 554.378 683.511 564.105 679.919C568.657 678.238 576.814 677.775 580.314 681.839C590.075 693.174 580.107 712.833 567.607 717.08C540.052 726.444 543.415 652.018 543.435 640.611C543.471 619.611 543.504 597.771 552.753 578.431C556.646 570.292 565.086 556.56 576.304 562.448C587.666 568.412 591.04 586.907 593.473 598.028C595.57 607.615 598.517 620.777 595.393 630.559C593.514 636.442 586.87 637.097 582.573 633.382C570.947 623.333 570.666 602.17 571.447 588.371C572.76 565.174 581.472 524.642 612.731 525.739C644.026 526.837 645.653 569.319 638.428 591.138C634.814 602.052 627.439 613.025 618.322 620.167C616.263 621.78 608.241 626.554 606.293 622.313C602.717 614.531 610.043 602.166 614.482 596.334C622.921 585.246 640.502 579.021 654.015 582.667C678.015 589.142 694.238 624.216 685.642 647.276C683.437 653.19 677.122 660.401 670.055 659.474C662.16 658.439 659.932 648.686 659.55 642.193C658.595 625.959 667.773 603.261 688.24 608.194C702.017 611.515 709.174 627.263 712.581 639.595C716.556 653.979 715.54 670.598 703.714 681.048C692.213 691.213 666.951 697.948 660.115 679.354C655.038 665.546 669.104 647.361 684.174 656.368C703.828 668.116 705.2 710.703 691.12 726.794C686.019 732.624 677.483 737.103 669.829 733.345C658.574 727.821 654.434 713.241 652.886 701.832C652.219 696.92 650.36 683.646 655.314 680.088C661.735 675.479 669.677 683.028 672.427 688.051C683.213 707.76 691.525 757.895 657.743 760.736C637.139 762.469 622.414 739.425 620.977 720.977C620.561 715.637 621.235 709.383 627.359 707.818C640.876 704.363 652.882 713.501 659.663 724.309C665.999 734.408 671.054 747.946 668.247 760.002C665.877 770.186 657.821 782.759 646.899 785.304C627.986 789.71 614.44 766.112 620.017 749.949C629.279 723.104 675.482 723.202 695.808 734.136C708.398 740.909 715.505 752.764 716.76 766.779C718.132 782.099 710.351 791.348 695.864 795.469C678.265 800.476 656.132 795.029 656.67 772.992C657.107 755.049 681.582 744.127 697.107 750.175C714.713 757.035 703.863 776.818 687.958 774.63C669.046 772.027 661.104 746.297 656.839 730.973C652.392 714.992 651.034 698.565 650.457 682.065C650.008 669.226 649.412 655.603 651.756 642.87C655.125 624.578 670.977 598.474 693.436 608.42C709.969 615.742 701.529 633.913 687.336 637.11C676.716 639.502 664.506 636.039 656.896 628.243C647.98 619.11 646.165 604.615 645.544 592.494C644.892 579.776 646.876 568.268 653.733 557.422C657.04 552.19 665.76 542.354 673.217 543.924C679.408 545.227 679.43 563.453 679.43 567.757C679.43 578.129 672.574 588.067 664.802 594.527C646.772 609.513 623.037 601.368 617.758 578.601C613.808 561.568 617.303 538.312 637.976 535.566C658.289 532.867 664.499 554.191 649.61 566.345C631.706 580.961 604.972 582.497 594.715 558.777C588.936 545.413 583.135 514.872 597.822 504.843C613.165 494.364 616.519 532.064 616.854 539.237C617.587 554.934 608.337 598.216 583.646 590.686C573.119 587.476 569.606 574.739 568.171 565.216C565.971 550.613 566.74 535.544 575.739 523.254C580.953 516.134 590.823 505.218 600.815 505.972C615.174 507.056 616.423 534.095 617.306 543.02C620.4 574.311 620.505 607.096 610.811 637.279C604.597 656.627 596.658 679.924 582.629 695.28C579.438 698.774 572.454 705.654 567.324 701.775C559.88 696.146 559.351 682.391 560.039 674.045C561.191 660.073 580.658 642.022 593.699 655.465C609.966 672.233 607.72 707.848 589.407 722.276C572.195 735.837 573.635 684.719 575.287 677.434C577.218 668.924 583.359 664.148 592.23 665.122C605.109 666.537 611.123 679.152 613.691 690.423C615.709 699.281 617.003 711.754 610.472 719.17C606.178 724.046 595.605 728.952 590.084 723.067C584.447 717.058 585.777 704.029 587.656 696.918C591.028 684.151 602.878 675.316 615.612 673.311C639.134 669.608 653.223 693.266 639.557 712.788C633.867 720.918 626.173 726.951 616.967 730.522C613.618 731.821 608.589 734.287 604.825 733.684C601.032 733.077 600.244 728.782 598.33 726.229" stroke="#66A865" stroke-width="5" stroke-linecap="round"/>
<path d="M217.506 213.143C217.506 201.715 178.735 204.66 172.226 204.719C146.364 204.952 127.671 219.759 119.106 243.739C112.386 262.557 107.129 294.2 122.265 310.548C135.36 324.69 163.211 330.323 181.118 323.243C197.76 316.664 212.885 300.649 223.825 286.855C234.826 272.984 238.567 258.881 238.567 241.633C238.567 234.676 232.388 221.706 227.569 216.887C224.538 213.857 219.927 212.299 216.453 209.984" stroke="#877177" stroke-width="5" stroke-linecap="round"/>
<path d="M95.3549 215.25C89.9532 215.25 84.5516 215.25 79.1499 215.25C70.4847 215.25 79.0203 216.303 82.777 216.303C96.5633 216.303 108.336 222.619 120.628 227.886" stroke="#877177" stroke-width="5" stroke-linecap="round"/>
<path d="M106.937 261.578C101.506 262.629 97.0775 267.056 92.838 270.353C85.0069 276.444 77.4143 282.84 70.3148 289.776C66.4872 293.516 63.8945 297.48 60.6035 301.593" stroke="#877177" stroke-width="5" stroke-linecap="round"/>
<path d="M132.211 323.711V438.492" stroke="#877177" stroke-width="5" stroke-linecap="round"/>
<path d="M203.816 307.914C209.564 318.452 219.435 328.129 227.1 337.282C231.434 342.457 235.994 349.374 241.726 353.194" stroke="#877177" stroke-width="5" stroke-linecap="round"/>
<path d="M151.166 143.641C151.166 156.355 151.166 169.069 151.166 181.784C151.166 188.517 150.086 196.211 152.219 202.61" stroke="#877177" stroke-width="5" stroke-linecap="round"/>
<path d="M97.4613 311.07C91.8219 311.07 86.1362 315.644 81.4318 318.266C74.6838 322.027 67.8975 325.756 61.3072 329.791C56.3942 332.799 52.1627 335.308 47.9688 339.502" stroke="#877177" stroke-width="5" stroke-linecap="round"/>
<path d="M233.301 138.375C233.301 153.729 233.65 169.123 233.301 184.474C233.119 192.47 227.868 201.174 225.93 208.928" stroke="#877177" stroke-width="5" stroke-linecap="round"/>
<path d="M236.461 209.983C261.413 209.983 286.278 208.93 311.226 208.93" stroke="#877177" stroke-width="5" stroke-linecap="round"/>
<path d="M242.779 271.062C255.622 271.948 270.787 284.096 280.22 292.182C282.436 294.081 289.142 302.535 290.166 298.441" stroke="#877177" stroke-width="5" stroke-linecap="round"/>
<path d="M166.961 343.716C166.961 342.839 166.93 351.923 166.961 352.725C167.913 377.606 174.199 402.354 179.129 426.671C180.836 435.09 184.061 443.858 184.862 452.412C185.021 454.101 184.862 447.662 184.862 446.913" stroke="#877177" stroke-width="5" stroke-linecap="round"/>
<path d="M186.969 125.742V201.561" stroke="#877177" stroke-width="5" stroke-linecap="round"/>
<path d="M114.309 322.656C109.754 323.567 104.581 331.697 101.907 334.532C92.7688 344.221 83.428 353.753 74.4695 363.608C70.0001 368.524 66.8919 375.891 63.7637 381.626" stroke="#877177" stroke-width="5" stroke-linecap="round"/>
<path d="M240.674 193.137C241.101 185.456 250.611 178.193 255.884 173.715C267.916 163.497 281.869 154.072 295.432 145.985C300.567 142.922 306.632 138.156 312.28 136.273" stroke="#877177" stroke-width="5" stroke-linecap="round"/>
<path d="M188.021 328.977C180.703 329.891 197.726 387.344 200.541 394.382C201.534 396.865 208.444 407.816 204.87 409.007" stroke="#877177" stroke-width="5" stroke-linecap="round"/>
<path d="M230.143 287.906C232.393 288.356 234.453 291.183 235.876 292.586C248.327 304.864 260.837 317.059 273.96 328.624C280.953 334.786 288.85 340.296 295.431 346.876" stroke="#877177" stroke-width="5" stroke-linecap="round"/>
<path d="M408.822 295.009C437.727 295.009 466.567 295.936 495.313 292.536C535.379 287.797 576.473 281.463 616.905 281.463C623.001 281.463 628.577 280.495 634.482 280.495C642.775 280.495 651.434 283.123 659.639 282.377C670.769 281.365 683.73 277.531 693.665 272.271C701.167 268.3 706.463 259.141 711.189 252.489C716.916 244.43 720.971 237.325 720.166 227.171C719.221 215.239 706.567 208.73 696.192 205.992C690.888 204.592 686.406 204.057 680.926 204.057C678.136 204.057 671.841 202.897 669.315 204.487C665.095 207.144 664.262 209.224 664.262 213.948C664.262 218.662 664.648 226.362 670.282 228.031C675.428 229.556 682.117 229.512 687.484 229.214C689.695 229.091 688.296 223.253 687.484 222.441" stroke="#877177" stroke-width="5" stroke-linecap="round"/>
<path d="M411.725 292.106C404.435 292.106 401.494 272.327 400.114 267.701C396.496 255.57 395.117 242.823 396.674 230.181C398.931 211.86 412.463 197.47 428.174 188.79C436.362 184.266 445.277 182.001 454.621 182.985C462.887 183.855 464.584 191.478 466.877 198.358C469.62 206.586 471.356 215.048 471.661 223.73C471.831 228.572 473.128 236.526 470.21 240.77C466.454 246.234 450.398 244.273 445.644 241.738C440.549 239.021 435.601 232.553 440.269 226.848C442.604 223.993 449.166 225.343 452.363 225.343" stroke="#877177" stroke-width="5" stroke-linecap="round"/>
<path d="M466.877 193.408C466.877 181.413 463.523 168.287 476.23 162.069C481.601 159.441 488.303 158.605 494.184 158.037C504.086 157.081 515.881 156.368 525.576 159.005C543.317 163.83 553.037 177.928 555.733 195.45C557.807 208.934 559.352 227.774 552.991 240.496C548.412 249.655 532.716 238.241 528.372 234.691C526.48 233.145 517.82 225.566 520.631 221.951C522.245 219.876 526.386 220.136 528.802 219.532" stroke="#877177" stroke-width="5" stroke-linecap="round"/>
<path d="M535.576 149.87C535.576 135.247 536.353 123.464 550.144 115.091C563.123 107.211 586.989 100.385 600.404 110.415C612.048 119.121 618.613 141.84 612.982 155.514C611.481 159.16 607.029 167.286 602.339 167.286" stroke="#877177" stroke-width="5" stroke-linecap="round"/>
<path d="M677.809 199.213C689.563 187.46 693.696 165.698 689.958 149.759C685.638 131.342 652.987 107.066 636.204 123.85C626.903 133.151 614.58 165.967 634.752 169.702C638.612 170.417 644.588 170.658 646.632 166.316C647.623 164.21 637.992 161.478 636.204 161.478" stroke="#877177" stroke-width="5" stroke-linecap="round"/>
<path d="M367.217 375.318C358.404 375.318 347.771 373.612 339.802 378.006C331.356 382.662 330.311 396.494 328.567 404.775C326.648 413.89 325.398 426.924 333.674 433.319C344.809 441.923 360.841 441.113 374.097 441.113C386.912 441.113 399.465 438.145 411.564 433.91C417.611 431.793 422.368 429.162 422.368 422.729" stroke="#877177" stroke-width="5" stroke-linecap="round"/>
<path d="M363.348 375.318C363.348 371.173 362.752 366.577 363.563 362.524C366.235 349.165 377.349 341.008 390.493 340.539C403.875 340.061 413.57 342.511 418.069 356.396C420.105 362.678 420.435 369.621 420.435 376.178C420.435 378.44 421.201 382.19 419.467 384.026C416.579 387.084 418.223 381.25 419.091 380.048C424.63 372.379 438.078 368.001 447.15 367.631C458.784 367.156 476.554 368.512 476.554 384.026" stroke="#877177" stroke-width="5" stroke-linecap="round"/>
<path d="M412.693 427.565C417.336 431.28 425.451 431.435 431.077 431.435C439.965 431.435 448.852 431.435 457.739 431.435C466.522 431.435 482.095 432.677 484.079 420.577C485 414.958 486.508 405.327 480.424 402.623C478.887 401.94 477.829 403.376 479.94 403.376C484.206 403.376 489.578 406.822 493.97 407.676C499.372 408.727 506.61 409.393 510.418 404.72C514.143 400.148 518.159 393.995 518.159 387.895C518.159 379.536 504.352 374.276 497.625 372.413C492.053 370.87 478.573 367.448 474.618 373.381" stroke="#877177" stroke-width="5" stroke-linecap="round"/>
<path d="M7.58594 70.9252C7.58594 59.8087 9.70571 47.615 16.8211 38.6023C21.949 32.1069 34.8594 33.2548 42.1639 34.4142C52.8988 36.1182 54.9428 49.075 54.9428 57.9316C54.9428 63.924 52.9337 68.6284 49.3587 73.395C48.5511 74.4719 46.2446 77.1121 46.2446 74.2541C46.2446 69.9256 49.7038 66.6865 52.2045 63.4619C57.6943 56.3829 63.2491 50.7156 71.3727 46.7635C84.0611 40.5908 102.424 40.6551 113.79 49.1797C125.582 58.0236 123.03 68.5723 118.73 81.5563C114.77 93.5092 107.932 114.016 95.5343 120.215" stroke="#877177" stroke-width="5" stroke-linecap="round"/>
<path d="M10.4848 130.84C10.4848 139.626 9.68959 148.761 19.2904 152.961C26.7839 156.24 46.7739 159.222 53.9758 153.82C62.1175 147.714 62.3861 132.377 58.8618 123.86C58.5159 123.024 54.7658 119.142 54.9422 122.142C55.1443 125.576 64.0815 131.352 66.3251 133.524C77.2946 144.146 91.9884 149.203 107.078 149.203C121.939 149.203 132.426 139.445 140.743 127.726C146.764 119.241 151.131 103.769 140.421 97.1209C132.274 92.0642 120.208 94.1141 110.997 94.1141" stroke="#877177" stroke-width="5" stroke-linecap="round"/>
<path d="M347.805 51.455C341.033 51.455 334.261 51.455 327.488 51.455C321.595 51.455 319.962 56.0717 318.111 61.5266C315.565 69.0331 312.851 76.6084 313.423 84.6218C314.274 96.5307 331.376 105.326 340.859 108.932C349.894 112.368 355.168 114.197 361.871 106.154C364.231 103.322 368.046 83.119 364.996 92.0886C362.603 99.1288 356.007 127.742 367.601 129.597C380.027 131.585 392.285 134.285 404.935 134.285C421.379 134.285 432.968 127.263 444.527 115.705C447.962 112.269 447.645 97.1322 444.006 100.771C433.927 110.85 467.748 122.874 472.745 124.04C485.753 127.075 496.912 122.861 507.127 114.75C512.989 110.094 521.722 103.617 521.279 95.2143C521.102 91.8416 514.031 90.1879 516.938 92.0886C526.794 98.5331 540.309 101.308 551.841 101.466C557.511 101.543 568.459 104.407 570.074 97.2981C572.326 87.3914 574.724 76.0753 572.505 65.8678C568.57 47.7657 546.609 39.6513 534.998 54.5807C533.326 56.7298 527.72 65.5028 527.531 59.2692C527.072 44.1312 508.035 40.0193 496.274 37.4764C480.51 34.068 446.263 25.3585 446.263 50.5868C446.263 51.0234 446.512 55.0176 446.177 52.6706C444.875 43.5564 434.436 39.139 427.336 35.219C415.745 28.8197 395.406 21.6249 381.58 27.318C377.748 28.8956 372.81 33.7817 372.81 38.171C372.81 41.1531 373.096 45.0301 368.817 45.0301C360.807 45.0301 352.445 42.0781 344.072 42.0781C338.544 42.0781 333.016 42.0781 327.488 42.0781" stroke="#877177" stroke-width="5" stroke-linecap="round"/>
<path d="M619.738 381.212C618.9 377.86 608.798 378.124 608.798 383.122C608.798 402.476 601.222 423.605 608.798 442.336C614.741 457.029 643.149 464.423 656.725 457.096C661.063 454.755 665.599 451.312 666.536 446.156C667.011 443.544 664.744 443.295 663.844 445.635C660.217 455.067 662.929 461.531 671.832 466.994C677.883 470.707 707.528 487.875 713.508 476.545C717.402 469.166 717.635 459.769 718.978 451.713C720.316 443.684 722.885 435.416 722.885 427.229C722.885 423.49 720.917 426.36 722.19 426.36C726.961 426.36 733.414 413.651 735.04 410.558C740.443 400.284 754.219 363.281 736.256 357.075C726.904 353.844 707.332 351.658 697.879 355.859C695.741 356.81 699.548 356.272 699.095 355.252C695.51 347.186 675.592 342.47 668.88 340.405C661.469 338.124 615.049 322.902 615.049 340.231C615.049 345.045 620.995 349.781 614.355 349.955C605.953 350.176 582.885 354.127 582.23 365.584C581.73 374.333 581.987 383.397 582.23 392.152C582.393 398.011 587.125 398.472 591.607 399.966" stroke="#877177" stroke-width="5" stroke-linecap="round"/>
</svg>
