<svg width="414" height="1248" viewBox="0 0 414 1248" fill="none" xmlns="http://www.w3.org/2000/svg">
<g clip-path="url(#clip0_3896_3810)">
<rect width="414" height="1248" fill="#FCF3F3"/>
<path d="M125.59 1179.88C125.59 1104.18 125.59 1028.49 125.59 952.79C125.59 949.596 122.867 927.673 125.863 924.677C126.721 923.82 130.852 924.281 131.731 924.131C142.685 922.267 153.277 916.882 163.529 912.804C179.92 906.285 195.28 902.174 212.795 900.795C226.304 899.731 239.745 897.531 253.327 897.383C255.854 897.355 271.327 895.414 272.842 898.065C274.785 901.465 271.771 911.412 271.75 914.715C271.528 949.179 271.374 983.698 271.818 1018.16C272.535 1073.71 272.978 1129.23 272.978 1184.79" stroke="#877177" stroke-width="5" stroke-linecap="round"/>
<path d="M125.59 924.403C125.59 899.74 124.456 874.745 125.658 850.095C126.306 836.813 129.275 823.73 129.275 810.314C129.275 802.08 129.275 793.847 129.275 785.613C129.275 775.878 129.275 766.143 129.275 756.408C129.275 751.246 129.737 754.142 132.345 756.75C136.152 760.557 144.89 758.592 149.745 758.592C167.714 758.592 185.682 758.592 203.651 758.592C225.526 758.592 247.334 756.135 269.225 756.135C273.495 756.135 269.293 761.62 269.293 764.801C269.293 778.415 268.907 791.616 271.75 804.992C277.069 830.024 280.347 855.076 280.347 880.665C280.347 886.491 281.161 897.382 272.978 897.382" stroke="#877177" stroke-width="5" stroke-linecap="round"/>
<path d="M164.892 797.896C164.892 815.319 164.892 832.741 164.892 850.164C164.892 858.371 165.872 868.012 172.261 874.047C178.879 880.297 196.626 875.028 204.332 874.319C214.901 873.348 225.486 872.703 236.061 871.59C238.595 871.323 250.773 871.777 251.823 868.861C253.314 864.719 251.81 859.449 250.322 855.623C246.058 844.658 248.412 829.809 248.412 818.367C248.412 811.229 247.183 804.256 247.183 797.214C247.183 794.592 247.943 790.378 245.682 788.343C243.222 786.129 236.131 789.791 234.082 790.527C221.746 794.955 207.529 796.486 194.642 798.578C191.403 799.105 161.207 808.362 161.207 802.809" stroke="#877177" stroke-width="5" stroke-linecap="round"/>
<path d="M200.512 799.125C200.512 818.14 200.512 837.155 200.512 856.17C200.512 861.217 199.559 867.229 201.74 871.591" stroke="#877177" stroke-width="5" stroke-linecap="round"/>
<path d="M167.348 835.975C174.348 835.975 181.599 834.747 188.228 834.747C193.808 834.747 199.127 835.975 204.195 835.975C212.573 835.975 220.333 832.291 228.759 832.291C235.556 832.291 241.787 832.009 248.411 831.062" stroke="#877177" stroke-width="5" stroke-linecap="round"/>
<path d="M159.979 950.199C159.979 973.263 159.979 996.326 159.979 1019.39C159.979 1030.55 158.944 1041.92 161.753 1052.76C163.393 1059.08 164.892 1067.02 164.892 1073.57C164.892 1078.18 174.778 1073.41 176.765 1073.02C188.596 1070.73 200.617 1069.64 212.52 1067.84C221.056 1066.54 229.257 1063.96 237.904 1063.26C241.45 1062.98 250.418 1063.1 253.052 1060.47C255.568 1057.95 251.187 1053.03 250.937 1050.78C248.398 1027.93 244.727 1004.84 244.727 981.86C244.727 970.129 245.314 958.236 244.727 946.514C244.621 944.377 242.63 941.602 240.429 941.602C211.539 941.602 124.949 945.286 153.838 945.286" stroke="#877177" stroke-width="5" stroke-linecap="round"/>
<path d="M194.372 945.289C194.372 969.247 193.769 992.885 197.784 1016.53C200.269 1031.16 205.426 1047.27 205.426 1061.97" stroke="#877177" stroke-width="5" stroke-linecap="round"/>
<path d="M155.066 1001.79C167.758 1001.79 180.45 1001.79 193.142 1001.79C199.311 1001.79 207.748 1003.29 213.749 1001.51C222.203 999.01 232.188 996.875 241.043 996.875" stroke="#877177" stroke-width="5" stroke-linecap="round"/>
<path d="M155.066 1181.11C155.066 1158.96 156.295 1135.58 156.295 1114.17C156.295 1109.83 158.248 1106.18 162.709 1106.18C176.191 1106.18 188.228 1098.81 202.012 1098.81C210.845 1098.81 221.786 1095.16 230.535 1097.65C233.276 1098.44 231.103 1125.23 231.285 1127.68C231.703 1133.31 233.673 1138.62 233.673 1144.33C233.673 1150.38 234.117 1157.69 235.175 1163.64C235.616 1166.12 235.93 1179.36 237.358 1178.65" stroke="#877177" stroke-width="5" stroke-linecap="round"/>
<path d="M217.707 1141.8V1154.09" stroke="#877177" stroke-width="5" stroke-linecap="round"/>
<path d="M130.504 759.827C134.767 736.856 140.976 714.835 149.542 693.093C154.091 681.545 161.533 671.005 165.167 659.112C167.101 652.785 172.828 647.572 175.334 641.166C178.317 633.545 181.446 615.936 188.845 611.825C191.768 610.201 191.825 612.187 191.916 614.623C192.163 621.301 202.639 628.613 206.927 632.637C230.32 654.583 250.526 683.042 260.083 713.837C263.108 723.584 266.864 733.523 267.998 743.724C268.315 746.578 266.622 754.806 269.294 756.142" stroke="#877177" stroke-width="5" stroke-linecap="round"/>
<path d="M242.271 662.797C242.271 658.147 238.218 639.461 243.772 639.461C248.182 639.461 251.652 642.212 256.055 642.873C261.166 643.639 267.002 642.956 271.749 645.329C275.175 647.042 268.606 667.239 268.337 670.44C267.484 680.568 265.607 692.198 265.607 702.101" stroke="#877177" stroke-width="5" stroke-linecap="round"/>
<path d="M255.782 623.488C255.782 612.042 255.628 587.272 238.586 589.165C232.816 589.806 231.199 598.923 237.972 598.923C242.546 598.923 244.835 594.354 241.862 590.462C231.755 577.231 210.287 566.863 195.325 560.575C192.731 559.485 176.924 553.637 174.991 558.664C174.606 559.666 173.938 565.352 175.469 565.692C178.156 566.29 181.047 565.543 182.633 563.236C188.716 554.389 175.752 549.573 169.123 547.883C151.021 543.267 123.503 541.155 105.801 548.565C101.397 550.409 99.1057 554.381 104.709 555.662C106.743 556.127 112.775 556.966 113.238 553.956C114.607 545.057 92.4401 540.625 86.8312 539.558C81.4923 538.543 66.2307 535.324 65.4736 543.652C64.9952 548.915 68.9389 554.562 70.3183 559.62" stroke="#877177" stroke-width="5" stroke-linecap="round"/>
<path d="M226.304 209.577C214.454 209.577 202.527 209.146 190.686 209.577C181.014 209.928 173.945 220.806 169.533 228.273C162.324 240.472 159.714 255.308 161.754 269.351C164.05 285.155 178.89 287.339 192.596 288.798C197.969 289.369 206.952 291.105 212.112 288.661C219.269 285.271 224.639 277.946 229.921 272.353C236.355 265.541 242.271 262.053 242.271 252.36C242.271 239.578 239.71 229.688 233.606 218.242C231.382 214.074 225.422 206.071 220.163 209.577" stroke="#877177" stroke-width="5" stroke-linecap="round"/>
<path d="M179.633 313.977V365.562" stroke="#877177" stroke-width="5" stroke-linecap="round"/>
<path d="M218.934 316.43C220.957 318.392 222.823 319.841 225.075 321.343" stroke="#877177" stroke-width="5" stroke-linecap="round"/>
<path d="M225.078 323.805C229.852 331.04 233.822 338.763 238.589 345.913" stroke="#877177" stroke-width="5" stroke-linecap="round"/>
<path d="M103.48 299.24C117.204 299.24 130.099 298.898 143.398 296.852C148.169 296.118 154.601 294.495 156.295 289.414" stroke="#877177" stroke-width="5" stroke-linecap="round"/>
<path d="M89.9727 241.508H150.156" stroke="#877177" stroke-width="5" stroke-linecap="round"/>
<path d="M141.555 176.414C148.281 183.514 153.22 190.53 156.293 199.751" stroke="#877177" stroke-width="5" stroke-linecap="round"/>
<path d="M198.055 127.281V196.062" stroke="#877177" stroke-width="5" stroke-linecap="round"/>
<path d="M282.805 162.906C282.383 175.348 272.408 185.475 271.751 197.297C271.342 204.659 264.589 211.24 259.469 215.72" stroke="#877177" stroke-width="5" stroke-linecap="round"/>
<path d="M279.117 242.734C288.74 242.734 297.856 242.677 307.23 245.123C309.458 245.704 317.254 248.752 318.421 246.419" stroke="#877177" stroke-width="5" stroke-linecap="round"/>
<path d="M249.641 291.867C261.169 301.199 271.404 313.769 284.031 321.345" stroke="#877177" stroke-width="5" stroke-linecap="round"/>
<path d="M97.3403 426.974C96.7998 424.271 88.8663 419.514 86.5591 422.334C84.8079 424.474 86.2862 432.855 86.2862 435.298C86.2862 442.016 85.8183 448.931 86.3544 455.632C86.6985 459.934 92.469 461.963 94.6109 457.68C95.2615 456.378 92.9255 460.015 92.7003 461.091C91.4828 466.908 92.5934 474.045 95.3615 479.174C102.106 491.671 117.63 503.124 132.208 503.124C137.196 503.124 134.869 495.168 135.416 492.07C136.163 487.837 177.388 493.298 183.044 493.298C183.967 493.298 188.98 494.051 189.39 492.616C189.818 491.117 188.286 488.991 190.413 488.658C203.637 486.592 217.134 487.188 230.399 484.701C238.357 483.209 251.767 481.342 257.147 474.329C260.825 469.535 259.673 460.813 257.966 455.496C256.802 451.87 252.59 448.113 252.166 444.51C251.509 438.922 252.986 433.05 251.757 427.52C249.683 418.19 240.54 410.924 231.491 409.096C220.445 406.865 211.027 409.289 209.178 421.31C208.83 423.572 208.024 420.649 206.244 419.536C199.413 415.267 191.314 413.866 183.453 412.917C174.642 411.854 164.564 409.314 161.481 419.331C161.102 420.564 161.743 422.631 160.117 423.016C150.9 425.199 139.462 423.385 130.025 423.903C121.022 424.398 102.864 421.151 99.7968 431.887" stroke="#877177" stroke-width="5" stroke-linecap="round"/>
<path d="M206.652 105.174C193.406 105.174 191.771 102.767 191.913 115.546C192.075 130.118 195.755 150.651 211.565 156.214C217.413 158.272 219.749 150.746 217.706 150.619C216.31 150.531 216.367 152.076 216.478 153.075C216.826 156.211 223.879 156.962 226.031 157.374C234.201 158.938 251.387 162.794 258.784 157.51C259.349 157.107 261.324 159.463 262.059 159.83C264.655 161.128 267.96 161.998 270.793 162.628C275.801 163.741 280.078 149.594 280.346 145.979C280.514 143.719 287.815 147.808 290.104 148.094C295.498 148.768 295.871 135.904 296.382 132.332C296.875 128.878 302.892 133.024 303.683 129.466C306.574 116.453 304.473 102.639 307.367 89.6165C307.616 88.4994 290.613 86.7128 284.986 86.7506C275.065 86.8172 253.074 88.2833 248.685 99.9882C247.987 101.849 248.232 99.1032 246.638 98.3506C242.921 96.5955 236.294 97.5073 233.059 99.7835C229.711 102.14 225.849 111.942 222.483 110.633C202.24 102.761 179.363 114.28 163.664 126.054" stroke="#877177" stroke-width="5" stroke-linecap="round"/>
<path d="M46.9816 1027.58C46.9816 1065.33 46.9816 1103.09 46.9816 1140.85C46.9816 1152.69 45.23 1162.14 43.2969 1173.74" stroke="#877177" stroke-width="5" stroke-linecap="round"/>
<path d="M61.7204 1042.32C61.7204 1079.99 61.7204 1117.65 61.7204 1155.32C61.7204 1166.19 63.9768 1180.48 60.4922 1190.94" stroke="#877177" stroke-width="5" stroke-linecap="round"/>
<path d="M340.532 1006.7C340.532 1052.87 340.532 1099.04 340.532 1145.21C340.532 1157.9 336.612 1178.54 342.988 1189.7" stroke="#877177" stroke-width="5" stroke-linecap="round"/>
<path d="M352.812 1012.84C352.812 1060.74 352.812 1108.65 352.812 1156.55C352.812 1169.17 355.269 1178.31 355.269 1190.94" stroke="#877177" stroke-width="5" stroke-linecap="round"/>
<path d="M342.988 1063.2C342.806 1063.2 333.529 1062.37 333.708 1062.24C335.294 1061.13 338.206 1063.53 339.235 1064.43C341.012 1065.98 344.837 1068.93 341.146 1070.57C336.844 1072.48 279.806 1082.61 290.857 1065.25C292.862 1062.09 295.04 1065.91 295.087 1067.84C295.301 1076.58 288.26 1050.86 287.991 1048.73C286.879 1039.93 282.235 1014.24 295.77 1010.66C299.311 1009.72 298.772 1022.62 298.772 1024.58C298.772 1026.66 299.876 1031.95 296.793 1032.42C288.635 1033.68 283.438 1014.97 282.327 1009.29C279.324 993.945 291.989 999.346 290.106 1009.7C288.52 1018.42 269.878 1008.32 267.316 1006.29C246.876 990.069 239.154 961.32 245.549 936.349C248.537 924.682 260.526 916.86 270.659 926.182C278.954 933.813 288.93 945.605 290.106 957.366C290.636 962.661 284.828 961.6 281.713 959.345C266.225 948.129 261.13 925.747 263.699 907.622C264.647 900.935 270.559 891.738 278.438 895.749C287.076 900.147 292.669 910.006 294.132 919.222C295.048 924.995 293.435 931.803 286.353 925.705C273.317 914.479 270.522 887.202 273.32 871.253C275.368 859.581 291.616 852.345 301.297 859.721C310.417 866.67 316.098 878.423 317.127 889.745C317.817 897.328 306.692 887.646 305.459 885.787C298.952 875.979 294.397 857.545 304.231 848.531C330.922 824.064 355.186 871.146 351.313 894.385C350.914 896.777 345.609 901.224 345.445 897.114C345.2 890.991 351.755 891.694 356.499 893.293C374.613 899.399 384.246 942.015 361.685 948.7C360.33 949.101 360.031 947.721 360.73 946.789C362.963 943.812 367.193 946.449 368.85 948.495C377.475 959.151 380.514 979.604 379.767 993.053C379.622 995.673 379.269 998.564 377.379 1000.56C377.075 1000.88 374.606 1001.91 375.195 1001.17C379.873 995.326 385.754 1029.76 385.84 1031.67C386.142 1038.38 389.577 1057.26 379.835 1059.24C373.417 1060.55 367.894 1057.61 362.64 1054.33C360.319 1052.88 369.3 1054.78 370.283 1057.33C372.156 1062.2 370.275 1063.2 365.097 1063.2C356.35 1063.2 347.945 1059.41 346.81 1049.76C346.267 1045.15 348.117 1036.96 353.906 1043.07C356.321 1045.62 358.74 1053.62 354.315 1055.22C342.228 1059.57 328.906 1054.9 320.607 1045.46C319.034 1043.67 313.85 1031.73 319.652 1032.56C326.136 1033.49 318.88 1038.71 316.172 1039.25C296.366 1043.21 276.916 1036.34 270.864 1015.16C265.992 998.109 268.064 978.727 288.4 975.516C298.072 973.989 303.738 976.977 305.868 986.775C307.968 996.435 291.593 993.153 287.036 990.596C268.486 980.191 263.889 948.323 278.029 933.006C288.242 921.942 309.212 923.479 314.466 938.192C318.011 948.116 317.245 954.428 306.073 955.592C282.293 958.069 280.812 908.569 281.781 893.225C282.103 888.139 282.058 873.756 290.72 876.644C304.187 881.133 312.48 893.67 317.468 906.189C323.03 920.147 326.337 935.565 326.476 950.611C326.524 955.885 327.184 965.643 321.29 968.488C309.941 973.967 305.854 961.543 308.461 952.385C314.121 932.511 354.488 914.232 355.68 945.971C356.232 960.673 344.563 975.334 333.777 984.046C330.876 986.389 320.859 989.878 322.927 986.775C328.768 978.015 351.508 983.602 357.454 989.778C368.069 1000.8 364.214 1021.88 356.499 1033.45C354.592 1036.31 349.083 1042.42 345.104 1039.18C340.74 1035.62 341.535 1024.96 342.033 1020.07C342.902 1011.55 354.471 1004.01 358.683 1014.62C362.579 1024.43 357.291 1032.51 349.13 1037.41" stroke="#66A865" stroke-width="5" stroke-linecap="round"/>
<rect y="1181" width="414" height="67" fill="#695C60"/>
<path d="M65.4045 1077.94C70.6359 1077.94 75.8672 1077.94 81.0986 1077.94C85.7884 1077.94 85.8657 1075.92 86.2162 1071.18C86.5579 1066.57 87.1708 1060.34 86.0115 1055.83C85.6812 1054.55 82.1574 1051.54 81.4398 1054.06C78.6654 1063.77 102.063 1060.83 106.619 1060.74C115.134 1060.58 112.596 1051.58 105.936 1049.96C104.789 1049.68 97.9058 1050.11 99.1127 1050.64C104.11 1052.87 112.137 1049.97 116.24 1047.23C123.008 1042.72 126.597 1033.82 117.536 1028.88C113.157 1026.49 121.109 1028.81 124.087 1028.81C135.005 1028.81 142.814 1025.92 145.581 1014C149.343 997.798 141.979 986.482 125.588 984.661C122.973 984.371 119.447 983.718 119.447 987.049C119.447 989.282 118.797 992.307 121.903 991.962C124.905 991.629 125.385 984.153 125.52 982C126.092 972.839 122.26 965.728 115.762 959.346C113.752 957.371 105.932 951.473 102.797 954.433C101.632 955.533 102.252 960.812 102.252 959.209C102.252 937.378 82.8021 899.52 55.8516 903.666C50.2252 904.531 49.9651 920.867 55.3057 919.224C58.5423 918.228 59.9905 913.16 58.9904 910.285C56.4249 902.909 35.6338 905.375 29.7857 906.532C21.0496 908.26 14.0694 917.291 21.461 924.682C29.8592 933.081 34.7582 919.974 24.8728 918.541C8.77719 916.208 5.94063 925.054 0.990462 937.783C0.633075 938.702 0.0838678 939.899 0.376346 940.922C0.556256 941.552 2.87358 941.605 2.2187 941.605C-4.29686 941.605 3.65167 952.765 4.9481 955.934C7.18739 961.408 8.13281 966.488 12.5222 970.878C13.9326 972.288 20.3937 971.144 18.4587 971.628C14.8296 972.535 13.5716 983.772 13.2728 986.162C10.5767 1007.73 11.3011 1032.57 15.5928 1053.78C16.7338 1059.42 32.0082 1113.26 46.1622 1089.68C47.2666 1087.83 49.9088 1082.22 46.981 1080.67C43.8671 1079.02 43.0551 1081.19 48.0728 1082.24C60.0571 1084.75 79.1499 1088.22 70.9998 1071.18C69.6417 1068.34 67.3424 1064.63 71.8186 1064.43C78.7399 1064.11 88.3256 1061.27 91.5386 1054.47C94.7176 1047.73 93.6823 1040.62 90.0374 1034.47C85.9705 1027.61 88.2624 1031 91.1974 1022.67C93.701 1015.56 95.3004 1007.94 95.8374 1000.42C96.1856 995.549 98.0817 985.09 93.995 981.181C88.9548 976.36 74.1737 977.464 68.4068 980.226C64.029 982.322 61.537 985.709 61.7198 990.461C61.8686 994.329 65.4742 989.746 65.8821 988.278C67.9443 980.854 44.3095 982.161 40.9763 982.136C33.1222 982.077 22.4637 980.685 23.781 991.553C24.5662 998.03 42.6773 1032.04 46.708 1011.89C47.8103 1006.38 41.8891 1005.15 39.1339 1009.5C33.9476 1017.69 34.3062 1034.69 34.9716 1043.82C35.8234 1055.51 42.1633 1069.86 55.5786 1070.98C58.8584 1071.25 67.6128 1066.78 63.9033 1062.24C55.5046 1051.98 66.8085 1026.97 72.7739 1016.53" stroke="#66A865" stroke-width="5" stroke-linecap="round"/>
</g>
<defs>
<clipPath id="clip0_3896_3810">
<rect width="414" height="1248" fill="white"/>
</clipPath>
</defs>
</svg>
