<svg width="835" height="834" viewBox="0 0 835 834" fill="none" xmlns="http://www.w3.org/2000/svg">
<path d="M834.17 419.774L833.367 438.177C832.923 448.367 827.066 450.454 822.151 450.239C817.655 450.043 813.892 446.816 813.465 442.834L813.285 442.826C812.534 446.277 809.964 451.51 802.471 451.183C796.477 450.921 790.915 447.616 791.436 435.687L792.209 417.944L834.17 419.774ZM829.188 425.202L816.121 424.632L815.627 435.962C815.357 442.136 818.326 444.307 821.802 444.459C824.2 444.563 828.381 443.725 828.686 436.711L829.188 425.202ZM811.385 424.426L796.699 423.785L796.189 435.474C796.02 439.371 796.368 445.151 803.201 445.449C808.596 445.685 810.619 441.989 810.875 436.115L811.385 424.426Z" fill="#FFF6F9"/>
<path d="M831.638 463.685L830.79 469.261L806.054 465.497C800.953 464.721 792.654 463.823 791.065 474.262C789.811 482.507 794.049 485.762 802.769 487.089L827.504 490.853L826.656 496.428L801.209 492.556C784.303 489.984 785.693 478.057 786.379 473.549C788.69 458.364 799.073 458.73 806.191 459.813L831.638 463.685Z" fill="#FFF6F9"/>
<path d="M800.009 520.974L795.579 537.552L774.421 531.897L775.552 527.666L782.102 529.417L782.133 529.301C777.884 525.681 776.256 520.153 777.975 513.719C780.563 504.039 788.695 496.151 804.983 500.504C818.721 504.176 824.007 513.91 820.785 525.967C817.888 536.807 810.021 539.983 803.153 538.955L804.609 533.506C808.397 534.208 813.99 533.032 816.236 524.627C819.66 511.817 807.608 507.416 803.26 506.254C800.304 505.464 785.87 502.538 782.4 515.522C779.735 525.492 787.347 530.011 792.332 531.343L795.43 519.75L800.009 520.974Z" fill="#FFF6F9"/>
<path d="M785.249 541.291L783.21 546.55C778.072 544.364 772.474 547.02 769.697 554.18C767.007 561.117 769.489 565.169 773.237 566.622C778.048 568.488 780.984 564.735 783.177 561.403C788.606 553.212 792.392 545.606 801.399 549.099C808.783 551.963 810.322 559.445 806.894 568.284C803.141 577.961 796.134 580.264 789.919 578.368L791.958 573.11C798.729 574.899 801.563 568.919 802.54 566.402C804.644 560.976 803.537 556.363 799.509 554.801C794.754 552.957 792.17 557.297 789.167 562.053C785.113 568.525 780.578 575.904 771.18 572.26C759.488 567.725 764.128 555.431 765.386 552.186C767.555 546.592 772.648 537.112 785.249 541.291Z" fill="#FFF6F9"/>
<path d="M788.23 607.453L780.646 620.879C778.521 624.64 770.401 638.039 752.639 628.005C734.668 617.854 741.598 604.61 745.11 598.393L751.661 586.796L788.23 607.453ZM781.329 610.032L753.014 594.038L749.148 600.881C743.837 610.284 745.716 617.204 755.485 622.722C766.561 628.979 773.155 624.503 776.666 618.286L781.329 610.032Z" fill="#FFF6F9"/>
<path d="M736.343 633.524L729.808 623.989L733.33 619.058L758.265 656.409L754.777 661.291L711.359 649.817L714.881 644.885L726.02 647.976L736.343 633.524ZM739.294 637.548L730.784 649.461L751.883 655.537L739.294 637.548Z" fill="#FFF6F9"/>
<path d="M730.183 678.961L705.274 656.86L709.018 652.642L740.434 680.517L736.292 685.184L696.57 679.779L721.479 701.88L717.735 706.098L686.319 678.223L690.421 673.601L730.183 678.961Z" fill="#FFF6F9"/>
<path d="M667.582 714.53L663.402 718.316C659.952 713.346 656.368 704.205 666.374 695.143C675.624 686.765 686.62 687.733 695.643 697.694C710.627 714.237 699.018 725.642 696.395 728.019C686.478 737.001 678.751 733.475 673.952 729.16L678.132 725.374C680.409 727.44 686.097 730.95 693.213 724.505C700.995 717.457 697.479 708.66 691.357 701.9C684.791 694.652 675.96 692.856 669.378 698.817C664.398 703.328 663.776 709.881 667.582 714.53Z" fill="#FFF6F9"/>
<path d="M659.013 734.176L641.27 747.216L638.463 743.396L656.206 730.356L647.572 718.608L627.46 733.389L624.653 729.569L649.31 711.448L674.182 745.292L650.056 763.022L647.249 759.203L666.83 744.812L659.013 734.176Z" fill="#FFF6F9"/>
<path d="M628.731 776.387L612.542 785.176C603.578 790.043 598.774 786.097 596.426 781.773C594.279 777.819 595.108 772.931 598.301 770.514L598.216 770.356C594.871 771.489 589.061 771.981 585.483 765.39C582.62 760.117 582.59 753.647 593.083 747.95L608.691 739.476L628.731 776.387ZM621.512 774.913L615.272 763.418L605.306 768.828C599.874 771.777 599.542 775.439 601.202 778.498C602.347 780.607 605.219 783.759 611.388 780.409L621.512 774.913ZM613.01 759.252L605.996 746.333L595.714 751.915C592.286 753.776 587.511 757.052 590.774 763.063C593.351 767.809 597.56 767.64 602.728 764.834L613.01 759.252Z" fill="#FFF6F9"/>
<path d="M589.902 796.654L584.684 798.793L575.193 775.643C573.236 770.869 569.739 763.289 559.969 767.294C552.252 770.458 551.64 775.766 554.985 783.927L564.476 807.078L559.257 809.217L549.494 785.401C543.008 769.578 553.951 764.638 558.171 762.908C572.383 757.082 577.408 766.176 580.139 772.838L589.902 796.654Z" fill="#FFF6F9"/>
<path d="M524.157 798.986L507.645 803.654L501.686 782.581L505.901 781.389L507.745 787.913L507.861 787.88C508.799 782.378 512.717 778.152 519.126 776.34C528.768 773.614 539.705 776.57 544.292 792.794C548.161 806.477 542.498 815.997 530.488 819.393C519.692 822.446 512.939 817.309 510.311 810.881L515.739 809.347C517.072 812.961 520.942 817.166 529.314 814.799C542.074 811.191 539.694 798.583 538.469 794.253C537.637 791.308 532.771 777.408 519.838 781.065C509.908 783.872 509.916 792.724 511.32 797.689L522.867 794.424L524.157 798.986Z" fill="#FFF6F9"/>
<path d="M499.241 796.67L493.681 797.616C492.923 792.085 487.773 788.639 480.202 789.927C472.867 791.174 470.661 795.383 471.335 799.346C472.2 804.433 476.927 805.029 480.913 805.204C490.729 805.665 499.2 805.015 500.819 814.539C502.147 822.347 496.512 827.504 487.166 829.094C476.933 830.834 471.363 825.999 469.804 819.691L475.364 818.745C477.3 825.476 483.887 824.843 486.549 824.39C492.286 823.415 495.679 820.099 494.954 815.84C494.099 810.813 489.049 810.819 483.426 810.68C475.791 810.518 467.13 810.408 465.44 800.47C463.338 788.108 476.272 785.787 479.703 785.203C485.618 784.198 496.368 783.709 499.241 796.67Z" fill="#FFF6F9"/>
<path d="M442.29 833.246L426.874 833.584C422.555 833.679 406.888 833.543 406.441 813.148C405.988 792.513 420.913 791.705 428.052 791.548L441.368 791.256L442.29 833.246ZM436.548 828.631L435.834 796.119L427.976 796.291C417.178 796.528 412.19 801.679 412.437 812.896C412.716 825.613 419.932 828.996 427.07 828.839L436.548 828.631Z" fill="#FFF6F9"/>
<path d="M393.788 801.977L398.625 791.478L404.664 791.975L385.376 832.531L379.396 832.039L366.991 788.877L373.031 789.374L376.088 800.522L393.788 801.977ZM391.845 806.573L377.254 805.374L382.853 826.604L391.845 806.573Z" fill="#FFF6F9"/>
<path d="M351.793 819.935L357.929 787.206L363.472 788.245L355.733 829.526L349.6 828.376L333.798 791.533L327.662 824.263L322.119 823.224L329.858 781.943L335.932 783.082L351.793 819.935Z" fill="#FFF6F9"/>
<path d="M289.019 784.271L283.629 782.611C286.141 777.107 292.17 769.358 305.071 773.332C316.998 777.007 321.781 786.955 317.824 799.8C311.253 821.131 295.52 816.974 292.137 815.932C279.35 811.993 278.435 803.55 279.694 797.22L285.084 798.88C284.47 801.893 284.357 808.576 293.532 811.402C303.567 814.494 309.335 806.979 312.02 798.263C314.899 788.916 311.933 780.406 303.447 777.792C297.024 775.813 291.073 778.626 289.019 784.271Z" fill="#FFF6F9"/>
<path d="M267.82 786.914L247.568 778.269L249.429 773.909L269.681 782.554L275.405 769.145L252.449 759.346L254.31 754.986L282.453 767L265.964 805.628L238.428 793.873L240.289 789.514L262.638 799.054L267.82 786.914Z" fill="#FFF6F9"/>
<path d="M216.148 782.375L200.348 772.906C191.598 767.663 192.552 761.519 195.081 757.299C197.394 753.439 202.024 751.667 205.729 753.188L205.821 753.033C203.145 750.73 199.767 745.978 203.622 739.544C206.707 734.398 212.261 731.081 222.503 737.219L237.737 746.348L216.148 782.375ZM213.746 775.41L220.47 764.19L210.743 758.361C205.442 755.184 202.119 756.76 200.33 759.745C199.096 761.804 197.843 765.879 203.865 769.488L213.746 775.41ZM222.906 760.124L230.463 747.515L220.427 741.501C217.082 739.496 211.832 737.05 208.316 742.917C205.541 747.549 207.827 751.087 212.871 754.11L222.906 760.124Z" fill="#FFF6F9"/>
<path d="M179.136 759.403L174.632 756.009L189.689 736.027C192.794 731.906 197.526 725.028 189.092 718.673C182.431 713.654 177.554 715.839 172.246 722.883L157.189 742.865L152.685 739.471L168.175 718.914C178.466 705.257 188.303 712.144 191.944 714.888C204.212 724.131 198.959 733.096 194.626 738.846L179.136 759.403Z" fill="#FFF6F9"/>
<path d="M143.395 703.95L130.938 692.148L146.001 676.25L149.18 679.263L144.517 684.185L144.604 684.267C149.813 682.259 155.448 683.465 160.282 688.046C167.556 694.938 170.609 705.848 159.012 718.087C149.232 728.409 138.155 728.411 129.095 719.827C120.951 712.11 121.912 703.68 126.092 698.135L130.186 702.014C127.762 705.008 126.127 710.485 132.443 716.469C142.068 725.589 151.686 717.096 154.781 713.829C156.885 711.608 166.343 700.318 156.587 691.074C149.095 683.976 141.493 688.51 137.944 692.256L146.655 700.509L143.395 703.95Z" fill="#FFF6F9"/>
<path d="M132.827 681.565L129.164 677.276C133.524 673.789 133.841 667.601 128.853 661.761C124.022 656.103 119.277 656.368 116.22 658.979C112.296 662.33 114.208 666.694 116.102 670.205C120.74 678.869 125.641 685.808 118.296 692.082C112.273 697.225 104.956 695.032 98.799 687.824C92.0578 679.93 93.3528 672.67 97.9686 668.096L101.631 672.385C96.8455 677.498 100.767 682.829 102.52 684.882C106.3 689.308 110.886 690.52 114.171 687.714C118.049 684.402 115.454 680.07 112.69 675.171C108.914 668.533 104.567 661.041 112.232 654.494C121.768 646.35 130.393 656.264 132.653 658.911C136.549 663.473 142.481 672.452 132.827 681.565Z" fill="#FFF6F9"/>
<path d="M72.9004 652.475L64.7059 639.412C62.4101 635.753 54.4947 622.232 71.7757 611.391C89.26 600.423 97.606 612.823 101.4 618.872L108.479 630.155L72.9004 652.475ZM73.9184 645.178L101.466 627.896L97.2894 621.238C91.5501 612.089 84.5704 610.447 75.0658 616.41C64.2906 623.17 65.0862 631.099 68.8806 637.148L73.9184 645.178Z" fill="#FFF6F9"/>
<path d="M74.912 594.969L86.4056 593.737L89.0767 599.177L44.3684 603.417L41.7238 598.031L72.4156 565.247L75.0867 570.686L67.084 579.028L74.912 594.969ZM69.9697 595.658L63.5168 582.517L48.1625 598.212L69.9697 595.658Z" fill="#FFF6F9"/>
<path d="M38.0048 568.397L69.2701 556.935L71.2114 562.231L31.7777 576.687L29.6299 570.828L53.2128 538.41L21.9475 549.872L20.0062 544.577L59.4399 530.12L61.567 535.923L38.0048 568.397Z" fill="#FFF6F9"/>
<path d="M36.3397 495.869L35.0133 490.387C41.0284 489.734 50.7694 490.957 53.9444 504.078C56.8795 516.208 50.7706 525.403 37.7075 528.564C16.0136 533.813 11.548 518.165 10.7155 514.724C7.56869 501.719 14.3597 496.619 20.4444 494.468L21.7708 499.949C18.8672 500.961 13.0647 504.278 15.3225 513.609C17.7919 523.815 27.199 524.934 36.0632 522.789C45.5688 520.489 51.3693 513.591 49.2809 504.96C47.7004 498.428 42.242 494.749 36.3397 495.869Z" fill="#FFF6F9"/>
<path d="M23.2685 479.777L20.2467 457.966L24.9419 457.315L27.9637 479.127L42.4057 477.126L38.9805 452.402L43.6757 451.752L47.8749 482.062L6.27222 487.826L2.16358 458.169L6.85873 457.519L10.1934 481.589L23.2685 479.777Z" fill="#FFF6F9"/>
<path d="M0.382812 430.462L0.475847 412.043C0.527365 401.843 6.29911 399.532 11.219 399.557C15.719 399.579 19.6035 402.659 20.1835 406.622L20.3635 406.623C20.981 403.146 23.348 397.818 30.8479 397.856C36.8478 397.886 42.5323 400.975 42.472 412.915L42.3823 430.674L0.382812 430.462ZM5.15124 424.846L18.2311 424.912L18.2883 413.573C18.3196 407.393 15.2699 405.337 11.7899 405.32C9.38998 405.308 5.24488 406.307 5.20942 413.327L5.15124 424.846ZM22.971 424.936L37.6708 425.011L37.7299 413.311C37.7496 409.411 37.1787 403.648 30.3388 403.613C24.9389 403.586 23.0598 407.357 23.0301 413.237L22.971 424.936Z" fill="#FFF6F9"/>
<path d="M1.10195 387.939L1.71497 382.332L26.5867 385.052C31.7162 385.612 40.0459 386.161 41.1937 375.664C42.1002 367.373 37.7283 364.3 28.9606 363.341L4.08879 360.621L4.70181 355.015L30.2893 357.813C47.288 359.671 46.4012 371.646 45.9056 376.179C44.2361 391.448 33.8468 391.519 26.6895 390.736L1.10195 387.939Z" fill="#FFF6F9"/>
<path d="M30.248 329.435L33.9848 312.686L55.3593 317.455L54.4054 321.73L47.7882 320.254L47.762 320.371C52.1584 323.811 54.015 329.266 52.5647 335.766C50.3827 345.546 42.5857 353.765 26.1303 350.094C12.2516 346.997 6.5653 337.491 9.283 325.31C11.7263 314.359 19.4542 310.858 26.3585 311.6L25.1303 317.104C21.3171 316.561 15.7777 317.968 13.8831 326.459C10.9956 339.401 23.2206 343.297 27.6126 344.277C30.5992 344.943 45.1424 347.266 48.0691 334.149C50.3165 324.076 42.5236 319.878 37.4874 318.755L34.8742 330.467L30.248 329.435Z" fill="#FFF6F9"/>
<path d="M44.1069 308.438L45.9284 303.1C51.1513 305.073 56.6363 302.19 59.1166 294.921C61.5194 287.88 58.872 283.933 55.0674 282.635C50.1839 280.969 47.4052 284.839 45.3507 288.258C40.2629 296.666 36.7925 304.42 27.6501 301.301C20.1545 298.743 18.3097 291.33 21.3713 282.358C24.7236 272.534 31.6296 269.946 37.9174 271.584L36.0959 276.922C29.257 275.412 26.6712 281.504 25.7992 284.059C23.9196 289.567 25.2154 294.13 29.3039 295.525C34.1306 297.172 36.5339 292.73 39.3388 287.855C43.1238 281.222 47.3517 273.662 56.8916 276.918C68.7596 280.968 64.6296 293.442 63.5057 296.736C61.568 302.414 56.8696 312.096 44.1069 308.438Z" fill="#FFF6F9"/>
<path d="M38.1625 242.721L45.1973 228.999C47.1681 225.155 54.7396 211.439 72.8929 220.745C91.2598 230.162 84.8711 243.675 81.6138 250.029L75.537 261.882L38.1625 242.721ZM44.9535 239.865L73.8921 254.701L77.4779 247.706C82.405 238.096 80.2468 231.258 70.2624 226.139C58.9433 220.336 52.5358 225.075 49.2784 231.429L44.9535 239.865Z" fill="#FFF6F9"/>
<path d="M89.362 213.726L96.2746 222.991L92.953 228.059L66.5397 191.739L69.8285 186.721L113.672 196.444L110.351 201.512L99.0968 198.872L89.362 213.726ZM86.2526 209.823L94.2772 197.578L72.9515 192.354L86.2526 209.823Z" fill="#FFF6F9"/>
<path d="M92.3904 169.7L118.239 190.694L114.683 195.072L82.0815 168.593L86.0155 163.749L125.936 167.418L100.087 146.424L103.643 142.046L136.244 168.525L132.348 173.322L92.3904 169.7Z" fill="#FFF6F9"/>
<path d="M154.16 130.595L158.185 126.645C161.831 131.473 165.777 140.463 156.142 149.919C147.235 158.66 136.209 158.132 126.795 148.54C111.161 132.609 122.304 120.749 124.831 118.27C134.38 108.898 142.242 112.112 147.209 116.231L143.184 120.182C140.827 118.208 135.002 114.929 128.151 121.653C120.657 129.007 124.521 137.657 130.909 144.166C137.759 151.146 146.656 152.587 152.993 146.367C157.79 141.661 158.148 135.088 154.16 130.595Z" fill="#FFF6F9"/>
<path d="M162.222 110.242L179.427 96.4984L182.385 100.202L165.181 113.945L174.28 125.337L193.782 109.759L196.74 113.462L172.832 132.56L146.619 99.7446L170.012 81.0584L172.97 84.7618L153.984 99.928L162.222 110.242Z" fill="#FFF6F9"/>
<path d="M189.171 67.7018L204.988 58.261C213.746 53.0332 218.707 56.7798 221.229 61.0045C223.535 64.8685 222.907 69.7856 219.814 72.3304L219.906 72.485C223.202 71.2166 228.987 70.489 232.831 76.929C235.906 82.081 236.2 88.5438 225.947 94.6634L210.697 103.766L189.171 67.7018ZM196.443 68.8812L203.147 80.1126L212.884 74.3005C218.191 71.1331 218.374 67.46 216.591 64.4718C215.361 62.411 212.363 59.3789 206.335 62.9769L196.443 68.8812ZM205.576 84.1827L213.111 96.8051L223.157 90.8086C226.506 88.8097 231.144 85.3423 227.639 79.469C224.871 74.8322 220.672 75.1724 215.623 78.1861L205.576 84.1827Z" fill="#FFF6F9"/>
<path d="M227.326 45.5123L232.452 43.1596L242.889 65.8987C245.042 70.5883 248.848 78.0178 258.445 73.6127C266.025 70.1337 266.417 64.8041 262.738 56.7881L252.301 34.049L257.427 31.6963L268.164 55.0898C275.298 70.6309 264.567 76.0184 260.423 77.9206C246.463 84.328 241.067 75.4494 238.064 68.9058L227.326 45.5123Z" fill="#FFF6F9"/>
<path d="M293.948 39.9116L310.251 34.5571L317.084 55.3636L312.923 56.7303L310.807 50.2889L310.693 50.3263C309.986 55.8636 306.248 60.249 299.92 62.3271C290.4 65.4537 279.35 62.9573 274.089 46.9391C269.652 33.4291 274.913 23.6808 286.769 19.7866C297.429 16.2856 304.39 21.1357 307.284 27.4478L301.926 29.2076C300.443 25.653 296.4 21.6127 288.134 24.3274C275.536 28.465 278.441 40.9626 279.845 45.2379C280.8 48.1451 286.242 61.8303 299.011 57.6366C308.816 54.4164 308.437 45.5729 306.827 40.6705L295.427 44.415L293.948 39.9116Z" fill="#FFF6F9"/>
<path d="M317.482 41.4492L322.998 40.27C323.988 45.7643 329.28 48.9893 336.79 47.3836C344.065 45.8281 346.092 41.5295 345.251 37.5983C344.172 32.5524 339.424 32.1562 335.435 32.1502C325.608 32.1037 317.172 33.1098 315.152 23.6632C313.496 15.9183 318.909 10.5275 328.18 8.54548C338.33 6.37528 344.098 10.9708 345.923 17.2073L340.407 18.3865C338.189 11.7434 331.635 12.6539 328.995 13.2184C323.303 14.4352 320.054 17.8909 320.957 22.1154C322.023 27.1027 327.069 26.883 332.693 26.785C340.328 26.6251 348.986 26.3693 351.093 36.2265C353.715 48.4894 340.891 51.354 337.488 52.0816C331.62 53.336 320.9 54.2781 317.482 41.4492Z" fill="#FFF6F9"/>
<path d="M373.017 2.27086L388.405 1.27829C392.716 1.00021 408.374 0.471201 409.687 20.8289C411.016 41.4261 396.138 42.8668 389.013 43.3264L375.72 44.1838L373.017 2.27086ZM378.95 6.63799L381.043 39.0905L388.887 38.5846C399.665 37.8894 404.43 32.5316 403.707 21.3349C402.889 8.64124 395.536 5.56817 388.41 6.02777L378.95 6.63799Z" fill="#FFF6F9"/>
<path d="M422.455 31.3115L418.066 42.0056L412.011 41.7649L429.567 0.429688L435.562 0.668038L449.781 43.2665L443.726 43.0258L440.201 32.017L422.455 31.3115ZM424.202 26.6372L438.83 27.2188L432.338 6.24436L424.202 26.6372Z" fill="#FFF6F9"/>
<path d="M465.343 11.5983L460.459 44.5383L454.88 43.7112L461.04 2.16524L467.212 3.08034L484.408 39.2935L489.291 6.35357L494.87 7.18067L488.711 48.7266L482.597 47.8203L465.343 11.5983Z" fill="#FFF6F9"/>
<path d="M527.807 44.1446L533.261 45.5803C530.979 51.1841 525.277 59.1759 512.222 55.7395C500.153 52.5628 494.962 42.8205 498.383 29.8232C504.064 8.23843 519.957 11.7391 523.38 12.6402C536.319 16.046 537.583 24.4443 536.587 30.8209L531.133 29.3852C531.622 26.3497 531.457 19.6677 522.174 17.224C512.019 14.5513 506.568 22.2988 504.246 31.1184C501.757 40.5763 505.073 48.9564 513.66 51.2168C520.159 52.9273 525.989 49.8706 527.807 44.1446Z" fill="#FFF6F9"/>
<path d="M550.91 41.1306L571.499 48.9391L569.818 53.3711L549.229 45.5626L544.059 59.1951L567.396 68.0461L565.716 72.4781L537.104 61.627L551.998 22.3564L579.992 32.9735L578.311 37.4054L555.59 28.7884L550.91 41.1306Z" fill="#FFF6F9"/>
<path d="M601.731 42.9326L617.9 51.7557C626.854 56.6414 626.149 62.8185 623.792 67.1373C621.637 71.0875 617.083 73.0453 613.319 71.6752L613.233 71.8332C616 74.0268 619.567 78.6387 615.975 85.2223C613.101 90.4892 607.684 94.0271 597.203 88.3079L581.613 79.801L601.731 42.9326ZM604.411 49.795L598.146 61.2769L608.101 66.7086C613.525 69.6688 616.782 67.9598 618.449 64.905C619.598 62.7983 620.686 58.6755 614.524 55.313L604.411 49.795ZM595.876 65.4377L588.834 78.3417L599.105 83.9459C602.528 85.8139 607.872 88.0463 611.148 82.042C613.735 77.3018 611.308 73.8584 606.146 71.0419L595.876 65.4377Z" fill="#FFF6F9"/>
<path d="M639.713 64.2141L644.35 67.4251L630.106 87.9944C627.168 92.2365 622.716 99.2979 631.397 105.31C638.254 110.058 643.039 107.679 648.061 100.428L662.305 79.859L666.942 83.07L652.287 104.231C642.552 118.289 632.448 111.803 628.699 109.207C616.071 100.462 620.96 91.2946 625.059 85.3754L639.713 64.2141Z" fill="#FFF6F9"/>
<path d="M677.262 117.583L690.221 128.831L675.865 145.37L672.557 142.499L677.002 137.378L676.911 137.3C671.795 139.533 666.113 138.573 661.083 134.207C653.516 127.639 649.991 116.873 661.043 104.14C670.364 93.4013 681.43 92.917 690.855 101.098C699.329 108.452 698.736 116.916 694.802 122.638L690.542 118.941C692.833 115.844 694.228 110.301 687.658 104.599C677.644 95.9066 668.405 104.811 665.456 108.209C663.45 110.52 654.494 122.211 664.643 131.021C672.437 137.786 679.834 132.925 683.217 129.028L674.154 121.162L677.262 117.583Z" fill="#FFF6F9"/>
<path d="M689.956 140.471L693.787 144.609C689.571 148.268 689.502 154.465 694.719 160.1C699.774 165.559 704.504 165.105 707.454 162.374C711.24 158.868 709.155 154.585 707.122 151.152C702.141 142.681 696.966 135.943 704.054 129.38C709.866 124 717.265 125.898 723.706 132.855C730.758 140.471 729.755 147.778 725.326 152.532L721.494 148.394C726.071 143.093 721.94 137.924 720.105 135.943C716.151 131.672 711.521 130.644 708.351 133.579C704.608 137.044 707.375 141.269 710.333 146.053C714.371 152.535 719.015 159.847 711.618 166.695C702.417 175.214 693.402 165.654 691.037 163.1C686.961 158.697 680.674 149.964 689.956 140.471Z" fill="#FFF6F9"/>
<path d="M751.602 167.769L760.319 180.489C762.761 184.052 771.217 197.242 754.389 208.773C737.363 220.44 728.522 208.388 724.486 202.498L716.956 191.51L751.602 167.769ZM750.88 175.101L724.054 193.483L728.497 199.967C734.602 208.876 741.643 210.234 750.898 203.892C761.391 196.701 760.275 188.811 756.239 182.921L750.88 175.101Z" fill="#FFF6F9"/>
<path d="M751.744 224.979L740.311 226.681L737.419 221.355L781.917 215.289L784.779 220.562L755.455 254.575L752.563 249.249L760.218 240.588L751.744 224.979ZM756.654 224.089L763.639 236.955L778.339 220.645L756.654 224.089Z" fill="#FFF6F9"/>
<path d="M789.574 249.621L758.81 262.368L756.651 257.157L795.452 241.08L797.841 246.845L775.621 280.212L806.385 267.465L808.544 272.675L769.742 288.752L767.377 283.043L789.574 249.621Z" fill="#FFF6F9"/>
<path d="M794.345 322.132L795.901 327.553C789.918 328.458 780.134 327.644 776.412 314.667C772.971 302.671 778.689 293.229 791.608 289.523C813.063 283.368 818.18 298.816 819.156 302.219C822.846 315.08 816.275 320.46 810.286 322.865L808.73 317.444C811.589 316.312 817.247 312.754 814.6 303.526C811.705 293.433 802.259 292.709 793.493 295.224C784.092 297.921 778.586 305.055 781.034 313.591C782.887 320.051 788.495 323.498 794.345 322.132Z" fill="#FFF6F9"/>
<path d="M808.356 338.97L812.214 360.649L807.547 361.48L803.689 339.8L789.335 342.355L793.708 366.929L789.041 367.759L783.68 337.632L825.03 330.274L830.276 359.751L825.609 360.581L821.352 336.657L808.356 338.97Z" fill="#FFF6F9"/>
</svg>
