<svg width="39" height="56" viewBox="0 0 39 56" fill="none" xmlns="http://www.w3.org/2000/svg">
<path d="M6.42857 56C2.22857 56 0 53.7155 0 49.2035V29.5278C0 25.5584 1.74286 23.331 5 22.8455V15.9347C5 5.19735 12.0286 0 19.4857 0C26.9714 0 34 5.19735 34 15.9347V22.8455C37.2857 23.331 39 25.5869 39 29.5278V49.2035C39 53.7155 36.7714 56 32.5714 56H6.42857ZM9.54286 15.335V22.7598H29.4857V15.335C29.4857 8.11015 24.8286 4.31209 19.4857 4.31209C14.1429 4.31209 9.54286 8.11015 9.54286 15.335Z" fill="#963B50"/>
</svg>
